<svg preserveAspectRatio="none" width="100%" height="100%" overflow="visible" style="display: block;" viewBox="0 0 48 48" fill="none" xmlns="http://www.w3.org/2000/svg">
<g id="ic_air_filled">
<path id="Subtract" d="M42 35C42 37.2091 40.2091 39 38 39H10C7.79086 39 6 37.2091 6 35V26.25H42V35ZM26 9C34.4159 9 41.3134 15.4977 41.9512 23.75H6.04883C6.68656 15.4977 13.5841 9 22 9H26ZM20 16.75C19.3096 16.75 18.75 17.3096 18.75 18C18.75 18.6904 19.3096 19.25 20 19.25H28C28.6904 19.25 29.25 18.6904 29.25 18C29.25 17.3096 28.6904 16.75 28 16.75H20Z" fill="var(--fill-0, #212121)"/>
</g>
</svg>
