<svg preserveAspectRatio="none" width="100%" height="100%" overflow="visible" style="display: block;" viewBox="0 0 48 48" fill="none" xmlns="http://www.w3.org/2000/svg">
<g id="ic_profile">
<path id="Union" d="M24 26C31 26 41 28.68 41 34C41 37.3137 38.3137 40 35 40H13L12.6914 39.9922C9.52111 39.8316 7 37.2102 7 34C7 28.68 17 26 24 26ZM24 28.5C20.758 28.5 16.8286 29.1301 13.7949 30.3301C12.2758 30.931 11.128 31.6171 10.3984 32.3135C9.69614 32.9839 9.5 33.5355 9.5 34C9.5 35.933 11.067 37.5 13 37.5H35C36.933 37.5 38.5 35.933 38.5 34C38.5 33.5355 38.3039 32.9839 37.6016 32.3135C36.872 31.6171 35.7242 30.931 34.2051 30.3301C31.1714 29.1301 27.242 28.5 24 28.5ZM24 7C28.4183 7 32 10.5817 32 15C32 19.4183 28.4183 23 24 23C19.5817 23 16 19.4183 16 15C16 10.5817 19.5817 7 24 7ZM24 9.5C20.9624 9.5 18.5 11.9624 18.5 15C18.5 18.0376 20.9624 20.5 24 20.5C27.0376 20.5 29.5 18.0376 29.5 15C29.5 11.9624 27.0376 9.5 24 9.5Z" fill="var(--fill-0, #999999)"/>
</g>
</svg>
