<svg preserveAspectRatio="none" width="100%" height="100%" overflow="visible" style="display: block;" viewBox="0 0 48 48" fill="none" xmlns="http://www.w3.org/2000/svg">
<g id="ic_feedback">
<path id="Vector" d="M41.6651 28.7635L38.2365 25.3349C38.1305 25.2287 38.0045 25.1445 37.8659 25.087C37.7272 25.0296 37.5786 25 37.4285 25C37.2785 25 37.1299 25.0296 36.9912 25.087C36.8526 25.1445 36.7266 25.2287 36.6205 25.3349L26 35.9553V41H31.0447L41.6651 30.3795C41.7713 30.2734 41.8555 30.1474 41.913 30.0088C41.9704 29.8701 42 29.7215 42 29.5715C42 29.4214 41.9704 29.2728 41.913 29.1341C41.8555 28.9955 41.7713 28.8695 41.6651 28.7635V28.7635ZM30.0982 38.7143H28.2857V36.9018L34 31.1876L35.8124 33L30.0982 38.7143ZM37.4285 31.3839L35.6161 29.5715L37.4285 27.759L39.241 29.5715L37.4285 31.3839Z" fill="var(--fill-0, #212121)"/>
<path id="Vector 709" d="M38 21V11C38 9.34315 36.6569 8 35 8H13C11.3431 8 10 9.34315 10 11V37C10 38.6569 11.3431 40 13 40H21.4545" stroke="var(--stroke-0, #212121)" stroke-width="2.5"/>
<path id="inner-path" d="M25.5 24V26.5C25.5 26.7761 25.2761 27 25 27H23.5C23.2239 27 23 26.7761 23 26.5V23C23 22.4477 23.4477 22 24 22H25C25.6227 22 26.2718 21.6691 26.7121 21.2288C27.1525 20.7884 27.3998 20.1912 27.3998 19.5685C27.3998 18.9458 27.1525 18.3486 26.7121 17.9083C26.2718 17.468 25.6746 17.2206 25.0519 17.2206H23.5698C22.9476 17.2213 22.3512 17.4687 21.9112 17.9087C21.4713 18.3486 21.2239 18.9451 21.2231 19.5672V20.5C21.2231 20.7761 20.9993 21 20.7231 21H19.5C19.2239 21 19 20.7761 19 20.5V19.5671C19.0015 18.3558 19.4835 17.1946 20.3402 16.3384C21.197 15.4821 22.3585 15.0008 23.5698 15H25.0519C26.2535 14.9991 27.407 15.4716 28.2627 16.3152C29.1183 17.1587 29.6072 18.3054 29.6235 19.5069C29.6397 20.7083 29.182 21.8678 28.3494 22.7342C27.5169 23.6005 26.5 24 25.5 24Z" fill="var(--fill-0, #212121)"/>
<rect id="Rectangle 5272" x="23" y="29" width="2.5" height="2.5" rx="0.5" fill="var(--fill-0, #212121)"/>
</g>
</svg>
