<svg preserveAspectRatio="none" width="100%" height="100%" overflow="visible" style="display: block;" viewBox="0 0 32 32" fill="none" xmlns="http://www.w3.org/2000/svg">
<g id="ic_wifi_full">
<path id="Union" d="M16.0004 22C16.8286 22.0003 17.5004 22.6717 17.5004 23.5C17.5004 24.3283 16.8286 24.9998 16.0004 25C15.1719 25 14.5004 24.3284 14.5004 23.5C14.5004 22.6716 15.1719 22 16.0004 22ZM16.0004 15C18.8914 15.0001 21.494 16.2289 23.3197 18.1904L21.9486 19.6533C20.4842 18.0252 18.3625 17.0001 16.0004 17C13.6375 17 11.5136 18.0245 10.0492 19.6533L8.67906 18.1904C10.5049 16.2284 13.1088 15 16.0004 15ZM16.0004 8.00001C20.7252 8.00013 24.971 10.0489 27.8998 13.3057L26.5257 14.7705C23.9599 11.8466 20.1961 10.0001 16.0004 10C11.804 10 8.03797 11.8459 5.47203 14.7705L4.09898 13.3057C7.02789 10.0484 11.2751 8.00001 16.0004 8.00001Z" fill="var(--fill-0, #212121)"/>
</g>
</svg>
