<svg preserveAspectRatio="none" width="100%" height="100%" overflow="visible" style="display: block;" viewBox="0 0 48 48" fill="none" xmlns="http://www.w3.org/2000/svg">
<g id="ic_recipe">
<path id="Vector" d="M11.5401 33V26.1318C10.627 25.9236 9.76128 25.5152 8.99452 24.931C8.22777 24.3468 7.57566 23.5987 7.07703 22.7313C6.5784 21.8639 6.24345 20.8949 6.09212 19.882C5.9408 18.8691 5.97619 17.833 6.19619 16.8355C6.47779 15.5573 7.05633 14.3815 7.8751 13.4235C8.69386 12.4656 9.72474 11.7583 10.8666 11.3711C12.0085 10.9838 13.2223 10.9299 14.3888 11.2146C15.5553 11.4993 16.6346 12.1129 17.5209 12.9951C18.0046 11.5312 18.8858 10.2666 20.0449 9.37295C21.2041 8.47934 22.5849 8 24 8C25.4151 8 26.7959 8.47934 27.9551 9.37295C29.1142 10.2666 29.9954 11.5312 30.4791 12.9951C31.3654 12.1129 32.4447 11.4993 33.6112 11.2146C34.7777 10.9299 35.9915 10.9838 37.1334 11.3711C38.2753 11.7583 39.3061 12.4656 40.1249 13.4235C40.9437 14.3815 41.5222 15.5573 41.8038 16.8355C42.0238 17.833 42.0592 18.8691 41.9079 19.882C41.7565 20.8949 41.4216 21.8639 40.923 22.7313C40.4243 23.5987 39.7722 24.3468 39.0055 24.931C38.2387 25.5152 37.373 25.9236 36.4599 26.1318V33M11.5401 33V36.952C11.5401 37.7604 11.8318 38.5357 12.3511 39.1073C12.8703 39.6789 13.5746 40 14.309 40H33.691C34.4254 40 35.1296 39.6789 35.6489 39.1073C36.1682 38.5357 36.4599 37.7604 36.4599 36.952V33M11.5401 33H36.4599" stroke="var(--stroke-0, #999999)" stroke-width="2.5" stroke-linecap="round" stroke-linejoin="round"/>
</g>
</svg>
