<svg preserveAspectRatio="none" width="100%" height="100%" overflow="visible" style="display: block;" viewBox="0 0 80 80" fill="none" xmlns="http://www.w3.org/2000/svg">
<g id="Icon" clip-path="url(#clip0_0_169)">
<circle id="Ellipse 396" cx="40" cy="40" r="40" fill="var(--fill-0, #F0F0F0)"/>
<g id="ic_wifi" clip-path="url(#clip1_0_169)">
<path id="Ellipse 368" d="M51.1869 45.0518C51.8355 44.707 52.0869 43.8974 51.6821 43.2844C50.5513 41.5723 49.0547 40.1249 47.2941 39.0503C45.1541 37.744 42.7025 37.0364 40.1955 37.0014C37.6885 36.9664 35.2181 37.6052 33.0424 38.8513C31.2525 39.8764 29.7161 41.2814 28.5379 42.9613C28.1162 43.5627 28.3448 44.3789 28.9835 44.7418V44.7418C29.6222 45.1046 30.428 44.8752 30.8631 44.2834C31.7967 43.0133 32.988 41.9478 34.3643 41.1595C36.1266 40.1502 38.1277 39.6327 40.1583 39.6611C42.189 39.6895 44.1748 40.2626 45.9083 41.3207C47.262 42.1471 48.4231 43.2455 49.3209 44.5411C49.7392 45.1449 50.5384 45.3966 51.1869 45.0518V45.0518Z" fill="var(--fill-0, #212121)"/>
<path id="Ellipse 367" d="M58.3485 37.669C58.9383 37.2405 59.0718 36.4124 58.6115 35.8471C56.5046 33.2592 53.8778 31.1353 50.8958 29.6158C47.5211 27.8964 43.7875 27 40 27C36.2126 27 32.4789 27.8964 29.1042 29.6158C26.1222 31.1352 23.4954 33.2592 21.3885 35.8471C20.9282 36.4124 21.0617 37.2405 21.6515 37.669V37.669C22.2413 38.0975 23.0637 37.9638 23.5278 37.4016C25.3872 35.1492 27.692 33.2983 30.3028 31.9681C33.3062 30.4378 36.6292 29.64 40 29.64C43.3708 29.64 46.6938 30.4378 49.6972 31.9681C52.308 33.2983 54.6128 35.1492 56.4722 37.4016C56.9363 37.9638 57.7587 38.0975 58.3485 37.669V37.669Z" fill="var(--fill-0, #212121)"/>
<circle id="Ellipse 369" cx="40" cy="51" r="3" fill="var(--fill-0, #212121)"/>
</g>
</g>
<defs>
<clipPath id="clip0_0_169">
<rect width="80" height="80" fill="white"/>
</clipPath>
<clipPath id="clip1_0_169">
<rect width="48" height="48" fill="white" transform="translate(16 16)"/>
</clipPath>
</defs>
</svg>
