<svg preserveAspectRatio="none" width="100%" height="100%" overflow="visible" style="display: block;" viewBox="0 0 36 36" fill="none" xmlns="http://www.w3.org/2000/svg">
<g id="ic_help">
<circle id="Ellipse 338" cx="18" cy="18" r="12.6" stroke="var(--stroke-0, #999999)" stroke-width="1.8"/>
<path id="inner-path" d="M19.125 18.75V20.625C19.125 20.8321 18.9571 21 18.75 21H17.625C17.4179 21 17.25 20.8321 17.25 20.625V18C17.25 17.5858 17.5858 17.25 18 17.25H18.75C19.217 17.25 19.7039 17.0018 20.0341 16.6716C20.3643 16.3413 20.5499 15.8934 20.5499 15.4264C20.5499 14.9594 20.3643 14.5114 20.0341 14.1812C19.7039 13.851 19.256 13.6654 18.7889 13.6654H17.6774C17.2107 13.666 16.7634 13.8516 16.4334 14.1815C16.1035 14.5115 15.9179 14.9588 15.9174 15.4254V16.125C15.9174 16.3321 15.7495 16.5 15.5424 16.5H14.625C14.4179 16.5 14.25 16.3321 14.25 16.125V15.4254C14.2511 14.5169 14.6126 13.646 15.2552 13.0038C15.8978 12.3616 16.7689 12.0006 17.6774 12H18.7889C19.6901 11.9993 20.5552 12.3537 21.197 12.9864C21.8387 13.619 22.2054 14.4791 22.2176 15.3801C22.2298 16.2812 21.8865 17.1508 21.2621 17.8006C20.6377 18.4504 19.875 18.75 19.125 18.75Z" fill="var(--fill-0, #999999)"/>
<rect id="Rectangle 5272" x="17.25" y="22.5" width="1.875" height="1.875" rx="0.375" fill="var(--fill-0, #999999)"/>
</g>
</svg>
