<svg preserveAspectRatio="none" width="100%" height="100%" overflow="visible" style="display: block;" viewBox="0 0 40 40" fill="none" xmlns="http://www.w3.org/2000/svg">
<g id="ic_invisible">
<path id="Union" d="M4.94941 4.94947C5.43753 4.46135 6.22882 4.46142 6.71699 4.94947L35.05 33.2825C35.5381 33.7706 35.5381 34.5619 35.05 35.0501C34.5618 35.5382 33.7706 35.5382 33.2824 35.0501L27.5783 29.346C25.3545 30.2897 22.7656 30.8342 20.0002 30.8342L19.2287 30.8196C11.3032 30.5296 5.00061 25.7962 5.00019 20.0002C5.00032 16.7585 6.97232 13.8496 10.0969 11.8645L4.94941 6.71705C4.46137 6.22889 4.46132 5.43759 4.94941 4.94947ZM11.9182 13.6858C11.5444 13.9001 11.1899 14.1274 10.8576 14.3674C8.61117 15.9899 7.50031 18.0135 7.50019 20.0002C7.5004 21.987 8.61113 24.0116 10.8576 25.634C13.101 27.2541 16.3254 28.3342 20.0002 28.3342C22.0539 28.3342 23.9655 27.9936 25.6447 27.4124L22.5373 24.3049C21.7935 24.7449 20.9272 25.0002 20.0002 25.0002C17.239 25.0002 15.0005 22.7614 15.0002 20.0002C15.0002 19.0732 15.2537 18.2054 15.6935 17.4612L11.9182 13.6858ZM20.0002 9.16724C28.2842 9.16732 34.9999 14.0174 35.0002 20.0002C35 22.5267 33.7988 24.848 31.7912 26.6907L30.0226 24.9221C31.6777 23.4386 32.5 21.7069 32.5002 20.0002C32.5001 18.0136 31.3891 15.9899 29.1428 14.3674C26.8994 12.7472 23.6752 11.6673 20.0002 11.6672C18.9653 11.6672 17.9664 11.7551 17.0148 11.9143L14.9084 9.80787C16.4982 9.39356 18.2126 9.16724 20.0002 9.16724ZM17.5861 19.3538C17.531 19.5599 17.5002 19.7767 17.5002 20.0002C17.5005 21.3807 18.6197 22.5002 20.0002 22.5002C20.2237 22.5002 20.4397 22.4684 20.6457 22.4133L17.5861 19.3538Z" fill="var(--fill-0, #999999)"/>
</g>
</svg>
