<svg preserveAspectRatio="none" width="100%" height="100%" overflow="visible" style="display: block;" viewBox="0 0 60 60" fill="none" xmlns="http://www.w3.org/2000/svg">
<g id="Settings">
<circle id="Ellipse 444" cx="30" cy="30" r="29.5" stroke="var(--stroke-0, #E6E6E6)"/>
<g id="ic_settings">
<path id="Union" d="M28.8896 17H31.9268C32.7058 17 33.4138 17.3714 33.8252 17.959L35.6338 20.543C35.8085 20.7926 36.0885 20.9481 36.3926 20.9668L39.2197 21.1406C39.9964 21.1885 40.6751 21.6018 41.0439 22.21L42.5625 24.7148C42.9283 25.3182 42.9525 26.0483 42.6299 26.6699L41.2119 29.4004C41.0622 29.689 41.0622 30.0326 41.2119 30.3213L42.7744 33.3301C43.097 33.9517 43.0728 34.6818 42.707 35.2852L41.1885 37.79C40.8196 38.3983 40.1401 38.8117 39.3633 38.8594L36.3857 39.042C36.1196 39.0583 35.8729 39.1805 35.6982 39.3779L35.6279 39.4668L33.8252 42.041C33.4138 42.6286 32.7058 43 31.9268 43H28.8896C28.1107 42.9999 27.4025 42.6286 26.9912 42.041L25.1436 39.4023C24.9688 39.1529 24.6898 38.9962 24.3857 38.9775L20.6367 38.7471C19.8597 38.6993 19.1804 38.2862 18.8115 37.6777L17.293 35.1738C16.9271 34.5704 16.9028 33.8395 17.2256 33.2178L18.7295 30.3213C18.8794 30.0325 18.8794 29.6892 18.7295 29.4004L17.3701 26.7822C17.0473 26.1605 17.0717 25.4296 17.4375 24.8262L18.9561 22.3223C19.3249 21.7139 20.0035 21.3008 20.7803 21.2529L24.3799 21.0312C24.6839 21.0125 24.963 20.856 25.1377 20.6064L26.9912 17.959C27.4025 17.3714 28.1107 17.0001 28.8896 17Z" stroke="var(--stroke-0, #212121)" stroke-width="2" stroke-linecap="round" stroke-linejoin="round"/>
<circle id="Ellipse 364" cx="30" cy="30" r="4" stroke="var(--stroke-0, #212121)" stroke-width="2"/>
</g>
</g>
</svg>
