<svg width="750" height="646" viewBox="0 0 750 646" fill="none" xmlns="http://www.w3.org/2000/svg">
<rect width="750" height="646" fill="#F5F5F5"/>
<g id="Pair">
<path d="M-11140 -1722V-1710H3990V-1722V-1734H-11140V-1722ZM4150 -1562H4138V2810H4150H4162V-1562H4150ZM3990 2970V2958H-11140V2970V2982H3990V2970ZM-11300 2810H-11288V-1562H-11300H-11312V2810H-11300ZM-11140 2970V2958C-11221.7 2958 -11288 2891.74 -11288 2810H-11300H-11312C-11312 2904.99 -11235 2982 -11140 2982V2970ZM4150 2810H4138C4138 2891.74 4071.74 2958 3990 2958V2970V2982C4084.99 2982 4162 2904.99 4162 2810H4150ZM3990 -1722V-1710C4071.74 -1710 4138 -1643.74 4138 -1562H4150H4162C4162 -1656.99 4084.99 -1734 3990 -1734V-1722ZM-11140 -1722V-1734C-11235 -1734 -11312 -1656.99 -11312 -1562H-11300H-11288C-11288 -1643.74 -11221.7 -1710 -11140 -1710V-1722Z" fill="#999999" fill-opacity="0.5"/>
<g id="Connect">
<rect width="750" height="1624" transform="translate(0 -978)" fill="white"/>
<g id="AlphabeticKeyboard" clip-path="url(#clip0_0_1)">
<rect width="750" height="646" fill="#D1D3D9"/>
<g id="Keys">
<g id="Top Row">
<g id="_Key">
<g id="_KeyContainer" filter="url(#filter1_d_0_1)">
<rect x="5.76953" y="103.84" width="63.4615" height="80.7692" rx="8.84615" fill="white"/>
</g>
<path id="Letter" d="M44.7647 162.463V148.693H44.6914C43.3486 151.989 40.126 154.333 36.0488 154.333C29.6523 154.333 25.2822 149.133 25.2822 141.223V141.174C25.2822 133.288 29.7012 128.112 36.0977 128.112C40.1504 128.112 43.2998 130.554 44.6914 133.898H44.7647V128.527H48.0117V162.463H44.7647ZM36.6836 151.452C41.4688 151.452 44.7647 147.351 44.7647 141.198V141.174C44.7647 135.07 41.4443 130.993 36.6836 130.993C31.7764 130.993 28.6025 135.021 28.6025 141.174V141.223C28.6025 147.448 31.7764 151.452 36.6836 151.452Z" fill="#212121"/>
</g>
<g id="_Key_2">
<g id="_KeyContainer_2" filter="url(#filter2_d_0_1)">
<rect x="80.7695" y="103.84" width="63.4615" height="80.7692" rx="8.84615" fill="white"/>
</g>
<path id="Letter_2" d="M102.504 153.918L95.2773 128.527H98.5488L104.237 150.305H104.311L110.634 128.527H113.905L120.229 150.305H120.302L125.99 128.527H129.237L122.035 153.918H118.617L112.294 132.849H112.221L105.922 153.918H102.504Z" fill="#212121"/>
</g>
<g id="_Key_3">
<g id="_KeyContainer_3" filter="url(#filter3_d_0_1)">
<rect x="155.77" y="103.84" width="63.4615" height="80.7692" rx="8.84615" fill="white"/>
</g>
<path id="Letter_3" d="M187.636 154.382C180.507 154.382 176.088 149.328 176.088 141.296V141.271C176.088 133.312 180.58 128.063 187.367 128.063C194.154 128.063 198.427 133.142 198.427 140.734V142.004H179.359C179.457 148.059 182.704 151.501 187.709 151.501C191.444 151.501 194.032 149.621 194.862 146.862L194.911 146.643H198.109L198.061 146.887C197.182 151.232 193.129 154.382 187.636 154.382ZM187.343 130.944C183.021 130.944 179.799 134.045 179.408 139.44H195.18C194.813 133.898 191.688 130.944 187.343 130.944Z" fill="#212121"/>
</g>
<g id="_Key_4">
<g id="_KeyContainer_4" filter="url(#filter4_d_0_1)">
<rect x="230.77" y="103.84" width="63.4615" height="80.7692" rx="8.84615" fill="white"/>
</g>
<path id="Letter_4" d="M257.533 153.918V128.527H260.756V133.093H260.854C261.757 129.992 264.003 128.063 267.079 128.063C267.934 128.063 268.69 128.234 269.081 128.356V131.506C268.666 131.335 267.763 131.164 266.664 131.164C263.051 131.164 260.756 133.898 260.756 138.195V153.918H257.533Z" fill="#212121"/>
</g>
<g id="_Key_5">
<g id="_KeyContainer_5" filter="url(#filter5_d_0_1)">
<rect x="305.77" y="103.84" width="63.4615" height="80.7692" rx="8.84615" fill="white"/>
</g>
<path id="Letter_5" d="M340.517 154.382C336.342 154.382 334.291 152.404 334.291 147.961V131.237H330.556V128.527H334.291V121.667H337.611V128.527H342.641V131.237H337.611V147.912C337.611 150.72 338.808 151.672 341.176 151.672C341.762 151.672 342.274 151.599 342.641 151.55V154.187C342.128 154.284 341.298 154.382 340.517 154.382Z" fill="#212121"/>
</g>
<g id="_Key_6">
<g id="_KeyContainer_6" filter="url(#filter6_d_0_1)">
<rect x="380.77" y="103.84" width="63.4615" height="80.7692" rx="8.84615" fill="white"/>
</g>
<path id="Letter_6" d="M405.165 162.463C404.53 162.463 403.847 162.39 403.383 162.316V159.655C403.7 159.704 404.115 159.753 404.53 159.753C407.387 159.753 408.876 158.825 409.999 155.725L410.609 154.089L401.063 128.527H404.53L412.221 150.695H412.318L420.033 128.527H423.451L413.271 155.944C411.586 160.461 409.511 162.463 405.165 162.463Z" fill="#212121"/>
</g>
<g id="_Key_7">
<g id="_KeyContainer_7" filter="url(#filter7_d_0_1)">
<rect x="455.77" y="103.84" width="63.4615" height="80.7692" rx="8.84615" fill="white"/>
</g>
<path id="Letter_7" d="M485.902 154.357C480.287 154.357 476.942 150.744 476.942 144.787V128.527H480.189V144.25C480.189 148.962 482.533 151.477 486.83 151.477C491.273 151.477 494.203 148.303 494.203 143.566V128.527H497.45V153.918H494.203V149.597H494.13C492.836 152.331 490.004 154.357 485.902 154.357Z" fill="#212121"/>
</g>
<g id="_Key_8">
<g id="_KeyContainer_8" filter="url(#filter8_d_0_1)">
<rect x="530.77" y="103.84" width="63.4615" height="80.7692" rx="8.84615" fill="white"/>
</g>
<path id="Letter_8" d="M562.27 123.938C561.073 123.938 560.121 122.985 560.121 121.789C560.121 120.593 561.073 119.665 562.27 119.665C563.441 119.665 564.394 120.593 564.394 121.789C564.394 122.985 563.441 123.938 562.27 123.938ZM560.634 153.918V128.527H563.881V153.918H560.634Z" fill="#212121"/>
</g>
<g id="_Key_9">
<g id="_KeyContainer_9" filter="url(#filter9_d_0_1)">
<rect x="605.77" y="103.84" width="63.4615" height="80.7692" rx="8.84615" fill="white"/>
</g>
<path id="Letter_9" d="M637.27 154.382C630.336 154.357 625.697 149.279 625.697 141.223V141.174C625.697 133.117 630.36 128.063 637.27 128.063C644.154 128.063 648.842 133.093 648.842 141.174V141.223C648.842 149.304 644.179 154.382 637.27 154.382ZM637.294 151.501C642.25 151.501 645.546 147.644 645.546 141.223V141.174C645.546 134.753 642.226 130.944 637.27 130.944C632.313 130.944 629.018 134.777 629.018 141.174V141.223C629.018 147.668 632.289 151.477 637.294 151.501Z" fill="#212121"/>
</g>
<g id="_Key_10">
<g id="_KeyContainer_10" filter="url(#filter10_d_0_1)">
<rect x="680.77" y="103.84" width="63.4615" height="80.7692" rx="8.84615" fill="white"/>
</g>
<path id="Letter_10" d="M701.527 162.463V128.527H704.75V133.898H704.848C706.264 130.456 709.389 128.063 713.466 128.063C719.911 128.063 724.232 133.288 724.232 141.223V141.247C724.232 149.206 719.887 154.382 713.515 154.382C709.462 154.382 706.239 152.014 704.848 148.62H704.75V162.463H701.527ZM712.904 151.501C717.787 151.501 720.937 147.473 720.937 141.247V141.223C720.937 134.948 717.787 130.944 712.904 130.944C708.119 130.944 704.75 135.07 704.75 141.223V141.247C704.75 147.375 708.144 151.501 712.904 151.501Z" fill="#212121"/>
</g>
</g>
<g id="Middle Row">
<g id="_Key_11">
<g id="_KeyContainer_11" filter="url(#filter11_d_0_1)">
<rect x="42.3086" y="207.689" width="63.4615" height="80.7692" rx="8.84615" fill="white"/>
</g>
<path id="Letter_11" d="M71.7334 258.231C66.7285 258.231 63.3105 255.229 63.3105 250.736V250.688C63.3105 246.366 66.582 243.754 72.417 243.363L80.3272 242.875V240.678C80.3272 237.016 78.0078 234.794 74.0527 234.794C70.3662 234.794 67.9492 236.576 67.4121 239.457L67.3633 239.701H64.2383L64.2627 239.408C64.751 235.038 68.3643 231.913 74.1016 231.913C79.9121 231.913 83.5498 235.185 83.5498 240.385V257.768H80.3272V253.129H80.2295C78.8379 256.156 75.4932 258.231 71.7334 258.231ZM66.6064 250.736C66.6064 253.52 68.9502 255.399 72.3926 255.399C76.8359 255.399 80.3272 252.274 80.3272 248.222V245.414L72.8076 245.927C68.8281 246.171 66.6064 247.904 66.6064 250.688V250.736Z" fill="#212121"/>
</g>
<g id="_Key_12">
<g id="_KeyContainer_12" filter="url(#filter12_d_0_1)">
<rect x="117.309" y="207.689" width="63.4615" height="80.7692" rx="8.84615" fill="white"/>
</g>
<path id="Letter_12" d="M148.979 258.231C143.218 258.231 139.531 255.155 139.043 250.663L139.019 250.443H142.241L142.29 250.663C142.803 253.593 145.171 255.497 149.004 255.497C152.837 255.497 155.278 253.739 155.278 251.078V251.054C155.278 248.856 154.058 247.66 150.664 246.854L146.831 245.927C142.046 244.779 139.751 242.68 139.751 239.164V239.14C139.751 234.916 143.486 231.913 148.784 231.913C154.204 231.913 157.671 235.062 158.086 239.433L158.11 239.701H155.01L154.985 239.53C154.57 236.576 152.324 234.647 148.784 234.647C145.342 234.647 143.047 236.43 143.047 239.018V239.042C143.047 241.068 144.414 242.362 147.759 243.168L151.592 244.071C156.646 245.292 158.574 247.27 158.574 250.834V250.858C158.574 255.18 154.546 258.231 148.979 258.231Z" fill="#212121"/>
</g>
<g id="_Key_13">
<g id="_KeyContainer_13" filter="url(#filter13_d_0_1)">
<rect x="192.309" y="207.689" width="63.4615" height="80.7692" rx="8.84615" fill="white"/>
</g>
<path id="Letter_13" d="M222.441 258.231C216.045 258.231 211.699 253.007 211.699 245.072V245.048C211.699 237.113 216.069 231.913 222.417 231.913C226.396 231.913 229.668 234.159 231.108 237.675H231.182V222.538H234.429V257.768H231.182V252.494H231.084C229.619 255.985 226.445 258.231 222.441 258.231ZM223.052 255.351C227.837 255.351 231.206 251.2 231.206 245.072V245.048C231.206 238.944 227.788 234.794 223.052 234.794C218.169 234.794 215.02 238.822 215.02 245.048V245.072C215.02 251.347 218.169 255.351 223.052 255.351Z" fill="#212121"/>
</g>
<g id="_Key_14">
<g id="_KeyContainer_14" filter="url(#filter14_d_0_1)">
<rect x="267.309" y="207.689" width="65.3846" height="80.7692" rx="8.84615" fill="white"/>
</g>
<path id="Letter_14" d="M296.806 257.768V235.087H293.266V232.377H296.806V228.788C296.806 224.198 299.027 222.074 303.275 222.074C304.179 222.074 305.082 222.172 305.644 222.27V224.931C305.106 224.833 304.472 224.784 303.812 224.784C301.347 224.784 300.004 226.029 300.004 228.837V232.377H305.473V235.087H300.028V257.768H296.806Z" fill="#212121"/>
</g>
<g id="_Key_15">
<g id="_KeyContainer_15" filter="url(#filter15_d_0_1)">
<rect x="344.23" y="207.689" width="61.5385" height="80.7692" rx="8.84615" fill="white"/>
</g>
<path id="Letter_15" d="M375.06 266.776C369.029 266.776 365.318 263.896 364.415 260.307L364.366 260.111H367.613L367.711 260.331C368.565 262.382 371.153 263.896 375.035 263.896C379.894 263.896 382.726 261.161 382.726 256.84V252.372H382.652C381.31 255.692 378.087 258.061 374.01 258.061C367.613 258.061 363.243 252.885 363.243 244.975V244.95C363.243 237.089 367.662 231.913 374.059 231.913C378.111 231.913 381.261 234.379 382.652 237.748H382.726V232.377H385.973V257.108C385.973 262.968 381.773 266.776 375.06 266.776ZM374.645 255.18C379.43 255.18 382.726 251.078 382.726 244.975V244.95C382.726 238.871 379.405 234.794 374.645 234.794C369.737 234.794 366.563 238.822 366.563 244.95V244.975C366.563 251.176 369.737 255.18 374.645 255.18Z" fill="#212121"/>
</g>
<g id="_Key_16">
<g id="_KeyContainer_16" filter="url(#filter16_d_0_1)">
<rect x="417.309" y="207.689" width="65.3846" height="80.7692" rx="8.84615" fill="white"/>
</g>
<path id="Letter_16" d="M439.604 257.768V222.538H442.851V237.016H442.924C444.218 233.915 447.172 231.938 451.225 231.938C456.718 231.938 460.38 235.917 460.38 242.143V257.768H457.133V242.655C457.133 237.65 454.496 234.818 450.175 234.818C445.78 234.818 442.851 238.09 442.851 242.802V257.768H439.604Z" fill="#212121"/>
</g>
<g id="_Key_17">
<g id="_KeyContainer_17" filter="url(#filter17_d_0_1)">
<rect x="494.23" y="207.689" width="63.4615" height="80.7692" rx="8.84615" fill="white"/>
</g>
<path id="Letter_17" d="M525.706 227.787C524.534 227.787 523.558 226.835 523.558 225.639C523.558 224.442 524.534 223.515 525.706 223.515C526.902 223.515 527.854 224.442 527.854 225.639C527.854 226.835 526.902 227.787 525.706 227.787ZM520.018 266.337C519.749 266.337 519.505 266.337 519.236 266.312V263.456H519.896C522.923 263.456 524.095 262.382 524.095 259.33V232.377H527.317V259.257C527.317 264.14 525.047 266.337 520.018 266.337Z" fill="#212121"/>
</g>
<g id="_Key_18">
<g id="_KeyContainer_18" filter="url(#filter18_d_0_1)">
<rect x="569.23" y="207.689" width="63.4615" height="80.7692" rx="8.84615" fill="white"/>
</g>
<path id="Letter_18" d="M592.137 257.768V222.538H595.359V244.34H595.457L607.908 232.377H611.912L600.511 243.314L612.156 257.768H608.348L598.191 245.292L595.359 247.929V257.768H592.137Z" fill="#212121"/>
</g>
<g id="_Key_19">
<g id="_KeyContainer_19" filter="url(#filter19_d_0_1)">
<rect x="644.23" y="207.689" width="63.4615" height="80.7692" rx="8.84615" fill="white"/>
</g>
<path id="Letter_19" d="M674.119 257.768V222.538H677.342V257.768H674.119Z" fill="#212121"/>
</g>
</g>
<g id="Bottom Row">
<g id="Keys_2">
<g id="_Key_20">
<g id="_KeyContainer_20" filter="url(#filter20_d_0_1)">
<rect x="117.309" y="311.537" width="63.4615" height="80.7692" rx="8.84615" fill="white"/>
</g>
<path id="Letter_20" d="M139.385 361.615V359.223L154.497 339.008V338.935H139.385V336.225H158.208V338.666L143.12 358.832V358.905H158.257V361.615H139.385Z" fill="#212121"/>
</g>
<g id="_Key_21">
<g id="_KeyContainer_21" filter="url(#filter21_d_0_1)">
<rect x="192.309" y="311.537" width="63.4615" height="80.7692" rx="8.84615" fill="white"/>
</g>
<path id="Letter_21" d="M213.115 361.615L222.051 348.847L213.213 336.225H216.875L223.833 346.405H223.931L230.84 336.225H234.502L225.615 348.725L234.404 361.615H230.767L223.809 351.19H223.735L216.753 361.615H213.115Z" fill="#212121"/>
</g>
<g id="_Key_22">
<g id="_KeyContainer_22" filter="url(#filter22_d_0_1)">
<rect x="267.309" y="311.537" width="63.4615" height="80.7692" rx="8.84615" fill="white"/>
</g>
<path id="Letter_22" d="M299.517 362.079C292.461 362.079 287.969 356.977 287.969 348.896V348.871C287.969 340.888 292.534 335.761 299.492 335.761C305.4 335.761 309.233 339.594 309.868 343.964L309.893 344.184H306.719L306.67 343.988C305.962 341.01 303.447 338.642 299.492 338.642C294.536 338.642 291.289 342.621 291.289 348.92V348.944C291.289 355.341 294.585 359.198 299.517 359.198C303.301 359.198 305.913 357.025 306.67 353.852L306.719 353.656H309.917L309.893 353.852C309.136 358.588 305.059 362.079 299.517 362.079Z" fill="#212121"/>
</g>
<g id="_Key_23">
<g id="_KeyContainer_23" filter="url(#filter23_d_0_1)">
<rect x="342.309" y="311.537" width="65.3846" height="80.7692" rx="8.84615" fill="white"/>
</g>
<path id="Letter_23" d="M373.1 361.615L363.651 336.225H367.069L374.784 358.222H374.857L382.597 336.225H385.966L376.542 361.615H373.1Z" fill="#212121"/>
</g>
<g id="_Key_24">
<g id="_KeyContainer_24" filter="url(#filter24_d_0_1)">
<rect x="419.23" y="311.537" width="61.5385" height="80.7692" rx="8.84615" fill="white"/>
</g>
<path id="Letter_24" d="M451.598 362.079C447.594 362.079 444.396 359.833 442.931 356.244H442.857V361.615H439.61V326.386H442.857V341.522H442.931C444.371 338.007 447.643 335.761 451.622 335.761C457.97 335.761 462.34 340.961 462.34 348.896V348.92C462.34 356.854 457.994 362.079 451.598 362.079ZM450.987 359.198C455.87 359.198 459.02 355.194 459.02 348.92V348.896C459.02 342.67 455.87 338.642 450.987 338.642C446.251 338.642 442.833 342.792 442.833 348.896V348.92C442.833 355.048 446.202 359.198 450.987 359.198Z" fill="#212121"/>
</g>
<g id="_Key_25">
<g id="_KeyContainer_25" filter="url(#filter25_d_0_1)">
<rect x="492.309" y="311.537" width="65.3846" height="80.7692" rx="8.84615" fill="white"/>
</g>
<path id="Letter_25" d="M514.628 361.615V336.225H517.851V340.546H517.948C519.218 337.812 522.074 335.785 526.176 335.785C531.791 335.785 535.111 339.398 535.111 345.355V361.615H531.889V345.893C531.889 341.181 529.545 338.666 525.224 338.666C520.805 338.666 517.851 341.84 517.851 346.576V361.615H514.628Z" fill="#212121"/>
</g>
<g id="_Key_26">
<g id="_KeyContainer_26" filter="url(#filter26_d_0_1)">
<rect x="569.23" y="311.537" width="63.4615" height="80.7692" rx="8.84615" fill="white"/>
</g>
<path id="Letter_26" d="M583.714 361.615V336.225H586.937V340.595H587.034C588.084 337.787 590.672 335.785 594.236 335.785C597.947 335.785 600.633 337.934 601.585 341.156H601.658C602.879 338.007 605.784 335.785 609.642 335.785C614.622 335.785 617.869 339.105 617.869 344.257V361.615H614.646V344.989C614.646 341.034 612.449 338.666 608.763 338.666C605.003 338.666 602.415 341.547 602.415 345.624V361.615H599.168V344.696C599.168 341.059 596.824 338.666 593.357 338.666C589.622 338.666 586.937 341.669 586.937 346.015V361.615H583.714Z" fill="#212121"/>
</g>
</g>
<g id="_Key_27">
<g id="_KeyContainer_27" filter="url(#filter27_d_0_1)">
<rect x="5.76953" y="311.537" width="80.7692" height="80.7692" rx="8.84615" fill="#ABB0BC"/>
</g>
<path id="Shift Inactive" fill-rule="evenodd" clip-rule="evenodd" d="M40.0696 353.253V364.804H51.4674V353.253H58.9886L45.7691 339.603L32.5499 353.253H40.0696ZM45.079 336.445C45.4568 336.055 46.0817 336.055 46.4592 336.445L63.7655 354.315C64.3565 354.926 63.9245 355.947 63.0754 355.947H54.1585V366.536C54.1585 367.068 53.7282 367.498 53.1974 367.498H38.3396C37.8089 367.498 37.3785 367.068 37.3785 366.536V355.947H28.4629C27.6139 355.947 27.1819 354.926 27.773 354.315L45.079 336.445Z" fill="#212121"/>
</g>
<g id="_Key_28">
<g id="_KeyContainer_28" filter="url(#filter28_d_0_1)">
<rect x="663.465" y="311.537" width="80.7692" height="80.7692" rx="8.84615" fill="#ABB0BC"/>
</g>
<g id="Union">
<path d="M700.991 345.815C700.428 345.252 700.428 344.339 700.991 343.776C701.555 343.212 702.468 343.212 703.031 343.776L707.791 348.535L712.55 343.776C713.113 343.212 714.026 343.212 714.59 343.776C715.153 344.339 715.153 345.252 714.59 345.815L709.83 350.575L714.59 355.334C715.153 355.897 715.153 356.811 714.59 357.374C714.026 357.937 713.113 357.937 712.55 357.374L707.791 352.614L703.031 357.374C702.468 357.937 701.555 357.937 700.991 357.374C700.428 356.81 700.428 355.897 700.991 355.334L705.751 350.575L700.991 345.815Z" fill="#212121"/>
<path fill-rule="evenodd" clip-rule="evenodd" d="M695.043 335.918L680.387 350.575L695.043 365.231C696.125 366.313 697.593 366.921 699.123 366.921H718.848C722.035 366.921 724.617 364.338 724.617 361.152V339.998C724.617 336.811 722.035 334.229 718.848 334.229H699.123C697.593 334.229 696.125 334.836 695.043 335.918ZM718.848 364.421H699.123C698.255 364.421 697.424 364.076 696.811 363.463L683.922 350.575L696.811 337.686C697.424 337.073 698.255 336.728 699.123 336.728H718.848C720.654 336.728 722.117 338.192 722.117 339.998V361.152C722.117 362.957 720.654 364.421 718.848 364.421Z" fill="#212121"/>
</g>
</g>
</g>
</g>
<g id="Bottom Row_2">
<g id="_Key_29">
<g id="_KeyContainer_29" filter="url(#filter29_d_0_1)">
<rect x="5.76953" y="415.385" width="175" height="80.7692" rx="8.84615" fill="#ABB0BC"/>
</g>
<path id="Letter_27" d="M75.5406 465.463H78.2449V443.783H75.5556L69.7864 447.93V450.784L75.3002 446.788H75.5406V465.463ZM83.8945 465.463H97.927V463.029H87.6505V462.789L92.5784 457.695C96.4997 453.654 97.5664 451.851 97.5664 449.372V449.342C97.5664 445.841 94.6668 443.272 90.8807 443.272C86.7341 443.272 83.7593 446.037 83.7443 449.883L83.7743 449.898L86.3585 449.913L86.3735 449.883C86.3735 447.329 88.1013 445.631 90.7004 445.631C93.2545 445.631 94.802 447.344 94.802 449.628V449.658C94.802 451.551 93.9907 452.677 91.2263 455.667L83.8945 463.6V465.463ZM109.226 465.823C113.568 465.823 116.753 463.149 116.753 459.528V459.498C116.753 456.418 114.604 454.45 111.449 454.18V454.12C114.154 453.549 116.047 451.716 116.047 449.042V449.012C116.047 445.721 113.327 443.423 109.196 443.423C105.139 443.423 102.345 445.781 101.999 449.312L101.984 449.462H104.583L104.598 449.312C104.824 447.119 106.642 445.766 109.196 445.766C111.84 445.766 113.327 447.073 113.327 449.342V449.372C113.327 451.536 111.524 453.128 108.94 453.128H106.341V455.412H109.06C112.095 455.412 114.003 456.899 114.003 459.558V459.588C114.003 461.887 112.065 463.48 109.226 463.48C106.341 463.48 104.373 462.007 104.163 459.874L104.148 459.724H101.548L101.563 459.904C101.849 463.329 104.749 465.823 109.226 465.823Z" fill="#212121"/>
</g>
<g id="_Key_30">
<g id="_KeyContainer_30" filter="url(#filter30_d_0_1)">
<rect x="192.309" y="415.385" width="365.385" height="80.7692" rx="8.84615" fill="white"/>
</g>
<path id="Letter_28" d="M340.703 465.748C344.384 465.748 347.193 463.75 347.193 460.866V460.835C347.193 458.522 345.721 457.2 342.671 456.463L340.177 455.863C338.269 455.397 337.458 454.706 337.458 453.609V453.579C337.458 452.152 338.87 451.16 340.793 451.16C342.746 451.16 344.008 452.046 344.354 453.323H346.923C346.562 450.679 344.203 448.982 340.808 448.982C337.367 448.982 334.783 451.01 334.783 453.699V453.714C334.783 456.043 336.151 457.365 339.185 458.086L341.694 458.687C343.693 459.168 344.519 459.934 344.519 461.031V461.061C344.519 462.533 342.971 463.57 340.793 463.57C338.72 463.57 337.428 462.683 336.992 461.331H334.318C334.618 464.006 337.097 465.748 340.703 465.748ZM350.634 470.872H353.249V462.909H353.489C354.375 464.637 356.313 465.748 358.537 465.748C362.654 465.748 365.328 462.458 365.328 457.38V457.35C365.328 452.302 362.639 448.982 358.537 448.982C356.283 448.982 354.48 450.048 353.489 451.851H353.249V449.267H350.634V470.872ZM357.936 463.435C354.991 463.435 353.188 461.121 353.188 457.38V457.35C353.188 453.609 354.991 451.295 357.936 451.295C360.896 451.295 362.654 453.579 362.654 457.35V457.38C362.654 461.151 360.896 463.435 357.936 463.435ZM373.246 465.748C375.425 465.748 377.122 464.802 378.144 463.074H378.384V465.463H380.998V454.375C380.998 451.01 378.79 448.982 374.839 448.982C371.383 448.982 368.919 450.694 368.498 453.233L368.483 453.323H371.098L371.113 453.278C371.533 452.016 372.81 451.295 374.748 451.295C377.167 451.295 378.384 452.377 378.384 454.375V455.848L373.742 456.133C369.971 456.358 367.837 458.026 367.837 460.911V460.941C367.837 463.885 370.166 465.748 373.246 465.748ZM370.512 460.881V460.851C370.512 459.243 371.593 458.372 374.057 458.221L378.384 457.951V459.423C378.384 461.737 376.446 463.48 373.787 463.48C371.909 463.48 370.512 462.518 370.512 460.881ZM391.786 465.748C395.678 465.748 397.856 463.66 398.517 460.73L398.547 460.565L395.963 460.58L395.933 460.67C395.332 462.473 393.95 463.435 391.771 463.435C388.887 463.435 387.024 461.046 387.024 457.32V457.29C387.024 453.639 388.857 451.295 391.771 451.295C394.1 451.295 395.542 452.587 395.948 454.18L395.963 454.225H398.562L398.547 454.135C398.066 451.25 395.708 448.982 391.771 448.982C387.234 448.982 384.349 452.257 384.349 457.29V457.32C384.349 462.458 387.249 465.748 391.786 465.748ZM408.373 465.748C412.19 465.748 414.503 463.585 415.059 461.391L415.089 461.271H412.475L412.415 461.406C411.979 462.383 410.627 463.42 408.434 463.42C405.549 463.42 403.701 461.466 403.626 458.116H415.285V457.095C415.285 452.257 412.61 448.982 408.208 448.982C403.806 448.982 400.952 452.407 400.952 457.41V457.425C400.952 462.503 403.746 465.748 408.373 465.748ZM408.193 451.31C410.582 451.31 412.355 452.828 412.625 456.028H403.671C403.956 452.948 405.789 451.31 408.193 451.31Z" fill="#212121"/>
</g>
<g id="_Key_31">
<g id="_KeyContainer_31" filter="url(#filter31_d_0_1)">
<rect x="569.23" y="415.385" width="175" height="80.7692" rx="8.84615" fill="#ABB0BC"/>
</g>
<path id="Letter_29" d="M616.712 465.463H619.327V455.427C619.327 453.053 621.099 451.476 623.593 451.476C624.164 451.476 624.66 451.536 625.201 451.626V449.087C624.946 449.042 624.39 448.982 623.894 448.982C621.7 448.982 620.183 449.973 619.567 451.671H619.327V449.267H616.712V465.463ZM633.976 465.748C637.792 465.748 640.105 463.585 640.661 461.391L640.691 461.271H638.077L638.017 461.406C637.581 462.383 636.229 463.42 634.036 463.42C631.151 463.42 629.303 461.466 629.228 458.116H640.887V457.095C640.887 452.257 638.212 448.982 633.81 448.982C629.408 448.982 626.554 452.407 626.554 457.41V457.425C626.554 462.503 629.348 465.748 633.976 465.748ZM633.795 451.31C636.184 451.31 637.957 452.828 638.227 456.028H629.273C629.559 452.948 631.392 451.31 633.795 451.31ZM650.082 465.583C650.593 465.583 651.089 465.523 651.599 465.433V463.209C651.119 463.254 650.863 463.269 650.398 463.269C648.715 463.269 648.054 462.503 648.054 460.595V451.43H651.599V449.267H648.054V445.075H645.349V449.267H642.795V451.43H645.349V461.256C645.349 464.351 646.747 465.583 650.082 465.583ZM660.314 465.748C662.688 465.748 664.325 464.772 665.122 463.044H665.362V465.463H667.976V449.267H665.362V458.852C665.362 461.692 663.845 463.435 660.99 463.435C658.406 463.435 657.354 462.037 657.354 459.123V449.267H654.74V459.754C654.74 463.585 656.633 465.748 660.314 465.748ZM672.244 465.463H674.858V455.427C674.858 453.053 676.631 451.476 679.125 451.476C679.696 451.476 680.191 451.536 680.732 451.626V449.087C680.477 449.042 679.921 448.982 679.425 448.982C677.232 448.982 675.714 449.973 675.098 451.671H674.858V449.267H672.244V465.463ZM683.648 465.463H686.262V455.878C686.262 453.038 687.899 451.295 690.483 451.295C693.068 451.295 694.27 452.692 694.27 455.607V465.463H696.884V454.976C696.884 451.13 694.855 448.982 691.22 448.982C688.831 448.982 687.313 449.988 686.502 451.701H686.262V449.267H683.648V465.463Z" fill="#212121"/>
</g>
</g>
<g id="Emoji &#38; Dictation">
<path id="Icon / Emoji" fill-rule="evenodd" clip-rule="evenodd" d="M85.5787 540.385C99.9169 540.385 111.54 552.008 111.54 566.346C111.54 580.684 99.9169 592.308 85.5787 592.308C71.2406 592.308 59.6172 580.684 59.6172 566.346C59.6172 552.008 71.2406 540.385 85.5787 540.385ZM85.5787 543.409C98.2462 543.411 108.514 553.681 108.513 566.348C108.512 579.015 98.2427 589.284 85.5753 589.283C72.9078 589.283 62.6391 579.014 62.6391 566.346C62.6393 560.263 65.0563 554.428 69.3583 550.127C73.6604 545.825 79.4951 543.409 85.5787 543.409ZM77.3658 555.085C76.5634 555.076 75.7906 555.389 75.2205 555.953C74.6505 556.518 74.3307 557.288 74.3328 558.091C74.3328 559.766 75.6907 561.123 77.3658 561.123C79.0408 561.123 80.3988 559.766 80.3988 558.091C80.4009 557.288 80.0811 556.518 79.5111 555.953C78.941 555.389 78.1682 555.076 77.3658 555.085ZM102.88 570.818C101.498 578.289 94.2875 584.526 85.5755 584.526C76.9329 584.526 69.7649 578.379 68.3013 570.993C68.0047 569.15 69.5144 568.715 70.9364 569.059C75.6936 570.435 80.627 571.104 85.5787 571.045C90.5192 571.103 95.4415 570.436 100.189 569.066C101.571 568.715 103.051 569.111 102.88 570.818ZM98.1869 571.857C98.0519 571.909 97.915 571.948 97.7768 571.993C97.7625 571.999 98.2194 571.85 98.2058 571.857C94.1008 572.987 89.8575 573.535 85.6001 573.486C80.5195 573.486 75.9756 572.921 72.8485 571.798C70.5814 571.123 71.0162 573.791 72.6096 574.609C76.6859 576.464 81.121 577.399 85.5995 577.348C90.9268 577.348 95.6739 576.108 98.8094 574.505C100.293 573.551 100.586 570.993 98.1869 571.857ZM93.8085 555.085C93.006 555.076 92.2332 555.389 91.663 555.953C91.0929 556.518 90.773 557.288 90.7749 558.091C90.7589 559.185 91.3335 560.203 92.2786 560.755C93.2237 561.306 94.3927 561.306 95.3378 560.755C96.2829 560.203 96.8575 559.185 96.8415 558.091C96.8435 557.288 96.5236 556.518 95.9536 555.954C95.3836 555.389 94.6109 555.076 93.8085 555.085Z" fill="#50555C"/>
<path id="Icon / Dictation" d="M662.835 566.075C662.835 571.862 666.614 575.938 672.13 575.938C677.619 575.938 681.398 571.862 681.398 566.075V550.248C681.398 544.436 677.619 540.385 672.13 540.385C666.614 540.385 662.835 544.436 662.835 550.248V566.075ZM666.691 566.075V550.248C666.691 546.524 668.861 544.134 672.13 544.134C675.398 544.134 677.543 546.524 677.543 550.248V566.075C677.543 569.799 675.398 572.189 672.13 572.189C668.861 572.189 666.691 569.799 666.691 566.075ZM653.848 566.981C653.848 576.844 660.461 583.764 670.189 584.569V590.431H660.716C659.644 590.431 658.776 591.287 658.776 592.344C658.776 593.401 659.644 594.231 660.716 594.231H683.518C684.59 594.231 685.458 593.401 685.458 592.344C685.458 591.287 684.59 590.431 683.518 590.431H674.045V584.569C683.798 583.764 690.386 576.844 690.386 566.981V561.873C690.386 560.816 689.544 559.986 688.471 559.986C687.399 559.986 686.531 560.816 686.531 561.873V566.83C686.531 575.41 680.862 581.096 672.13 581.096C663.372 581.096 657.703 575.41 657.703 566.83V561.873C657.703 560.816 656.861 559.986 655.763 559.986C654.69 559.986 653.848 560.816 653.848 561.873V566.981Z" fill="#50555C"/>
</g>
<g id="HomeIndicator">
<rect id="Home Indicator" x="247.074" y="620.617" width="257.692" height="9.61538" rx="4.80769" fill="#212121"/>
</g>
<g id="_Suggestion">
<rect width="750" height="88.4615" fill="#D1D3D9"/>
<path id="&#226;&#128;&#156;Ios&#226;&#128;&#157;" d="M95.1118 33.7329H93.0525L90.5463 42.8159H93.723L95.1118 33.7329ZM100.411 33.7329H98.3522L95.8461 42.8159H99.0227L100.411 33.7329ZM105.134 56.7676H108.007V33.7329H105.134V56.7676ZM119.818 57.0709C124.718 57.0709 127.751 53.6867 127.751 48.1795V48.1475C127.751 42.6243 124.718 39.2561 119.818 39.2561C114.917 39.2561 111.884 42.6243 111.884 48.1475V48.1795C111.884 53.6867 114.917 57.0709 119.818 57.0709ZM119.818 54.6126C116.561 54.6126 114.725 52.2341 114.725 48.1795V48.1475C114.725 44.077 116.561 41.7144 119.818 41.7144C123.074 41.7144 124.91 44.077 124.91 48.1475V48.1795C124.91 52.2341 123.074 54.6126 119.818 54.6126ZM137.183 57.0709C141.094 57.0709 144.079 54.9478 144.079 51.8829V51.851C144.079 49.3927 142.515 47.9879 139.274 47.2057L136.624 46.5672C134.597 46.0723 133.735 45.338 133.735 44.1727V44.1408C133.735 42.6243 135.236 41.5708 137.279 41.5708C139.354 41.5708 140.695 42.5126 141.062 43.8694H143.792C143.409 41.0599 140.902 39.2561 137.295 39.2561C133.639 39.2561 130.894 41.4111 130.894 44.2685V44.2845C130.894 46.7588 132.346 48.1635 135.571 48.9297L138.237 49.5682C140.36 50.0791 141.238 50.8932 141.238 52.0585V52.0904C141.238 53.6548 139.593 54.7562 137.279 54.7562C135.076 54.7562 133.703 53.8144 133.24 52.3777H130.399C130.718 55.2192 133.352 57.0709 137.183 57.0709ZM147.589 42.8159H149.648L152.154 33.7329H148.977L147.589 42.8159ZM152.888 42.8159H154.947L157.454 33.7329H154.277L152.888 42.8159Z" fill="#212121"/>
<rect id="Divider" opacity="0.5" width="1.92308" height="48.0769" rx="0.961538" transform="matrix(-1 0 0 1 250 24.7695)" fill="#AEAEB2"/>
<path id="iOS" d="M352.344 36.2391C353.398 36.2391 354.26 35.3771 354.26 34.3235C354.26 33.27 353.398 32.408 352.344 32.408C351.29 32.408 350.428 33.27 350.428 34.3235C350.428 35.3771 351.29 36.2391 352.344 36.2391ZM350.939 56.7676H353.717V39.5594H350.939V56.7676ZM368.193 57.3103C374.77 57.3103 378.76 52.6012 378.76 45.2582V45.2263C378.76 37.8514 374.738 33.1902 368.193 33.1902C361.68 33.1902 357.625 37.8354 357.625 45.2263V45.2582C357.625 52.6172 361.584 57.3103 368.193 57.3103ZM368.193 54.6605C363.404 54.6605 360.563 50.957 360.563 45.2582V45.2263C360.563 39.4796 363.5 35.84 368.193 35.84C372.902 35.84 375.823 39.4796 375.823 45.2263V45.2582C375.823 50.957 372.918 54.6605 368.193 54.6605ZM390.507 57.3103C395.647 57.3103 399.015 54.6285 399.015 50.3185V50.3025C399.015 46.9822 397.116 45.0507 392.311 43.9812L389.757 43.4065C386.628 42.7201 385.367 41.475 385.367 39.6392V39.6233C385.367 37.2129 387.586 35.856 390.459 35.84C393.46 35.8241 395.376 37.3246 395.695 39.3519L395.727 39.5594H398.6L398.584 39.3359C398.345 35.9039 395.136 33.1902 390.539 33.1902C385.782 33.1902 382.445 35.8879 382.43 39.7031V39.7191C382.43 43.0553 384.425 45.1784 389.038 46.2L391.592 46.7588C394.753 47.4611 396.078 48.7701 396.078 50.6857V50.7016C396.078 53.0482 393.795 54.6605 390.666 54.6605C387.346 54.6605 384.952 53.2078 384.744 50.9091L384.728 50.7335H381.855L381.871 50.9091C382.206 54.6605 385.462 57.3103 390.507 57.3103Z" fill="#212121"/>
<rect id="Divider_2" opacity="0.5" width="1.92308" height="48.0769" rx="0.961538" transform="matrix(-1 0 0 1 501.922 24.7695)" fill="#AEAEB2"/>
<path id="Ions" d="M598.172 56.7676H601.045V33.7329H598.172V56.7676ZM612.855 57.0709C617.756 57.0709 620.789 53.6867 620.789 48.1795V48.1475C620.789 42.6243 617.756 39.2561 612.855 39.2561C607.955 39.2561 604.922 42.6243 604.922 48.1475V48.1795C604.922 53.6867 607.955 57.0709 612.855 57.0709ZM612.855 54.6126C609.599 54.6126 607.763 52.2341 607.763 48.1795V48.1475C607.763 44.077 609.599 41.7144 612.855 41.7144C616.112 41.7144 617.948 44.077 617.948 48.1475V48.1795C617.948 52.2341 616.112 54.6126 612.855 54.6126ZM624.315 56.7676H627.092V46.5832C627.092 43.5661 628.832 41.7144 631.578 41.7144C634.323 41.7144 635.6 43.199 635.6 46.2958V56.7676H638.378V45.6254C638.378 41.5388 636.223 39.2561 632.36 39.2561C629.822 39.2561 628.21 40.3256 627.348 42.1454H627.092V39.5594H624.315V56.7676ZM648.528 57.0709C652.439 57.0709 655.424 54.9478 655.424 51.8829V51.851C655.424 49.3927 653.86 47.9879 650.619 47.2057L647.969 46.5672C645.942 46.0723 645.08 45.338 645.08 44.1727V44.1408C645.08 42.6243 646.581 41.5708 648.624 41.5708C650.699 41.5708 652.04 42.5126 652.407 43.8694H655.137C654.754 41.0599 652.247 39.2561 648.64 39.2561C644.984 39.2561 642.239 41.4111 642.239 44.2685V44.2845C642.239 46.7588 643.691 48.1635 646.916 48.9297L649.582 49.5682C651.705 50.0791 652.583 50.8932 652.583 52.0585V52.0904C652.583 53.6548 650.938 54.7562 648.624 54.7562C646.421 54.7562 645.048 53.8144 644.585 52.3777H641.744C642.063 55.2192 644.697 57.0709 648.528 57.0709Z" fill="#212121"/>
</g>
</g>
</g>
</g>
<defs>
<filter id="filter1_d_0_1" x="5.76953" y="103.84" width="63.4609" height="82.6926" filterUnits="userSpaceOnUse" color-interpolation-filters="sRGB">
<feFlood flood-opacity="0" result="BackgroundImageFix"/>
<feColorMatrix in="SourceAlpha" type="matrix" values="0 0 0 0 0 0 0 0 0 0 0 0 0 0 0 0 0 0 127 0" result="hardAlpha"/>
<feOffset dy="1.92308"/>
<feColorMatrix type="matrix" values="0 0 0 0 0 0 0 0 0 0 0 0 0 0 0 0 0 0 0.3 0"/>
<feBlend mode="normal" in2="BackgroundImageFix" result="effect1_dropShadow_0_1"/>
<feBlend mode="normal" in="SourceGraphic" in2="effect1_dropShadow_0_1" result="shape"/>
</filter>
<filter id="filter2_d_0_1" x="80.7695" y="103.84" width="63.4609" height="82.6926" filterUnits="userSpaceOnUse" color-interpolation-filters="sRGB">
<feFlood flood-opacity="0" result="BackgroundImageFix"/>
<feColorMatrix in="SourceAlpha" type="matrix" values="0 0 0 0 0 0 0 0 0 0 0 0 0 0 0 0 0 0 127 0" result="hardAlpha"/>
<feOffset dy="1.92308"/>
<feColorMatrix type="matrix" values="0 0 0 0 0 0 0 0 0 0 0 0 0 0 0 0 0 0 0.3 0"/>
<feBlend mode="normal" in2="BackgroundImageFix" result="effect1_dropShadow_0_1"/>
<feBlend mode="normal" in="SourceGraphic" in2="effect1_dropShadow_0_1" result="shape"/>
</filter>
<filter id="filter3_d_0_1" x="155.77" y="103.84" width="63.4609" height="82.6926" filterUnits="userSpaceOnUse" color-interpolation-filters="sRGB">
<feFlood flood-opacity="0" result="BackgroundImageFix"/>
<feColorMatrix in="SourceAlpha" type="matrix" values="0 0 0 0 0 0 0 0 0 0 0 0 0 0 0 0 0 0 127 0" result="hardAlpha"/>
<feOffset dy="1.92308"/>
<feColorMatrix type="matrix" values="0 0 0 0 0 0 0 0 0 0 0 0 0 0 0 0 0 0 0.3 0"/>
<feBlend mode="normal" in2="BackgroundImageFix" result="effect1_dropShadow_0_1"/>
<feBlend mode="normal" in="SourceGraphic" in2="effect1_dropShadow_0_1" result="shape"/>
</filter>
<filter id="filter4_d_0_1" x="230.77" y="103.84" width="63.4609" height="82.6926" filterUnits="userSpaceOnUse" color-interpolation-filters="sRGB">
<feFlood flood-opacity="0" result="BackgroundImageFix"/>
<feColorMatrix in="SourceAlpha" type="matrix" values="0 0 0 0 0 0 0 0 0 0 0 0 0 0 0 0 0 0 127 0" result="hardAlpha"/>
<feOffset dy="1.92308"/>
<feColorMatrix type="matrix" values="0 0 0 0 0 0 0 0 0 0 0 0 0 0 0 0 0 0 0.3 0"/>
<feBlend mode="normal" in2="BackgroundImageFix" result="effect1_dropShadow_0_1"/>
<feBlend mode="normal" in="SourceGraphic" in2="effect1_dropShadow_0_1" result="shape"/>
</filter>
<filter id="filter5_d_0_1" x="305.77" y="103.84" width="63.4609" height="82.6926" filterUnits="userSpaceOnUse" color-interpolation-filters="sRGB">
<feFlood flood-opacity="0" result="BackgroundImageFix"/>
<feColorMatrix in="SourceAlpha" type="matrix" values="0 0 0 0 0 0 0 0 0 0 0 0 0 0 0 0 0 0 127 0" result="hardAlpha"/>
<feOffset dy="1.92308"/>
<feColorMatrix type="matrix" values="0 0 0 0 0 0 0 0 0 0 0 0 0 0 0 0 0 0 0.3 0"/>
<feBlend mode="normal" in2="BackgroundImageFix" result="effect1_dropShadow_0_1"/>
<feBlend mode="normal" in="SourceGraphic" in2="effect1_dropShadow_0_1" result="shape"/>
</filter>
<filter id="filter6_d_0_1" x="380.77" y="103.84" width="63.4609" height="82.6926" filterUnits="userSpaceOnUse" color-interpolation-filters="sRGB">
<feFlood flood-opacity="0" result="BackgroundImageFix"/>
<feColorMatrix in="SourceAlpha" type="matrix" values="0 0 0 0 0 0 0 0 0 0 0 0 0 0 0 0 0 0 127 0" result="hardAlpha"/>
<feOffset dy="1.92308"/>
<feColorMatrix type="matrix" values="0 0 0 0 0 0 0 0 0 0 0 0 0 0 0 0 0 0 0.3 0"/>
<feBlend mode="normal" in2="BackgroundImageFix" result="effect1_dropShadow_0_1"/>
<feBlend mode="normal" in="SourceGraphic" in2="effect1_dropShadow_0_1" result="shape"/>
</filter>
<filter id="filter7_d_0_1" x="455.77" y="103.84" width="63.4609" height="82.6926" filterUnits="userSpaceOnUse" color-interpolation-filters="sRGB">
<feFlood flood-opacity="0" result="BackgroundImageFix"/>
<feColorMatrix in="SourceAlpha" type="matrix" values="0 0 0 0 0 0 0 0 0 0 0 0 0 0 0 0 0 0 127 0" result="hardAlpha"/>
<feOffset dy="1.92308"/>
<feColorMatrix type="matrix" values="0 0 0 0 0 0 0 0 0 0 0 0 0 0 0 0 0 0 0.3 0"/>
<feBlend mode="normal" in2="BackgroundImageFix" result="effect1_dropShadow_0_1"/>
<feBlend mode="normal" in="SourceGraphic" in2="effect1_dropShadow_0_1" result="shape"/>
</filter>
<filter id="filter8_d_0_1" x="530.77" y="103.84" width="63.4609" height="82.6926" filterUnits="userSpaceOnUse" color-interpolation-filters="sRGB">
<feFlood flood-opacity="0" result="BackgroundImageFix"/>
<feColorMatrix in="SourceAlpha" type="matrix" values="0 0 0 0 0 0 0 0 0 0 0 0 0 0 0 0 0 0 127 0" result="hardAlpha"/>
<feOffset dy="1.92308"/>
<feColorMatrix type="matrix" values="0 0 0 0 0 0 0 0 0 0 0 0 0 0 0 0 0 0 0.3 0"/>
<feBlend mode="normal" in2="BackgroundImageFix" result="effect1_dropShadow_0_1"/>
<feBlend mode="normal" in="SourceGraphic" in2="effect1_dropShadow_0_1" result="shape"/>
</filter>
<filter id="filter9_d_0_1" x="605.77" y="103.84" width="63.4609" height="82.6926" filterUnits="userSpaceOnUse" color-interpolation-filters="sRGB">
<feFlood flood-opacity="0" result="BackgroundImageFix"/>
<feColorMatrix in="SourceAlpha" type="matrix" values="0 0 0 0 0 0 0 0 0 0 0 0 0 0 0 0 0 0 127 0" result="hardAlpha"/>
<feOffset dy="1.92308"/>
<feColorMatrix type="matrix" values="0 0 0 0 0 0 0 0 0 0 0 0 0 0 0 0 0 0 0.3 0"/>
<feBlend mode="normal" in2="BackgroundImageFix" result="effect1_dropShadow_0_1"/>
<feBlend mode="normal" in="SourceGraphic" in2="effect1_dropShadow_0_1" result="shape"/>
</filter>
<filter id="filter10_d_0_1" x="680.77" y="103.84" width="63.4609" height="82.6926" filterUnits="userSpaceOnUse" color-interpolation-filters="sRGB">
<feFlood flood-opacity="0" result="BackgroundImageFix"/>
<feColorMatrix in="SourceAlpha" type="matrix" values="0 0 0 0 0 0 0 0 0 0 0 0 0 0 0 0 0 0 127 0" result="hardAlpha"/>
<feOffset dy="1.92308"/>
<feColorMatrix type="matrix" values="0 0 0 0 0 0 0 0 0 0 0 0 0 0 0 0 0 0 0.3 0"/>
<feBlend mode="normal" in2="BackgroundImageFix" result="effect1_dropShadow_0_1"/>
<feBlend mode="normal" in="SourceGraphic" in2="effect1_dropShadow_0_1" result="shape"/>
</filter>
<filter id="filter11_d_0_1" x="42.3086" y="207.689" width="63.4609" height="82.6926" filterUnits="userSpaceOnUse" color-interpolation-filters="sRGB">
<feFlood flood-opacity="0" result="BackgroundImageFix"/>
<feColorMatrix in="SourceAlpha" type="matrix" values="0 0 0 0 0 0 0 0 0 0 0 0 0 0 0 0 0 0 127 0" result="hardAlpha"/>
<feOffset dy="1.92308"/>
<feColorMatrix type="matrix" values="0 0 0 0 0 0 0 0 0 0 0 0 0 0 0 0 0 0 0.3 0"/>
<feBlend mode="normal" in2="BackgroundImageFix" result="effect1_dropShadow_0_1"/>
<feBlend mode="normal" in="SourceGraphic" in2="effect1_dropShadow_0_1" result="shape"/>
</filter>
<filter id="filter12_d_0_1" x="117.309" y="207.689" width="63.4609" height="82.6926" filterUnits="userSpaceOnUse" color-interpolation-filters="sRGB">
<feFlood flood-opacity="0" result="BackgroundImageFix"/>
<feColorMatrix in="SourceAlpha" type="matrix" values="0 0 0 0 0 0 0 0 0 0 0 0 0 0 0 0 0 0 127 0" result="hardAlpha"/>
<feOffset dy="1.92308"/>
<feColorMatrix type="matrix" values="0 0 0 0 0 0 0 0 0 0 0 0 0 0 0 0 0 0 0.3 0"/>
<feBlend mode="normal" in2="BackgroundImageFix" result="effect1_dropShadow_0_1"/>
<feBlend mode="normal" in="SourceGraphic" in2="effect1_dropShadow_0_1" result="shape"/>
</filter>
<filter id="filter13_d_0_1" x="192.309" y="207.689" width="63.4609" height="82.6926" filterUnits="userSpaceOnUse" color-interpolation-filters="sRGB">
<feFlood flood-opacity="0" result="BackgroundImageFix"/>
<feColorMatrix in="SourceAlpha" type="matrix" values="0 0 0 0 0 0 0 0 0 0 0 0 0 0 0 0 0 0 127 0" result="hardAlpha"/>
<feOffset dy="1.92308"/>
<feColorMatrix type="matrix" values="0 0 0 0 0 0 0 0 0 0 0 0 0 0 0 0 0 0 0.3 0"/>
<feBlend mode="normal" in2="BackgroundImageFix" result="effect1_dropShadow_0_1"/>
<feBlend mode="normal" in="SourceGraphic" in2="effect1_dropShadow_0_1" result="shape"/>
</filter>
<filter id="filter14_d_0_1" x="267.309" y="207.689" width="65.3828" height="82.6926" filterUnits="userSpaceOnUse" color-interpolation-filters="sRGB">
<feFlood flood-opacity="0" result="BackgroundImageFix"/>
<feColorMatrix in="SourceAlpha" type="matrix" values="0 0 0 0 0 0 0 0 0 0 0 0 0 0 0 0 0 0 127 0" result="hardAlpha"/>
<feOffset dy="1.92308"/>
<feColorMatrix type="matrix" values="0 0 0 0 0 0 0 0 0 0 0 0 0 0 0 0 0 0 0.3 0"/>
<feBlend mode="normal" in2="BackgroundImageFix" result="effect1_dropShadow_0_1"/>
<feBlend mode="normal" in="SourceGraphic" in2="effect1_dropShadow_0_1" result="shape"/>
</filter>
<filter id="filter15_d_0_1" x="344.23" y="207.689" width="61.5391" height="82.6926" filterUnits="userSpaceOnUse" color-interpolation-filters="sRGB">
<feFlood flood-opacity="0" result="BackgroundImageFix"/>
<feColorMatrix in="SourceAlpha" type="matrix" values="0 0 0 0 0 0 0 0 0 0 0 0 0 0 0 0 0 0 127 0" result="hardAlpha"/>
<feOffset dy="1.92308"/>
<feColorMatrix type="matrix" values="0 0 0 0 0 0 0 0 0 0 0 0 0 0 0 0 0 0 0.3 0"/>
<feBlend mode="normal" in2="BackgroundImageFix" result="effect1_dropShadow_0_1"/>
<feBlend mode="normal" in="SourceGraphic" in2="effect1_dropShadow_0_1" result="shape"/>
</filter>
<filter id="filter16_d_0_1" x="417.309" y="207.689" width="65.3828" height="82.6926" filterUnits="userSpaceOnUse" color-interpolation-filters="sRGB">
<feFlood flood-opacity="0" result="BackgroundImageFix"/>
<feColorMatrix in="SourceAlpha" type="matrix" values="0 0 0 0 0 0 0 0 0 0 0 0 0 0 0 0 0 0 127 0" result="hardAlpha"/>
<feOffset dy="1.92308"/>
<feColorMatrix type="matrix" values="0 0 0 0 0 0 0 0 0 0 0 0 0 0 0 0 0 0 0.3 0"/>
<feBlend mode="normal" in2="BackgroundImageFix" result="effect1_dropShadow_0_1"/>
<feBlend mode="normal" in="SourceGraphic" in2="effect1_dropShadow_0_1" result="shape"/>
</filter>
<filter id="filter17_d_0_1" x="494.23" y="207.689" width="63.4609" height="82.6926" filterUnits="userSpaceOnUse" color-interpolation-filters="sRGB">
<feFlood flood-opacity="0" result="BackgroundImageFix"/>
<feColorMatrix in="SourceAlpha" type="matrix" values="0 0 0 0 0 0 0 0 0 0 0 0 0 0 0 0 0 0 127 0" result="hardAlpha"/>
<feOffset dy="1.92308"/>
<feColorMatrix type="matrix" values="0 0 0 0 0 0 0 0 0 0 0 0 0 0 0 0 0 0 0.3 0"/>
<feBlend mode="normal" in2="BackgroundImageFix" result="effect1_dropShadow_0_1"/>
<feBlend mode="normal" in="SourceGraphic" in2="effect1_dropShadow_0_1" result="shape"/>
</filter>
<filter id="filter18_d_0_1" x="569.23" y="207.689" width="63.4609" height="82.6926" filterUnits="userSpaceOnUse" color-interpolation-filters="sRGB">
<feFlood flood-opacity="0" result="BackgroundImageFix"/>
<feColorMatrix in="SourceAlpha" type="matrix" values="0 0 0 0 0 0 0 0 0 0 0 0 0 0 0 0 0 0 127 0" result="hardAlpha"/>
<feOffset dy="1.92308"/>
<feColorMatrix type="matrix" values="0 0 0 0 0 0 0 0 0 0 0 0 0 0 0 0 0 0 0.3 0"/>
<feBlend mode="normal" in2="BackgroundImageFix" result="effect1_dropShadow_0_1"/>
<feBlend mode="normal" in="SourceGraphic" in2="effect1_dropShadow_0_1" result="shape"/>
</filter>
<filter id="filter19_d_0_1" x="644.23" y="207.689" width="63.4609" height="82.6926" filterUnits="userSpaceOnUse" color-interpolation-filters="sRGB">
<feFlood flood-opacity="0" result="BackgroundImageFix"/>
<feColorMatrix in="SourceAlpha" type="matrix" values="0 0 0 0 0 0 0 0 0 0 0 0 0 0 0 0 0 0 127 0" result="hardAlpha"/>
<feOffset dy="1.92308"/>
<feColorMatrix type="matrix" values="0 0 0 0 0 0 0 0 0 0 0 0 0 0 0 0 0 0 0.3 0"/>
<feBlend mode="normal" in2="BackgroundImageFix" result="effect1_dropShadow_0_1"/>
<feBlend mode="normal" in="SourceGraphic" in2="effect1_dropShadow_0_1" result="shape"/>
</filter>
<filter id="filter20_d_0_1" x="117.309" y="311.537" width="63.4609" height="82.6926" filterUnits="userSpaceOnUse" color-interpolation-filters="sRGB">
<feFlood flood-opacity="0" result="BackgroundImageFix"/>
<feColorMatrix in="SourceAlpha" type="matrix" values="0 0 0 0 0 0 0 0 0 0 0 0 0 0 0 0 0 0 127 0" result="hardAlpha"/>
<feOffset dy="1.92308"/>
<feColorMatrix type="matrix" values="0 0 0 0 0 0 0 0 0 0 0 0 0 0 0 0 0 0 0.3 0"/>
<feBlend mode="normal" in2="BackgroundImageFix" result="effect1_dropShadow_0_1"/>
<feBlend mode="normal" in="SourceGraphic" in2="effect1_dropShadow_0_1" result="shape"/>
</filter>
<filter id="filter21_d_0_1" x="192.309" y="311.537" width="63.4609" height="82.6926" filterUnits="userSpaceOnUse" color-interpolation-filters="sRGB">
<feFlood flood-opacity="0" result="BackgroundImageFix"/>
<feColorMatrix in="SourceAlpha" type="matrix" values="0 0 0 0 0 0 0 0 0 0 0 0 0 0 0 0 0 0 127 0" result="hardAlpha"/>
<feOffset dy="1.92308"/>
<feColorMatrix type="matrix" values="0 0 0 0 0 0 0 0 0 0 0 0 0 0 0 0 0 0 0.3 0"/>
<feBlend mode="normal" in2="BackgroundImageFix" result="effect1_dropShadow_0_1"/>
<feBlend mode="normal" in="SourceGraphic" in2="effect1_dropShadow_0_1" result="shape"/>
</filter>
<filter id="filter22_d_0_1" x="267.309" y="311.537" width="63.4609" height="82.6926" filterUnits="userSpaceOnUse" color-interpolation-filters="sRGB">
<feFlood flood-opacity="0" result="BackgroundImageFix"/>
<feColorMatrix in="SourceAlpha" type="matrix" values="0 0 0 0 0 0 0 0 0 0 0 0 0 0 0 0 0 0 127 0" result="hardAlpha"/>
<feOffset dy="1.92308"/>
<feColorMatrix type="matrix" values="0 0 0 0 0 0 0 0 0 0 0 0 0 0 0 0 0 0 0.3 0"/>
<feBlend mode="normal" in2="BackgroundImageFix" result="effect1_dropShadow_0_1"/>
<feBlend mode="normal" in="SourceGraphic" in2="effect1_dropShadow_0_1" result="shape"/>
</filter>
<filter id="filter23_d_0_1" x="342.309" y="311.537" width="65.3828" height="82.6926" filterUnits="userSpaceOnUse" color-interpolation-filters="sRGB">
<feFlood flood-opacity="0" result="BackgroundImageFix"/>
<feColorMatrix in="SourceAlpha" type="matrix" values="0 0 0 0 0 0 0 0 0 0 0 0 0 0 0 0 0 0 127 0" result="hardAlpha"/>
<feOffset dy="1.92308"/>
<feColorMatrix type="matrix" values="0 0 0 0 0 0 0 0 0 0 0 0 0 0 0 0 0 0 0.3 0"/>
<feBlend mode="normal" in2="BackgroundImageFix" result="effect1_dropShadow_0_1"/>
<feBlend mode="normal" in="SourceGraphic" in2="effect1_dropShadow_0_1" result="shape"/>
</filter>
<filter id="filter24_d_0_1" x="419.23" y="311.537" width="61.5391" height="82.6926" filterUnits="userSpaceOnUse" color-interpolation-filters="sRGB">
<feFlood flood-opacity="0" result="BackgroundImageFix"/>
<feColorMatrix in="SourceAlpha" type="matrix" values="0 0 0 0 0 0 0 0 0 0 0 0 0 0 0 0 0 0 127 0" result="hardAlpha"/>
<feOffset dy="1.92308"/>
<feColorMatrix type="matrix" values="0 0 0 0 0 0 0 0 0 0 0 0 0 0 0 0 0 0 0.3 0"/>
<feBlend mode="normal" in2="BackgroundImageFix" result="effect1_dropShadow_0_1"/>
<feBlend mode="normal" in="SourceGraphic" in2="effect1_dropShadow_0_1" result="shape"/>
</filter>
<filter id="filter25_d_0_1" x="492.309" y="311.537" width="65.3828" height="82.6926" filterUnits="userSpaceOnUse" color-interpolation-filters="sRGB">
<feFlood flood-opacity="0" result="BackgroundImageFix"/>
<feColorMatrix in="SourceAlpha" type="matrix" values="0 0 0 0 0 0 0 0 0 0 0 0 0 0 0 0 0 0 127 0" result="hardAlpha"/>
<feOffset dy="1.92308"/>
<feColorMatrix type="matrix" values="0 0 0 0 0 0 0 0 0 0 0 0 0 0 0 0 0 0 0.3 0"/>
<feBlend mode="normal" in2="BackgroundImageFix" result="effect1_dropShadow_0_1"/>
<feBlend mode="normal" in="SourceGraphic" in2="effect1_dropShadow_0_1" result="shape"/>
</filter>
<filter id="filter26_d_0_1" x="569.23" y="311.537" width="63.4609" height="82.6926" filterUnits="userSpaceOnUse" color-interpolation-filters="sRGB">
<feFlood flood-opacity="0" result="BackgroundImageFix"/>
<feColorMatrix in="SourceAlpha" type="matrix" values="0 0 0 0 0 0 0 0 0 0 0 0 0 0 0 0 0 0 127 0" result="hardAlpha"/>
<feOffset dy="1.92308"/>
<feColorMatrix type="matrix" values="0 0 0 0 0 0 0 0 0 0 0 0 0 0 0 0 0 0 0.3 0"/>
<feBlend mode="normal" in2="BackgroundImageFix" result="effect1_dropShadow_0_1"/>
<feBlend mode="normal" in="SourceGraphic" in2="effect1_dropShadow_0_1" result="shape"/>
</filter>
<filter id="filter27_d_0_1" x="5.76953" y="311.537" width="80.7695" height="82.6926" filterUnits="userSpaceOnUse" color-interpolation-filters="sRGB">
<feFlood flood-opacity="0" result="BackgroundImageFix"/>
<feColorMatrix in="SourceAlpha" type="matrix" values="0 0 0 0 0 0 0 0 0 0 0 0 0 0 0 0 0 0 127 0" result="hardAlpha"/>
<feOffset dy="1.92308"/>
<feColorMatrix type="matrix" values="0 0 0 0 0 0 0 0 0 0 0 0 0 0 0 0 0 0 0.3 0"/>
<feBlend mode="normal" in2="BackgroundImageFix" result="effect1_dropShadow_0_1"/>
<feBlend mode="normal" in="SourceGraphic" in2="effect1_dropShadow_0_1" result="shape"/>
</filter>
<filter id="filter28_d_0_1" x="663.465" y="311.537" width="80.7695" height="82.6926" filterUnits="userSpaceOnUse" color-interpolation-filters="sRGB">
<feFlood flood-opacity="0" result="BackgroundImageFix"/>
<feColorMatrix in="SourceAlpha" type="matrix" values="0 0 0 0 0 0 0 0 0 0 0 0 0 0 0 0 0 0 127 0" result="hardAlpha"/>
<feOffset dy="1.92308"/>
<feColorMatrix type="matrix" values="0 0 0 0 0 0 0 0 0 0 0 0 0 0 0 0 0 0 0.3 0"/>
<feBlend mode="normal" in2="BackgroundImageFix" result="effect1_dropShadow_0_1"/>
<feBlend mode="normal" in="SourceGraphic" in2="effect1_dropShadow_0_1" result="shape"/>
</filter>
<filter id="filter29_d_0_1" x="5.76953" y="415.385" width="175" height="82.6926" filterUnits="userSpaceOnUse" color-interpolation-filters="sRGB">
<feFlood flood-opacity="0" result="BackgroundImageFix"/>
<feColorMatrix in="SourceAlpha" type="matrix" values="0 0 0 0 0 0 0 0 0 0 0 0 0 0 0 0 0 0 127 0" result="hardAlpha"/>
<feOffset dy="1.92308"/>
<feColorMatrix type="matrix" values="0 0 0 0 0 0 0 0 0 0 0 0 0 0 0 0 0 0 0.3 0"/>
<feBlend mode="normal" in2="BackgroundImageFix" result="effect1_dropShadow_0_1"/>
<feBlend mode="normal" in="SourceGraphic" in2="effect1_dropShadow_0_1" result="shape"/>
</filter>
<filter id="filter30_d_0_1" x="192.309" y="415.385" width="365.383" height="82.6926" filterUnits="userSpaceOnUse" color-interpolation-filters="sRGB">
<feFlood flood-opacity="0" result="BackgroundImageFix"/>
<feColorMatrix in="SourceAlpha" type="matrix" values="0 0 0 0 0 0 0 0 0 0 0 0 0 0 0 0 0 0 127 0" result="hardAlpha"/>
<feOffset dy="1.92308"/>
<feColorMatrix type="matrix" values="0 0 0 0 0 0 0 0 0 0 0 0 0 0 0 0 0 0 0.3 0"/>
<feBlend mode="normal" in2="BackgroundImageFix" result="effect1_dropShadow_0_1"/>
<feBlend mode="normal" in="SourceGraphic" in2="effect1_dropShadow_0_1" result="shape"/>
</filter>
<filter id="filter31_d_0_1" x="569.23" y="415.385" width="175" height="82.6926" filterUnits="userSpaceOnUse" color-interpolation-filters="sRGB">
<feFlood flood-opacity="0" result="BackgroundImageFix"/>
<feColorMatrix in="SourceAlpha" type="matrix" values="0 0 0 0 0 0 0 0 0 0 0 0 0 0 0 0 0 0 127 0" result="hardAlpha"/>
<feOffset dy="1.92308"/>
<feColorMatrix type="matrix" values="0 0 0 0 0 0 0 0 0 0 0 0 0 0 0 0 0 0 0.3 0"/>
<feBlend mode="normal" in2="BackgroundImageFix" result="effect1_dropShadow_0_1"/>
<feBlend mode="normal" in="SourceGraphic" in2="effect1_dropShadow_0_1" result="shape"/>
</filter>
<clipPath id="clip0_0_1">
<rect width="750" height="646" fill="white"/>
</clipPath>
</defs>
</svg>
