<svg width="26" height="26" viewBox="0 0 26 26" fill="none" xmlns="http://www.w3.org/2000/svg"><g id="icon_normal_birthday" xmlns="http://www.w3.org/2000/svg"><g id="Group 149"><path id="Vector" d="M21.4 22.5755H4.6M21.4 22.5755H2.5H4.6M21.4 22.5755H23.5M21.4 22.5755V12.4922C21.4 11.9399 20.9523 11.4922 20.4 11.4922H5.6C5.04772 11.4922 4.6 11.9399 4.6 12.4922V22.5755" stroke="#C3C6CC" stroke-linecap="round" stroke-linejoin="round" /><path id="Vector_2" d="M21.2918 16.8351L19.4164 15.7656L17.2776 16.8351L15.1387 15.7656L12.9998 16.8351L10.8609 15.7656L8.722 16.8351L6.58311 15.7656L4.70312 16.8351" stroke="#C3C6CC" stroke-linecap="round" stroke-linejoin="round" /><path id="Vector_3" d="M17.2773 11.4922V6.67969" stroke="#C3C6CC" stroke-linecap="round" stroke-linejoin="round" /><path id="Vector_4" d="M13 11.4922V6.67969" stroke="#C3C6CC" stroke-linecap="round" stroke-linejoin="round" /><path id="Vector_5" d="M8.72266 11.4922V6.67969" stroke="#C3C6CC" stroke-linecap="round" stroke-linejoin="round" /><path id="Vector_6" d="M17.2773 4.00694V2.9375" stroke="#C3C6CC" stroke-linecap="round" stroke-linejoin="round" /><path id="Vector_7" d="M13 4.00694V2.9375" stroke="#C3C6CC" stroke-linecap="round" stroke-linejoin="round" /><path id="Vector_8" d="M8.72266 4.00694V2.9375" stroke="#C3C6CC" stroke-linecap="round" stroke-linejoin="round" /></g></g></svg>