<svg width="26" height="26" viewBox="0 0 26 26" fill="none" xmlns="http://www.w3.org/2000/svg"><g id="icon_normal_protect" xmlns="http://www.w3.org/2000/svg"><g id="Group 380"><g id="Group 378"><path id="Vector" d="M13.7868 22.2561C13.2168 22.5445 12.6207 22.7939 12.0013 23.0002C6.62605 21.2097 3 16.18 3 10.5143V5.12782L12.0043 2.5L21 5.12782V10.5168C21 11.8947 20.7855 13.2349 20.3836 14.5" stroke="#C3C6CC" stroke-linejoin="round" /><path id="Vector_2" d="M8.30859 11.1202L11.3693 14.351L16.6163 8.8125" stroke="#C3C6CC" stroke-linecap="round" stroke-linejoin="round" /></g><g id="Group 379"><path id="Vector_3" d="M18 24C20.7614 24 23 21.7614 23 19C23 16.2386 20.7614 14 18 14C15.2386 14 13 16.2386 13 19C13 21.7614 15.2386 24 18 24Z" stroke="#C3C6CC" /><path id="Vector_4" d="M17.4453 17.3359V19.5582H19.6675" stroke="#C3C6CC" stroke-linecap="round" stroke-linejoin="round" /></g></g></g></svg>