<svg width="26" height="26" viewBox="0 0 26 26" fill="none" xmlns="http://www.w3.org/2000/svg"><g id="icon_normal_lettering" xmlns="http://www.w3.org/2000/svg"><g id="Group 384"><path id="Subtract" d="M10.5312 17.9209L4.32812 23.7842L3.59766 23.0117L9.80176 17.1484L10.5312 17.9209Z" fill="#C3C6CC" /><path id="Subtract_2" d="M11.2195 13.3408C11.7413 13.237 12.2826 13.2906 12.7742 13.4941C13.2658 13.6978 13.6865 14.0429 13.9822 14.4854C14.2778 14.9278 14.4353 15.4483 14.4353 15.9805C14.4352 16.6941 14.1518 17.3782 13.6472 17.8828C13.1427 18.3873 12.4584 18.6708 11.7449 18.6709C11.2128 18.6708 10.6922 18.5133 10.2498 18.2178C9.80734 17.9221 9.46218 17.5014 9.25854 17.0098C9.05499 16.5182 9.00143 15.9769 9.10522 15.4551C9.20906 14.9332 9.46535 14.4534 9.84155 14.0771C10.2178 13.7009 10.6977 13.4447 11.2195 13.3408ZM13.5701 18.208C13.5537 18.2215 13.535 18.2321 13.5183 18.2451C13.5348 18.2322 13.5529 18.2213 13.5691 18.208L13.781 18.0166L13.5701 18.208ZM11.7449 14.3516C11.4229 14.3516 11.1073 14.4471 10.8396 14.626C10.572 14.8049 10.3632 15.06 10.24 15.3574C10.1169 15.6548 10.0845 15.9822 10.1472 16.2979C10.21 16.6136 10.3659 16.9041 10.5935 17.1318C10.821 17.3592 11.111 17.5142 11.4265 17.5771C11.7423 17.64 12.0705 17.6075 12.3679 17.4844C12.6653 17.3611 12.9195 17.1524 13.0984 16.8848C13.2772 16.6171 13.3728 16.3024 13.3728 15.9805C13.3728 15.5487 13.2014 15.1345 12.8962 14.8291C12.591 14.5239 12.1765 14.3516 11.7449 14.3516ZM11.8572 17.4141C11.8422 17.4152 11.8273 17.4163 11.8123 17.417C11.8273 17.4163 11.8422 17.4152 11.8572 17.4141ZM11.6638 17.417C11.6501 17.4162 11.6365 17.4143 11.6228 17.4131C11.6365 17.4143 11.6501 17.4162 11.6638 17.417ZM12.0457 17.3867C12.0294 17.3902 12.0132 17.3936 11.9968 17.3965C12.0132 17.3936 12.0294 17.3902 12.0457 17.3867ZM12.4744 17.2207C12.4623 17.2278 12.4495 17.2335 12.4373 17.2402C12.4495 17.2335 12.4623 17.2278 12.4744 17.2207ZM12.6335 17.1104C12.6222 17.1193 12.611 17.1282 12.5994 17.1367C12.611 17.1282 12.6222 17.1193 12.6335 17.1104ZM12.7751 16.9844C12.7669 16.9928 12.7591 17.0016 12.7507 17.0098C12.7591 17.0016 12.7669 16.9928 12.7751 16.9844ZM13.0408 16.6055C13.0351 16.6173 13.0292 16.629 13.0232 16.6406C13.0292 16.629 13.0351 16.6173 13.0408 16.6055ZM13.158 16.249C13.1559 16.2601 13.1535 16.2712 13.1511 16.2822C13.1535 16.2712 13.1558 16.2601 13.158 16.249ZM14.4314 14.9443C14.5582 15.2732 14.6248 15.6244 14.6248 15.9805C14.6248 16.0485 14.6188 16.1161 14.614 16.1836L14.6238 15.9805C14.6238 15.6247 14.5581 15.2739 14.4314 14.9453V14.9443ZM10.3083 15.8984C10.3086 15.8935 10.309 15.8887 10.3093 15.8838C10.309 15.8887 10.3086 15.8935 10.3083 15.8984ZM13.0154 15.3027V15.3018V15.3027ZM10.4919 15.2715C10.4947 15.2667 10.497 15.2616 10.4998 15.2568C10.497 15.2616 10.4947 15.2667 10.4919 15.2715ZM9.0144 15.0684C8.99464 15.1276 8.97662 15.1875 8.96069 15.248C8.97663 15.1875 8.99462 15.1276 9.0144 15.0684ZM10.5916 15.1182C10.596 15.1122 10.6007 15.1065 10.6052 15.1006C10.6007 15.1065 10.596 15.1122 10.5916 15.1182ZM10.7175 14.9717C10.7209 14.9682 10.7249 14.9653 10.7283 14.9619C10.7248 14.9653 10.7209 14.9682 10.7175 14.9717ZM12.6648 14.873C12.6985 14.9011 12.7312 14.9307 12.7625 14.9619C12.7312 14.9307 12.6985 14.9011 12.6648 14.873ZM12.5515 14.7881C12.5783 14.8062 12.604 14.8258 12.6296 14.8457C12.6041 14.8258 12.5783 14.8062 12.5515 14.7881ZM12.4353 14.7178C12.4639 14.7334 12.4918 14.75 12.5193 14.7676C12.4918 14.75 12.4639 14.7334 12.4353 14.7178ZM14.0144 14.208C14.058 14.2638 14.0999 14.3217 14.1394 14.3809C14.1788 14.4398 14.216 14.5001 14.2507 14.5615L14.3484 14.75C14.2881 14.6224 14.2175 14.4992 14.1384 14.3809L14.0144 14.208ZM12.3181 14.6611C12.3435 14.6722 12.3686 14.6838 12.3933 14.6963C12.3686 14.6838 12.3435 14.6722 12.3181 14.6611ZM12.199 14.6152C12.2253 14.624 12.2513 14.6333 12.2771 14.6436C12.2513 14.6333 12.2253 14.624 12.199 14.6152ZM12.075 14.5801C12.0985 14.5856 12.1221 14.591 12.1453 14.5977C12.1221 14.5909 12.0985 14.5856 12.075 14.5801ZM11.9216 14.5527C11.9524 14.5565 11.9831 14.5606 12.0134 14.5664C11.9831 14.5606 11.9524 14.5565 11.9216 14.5527ZM13.571 13.7549C13.6256 13.7997 13.6791 13.8458 13.7302 13.8945L13.8777 14.0459C13.7828 13.9412 13.68 13.8443 13.571 13.7549ZM16.9402 13.4512C17.1548 13.531 17.3739 13.5977 17.5964 13.6514C17.3739 13.5977 17.1548 13.531 16.9402 13.4512ZM24.7312 10.1484L22.8777 11.9951C21.8338 13.0377 20.4185 13.6243 18.9431 13.625C17.8424 13.6243 16.7665 13.2971 15.8513 12.6855C14.936 12.0739 14.2222 11.2044 13.8005 10.1875C13.379 9.17065 13.2683 8.05147 13.4822 6.97168C13.6961 5.89188 14.2253 4.89849 15.0027 4.11914L16.8347 2.26758L24.7312 10.1484ZM12.4431 13.1875V13.1865V13.1875ZM15.7595 4.86719L15.7585 4.86816C15.3377 5.28655 15.0033 5.78423 14.7751 6.33203C14.547 6.87996 14.429 7.46799 14.4285 8.06152C14.4278 8.95375 14.6918 9.82634 15.1873 10.5684C15.6829 11.3104 16.3882 11.8893 17.2126 12.2305C18.0373 12.5716 18.9459 12.6604 19.821 12.4854C20.696 12.3102 21.4988 11.8781 22.1287 11.2461L23.2263 10.1494L23.0945 10.0166L17.0115 3.9043L16.8796 3.77148L15.7595 4.86719ZM19.0964 12.3789C19.0156 12.3819 18.935 12.3834 18.8542 12.3818C18.935 12.3834 19.0156 12.3819 19.0964 12.3789ZM18.7839 12.3789C18.706 12.3762 18.6282 12.3722 18.5505 12.3652C18.6282 12.3722 18.706 12.3761 18.7839 12.3789ZM19.4519 12.3525C19.3567 12.364 19.2613 12.3719 19.1658 12.377C19.2613 12.3719 19.3567 12.364 19.4519 12.3525ZM18.4695 12.3564C18.3986 12.3487 18.328 12.3393 18.2576 12.3281C18.328 12.3393 18.3986 12.3487 18.4695 12.3564ZM24.9978 10.1494L23.0115 12.1289C22.9457 12.1946 22.8779 12.2582 22.8093 12.3203L23.0105 12.1289L24.9978 10.1494L16.8337 2H16.8347L24.9978 10.1494ZM18.158 12.3115C18.0886 12.2988 18.0197 12.2837 17.9509 12.2676C18.0197 12.2837 18.0886 12.2988 18.158 12.3115ZM20.3982 12.1289C20.1988 12.2005 19.9934 12.2579 19.7839 12.2998C19.9935 12.2579 20.1987 12.2006 20.3982 12.1289ZM17.5847 12.166C17.484 12.1328 17.3834 12.0974 17.2849 12.0566C17.1864 12.0159 17.0897 11.9715 16.9949 11.9238C17.0898 11.9716 17.1873 12.0158 17.2859 12.0566C17.3842 12.0973 17.4842 12.1329 17.5847 12.166ZM13.9031 10.835C14.0824 11.1601 14.2927 11.4663 14.53 11.75C14.2927 11.4664 14.0824 11.1602 13.9031 10.835ZM15.3386 10.4551C15.2833 10.3719 15.2315 10.2866 15.1824 10.2002C15.2315 10.2867 15.2833 10.3719 15.3386 10.4551ZM15.155 10.1484C15.1164 10.0783 15.0793 10.0075 15.0447 9.93555C15.0793 10.0075 15.1164 10.0783 15.155 10.1484ZM15.0037 9.84668C14.9755 9.78443 14.9488 9.72164 14.9236 9.6582C14.9488 9.72164 14.9755 9.78443 15.0037 9.84668ZM14.8855 9.55957C14.864 9.50139 14.8439 9.44281 14.825 9.38379C14.8439 9.44281 14.864 9.50139 14.8855 9.55957ZM14.7839 9.24805C14.7717 9.20498 14.7607 9.1616 14.7498 9.11816C14.7607 9.1616 14.7717 9.20498 14.7839 9.24805ZM14.7117 8.95801C14.6955 8.88132 14.6817 8.80414 14.6697 8.72656C14.6817 8.80414 14.6955 8.88132 14.7117 8.95801ZM14.6287 8.38086C14.6361 8.48166 14.6475 8.58193 14.6619 8.68164C14.6475 8.58195 14.6361 8.48164 14.6287 8.38086ZM13.2595 7.14453C13.2192 7.39641 13.1959 7.64992 13.1892 7.90332C13.194 7.72052 13.2079 7.53773 13.2302 7.35547L13.2595 7.14453ZM14.6277 7.77832C14.6303 7.73954 14.6328 7.70078 14.6365 7.66211C14.6328 7.70078 14.6303 7.73954 14.6277 7.77832ZM14.6501 7.54004C14.6528 7.51855 14.655 7.49702 14.658 7.47559C14.655 7.49702 14.6528 7.51855 14.6501 7.54004ZM14.7107 7.16992C14.7176 7.13756 14.7256 7.10544 14.7332 7.07324C14.7256 7.10545 14.7176 7.13756 14.7107 7.16992ZM14.7605 6.96387C14.7685 6.93347 14.7772 6.90327 14.7859 6.87305C14.7772 6.90327 14.7685 6.93347 14.7605 6.96387ZM15.3513 5.65723V5.65625V5.65723ZM14.5798 4.29883C14.5336 4.35254 14.4892 4.40762 14.4451 4.46289L14.3152 4.63086C14.3992 4.5172 14.4874 4.40635 14.5798 4.29883ZM17.865 12.248C17.7744 12.2249 17.6846 12.199 17.5955 12.1699C17.6846 12.199 17.7745 12.2249 17.865 12.248Z" fill="#C3C6CC" /><path id="Subtract_3" d="M11.8359 7.89648L5.8457 11.2256L5.76074 11.2725L5.75 11.3691L4.46094 22.6348L4.43262 22.8877L17.1123 20.5479L17.1494 20.4482L19.0977 15.2471L20.0918 15.624L17.8916 21.4893L3.21582 24.1875L4.7666 10.6074L11.3193 6.9668L11.8359 7.89648Z" fill="#C3C6CC" /></g></g></svg>