<svg width="26" height="26" viewBox="0 0 26 26" fill="none" xmlns="http://www.w3.org/2000/svg"><g id="icon_normal_precedence" xmlns="http://www.w3.org/2000/svg"><g id="Group 375"><path id="Vector" d="M10.7963 17.8623L13.9074 18.8993C13.9074 18.8993 21.6852 17.3438 22.7222 17.3438C23.7593 17.3438 23.7593 18.3808 22.7222 19.4178C21.6852 20.4549 18.0556 23.566 14.9444 23.566C11.8333 23.566 9.75926 22.0104 7.68519 22.0104C5.61111 22.0104 2.5 22.0104 2.5 22.0104" stroke="#C3C6CC" stroke-width="0.957265" stroke-linecap="round" stroke-linejoin="round" /><path id="Vector_2" d="M2.5 15.7879C3.53704 14.7509 5.61111 13.1953 7.68519 13.1953C9.75926 13.1953 14.6852 15.2694 15.463 16.3064C16.2407 17.3435 13.9074 18.899 13.9074 18.899" stroke="#C3C6CC" stroke-width="0.957265" stroke-linecap="round" stroke-linejoin="round" /><path id="Vector_3" d="M8.72266 10.0836V5.93547C8.72266 5.36273 9.18694 4.89844 9.75969 4.89844H22.2041C22.7769 4.89844 23.2412 5.36273 23.2412 5.93547V14.2318" stroke="#C3C6CC" stroke-width="0.957265" stroke-linecap="round" stroke-linejoin="round" /><path id="Vector_4" d="M18.5739 4.89844H13.3887V9.5651H18.5739V4.89844Z" stroke="#C3C6CC" stroke-width="0.957265" stroke-linecap="round" stroke-linejoin="round" /></g></g></svg>