<svg preserveAspectRatio="none" width="100%" height="100%" overflow="visible" style="display: block;" viewBox="0 0 10 12" fill="none" xmlns="http://www.w3.org/2000/svg">
<path id="Vector" d="M5.77556 4.73587L4.47348 4.61871C3.505 4.53546 3.23751 4.30113 3.23751 3.71531C3.23751 3.24666 3.45427 2.74409 4.9731 2.76105C6.42583 2.76105 7.89547 3.02929 9.43121 3.38078L9.64796 0.568861C8.3628 0.21737 6.64258 1.71525e-06 4.9731 1.71525e-06C1.91852 -0.00153991 0.0491929 1.03597 0.0322829 3.61357C-0.00153728 6.27595 1.41737 6.96197 4.59032 7.1963C5.85857 7.27955 6.97771 7.41367 6.97771 8.33402C6.97771 9.037 6.45965 9.22199 4.97464 9.17112C3.43889 9.1372 1.90315 8.83659 0.233666 8.40031L0 11.297C1.51883 11.8165 3.35588 12 4.97464 12C9.56649 12 10 9.92343 10 8.31706C10 6.09096 9.21599 5.06886 5.77556 4.73433V4.73587Z" fill="var(--fill-0, white)"/>
</svg>
