<svg width="26" height="26" viewBox="0 0 26 26" fill="none" xmlns="http://www.w3.org/2000/svg"><g id="icon_normal_service" xmlns="http://www.w3.org/2000/svg"><g id="Group 382"><path id="Subtract" d="M4.64648 24.1143L4.56543 24.1182C4.61447 24.1182 4.66227 24.1122 4.70898 24.1035C4.68831 24.1073 4.66766 24.1121 4.64648 24.1143ZM12.6582 6.83398C14.3183 6.83398 15.6098 7.33612 16.4863 8.22559C17.3632 9.11558 17.8593 10.4281 17.8594 12.1162C17.8594 12.3702 17.8549 12.6247 17.8506 12.8906C17.8422 13.1734 17.6138 13.39 17.332 13.3818C17.0509 13.3733 16.8327 13.1438 16.8398 12.8662C16.8486 12.6109 16.8486 12.3605 16.8486 12.1162C16.8486 10.7514 16.5098 9.67042 15.7861 8.93164C15.0612 8.19174 13.9984 7.84375 12.6582 7.84375H12.4736C11.1334 7.84375 10.0706 8.19174 9.3457 8.93164C8.62205 9.67042 8.28323 10.7514 8.2832 12.1162C8.2832 13.3935 8.32127 14.7151 8.61035 15.876C8.90088 17.0425 9.452 18.0773 10.4961 18.7422L10.4971 18.7432C10.6419 18.8344 10.7295 18.993 10.7295 19.1689V20.5322C10.7293 20.7581 10.5789 20.9526 10.3711 21.0156L10.2793 21.0342C8.65349 21.2061 7.38538 21.5317 6.51465 21.9141C6.0806 22.1047 5.73275 22.3149 5.48828 22.5371C5.24985 22.7539 5.07031 23.0196 5.07031 23.3184C5.07025 23.5941 4.84123 23.8232 4.56543 23.8232C4.28534 23.8232 4.06061 23.5984 4.06055 23.3184C4.06055 22.5865 4.486 21.9196 5.39648 21.3584C6.31131 20.7946 7.68104 20.3631 9.46484 20.1143L9.71973 20.0791V19.4355L9.60352 19.3477C8.45439 18.4671 7.86834 17.203 7.57129 15.875C7.27357 14.5439 7.27246 13.1775 7.27246 12.1162C7.27249 10.4281 7.76863 9.11558 8.64551 8.22559C9.522 7.33612 10.8136 6.83398 12.4736 6.83398H12.6582ZM3.76953 23.4004C3.77363 23.4409 3.78212 23.4801 3.79199 23.5186C3.78866 23.5056 3.78492 23.4927 3.78223 23.4795L3.76953 23.4004ZM5.38477 23.1826H5.38574H5.38477ZM5.5166 22.9375C5.52163 22.9309 5.52695 22.9245 5.53223 22.918C5.52695 22.9245 5.52163 22.9309 5.5166 22.9375ZM5.60156 22.8428C5.62389 22.8191 5.6464 22.7942 5.67188 22.7705C5.6464 22.7942 5.62389 22.8191 5.60156 22.8428ZM5.73535 22.7158C5.76715 22.6888 5.80009 22.6608 5.83594 22.6338C5.80009 22.6608 5.76715 22.6888 5.73535 22.7158ZM5.94043 22.5596C5.96999 22.5394 6.00043 22.5191 6.03223 22.499C6.00043 22.5191 5.96999 22.5394 5.94043 22.5596ZM6.16602 22.4189C6.20076 22.3991 6.23648 22.3791 6.27344 22.3594C6.23648 22.3791 6.20076 22.3991 6.16602 22.4189ZM6.40723 22.29C6.46325 22.2624 6.5216 22.2352 6.58203 22.208C6.5216 22.2352 6.46325 22.2624 6.40723 22.29ZM6.67969 22.165C6.74993 22.1349 6.82273 22.1047 6.89844 22.0752C6.82273 22.1047 6.74993 22.1349 6.67969 22.165ZM7.01074 22.0322C7.09783 21.9999 7.18845 21.9687 7.28223 21.9375C7.18845 21.9687 7.09783 21.9999 7.01074 22.0322ZM7.3623 21.9102C7.46178 21.8781 7.56524 21.848 7.67188 21.8174C7.56524 21.848 7.46178 21.8781 7.3623 21.9102ZM7.76953 21.7891C7.86934 21.7614 7.97235 21.7353 8.07812 21.709C7.97235 21.7353 7.86934 21.7614 7.76953 21.7891ZM8.22363 21.6719C8.32047 21.649 8.41994 21.628 8.52148 21.6064C8.41994 21.628 8.32047 21.649 8.22363 21.6719ZM8.68457 21.5713C8.82667 21.5428 8.97323 21.5161 9.12402 21.4902C8.97324 21.5161 8.82667 21.5428 8.68457 21.5713ZM9.72559 21.3975C9.53817 21.423 9.35655 21.451 9.18066 21.4805C9.35655 21.4509 9.53817 21.423 9.72559 21.3975ZM7.66895 17.2012C7.89947 17.7753 8.20747 18.3212 8.61719 18.8086C8.20748 18.3211 7.89942 17.7753 7.66895 17.2012ZM8.80273 15.377C8.85834 15.6668 8.92722 15.9477 9.0127 16.2168C8.92709 15.9474 8.8584 15.6662 8.80273 15.376V15.377ZM17.4072 13.6758L17.3242 13.6777C17.3719 13.6791 17.4184 13.6745 17.4639 13.668C17.4451 13.6707 17.4264 13.6744 17.4072 13.6758ZM16.5713 13.0791C16.593 13.1635 16.6285 13.2423 16.6748 13.3135C16.6284 13.2423 16.5931 13.1635 16.5713 13.0791ZM16.5479 12.9385C16.551 12.9819 16.5585 13.0242 16.5684 13.0654C16.5646 13.0496 16.5604 13.0338 16.5576 13.0176L16.5479 12.9385ZM6.99219 11.6367C6.9833 11.7935 6.97754 11.9533 6.97754 12.1162C6.97754 11.9533 6.9833 11.7935 6.99219 11.6367ZM8.95996 10.0234C8.78144 10.4222 8.66603 10.8841 8.6123 11.4082C8.62765 11.2586 8.64732 11.114 8.67285 10.9746C8.71119 10.7652 8.76098 10.5672 8.82227 10.3809C8.86314 10.2566 8.90892 10.1374 8.95996 10.0234ZM16.5205 11.4082C16.4668 10.8841 16.3504 10.4222 16.1719 10.0234C16.2229 10.1374 16.2687 10.2566 16.3096 10.3809C16.3709 10.5672 16.4206 10.7652 16.459 10.9746C16.4845 11.114 16.5052 11.2586 16.5205 11.4082ZM5.37988 23.208C5.38188 23.1997 5.38232 23.1909 5.38477 23.1826C5.38232 23.1909 5.38188 23.1997 5.37988 23.208ZM5.41797 23.0986C5.42485 23.0837 5.4322 23.0687 5.44043 23.0537C5.4322 23.0687 5.42485 23.0837 5.41797 23.0986ZM18.1387 12.9805C18.1323 13.03 18.1212 13.0779 18.1064 13.124C18.1212 13.0779 18.1323 13.03 18.1387 12.9805Z" fill="#C3C6CC" /><path id="Subtract_2" d="M20.8809 24.085C20.8523 24.0939 20.8228 24.0998 20.793 24.1055C20.7965 24.1048 20.8002 24.1052 20.8037 24.1045L20.8809 24.085ZM14.9795 18.7021C15.2375 18.7021 15.4443 18.909 15.4443 19.167V20.1162L15.7334 20.1562C17.5145 20.4025 18.878 20.8334 19.7861 21.3936C20.6895 21.9508 21.1035 22.6078 21.1035 23.3213V23.3242C21.106 23.5759 20.9001 23.7861 20.6426 23.7861C20.3848 23.786 20.1779 23.5791 20.1777 23.3213C20.1777 23.0055 19.9894 22.7294 19.7471 22.5088C19.4981 22.2823 19.1455 22.0703 18.709 21.8789C17.8333 21.495 16.5608 21.1693 14.9326 20.9971C14.6941 20.9718 14.5146 20.7708 14.5146 20.5342V19.167C14.5147 18.909 14.7215 18.7022 14.9795 18.7021ZM19.8467 23.4033C19.8508 23.4438 19.8592 23.483 19.8691 23.5215C19.8658 23.5085 19.8621 23.4956 19.8594 23.4824L19.8467 23.4033ZM19.8223 23.1855C19.8242 23.192 19.8255 23.1986 19.8271 23.2051C19.8255 23.1986 19.8242 23.192 19.8223 23.1855ZM19.6797 22.9248C19.6818 22.9275 19.6844 22.9299 19.6865 22.9326C19.6844 22.9299 19.6818 22.9275 19.6797 22.9248ZM19.541 22.7764C19.5649 22.7989 19.5863 22.8223 19.6074 22.8447C19.5863 22.8223 19.565 22.7989 19.541 22.7764ZM19.373 22.6357C19.4041 22.6592 19.4329 22.6835 19.4609 22.707C19.4329 22.6835 19.4041 22.6592 19.373 22.6357ZM19.1748 22.5C19.2066 22.52 19.237 22.5404 19.2666 22.5605C19.237 22.5404 19.2066 22.52 19.1748 22.5ZM18.9375 22.3623C18.9731 22.3813 19.0075 22.4007 19.041 22.4199C19.0075 22.4008 18.9731 22.3813 18.9375 22.3623ZM18.6572 22.2246C18.6996 22.244 18.7411 22.2626 18.7812 22.2822C18.7411 22.2627 18.6996 22.244 18.6572 22.2246ZM18.3184 22.0811C18.3821 22.1059 18.444 22.1309 18.5039 22.1562C18.444 22.1309 18.3821 22.1059 18.3184 22.0811ZM17.9688 21.9541C18.0456 21.9801 18.1201 22.0065 18.1924 22.0332C18.1201 22.0065 18.0456 21.9801 17.9688 21.9541ZM17.5898 21.835C17.6669 21.8575 17.7422 21.88 17.8154 21.9033C17.7422 21.88 17.6669 21.8575 17.5898 21.835ZM20.7314 21.71V21.7109V21.71ZM17.1992 21.7285C17.2702 21.7466 17.34 21.7645 17.4082 21.7832C17.34 21.7645 17.2702 21.7466 17.1992 21.7285ZM16.6582 21.6035C16.7692 21.6269 16.8779 21.649 16.9834 21.6738C16.8779 21.649 16.7692 21.6268 16.6582 21.6035ZM16.2637 21.5264C16.3517 21.5424 16.4385 21.5572 16.5234 21.5742C16.4385 21.5572 16.3517 21.5424 16.2637 21.5264Z" fill="#C3C6CC" /><path id="Subtract_3" d="M16.2294 16.9025C15.9687 16.9226 15.7127 16.9349 15.4667 16.9406L15.1054 16.9445C15.4576 16.9445 15.8382 16.9326 16.2294 16.9025ZM12.7079 16.4718C12.8057 16.6377 12.9635 16.768 13.1611 16.8283C13.013 16.7831 12.8868 16.6993 12.7919 16.59L12.7079 16.4718ZM18.1952 16.5636C17.9428 16.6383 17.6824 16.7005 17.4189 16.7502C17.6824 16.7005 17.9428 16.6383 18.1952 16.5636ZM19.3798 14.2287C19.5209 14.0424 19.779 13.973 19.9989 14.0793L20.0019 14.0802C20.253 14.1991 20.3585 14.503 20.2372 14.7511L20.2363 14.7531C19.8718 15.5117 19.0876 15.9925 18.1113 16.2814C17.1404 16.5686 16.032 16.6495 15.1054 16.6496C14.0972 16.6496 13.3354 16.5537 13.2314 16.5402C12.9926 16.4588 12.85 16.2142 12.9032 15.9601L12.9042 15.9582C12.9541 15.7114 13.1867 15.5378 13.456 15.5607L13.8495 15.5978C14.7927 15.6721 15.8983 15.6602 16.8661 15.5177C17.4183 15.4364 17.9391 15.3105 18.3632 15.1261C18.7807 14.9445 19.1487 14.6864 19.3271 14.3156L19.3798 14.2287ZM12.5976 16.0509C12.5966 16.1012 12.6002 16.1509 12.6083 16.1994C12.6003 16.1512 12.5966 16.1019 12.5976 16.0519V16.0509ZM15.0859 15.3468C15.0562 15.347 15.0266 15.3469 14.997 15.3468C15.0266 15.3469 15.0562 15.347 15.0859 15.3468ZM15.5077 15.339C15.4654 15.3405 15.4231 15.3409 15.3808 15.342C15.4231 15.3409 15.4654 15.3405 15.5077 15.339ZM15.9648 15.3156C15.8811 15.3213 15.797 15.3252 15.7128 15.3293C15.797 15.3252 15.8811 15.3213 15.9648 15.3156ZM16.3525 15.2834C16.272 15.2914 16.1908 15.2974 16.1093 15.3039C16.1908 15.2974 16.272 15.2914 16.3525 15.2834ZM16.7489 15.2355C16.7053 15.2416 16.6613 15.2466 16.6171 15.2521C16.6613 15.2466 16.7053 15.2416 16.7489 15.2355ZM17.1366 15.173C17.103 15.1792 17.0691 15.1847 17.0351 15.1906C17.0691 15.1847 17.103 15.1792 17.1366 15.173ZM17.5185 15.091C17.4726 15.1022 17.4259 15.1119 17.3788 15.1222C17.4259 15.1119 17.4726 15.1022 17.5185 15.091ZM17.8632 14.9953C17.8145 15.0106 17.7644 15.024 17.7138 15.0382C17.7644 15.024 17.8145 15.0106 17.8632 14.9953ZM18.2138 14.8673C18.1604 14.8899 18.1047 14.91 18.0478 14.9308C18.1047 14.91 18.1604 14.8899 18.2138 14.8673ZM18.3173 14.8214C18.3017 14.8287 18.2864 14.8368 18.2704 14.8439C18.2864 14.8368 18.3017 14.8287 18.3173 14.8214ZM18.4599 14.7511C18.44 14.7619 18.42 14.7729 18.3993 14.7834C18.42 14.7729 18.44 14.7619 18.4599 14.7511Z" fill="#C3C6CC" /><path id="Subtract_4" d="M22.2822 16.1016L22.2002 16.1055C22.249 16.1055 22.2965 16.1001 22.3428 16.0918C22.3228 16.0954 22.3027 16.0995 22.2822 16.1016ZM12.5977 2.79492C17.1 2.79492 20.8019 6.34695 21.085 10.8262L21.0967 11.0205L22.3691 11.4727C22.5688 11.5428 22.7049 11.7367 22.7051 11.9473V15.3057C22.7051 15.5858 22.4803 15.8105 22.2002 15.8105C21.9201 15.8105 21.6953 15.5858 21.6953 15.3057V12.3027L21.5 12.2334L20.4287 11.8506L20.4277 11.8496L20.3555 11.8184C20.1956 11.7315 20.091 11.5602 20.0908 11.376C20.0907 7.20435 16.7326 3.80078 12.5977 3.80078C8.46283 3.80094 5.10457 7.20445 5.10449 11.376C5.10434 11.5378 5.02631 11.6896 4.89258 11.7852L4.42871 12.1162L4.30469 12.2041V15.3057C4.30469 15.5858 4.07994 15.8105 3.7998 15.8105C3.51968 15.8105 3.29492 15.5858 3.29492 15.3057V11.9473C3.29502 11.7854 3.37302 11.6337 3.50684 11.5381L3.50781 11.5371L3.98047 11.1982L4.09668 11.1143L4.10254 10.9717C4.31494 6.42589 8.04571 2.79507 12.5977 2.79492ZM22.915 11.5918C22.9513 11.6642 22.9772 11.742 22.9902 11.8232C22.9772 11.7421 22.9514 11.6641 22.915 11.5918ZM5.37695 11.5645C5.37549 11.5704 5.3727 11.5761 5.37109 11.582C5.37364 11.5726 5.37671 11.5633 5.37891 11.5537L5.37695 11.5645ZM22.4668 11.1953C22.5863 11.2373 22.6909 11.3066 22.7754 11.3945C22.7191 11.336 22.6538 11.2855 22.5811 11.2461L22.4668 11.1953ZM19.7139 10.2793C19.7613 10.5952 19.7882 10.9175 19.7939 11.2451C19.7882 10.9175 19.7613 10.5952 19.7139 10.2793ZM5.69531 9.31152C5.66133 9.4275 5.63087 9.5448 5.60254 9.66309C5.63088 9.5448 5.66132 9.4275 5.69531 9.31152ZM19.4805 9.24414C19.5042 9.3223 19.5257 9.40123 19.5469 9.48047C19.5257 9.40123 19.5042 9.3223 19.4805 9.24414ZM19.3652 8.89551C19.3921 8.97008 19.417 9.04542 19.4414 9.12109C19.417 9.04542 19.392 8.97008 19.3652 8.89551ZM19.1016 8.25977C19.1305 8.32129 19.1573 8.38383 19.1846 8.44629C19.1573 8.38383 19.1305 8.32129 19.1016 8.25977ZM18.9385 7.93457C18.9731 7.99953 19.0054 8.06572 19.0381 8.13184C19.0054 8.06572 18.9731 7.99953 18.9385 7.93457ZM18.7754 7.64453C18.813 7.70794 18.849 7.77228 18.8848 7.83691C18.849 7.77228 18.813 7.70794 18.7754 7.64453ZM18.5996 7.36328C18.6345 7.41649 18.6686 7.47024 18.7021 7.52441C18.6686 7.47024 18.6345 7.41649 18.5996 7.36328ZM18.3965 7.06934C18.435 7.12218 18.4727 7.17558 18.5098 7.22949C18.4727 7.17558 18.435 7.12218 18.3965 7.06934ZM18.1855 6.79395C18.231 6.85054 18.2755 6.90785 18.3193 6.96582C18.2755 6.90785 18.231 6.85054 18.1855 6.79395ZM17.958 6.52441C18.0081 6.58092 18.0572 6.63822 18.1055 6.69629C18.0572 6.63822 18.0081 6.58092 17.958 6.52441ZM17.7383 6.28711C17.7855 6.33593 17.832 6.38541 17.8779 6.43555C17.832 6.38541 17.7855 6.33592 17.7383 6.28711ZM17.499 6.05078C17.5428 6.09199 17.5862 6.1335 17.6289 6.17578C17.5862 6.1335 17.5428 6.09199 17.499 6.05078ZM17.2305 5.81055C17.2798 5.85263 17.3288 5.89509 17.377 5.93848C17.3288 5.89509 17.2798 5.85263 17.2305 5.81055ZM16.9736 5.60059C17.0287 5.64337 17.0829 5.68711 17.1367 5.73145C17.0829 5.68711 17.0287 5.64337 16.9736 5.60059ZM16.7148 5.40918C16.7577 5.43953 16.8006 5.46972 16.8428 5.50098C16.8006 5.46972 16.7577 5.43952 16.7148 5.40918ZM16.4346 5.2207C16.4764 5.24749 16.5183 5.27413 16.5596 5.30176C16.5183 5.27413 16.4764 5.24749 16.4346 5.2207ZM6.51758 4.9668H6.51855H6.51758ZM16.1309 5.03613C16.1803 5.06442 16.2296 5.09265 16.2783 5.12207C16.2296 5.09265 16.1803 5.06442 16.1309 5.03613ZM15.8154 4.86621C15.8704 4.89412 15.9253 4.92189 15.9795 4.95117C15.9253 4.92189 15.8704 4.89412 15.8154 4.86621ZM15.4951 4.71289C15.5564 4.74025 15.6174 4.76785 15.6777 4.79688C15.6174 4.76785 15.5564 4.74025 15.4951 4.71289ZM15.1572 4.57227C15.2274 4.59936 15.2971 4.62702 15.3662 4.65625C15.2971 4.62702 15.2274 4.59936 15.1572 4.57227ZM14.7344 4.42285C14.841 4.45645 14.9464 4.49283 15.0508 4.53125C14.9464 4.49284 14.841 4.45644 14.7344 4.42285ZM14.1436 4.26562C14.2254 4.28382 14.3069 4.30225 14.3877 4.32324C14.3069 4.30225 14.2254 4.28381 14.1436 4.26562ZM13.6904 4.17871C13.8049 4.19643 13.9186 4.2171 14.0312 4.24023C13.9186 4.2171 13.8049 4.19643 13.6904 4.17871ZM16.999 3.69238H17H16.999ZM19.5693 9.55957C19.5976 9.67049 19.6223 9.78263 19.6455 9.89551C19.6223 9.78263 19.5976 9.67049 19.5693 9.55957ZM19.6504 9.91895C19.6722 10.0271 19.691 10.1362 19.708 10.2461C19.691 10.1362 19.6722 10.0271 19.6504 9.91895ZM19.2441 8.58398C19.278 8.66619 19.3098 8.74932 19.3408 8.83301C19.3099 8.74932 19.278 8.66619 19.2441 8.58398ZM14.4258 4.33398C14.5295 4.36157 14.6325 4.39074 14.7344 4.42285C14.6325 4.39075 14.5295 4.36156 14.4258 4.33398ZM13.4463 4.14746C13.528 4.15722 13.6096 4.1662 13.6904 4.17871C13.6096 4.1662 13.528 4.15722 13.4463 4.14746Z" fill="#C3C6CC" /></g></g></svg>