<svg width="48" height="48" viewBox="0 0 48 48" fill="none" xmlns="http://www.w3.org/2000/svg"><circle cx="24" cy="24" r="24" fill="#414141"/><g transform="translate(11 11)"><g id="icon_hover_membership gift" xmlns="http://www.w3.org/2000/svg"><g id="Group 240"><path id="Vector" d="M19.9235 22.6024C20.4333 22.6024 20.8466 22.1891 20.8466 21.6793V11.1562H5.1543V21.6793C5.1543 22.1891 5.56757 22.6024 6.07737 22.6024H19.9235Z" stroke="white" stroke-width="0.923077" stroke-linecap="round" stroke-linejoin="round" /><path id="Vector_2" d="M13 22.2332V11.1562" stroke="white" stroke-width="0.923077" stroke-linecap="round" stroke-linejoin="round" /><path id="Vector_3" d="M21.4922 7.45996C21.8999 7.46006 22.2305 7.79144 22.2305 8.19922V10.4141C22.2305 10.8218 21.8999 11.1522 21.4922 11.1523H4.50781C4.09997 11.1523 3.76855 10.8219 3.76855 10.4141V8.19922C3.76855 7.79138 4.09997 7.45996 4.50781 7.45996H21.4922Z" stroke="white" stroke-width="0.923077" stroke-linejoin="round" /><path id="Vector_4" d="M9.30859 3.76562L13.0009 7.45793L16.6932 3.76562" stroke="white" stroke-width="0.923077" stroke-linecap="round" stroke-linejoin="round" /></g></g></g></svg>