<svg preserveAspectRatio="none" width="100%" height="100%" overflow="visible" style="display: block;" viewBox="0 0 479.87 479.87" fill="none" xmlns="http://www.w3.org/2000/svg">
<path id="Ellipse 219" d="M471.96 240C476.4 240 480.014 236.399 479.865 231.961C478.369 187.308 464.434 143.9 439.553 106.663C413.181 67.1955 375.698 36.4341 331.844 18.269C287.99 0.103988 239.734 -4.64881 193.178 4.61164C146.623 13.8721 103.859 36.7299 70.2945 70.2945C36.7299 103.859 13.8721 146.623 4.61164 193.178C-4.64881 239.734 0.103989 287.99 18.269 331.844C36.4341 375.698 67.1955 413.181 106.663 439.553C143.9 464.434 187.308 478.369 231.961 479.865C236.399 480.014 240 476.4 240 471.96V471.96C240 467.52 236.399 463.935 231.962 463.776C190.49 462.286 150.189 449.297 115.597 426.183C78.7734 401.578 50.073 366.607 33.125 325.691C16.177 284.775 11.7427 239.752 20.3827 196.315C29.0227 152.879 50.349 112.981 81.6647 81.6647C112.981 50.349 152.879 29.0227 196.315 20.3827C239.752 11.7427 284.775 16.177 325.691 33.125C366.607 50.073 401.578 78.7734 426.183 115.597C449.297 150.189 462.286 190.49 463.776 231.962C463.935 236.399 467.52 240 471.96 240V240Z" fill="var(--fill-0, #F25757)"/>
</svg>
