<svg width="393" height="84" viewBox="0 0 393 84" fill="none" xmlns="http://www.w3.org/2000/svg">
<rect width="393" height="84" fill="#F5F5F5"/>
<g id="Frame&#226;&#157;&#164;&#239;&#184;&#143;" clip-path="url(#clip0_0_1)">
<rect width="393" height="852" transform="translate(0 -768.668)" fill="#F2F2F7"/>
<g id="Group 54">
<g id="Tab Bar - iPhone iOS17">
<g id="Chrome Material">
<g clip-path="url(#clip1_0_1)">
<mask id="path-1-outside-1_0_1" maskUnits="userSpaceOnUse" x="0" y="-0.667969" width="393" height="84" fill="black">
<rect fill="white" y="-0.667969" width="393" height="84"/>
<path d="M0 0.332031H393V83.332H0V0.332031Z"/>
</mask>
<g id="Chrome">
<rect width="393" height="83" transform="translate(0 0.332031)" fill="white"/>
</g>
</g>
<path d="M0 0.332031V0.665031H393V0.332031V-0.000968754H0V0.332031Z" fill="#EBEBEB" mask="url(#path-1-outside-1_0_1)"/>
</g>
<g id="Tab Bar Buttons">
<g id="Tab 1">
<g id="Recipe &#233;&#163;&#159;&#232;&#176;&#177;">
<path id="Vector" d="M36.7317 27.5833V23.5769C36.1991 23.4554 35.6941 23.2172 35.2468 22.8764C34.7995 22.5356 34.4191 22.0992 34.1283 21.5932C33.8374 21.0873 33.642 20.522 33.5537 19.9311C33.4655 19.3403 33.4861 18.7359 33.6144 18.154C33.7787 17.4084 34.1162 16.7225 34.5938 16.1637C35.0714 15.6049 35.6728 15.1923 36.3389 14.9665C37.005 14.7406 37.713 14.7091 38.3935 14.8752C39.0739 15.0413 39.7035 15.3992 40.2205 15.9138C40.5027 15.0598 41.0167 14.3222 41.6929 13.8009C42.369 13.2796 43.1745 13 44 13C44.8255 13 45.631 13.2796 46.3071 13.8009C46.9833 14.3222 47.4973 15.0598 47.7795 15.9138C48.2965 15.3992 48.9261 15.0413 49.6065 14.8752C50.287 14.7091 50.995 14.7406 51.6611 14.9665C52.3272 15.1923 52.9286 15.6049 53.4062 16.1637C53.8838 16.7225 54.2213 17.4084 54.3856 18.154C54.5139 18.7359 54.5345 19.3403 54.4463 19.9311C54.358 20.522 54.1626 21.0873 53.8717 21.5932C53.5809 22.0992 53.2005 22.5356 52.7532 22.8764C52.3059 23.2172 51.8009 23.4554 51.2683 23.5769V27.5833M36.7317 27.5833V29.8887C36.7317 30.3602 36.9019 30.8125 37.2048 31.1459C37.5077 31.4793 37.9185 31.6667 38.3469 31.6667H49.6531C50.0815 31.6667 50.4923 31.4793 50.7952 31.1459C51.0981 30.8125 51.2683 30.3602 51.2683 29.8887V27.5833M36.7317 27.5833H51.2683" stroke="black" stroke-width="1.6" stroke-linecap="round" stroke-linejoin="round"/>
</g>
<path id="Label" d="M26.1333 45.746V48.441H30.7533V49.332H25.1103V41.5H30.6543V42.391H26.1333V44.855H30.3023V45.746H26.1333ZM37.1232 43.656L35.0882 46.318L37.3982 49.332H36.1662L34.9672 47.583L34.5822 46.978L34.1862 47.583L32.9762 49.332H31.7442L34.0762 46.318L32.0192 43.656H33.2512L34.1862 45.031L34.5822 45.636L34.9672 45.031L35.8912 43.656H37.1232ZM41.0824 43.535C42.5234 43.535 43.5244 44.646 43.5244 46.362C43.5244 48.122 42.5784 49.453 41.0384 49.453C40.3124 49.453 39.7184 49.123 39.3554 48.639V51.576H38.3434V43.656H39.2234V44.569C39.5534 43.942 40.2464 43.535 41.0824 43.535ZM40.9394 48.584C41.9184 48.584 42.5124 47.682 42.5124 46.362C42.5124 45.064 41.9184 44.404 40.9394 44.404C39.9934 44.404 39.3004 45.086 39.3004 46.428C39.3004 47.77 39.9934 48.584 40.9394 48.584ZM45.9618 49.332H44.9498V41.5H45.9618V49.332ZM50.1193 49.475C48.4913 49.475 47.3913 48.276 47.3913 46.494C47.3913 44.668 48.5243 43.513 50.1523 43.513C51.7363 43.513 52.8583 44.646 52.8583 46.45C52.8583 48.232 51.7143 49.475 50.1193 49.475ZM50.1193 48.628C51.2193 48.628 51.8463 47.737 51.8463 46.45C51.8463 45.163 51.2193 44.36 50.1193 44.36C49.0413 44.36 48.4033 45.207 48.4033 46.494C48.4033 47.781 49.0523 48.628 50.1193 48.628ZM56.9798 43.502C57.0898 43.502 57.1888 43.513 57.2878 43.524V44.503C57.1338 44.492 57.0238 44.492 56.9248 44.492C56.1768 44.492 55.3408 45.075 55.2968 46.23V49.332H54.2848V43.656H55.2308V44.745C55.5718 43.986 56.1218 43.502 56.9798 43.502ZM63.2736 46.362V46.736H59.0166C59.0496 48.012 59.7096 48.639 60.7326 48.639C61.5246 48.639 62.0086 48.265 62.2726 47.605L63.1966 47.715C62.8336 48.826 61.9096 49.464 60.6996 49.464C59.0056 49.464 58.0046 48.221 58.0046 46.472C58.0046 44.734 58.9836 43.524 60.6776 43.524C62.2726 43.524 63.2736 44.591 63.2736 46.362ZM60.6886 44.349C59.7866 44.349 59.1266 44.899 59.0276 46.01H62.3276C62.1956 44.932 61.6126 44.349 60.6886 44.349Z" fill="black"/>
</g>
<g id="Tab 2">
<g id="AI Chef">
<g id="Vector_2">
<path d="M144.422 33.5818C144.206 33.5821 143.994 33.5182 143.814 33.398C143.634 33.2779 143.494 33.1071 143.411 32.9071L141.927 29.2798C141.67 28.6643 141.181 28.1751 140.565 27.9186L136.954 26.4175C136.753 26.3348 136.582 26.1943 136.462 26.014C136.341 25.8337 136.277 25.6216 136.278 25.4048C136.278 25.188 136.343 24.9762 136.465 24.7965C136.586 24.6167 136.758 24.4771 136.959 24.3953L140.58 22.9117C141.196 22.6563 141.686 22.1668 141.941 21.5506L143.44 17.9339C143.523 17.7338 143.663 17.5628 143.843 17.4426C144.022 17.3224 144.234 17.2586 144.45 17.2592C144.668 17.2589 144.88 17.3235 145.06 17.4448C145.24 17.566 145.38 17.7384 145.462 17.9398L146.949 21.5632C147.073 21.8689 147.257 22.1467 147.49 22.3804C147.723 22.6141 148 22.799 148.305 22.9243L151.922 24.4235C152.122 24.5061 152.293 24.6463 152.414 24.8263C152.534 25.0063 152.599 25.218 152.599 25.4346C152.599 25.6512 152.534 25.8629 152.414 26.0429C152.293 26.2229 152.122 26.3631 151.922 26.4457L148.299 27.9303C147.993 28.0547 147.715 28.2386 147.482 28.4715C147.248 28.7044 147.063 28.9814 146.937 29.2866L145.438 32.9032C145.356 33.1049 145.215 33.2773 145.034 33.3983C144.853 33.5192 144.64 33.5832 144.422 33.5818Z" fill="black"/>
<path d="M152.687 22.9175C152.473 22.9175 152.263 22.8535 152.085 22.7337C151.907 22.6138 151.769 22.4436 151.689 22.2447L150.729 19.9104C150.658 19.7364 150.554 19.5781 150.421 19.4447C150.289 19.3112 150.132 19.2052 149.958 19.1327L147.63 18.1682C147.433 18.0851 147.265 17.9456 147.147 17.7673C147.029 17.589 146.967 17.3799 146.968 17.1662C146.969 16.9525 147.033 16.7438 147.152 16.5664C147.271 16.3891 147.44 16.2509 147.637 16.1693L149.971 15.2146C150.145 15.1439 150.304 15.0393 150.437 14.9068C150.571 14.7743 150.677 14.6165 150.749 14.4427L151.713 12.1093C151.795 11.9111 151.933 11.7416 152.112 11.6226C152.29 11.5036 152.5 11.4406 152.714 11.4414C152.929 11.4414 153.139 11.5054 153.317 11.6252C153.495 11.7451 153.634 11.9153 153.715 12.1142L154.67 14.4475C154.814 14.7985 155.091 15.0782 155.441 15.2253L157.774 16.1907C157.972 16.2728 158.141 16.4117 158.26 16.59C158.379 16.7682 158.443 16.9778 158.443 17.1921C158.443 17.4065 158.379 17.616 158.26 17.7942C158.141 17.9725 157.972 18.1114 157.774 18.1935L155.441 19.1492C155.266 19.2196 155.107 19.3242 154.974 19.4567C154.84 19.5893 154.734 19.7472 154.663 19.9211L153.697 22.2496C153.615 22.4492 153.475 22.6195 153.295 22.7386C153.115 22.8577 152.903 22.92 152.687 22.9175Z" fill="black"/>
</g>
</g>
<path id="Label_2" d="M135.398 49.332H134.265L133.44 47.033H130.118L129.271 49.332H128.182L131.218 41.5H132.373L135.398 49.332ZM131.537 43.172L130.448 46.142H133.121L132.054 43.172L131.801 42.358L131.537 43.172ZM137.684 49.332H136.661V41.5H137.684V49.332ZM145.827 49.519C143.627 49.519 142.285 47.792 142.285 45.416C142.285 43.018 143.66 41.357 145.816 41.357C147.455 41.357 148.797 42.325 149.039 43.865H147.994C147.752 42.831 146.938 42.27 145.86 42.27C144.276 42.27 143.33 43.458 143.33 45.416C143.33 47.374 144.265 48.606 145.86 48.606C147.092 48.606 147.939 47.891 148.126 46.483H149.138C148.874 48.364 147.664 49.519 145.827 49.519ZM153.366 43.513C154.554 43.513 155.291 44.195 155.291 45.394V49.332H154.279V45.592C154.279 44.811 153.916 44.393 153.146 44.393C152.365 44.393 151.529 44.822 151.529 46.175V49.332H150.517V41.5H151.529V44.371C151.925 43.821 152.574 43.513 153.366 43.513ZM161.988 46.362V46.736H157.731C157.764 48.012 158.424 48.639 159.447 48.639C160.239 48.639 160.723 48.265 160.987 47.605L161.911 47.715C161.548 48.826 160.624 49.464 159.414 49.464C157.72 49.464 156.719 48.221 156.719 46.472C156.719 44.734 157.698 43.524 159.392 43.524C160.987 43.524 161.988 44.591 161.988 46.362ZM159.403 44.349C158.501 44.349 157.841 44.899 157.742 46.01H161.042C160.91 44.932 160.327 44.349 159.403 44.349ZM166.202 42.347H165.619C165.08 42.347 164.904 42.523 164.904 43.062V43.7L166.202 43.656V44.437L164.904 44.393V49.332H163.892V44.393L162.979 44.437V43.656L163.892 43.689V43.205C163.892 42.017 164.409 41.5 165.597 41.5H166.202V42.347Z" fill="black"/>
</g>
<g id="Tab 3">
<g id="Device &#232;&#174;&#190;&#229;&#164;&#135;">
<path id="Union" d="M253.333 12.7812C258.193 12.7812 262.133 16.7209 262.133 21.5811V29.0811C262.133 30.6275 260.88 31.8809 259.333 31.8809H242.333C240.787 31.8809 239.533 30.6275 239.533 29.0811V21.5811C239.533 16.7209 243.473 12.7812 248.333 12.7812H253.333ZM241.133 23.7139V29.0811C241.133 29.7438 241.671 30.2812 242.333 30.2812H259.333C259.996 30.2812 260.533 29.7438 260.533 29.0811V23.7139H241.133ZM248.333 14.3809C244.357 14.3809 241.133 17.6046 241.133 21.5811V22.1143H260.533V21.5811C260.533 17.6046 257.31 14.3809 253.333 14.3809H248.333ZM253.167 18.0312C253.609 18.0316 253.967 18.3894 253.967 18.8311C253.967 19.2727 253.609 19.6305 253.167 19.6309H248.5C248.058 19.6309 247.7 19.2729 247.7 18.8311C247.7 18.3892 248.058 18.0312 248.5 18.0312H253.167Z" fill="black"/>
</g>
<path id="Label_3" d="M234.117 41.5C236.592 41.5 237.725 43.007 237.725 45.416C237.725 47.781 236.548 49.332 233.897 49.332H231.455V41.5H234.117ZM232.478 48.441H233.798C235.844 48.441 236.68 47.451 236.68 45.416C236.68 43.337 235.8 42.391 233.853 42.391H232.478V48.441ZM244.181 46.362V46.736H239.924C239.957 48.012 240.617 48.639 241.64 48.639C242.432 48.639 242.916 48.265 243.18 47.605L244.104 47.715C243.741 48.826 242.817 49.464 241.607 49.464C239.913 49.464 238.912 48.221 238.912 46.472C238.912 44.734 239.891 43.524 241.585 43.524C243.18 43.524 244.181 44.591 244.181 46.362ZM241.596 44.349C240.694 44.349 240.034 44.899 239.935 46.01H243.235C243.103 44.932 242.52 44.349 241.596 44.349ZM247.949 46.934L249.027 43.656H250.05L247.971 49.332H246.97L244.792 43.656H245.881L247.014 46.934L247.487 48.463L247.949 46.934ZM252.22 42.589H251.208V41.5H252.22V42.589ZM252.22 49.332H251.208V43.656H252.22V49.332ZM256.279 49.475C254.695 49.475 253.65 48.452 253.65 46.538C253.65 44.624 254.695 43.513 256.334 43.513C257.643 43.513 258.534 44.206 258.732 45.515H257.775C257.621 44.745 257.137 44.36 256.345 44.36C255.201 44.36 254.662 45.152 254.662 46.494C254.662 47.836 255.256 48.628 256.334 48.628C257.17 48.628 257.632 48.155 257.786 47.352H258.732C258.534 48.683 257.709 49.475 256.279 49.475ZM265.042 46.362V46.736H260.785C260.818 48.012 261.478 48.639 262.501 48.639C263.293 48.639 263.777 48.265 264.041 47.605L264.965 47.715C264.602 48.826 263.678 49.464 262.468 49.464C260.774 49.464 259.773 48.221 259.773 46.472C259.773 44.734 260.752 43.524 262.446 43.524C264.041 43.524 265.042 44.591 265.042 46.362ZM262.457 44.349C261.555 44.349 260.895 44.899 260.796 46.01H264.096C263.964 44.932 263.381 44.349 262.457 44.349ZM268.387 49.475C266.968 49.475 266.165 48.848 266.033 47.583L266.99 47.539C267.089 48.331 267.562 48.661 268.431 48.661C269.355 48.661 269.795 48.309 269.795 47.77C269.795 47.319 269.487 47.066 268.893 46.945L267.749 46.703C266.649 46.472 266.176 45.966 266.176 45.163C266.176 44.173 266.891 43.524 268.288 43.524C269.553 43.524 270.433 44.074 270.598 45.262L269.597 45.306C269.487 44.657 269.058 44.327 268.255 44.327C267.54 44.327 267.111 44.569 267.111 45.075C267.111 45.438 267.32 45.691 267.991 45.834L269.091 46.076C270.268 46.34 270.763 46.857 270.763 47.682C270.763 48.793 269.883 49.475 268.387 49.475Z" fill="black"/>
</g>
<g id="Tab 4">
<g id="Profile &#228;&#184;&#170;&#228;&#186;&#186;">
<path id="Union_2" d="M352.388 23.5029C356.442 23.5976 361.916 25.1588 361.916 28.165L361.912 28.3447C361.818 30.1939 360.289 31.665 358.416 31.665H345.583L345.403 31.6602C343.614 31.5695 342.179 30.1343 342.088 28.3447L342.083 28.165C342.083 25.0618 347.917 23.4981 352 23.498L352.388 23.5029ZM352 25.0977C350.124 25.0977 347.849 25.463 346.099 26.1553C345.222 26.502 344.571 26.8942 344.163 27.2832C343.773 27.6555 343.683 27.9432 343.683 28.165C343.683 29.214 344.534 30.0643 345.583 30.0645H358.416C359.465 30.0645 360.316 29.2141 360.316 28.165C360.316 27.9432 360.226 27.6557 359.836 27.2832C359.428 26.8942 358.777 26.502 357.9 26.1553C356.15 25.4631 353.876 25.0977 352 25.0977ZM352.24 12.4199C354.706 12.5451 356.666 14.5846 356.666 17.0811L356.66 17.3213C356.535 19.7867 354.496 21.7469 352 21.7471L351.76 21.7412C349.374 21.6202 347.46 19.7073 347.339 17.3213L347.333 17.0811C347.333 14.504 349.423 12.4142 352 12.4141L352.24 12.4199ZM352 14.0137C350.307 14.0138 348.933 15.3876 348.933 17.0811C348.933 18.7745 350.307 20.1473 352 20.1475C353.693 20.1473 355.066 18.7745 355.066 17.0811C355.066 15.3876 353.693 14.0138 352 14.0137Z" fill="black"/>
</g>
<path id="Label_4" d="M339.346 41.5C340.864 41.5 341.865 42.248 341.865 43.744C341.865 45.295 340.842 46.065 339.324 46.065H337.146V49.332H336.123V41.5H339.346ZM337.146 45.174H339.346C340.281 45.174 340.842 44.679 340.842 43.755C340.842 42.82 340.259 42.391 339.291 42.391H337.146V45.174ZM345.918 43.502C346.028 43.502 346.127 43.513 346.226 43.524V44.503C346.072 44.492 345.962 44.492 345.863 44.492C345.115 44.492 344.279 45.075 344.235 46.23V49.332H343.223V43.656H344.169V44.745C344.51 43.986 345.06 43.502 345.918 43.502ZM349.671 49.475C348.043 49.475 346.943 48.276 346.943 46.494C346.943 44.668 348.076 43.513 349.704 43.513C351.288 43.513 352.41 44.646 352.41 46.45C352.41 48.232 351.266 49.475 349.671 49.475ZM349.671 48.628C350.771 48.628 351.398 47.737 351.398 46.45C351.398 45.163 350.771 44.36 349.671 44.36C348.593 44.36 347.955 45.207 347.955 46.494C347.955 47.781 348.604 48.628 349.671 48.628ZM356.619 42.347H356.036C355.497 42.347 355.321 42.523 355.321 43.062V43.7L356.619 43.656V44.437L355.321 44.393V49.332H354.309V44.393L353.396 44.437V43.656L354.309 43.689V43.205C354.309 42.017 354.826 41.5 356.014 41.5H356.619V42.347ZM358.79 42.589H357.778V41.5H358.79V42.589ZM358.79 49.332H357.778V43.656H358.79V49.332ZM361.562 49.332H360.55V41.5H361.562V49.332ZM368.26 46.362V46.736H364.003C364.036 48.012 364.696 48.639 365.719 48.639C366.511 48.639 366.995 48.265 367.259 47.605L368.183 47.715C367.82 48.826 366.896 49.464 365.686 49.464C363.992 49.464 362.991 48.221 362.991 46.472C362.991 44.734 363.97 43.524 365.664 43.524C367.259 43.524 368.26 44.591 368.26 46.362ZM365.675 44.349C364.773 44.349 364.113 44.899 364.014 46.01H367.314C367.182 44.932 366.599 44.349 365.675 44.349Z" fill="black"/>
</g>
</g>
</g>
</g>
</g>
<defs>
<clipPath id="clip0_0_1">
<rect width="393" height="852" fill="white" transform="translate(0 -768.668)"/>
</clipPath>
<clipPath id="clip1_0_1">
<path d="M0 0.332031H393V83.332H0V0.332031Z" fill="white"/>
</clipPath>
</defs>
</svg>
