<svg preserveAspectRatio="none" width="100%" height="100%" overflow="visible" style="display: block;" viewBox="0 0 48 48" fill="none" xmlns="http://www.w3.org/2000/svg">
<g id="ic_settings">
<path id="Union" d="M26.7393 6.00781C28.0433 6.08528 29.2414 6.73803 29.9717 7.78125L32.2969 11.1035L35.9326 11.3262C37.3338 11.4124 38.5967 12.1602 39.2988 13.3184L41.252 16.5381C41.9541 17.6963 42.0013 19.1127 41.3789 20.3115L39.5566 23.8213L41.5645 27.6885C42.1869 28.8873 42.1397 30.3037 41.4375 31.4619L39.4854 34.6816L39.3467 34.8945C38.6242 35.9311 37.4318 36.5931 36.1182 36.6738L32.2891 36.9092L29.9717 40.2188C29.2414 41.262 28.0433 41.9147 26.7393 41.9922L26.4775 42H22.5723C21.2559 41.9999 20.0214 41.4121 19.2305 40.4219L19.0781 40.2188L16.7031 36.8262L11.8818 36.5303C10.4805 36.4441 9.21677 35.6963 8.51465 34.5381L6.5625 31.3184C5.90425 30.2326 5.8212 28.9201 6.32617 27.7725L6.43555 27.5449L8.36816 23.8213L6.62109 20.4551C5.99866 19.2562 6.04589 17.8399 6.74805 16.6816L8.70117 13.4619C9.40326 12.3038 10.6661 11.5559 12.0674 11.4697L16.6943 11.1855L19.0781 7.78125C19.857 6.66858 21.1681 6.00015 22.5723 6H26.4775L26.7393 6.00781ZM22.5723 8.5C21.9511 8.50015 21.4185 8.79691 21.126 9.21484L18.7432 12.6191C18.3063 13.2432 17.608 13.634 16.8477 13.6807L12.2207 13.9648C11.6019 14.003 11.0979 14.3306 10.8389 14.7578L8.88672 17.9775C8.63531 18.3922 8.62074 18.8807 8.83984 19.3027L10.5869 22.6689C10.9618 23.3911 10.9618 24.2505 10.5869 24.9727L8.6543 28.6973C8.43516 29.1193 8.44878 29.6077 8.7002 30.0225L10.6523 33.2422C10.9114 33.6695 11.4163 33.9971 12.0352 34.0352L16.8564 34.3311L16.998 34.3438C17.7028 34.4274 18.3414 34.8075 18.751 35.3926L21.126 38.7852C21.4185 39.2031 21.9511 39.4999 22.5723 39.5H26.4775C27.0988 39.4999 27.6312 39.2031 27.9238 38.7852L30.2412 35.4756L30.3262 35.3613C30.7656 34.8039 31.4229 34.4569 32.1357 34.4131L35.9648 34.1787C36.5837 34.1407 37.0886 33.813 37.3477 33.3857L39.2998 30.166C39.5512 29.7513 39.5648 29.2629 39.3457 28.8408L37.3379 24.9727C36.9631 24.2505 36.963 23.391 37.3379 22.6689L39.1602 19.1592C39.3793 18.7371 39.3647 18.2487 39.1133 17.834L37.1611 14.6143C36.9021 14.187 36.3981 13.8594 35.7793 13.8213L32.1445 13.5986C31.3842 13.5519 30.6859 13.1611 30.249 12.5371L27.9238 9.21484C27.6312 8.79689 27.0988 8.50008 26.4775 8.5H22.5723ZM24 18C27.3137 18 30 20.6863 30 24C30 27.3137 27.3137 30 24 30C20.6863 30 18 27.3137 18 24C18 20.6863 20.6863 18 24 18ZM24 20.5C22.067 20.5 20.5 22.067 20.5 24C20.5 25.933 22.067 27.5 24 27.5C25.933 27.5 27.5 25.933 27.5 24C27.5 22.067 25.933 20.5 24 20.5Z" fill="var(--fill-0, #212121)"/>
</g>
</svg>
