<svg width="200" height="200" viewBox="0 0 200 200" fill="none" xmlns="http://www.w3.org/2000/svg">
<g id="Frame&#226;&#157;&#164;&#239;&#184;&#143;">
<g id="Rotated Instances">
<g id="Dot">
<circle id="Ellipse 236" cx="100" cy="1.5" r="1.5" fill="#E5E5EA"/>
</g>
<g id="Rotated Instance 2">
<circle id="Ellipse 236_2" cx="108.585" cy="1.87503" r="1.5" transform="rotate(5 108.585 1.87503)" fill="#E5E5EA"/>
</g>
<g id="Rotated Instance 3">
<circle id="Ellipse 236_3" cx="117.104" cy="2.9955" r="1.5" transform="rotate(10 117.104 2.9955)" fill="#E5E5EA"/>
</g>
<g id="Rotated Instance 4">
<circle id="Ellipse 236_4" cx="125.494" cy="4.85665" r="1.5" transform="rotate(15 125.494 4.85665)" fill="#E5E5EA"/>
</g>
<g id="Rotated Instance 5">
<circle id="Ellipse 236_5" cx="133.689" cy="7.43819" r="1.5" transform="rotate(20 133.689 7.43819)" fill="#E5E5EA"/>
</g>
<g id="Rotated Instance 6">
<circle id="Ellipse 236_6" cx="141.628" cy="10.7278" r="1.5" transform="rotate(25 141.628 10.7278)" fill="#E5E5EA"/>
</g>
<g id="Rotated Instance 7">
<circle id="Ellipse 236_7" cx="149.25" cy="14.6975" r="1.5" transform="rotate(30 149.25 14.6975)" fill="#E5E5EA"/>
</g>
<g id="Rotated Instance 8">
<circle id="Ellipse 236_8" cx="156.497" cy="19.3157" r="1.5" transform="rotate(35 156.497 19.3157)" fill="#E5E5EA"/>
</g>
<g id="Rotated Instance 9">
<circle id="Ellipse 236_9" cx="163.315" cy="24.5429" r="1.5" transform="rotate(40 163.315 24.5429)" fill="#E5E5EA"/>
</g>
<g id="Rotated Instance 10">
<circle id="Ellipse 236_10" cx="169.65" cy="30.3479" r="1.5" transform="rotate(45 169.65 30.3479)" fill="#E5E5EA"/>
</g>
<g id="Rotated Instance 11">
<circle id="Ellipse 236_11" cx="175.455" cy="36.6836" r="1.5" transform="rotate(50 175.455 36.6836)" fill="#E5E5EA"/>
</g>
<g id="Rotated Instance 12">
<circle id="Ellipse 236_12" cx="180.686" cy="43.5032" r="1.5" transform="rotate(55 180.686 43.5032)" fill="#E5E5EA"/>
</g>
<g id="Rotated Instance 13">
<circle id="Ellipse 236_13" cx="185.303" cy="50.7522" r="1.5" transform="rotate(60 185.303 50.7522)" fill="#E5E5EA"/>
</g>
<g id="Rotated Instance 14">
<circle id="Ellipse 236_14" cx="189.271" cy="58.3684" r="1.5" transform="rotate(65 189.271 58.3684)" fill="#E5E5EA"/>
</g>
<g id="Rotated Instance 15">
<circle id="Ellipse 236_15" cx="192.56" cy="66.3132" r="1.5" transform="rotate(70 192.56 66.3132)" fill="#E5E5EA"/>
</g>
<g id="Rotated Instance 16">
<circle id="Ellipse 236_16" cx="195.144" cy="74.5051" r="1.5" transform="rotate(75 195.144 74.5051)" fill="#E5E5EA"/>
</g>
<g id="Rotated Instance 17">
<circle id="Ellipse 236_17" cx="197.003" cy="82.8939" r="1.5" transform="rotate(80 197.003 82.8939)" fill="#E5E5EA"/>
</g>
<g id="Rotated Instance 18">
<circle id="Ellipse 236_18" cx="198.125" cy="91.4141" r="1.5" transform="rotate(85 198.125 91.4141)" fill="#E5E5EA"/>
</g>
<g id="Rotated Instance 19">
<circle id="Ellipse 236_19" cx="198.5" cy="100" r="1.5" transform="rotate(90 198.5 100)" fill="#E5E5EA"/>
</g>
<g id="Rotated Instance 20">
<circle id="Ellipse 236_20" cx="198.125" cy="108.582" r="1.5" transform="rotate(95 198.125 108.582)" fill="#E5E5EA"/>
</g>
<g id="Rotated Instance 21">
<circle id="Ellipse 236_21" cx="197.004" cy="117.103" r="1.5" transform="rotate(100 197.004 117.103)" fill="#E5E5EA"/>
</g>
<g id="Rotated Instance 22">
<circle id="Ellipse 236_22" cx="195.144" cy="125.494" r="1.5" transform="rotate(105 195.144 125.494)" fill="#E5E5EA"/>
</g>
<g id="Rotated Instance 23">
<circle id="Ellipse 236_23" cx="192.56" cy="133.689" r="1.5" transform="rotate(110 192.56 133.689)" fill="#E5E5EA"/>
</g>
<g id="Rotated Instance 24">
<circle id="Ellipse 236_24" cx="189.271" cy="141.628" r="1.5" transform="rotate(115 189.271 141.628)" fill="#E5E5EA"/>
</g>
<g id="Rotated Instance 25">
<circle id="Ellipse 236_25" cx="185.303" cy="149.252" r="1.5" transform="rotate(120 185.303 149.252)" fill="#E5E5EA"/>
</g>
<g id="Rotated Instance 26">
<circle id="Ellipse 236_26" cx="180.687" cy="156.501" r="1.5" transform="rotate(125 180.687 156.501)" fill="#E5E5EA"/>
</g>
<g id="Rotated Instance 27">
<circle id="Ellipse 236_27" cx="175.455" cy="163.318" r="1.5" transform="rotate(130 175.455 163.318)" fill="#E5E5EA"/>
</g>
<g id="Rotated Instance 28">
<circle id="Ellipse 236_28" cx="169.65" cy="169.648" r="1.5" transform="rotate(135 169.65 169.648)" fill="#E5E5EA"/>
</g>
<g id="Rotated Instance 29">
<circle id="Ellipse 236_29" cx="163.314" cy="175.456" r="1.5" transform="rotate(140 163.314 175.456)" fill="#E5E5EA"/>
</g>
<g id="Rotated Instance 45">
<circle id="Ellipse 236_30" cx="36.6855" cy="175.457" r="1.5" transform="rotate(-140 36.6855 175.457)" fill="#E5E5EA"/>
</g>
<g id="Rotated Instance 46">
<circle id="Ellipse 236_31" cx="30.3501" cy="169.652" r="1.5" transform="rotate(-135 30.3501 169.652)" fill="#E5E5EA"/>
</g>
<g id="Rotated Instance 47">
<circle id="Ellipse 236_32" cx="24.5447" cy="163.316" r="1.5" transform="rotate(-130 24.5447 163.316)" fill="#E5E5EA"/>
</g>
<g id="Rotated Instance 48">
<circle id="Ellipse 236_33" cx="19.3137" cy="156.497" r="1.5" transform="rotate(-125 19.3137 156.497)" fill="#E5E5EA"/>
</g>
<g id="Rotated Instance 49">
<circle id="Ellipse 236_34" cx="14.6965" cy="149.248" r="1.5" transform="rotate(-120 14.6965 149.248)" fill="#E5E5EA"/>
</g>
<g id="Rotated Instance 50">
<circle id="Ellipse 236_35" cx="10.7287" cy="141.632" r="1.5" transform="rotate(-115 10.7287 141.632)" fill="#E5E5EA"/>
</g>
<g id="Rotated Instance 51">
<circle id="Ellipse 236_36" cx="7.44021" cy="133.687" r="1.5" transform="rotate(-110 7.44021 133.687)" fill="#E5E5EA"/>
</g>
<g id="Rotated Instance 52">
<circle id="Ellipse 236_37" cx="4.85631" cy="125.495" r="1.5" transform="rotate(-105 4.85631 125.495)" fill="#E5E5EA"/>
</g>
<g id="Rotated Instance 53">
<circle id="Ellipse 236_38" cx="2.99652" cy="117.106" r="1.5" transform="rotate(-100 2.99652 117.106)" fill="#E5E5EA"/>
</g>
<g id="Rotated Instance 54">
<circle id="Ellipse 236_39" cx="1.87479" cy="108.586" r="1.5" transform="rotate(-95 1.87479 108.586)" fill="#E5E5EA"/>
</g>
<g id="Rotated Instance 55">
<circle id="Ellipse 236_40" cx="1.5" cy="100" r="1.5" transform="rotate(-90 1.5 100)" fill="#E5E5EA"/>
</g>
<g id="Rotated Instance 56">
<circle id="Ellipse 236_41" cx="1.87478" cy="91.4177" r="1.5" transform="rotate(-85 1.87478 91.4177)" fill="#E5E5EA"/>
</g>
<g id="Rotated Instance 57">
<circle id="Ellipse 236_42" cx="2.99647" cy="82.8965" r="1.5" transform="rotate(-80 2.99647 82.8965)" fill="#E5E5EA"/>
</g>
<g id="Rotated Instance 58">
<circle id="Ellipse 236_43" cx="4.85616" cy="74.5057" r="1.5" transform="rotate(-75 4.85616 74.5057)" fill="#E5E5EA"/>
</g>
<g id="Rotated Instance 59">
<circle id="Ellipse 236_44" cx="7.44015" cy="66.3105" r="1.5" transform="rotate(-70 7.44015 66.3105)" fill="#E5E5EA"/>
</g>
<g id="Rotated Instance 60">
<circle id="Ellipse 236_45" cx="10.7287" cy="58.3721" r="1.5" transform="rotate(-65 10.7287 58.3721)" fill="#E5E5EA"/>
</g>
<g id="Rotated Instance 61">
<circle id="Ellipse 236_46" cx="14.6965" cy="50.7478" r="1.5" transform="rotate(-60 14.6965 50.7478)" fill="#E5E5EA"/>
</g>
<g id="Rotated Instance 62">
<circle id="Ellipse 236_47" cx="19.3137" cy="43.5027" r="1.5" transform="rotate(-55 19.3137 43.5027)" fill="#E5E5EA"/>
</g>
<g id="Rotated Instance 63">
<circle id="Ellipse 236_48" cx="24.5446" cy="36.6823" r="1.5" transform="rotate(-50 24.5446 36.6823)" fill="#E5E5EA"/>
</g>
<g id="Rotated Instance 64">
<circle id="Ellipse 236_49" cx="30.3498" cy="30.3516" r="1.5" transform="rotate(-45 30.3498 30.3516)" fill="#E5E5EA"/>
</g>
<g id="Rotated Instance 65">
<circle id="Ellipse 236_50" cx="36.6855" cy="24.5443" r="1.5" transform="rotate(-40 36.6855 24.5443)" fill="#E5E5EA"/>
</g>
<g id="Rotated Instance 66">
<circle id="Ellipse 236_51" cx="43.5027" cy="19.3137" r="1.5" transform="rotate(-35 43.5027 19.3137)" fill="#E5E5EA"/>
</g>
<g id="Rotated Instance 67">
<circle id="Ellipse 236_52" cx="50.75" cy="14.6975" r="1.5" transform="rotate(-30 50.75 14.6975)" fill="#E5E5EA"/>
</g>
<g id="Rotated Instance 68">
<circle id="Ellipse 236_53" cx="58.3721" cy="10.7294" r="1.5" transform="rotate(-25 58.3721 10.7294)" fill="#E5E5EA"/>
</g>
<g id="Rotated Instance 69">
<circle id="Ellipse 236_54" cx="66.311" cy="7.43948" r="1.5" transform="rotate(-20 66.311 7.43948)" fill="#E5E5EA"/>
</g>
<g id="Rotated Instance 70">
<circle id="Ellipse 236_55" cx="74.5063" cy="4.85754" r="1.5" transform="rotate(-15 74.5063 4.85754)" fill="#E5E5EA"/>
</g>
<g id="Rotated Instance 71">
<circle id="Ellipse 236_56" cx="82.8956" cy="2.99799" r="1.5" transform="rotate(-10 82.8956 2.99799)" fill="#E5E5EA"/>
</g>
<g id="Rotated Instance 72">
<circle id="Ellipse 236_57" cx="91.4151" cy="1.87528" r="1.5" transform="rotate(-5 91.4151 1.87528)" fill="#E5E5EA"/>
</g>
</g>
</g>
</svg>
