<svg preserveAspectRatio="none" width="100%" height="100%" overflow="visible" style="display: block;" viewBox="0 0 28 28" fill="none" xmlns="http://www.w3.org/2000/svg">
<g id="Wifi" clip-path="url(#clip0_0_136)">
<circle id="Ellipse 2025" cx="14" cy="14" r="14" fill="var(--fill-0, #4083FF)"/>
<g id="ic_wifi_full">
<path id="Union" d="M13.9993 18C14.5515 18 14.9993 18.4478 14.9993 19C14.9993 19.5523 14.5515 20 13.9993 20C13.447 20 12.9993 19.5523 12.9993 19C12.9993 18.4478 13.447 18 13.9993 18ZM14.0002 13C16.0554 13 17.9042 13.8855 19.1848 15.2959L18.304 16.2647C17.2588 15.0617 15.7188 14.2998 14.0002 14.2998C12.2814 14.3 10.7406 15.0613 9.69555 16.2647L8.81567 15.2969C10.0962 13.886 11.9448 13.0002 14.0002 13ZM14.0002 8.00004C17.3346 8.00004 20.3199 9.48611 22.3372 11.8291L21.4573 12.7969C19.6779 10.6604 16.998 9.29984 14.0002 9.29984C11.0025 9.29997 8.32249 10.6602 6.54321 12.7969L5.66333 11.8282C7.68051 9.48532 10.6661 8.00016 14.0002 8.00004Z" fill="var(--fill-0, white)"/>
</g>
</g>
<defs>
<clipPath id="clip0_0_136">
<rect width="28" height="28" fill="white"/>
</clipPath>
</defs>
</svg>
