<svg width="670" height="608" viewBox="0 0 670 608" fill="none" xmlns="http://www.w3.org/2000/svg">
<g id="Cooking">
<g id="Chart">
<path id="Vector 520" d="M67 12H630" stroke="#CCCCCC" stroke-dasharray="4 4"/>
<path id="Vector 589" d="M255 12L255 568" stroke="#CCCCCC" stroke-dasharray="4 4"/>
<path id="Vector 594" d="M161 12L161 568" stroke="#CCCCCC" stroke-dasharray="4 4"/>
<path id="Vector 590" d="M349 12L349 568" stroke="#CCCCCC" stroke-dasharray="4 4"/>
<path id="Vector 591" d="M443 12L443 568" stroke="#CCCCCC" stroke-dasharray="4 4"/>
<path id="Vector 592" d="M537 12L537 568" stroke="#CCCCCC" stroke-dasharray="4 4"/>
<path id="Vector 593" d="M630 12L630 568" stroke="#CCCCCC" stroke-dasharray="4 4"/>
<rect id="Rectangle 5235" x="66" width="1" height="568" fill="#D9D9D9"/>
<path id="Vector 521" d="M67 104H630" stroke="#CCCCCC" stroke-dasharray="4 4"/>
<path id="Vector 522" d="M67 197H630" stroke="#CCCCCC" stroke-dasharray="4 4"/>
<path id="Vector 523" d="M67 290H630" stroke="#CCCCCC" stroke-dasharray="4 4"/>
<path id="Vector 524" d="M67 383H630" stroke="#CCCCCC" stroke-dasharray="4 4"/>
<path id="Vector 525" d="M67 476H630" stroke="#CCCCCC" stroke-dasharray="4 4"/>
<path id="Union" d="M67 567H642V568H66V0H67V567Z" fill="#999999"/>
<g id="Temp">
<path id="248&#194;&#176;" d="M1.10619 20.264V18.968L7.61019 12.104C8.42619 11.24 9.00219 10.472 9.33819 9.8C9.69019 9.112 9.86619 8.408 9.86619 7.688C9.86619 6.664 9.58619 5.856 9.02619 5.264C8.48219 4.656 7.69819 4.352 6.67419 4.352C5.68219 4.352 4.87419 4.624 4.25019 5.168C3.62619 5.712 3.12219 6.496 2.73819 7.52L1.13019 6.896C1.51419 5.584 2.20219 4.568 3.19419 3.848C4.20219 3.112 5.38619 2.744 6.74619 2.744C7.78619 2.744 8.69019 2.96 9.45819 3.392C10.2422 3.808 10.8422 4.392 11.2582 5.144C11.6742 5.88 11.8822 6.712 11.8822 7.64C11.8822 8.584 11.6422 9.488 11.1622 10.352C10.6982 11.216 9.91419 12.224 8.81019 13.376L3.43419 19.016L3.09819 18.704H11.9302V20.264H1.10619ZM13.6882 16.112V14.864L22.2082 3.008H23.7202V14.528H26.1922V16.112H23.7202V20.264H21.8482V16.112H13.6882ZM15.8722 14.528H21.8482V6.344L15.8722 14.528ZM27.9958 15.392C27.9958 14.368 28.2838 13.464 28.8598 12.68C29.4358 11.88 30.2278 11.28 31.2358 10.88C30.4678 10.512 29.8598 10.008 29.4118 9.368C28.9798 8.728 28.7638 8.008 28.7638 7.208C28.7638 6.376 28.9878 5.624 29.4358 4.952C29.8998 4.264 30.5318 3.728 31.3318 3.344C32.1478 2.944 33.0518 2.744 34.0438 2.744C35.0358 2.744 35.9238 2.944 36.7078 3.344C37.5078 3.728 38.1238 4.264 38.5558 4.952C39.0038 5.624 39.2278 6.376 39.2278 7.208C39.2278 8.008 39.0118 8.728 38.5798 9.368C38.1638 10.008 37.5798 10.512 36.8278 10.88C37.8198 11.28 38.5958 11.88 39.1558 12.68C39.7318 13.464 40.0198 14.368 40.0198 15.392C40.0198 16.368 39.7638 17.248 39.2518 18.032C38.7398 18.8 38.0278 19.408 37.1158 19.856C36.2198 20.288 35.1958 20.504 34.0438 20.504C32.8758 20.504 31.8278 20.288 30.8998 19.856C29.9878 19.408 29.2758 18.8 28.7638 18.032C28.2518 17.248 27.9958 16.368 27.9958 15.392ZM29.9878 15.32C29.9878 16.056 30.1558 16.696 30.4918 17.24C30.8278 17.768 31.2998 18.176 31.9078 18.464C32.5318 18.752 33.2438 18.896 34.0438 18.896C34.8278 18.896 35.5238 18.752 36.1318 18.464C36.7398 18.176 37.2118 17.768 37.5478 17.24C37.8998 16.696 38.0758 16.056 38.0758 15.32C38.0758 14.232 37.7078 13.36 36.9718 12.704C36.2358 12.048 35.2598 11.72 34.0438 11.72C32.8118 11.72 31.8278 12.048 31.0918 12.704C30.3558 13.36 29.9878 14.232 29.9878 15.32ZM30.7558 7.256C30.7558 8.12 31.0518 8.824 31.6438 9.368C32.2518 9.896 33.0518 10.16 34.0438 10.16C34.6838 10.16 35.2518 10.04 35.7478 9.8C36.2438 9.544 36.6278 9.2 36.8998 8.768C37.1718 8.32 37.3078 7.816 37.3078 7.256C37.3078 6.68 37.1718 6.176 36.8998 5.744C36.6278 5.296 36.2438 4.952 35.7478 4.712C35.2518 4.456 34.6838 4.328 34.0438 4.328C33.3878 4.328 32.8118 4.456 32.3158 4.712C31.8198 4.952 31.4358 5.296 31.1638 5.744C30.8918 6.176 30.7558 6.68 30.7558 7.256ZM43.4201 4.688C43.4201 5.36 43.6121 5.912 43.9961 6.344C44.3961 6.776 44.9161 6.992 45.5561 6.992C46.1961 6.992 46.7161 6.776 47.1161 6.344C47.5321 5.912 47.7401 5.36 47.7401 4.688C47.7401 3.984 47.5321 3.416 47.1161 2.984C46.7161 2.552 46.1961 2.336 45.5561 2.336C44.9161 2.336 44.3961 2.552 43.9961 2.984C43.6121 3.416 43.4201 3.984 43.4201 4.688ZM41.9081 4.688C41.9081 4 42.0681 3.376 42.3881 2.816C42.7081 2.24 43.1481 1.792 43.7081 1.472C44.2681 1.136 44.8841 0.967999 45.5561 0.967999C46.2601 0.967999 46.8921 1.136 47.4521 1.472C48.0121 1.792 48.4441 2.232 48.7481 2.792C49.0681 3.352 49.2281 3.984 49.2281 4.688C49.2281 5.376 49.0681 6 48.7481 6.56C48.4441 7.12 48.0121 7.56 47.4521 7.88C46.8921 8.2 46.2601 8.36 45.5561 8.36C44.8841 8.36 44.2681 8.2 43.7081 7.88C43.1481 7.56 42.7081 7.12 42.3881 6.56C42.0681 6 41.9081 5.376 41.9081 4.688Z" fill="#212121"/>
<path id="212&#194;&#176;" d="M6.89525 113.264V111.968L13.3993 105.104C14.2153 104.24 14.7913 103.472 15.1273 102.8C15.4793 102.112 15.6553 101.408 15.6553 100.688C15.6553 99.664 15.3753 98.856 14.8153 98.264C14.2713 97.656 13.4873 97.352 12.4633 97.352C11.4713 97.352 10.6633 97.624 10.0393 98.168C9.41525 98.712 8.91125 99.496 8.52725 100.52L6.91925 99.896C7.30325 98.584 7.99125 97.568 8.98325 96.848C9.99125 96.112 11.1753 95.744 12.5353 95.744C13.5753 95.744 14.4793 95.96 15.2473 96.392C16.0313 96.808 16.6313 97.392 17.0473 98.144C17.4633 98.88 17.6713 99.712 17.6713 100.64C17.6713 101.584 17.4313 102.488 16.9513 103.352C16.4873 104.216 15.7033 105.224 14.5993 106.376L9.22325 112.016L8.88725 111.704H17.7193V113.264H6.89525ZM19.7173 100.352L19.7413 98.408L24.1573 96.008H25.5493V113.264H23.6293V98.288L19.7173 100.352ZM29.2781 113.264V111.968L35.7821 105.104C36.5981 104.24 37.1741 103.472 37.5101 102.8C37.8621 102.112 38.0381 101.408 38.0381 100.688C38.0381 99.664 37.7581 98.856 37.1981 98.264C36.6541 97.656 35.8701 97.352 34.8461 97.352C33.8541 97.352 33.0461 97.624 32.4221 98.168C31.7981 98.712 31.2941 99.496 30.9101 100.52L29.3021 99.896C29.6861 98.584 30.3741 97.568 31.3661 96.848C32.3741 96.112 33.5581 95.744 34.9181 95.744C35.9581 95.744 36.8621 95.96 37.6301 96.392C38.4141 96.808 39.0141 97.392 39.4301 98.144C39.8461 98.88 40.0541 99.712 40.0541 100.64C40.0541 101.584 39.8141 102.488 39.3341 103.352C38.8701 104.216 38.0861 105.224 36.9821 106.376L31.6061 112.016L31.2701 111.704H40.1021V113.264H29.2781ZM43.4201 97.688C43.4201 98.36 43.6121 98.912 43.9961 99.344C44.3961 99.776 44.9161 99.992 45.5561 99.992C46.1961 99.992 46.7161 99.776 47.1161 99.344C47.5321 98.912 47.7401 98.36 47.7401 97.688C47.7401 96.984 47.5321 96.416 47.1161 95.984C46.7161 95.552 46.1961 95.336 45.5561 95.336C44.9161 95.336 44.3961 95.552 43.9961 95.984C43.6121 96.416 43.4201 96.984 43.4201 97.688ZM41.9081 97.688C41.9081 97 42.0681 96.376 42.3881 95.816C42.7081 95.24 43.1481 94.792 43.7081 94.472C44.2681 94.136 44.8841 93.968 45.5561 93.968C46.2601 93.968 46.8921 94.136 47.4521 94.472C48.0121 94.792 48.4441 95.232 48.7481 95.792C49.0681 96.352 49.2281 96.984 49.2281 97.688C49.2281 98.376 49.0681 99 48.7481 99.56C48.4441 100.12 48.0121 100.56 47.4521 100.88C46.8921 101.2 46.2601 101.36 45.5561 101.36C44.8841 101.36 44.2681 101.2 43.7081 100.88C43.1481 100.56 42.7081 100.12 42.3881 99.56C42.0681 99 41.9081 98.376 41.9081 97.688Z" fill="#212121"/>
<path id="176&#194;&#176;" d="M7.48288 193.352L7.50688 191.408L11.9229 189.008H13.3149V206.264H11.3949V191.288L7.48288 193.352ZM26.4847 190.592H16.9567V188.984H28.1647V190.184L20.7967 206.24H18.7327L26.4367 189.872L26.4847 190.592ZM28.6308 200.672C28.6308 199.68 28.8068 198.728 29.1588 197.816C29.5108 196.904 30.0868 195.896 30.8868 194.792L35.1108 189.008H37.3908L32.2068 195.776C31.9188 196.144 31.6708 196.504 31.4628 196.856C31.2548 197.192 31.0388 197.624 30.8148 198.152L30.5748 197.432C31.0868 196.808 31.6948 196.328 32.3988 195.992C33.1188 195.656 33.9268 195.488 34.8228 195.488C35.8788 195.488 36.8148 195.712 37.6308 196.16C38.4628 196.592 39.1108 197.224 39.5748 198.056C40.0388 198.872 40.2708 199.848 40.2708 200.984C40.2708 202.12 40.0228 203.104 39.5268 203.936C39.0308 204.768 38.3428 205.408 37.4628 205.856C36.5988 206.288 35.5988 206.504 34.4628 206.504C33.3108 206.504 32.2948 206.28 31.4148 205.832C30.5348 205.368 29.8468 204.696 29.3508 203.816C28.8708 202.936 28.6308 201.888 28.6308 200.672ZM30.6468 200.984C30.6468 201.8 30.8068 202.504 31.1268 203.096C31.4628 203.672 31.9108 204.112 32.4708 204.416C33.0468 204.704 33.7108 204.848 34.4628 204.848C35.5988 204.848 36.5188 204.512 37.2228 203.84C37.9428 203.152 38.3028 202.2 38.3028 200.984C38.3028 199.768 37.9508 198.824 37.2468 198.152C36.5428 197.464 35.6148 197.12 34.4628 197.12C33.7108 197.12 33.0468 197.272 32.4708 197.576C31.8948 197.88 31.4468 198.328 31.1268 198.92C30.8068 199.496 30.6468 200.184 30.6468 200.984ZM43.4201 190.688C43.4201 191.36 43.6121 191.912 43.9961 192.344C44.3961 192.776 44.9161 192.992 45.5561 192.992C46.1961 192.992 46.7161 192.776 47.1161 192.344C47.5321 191.912 47.7401 191.36 47.7401 190.688C47.7401 189.984 47.5321 189.416 47.1161 188.984C46.7161 188.552 46.1961 188.336 45.5561 188.336C44.9161 188.336 44.3961 188.552 43.9961 188.984C43.6121 189.416 43.4201 189.984 43.4201 190.688ZM41.9081 190.688C41.9081 190 42.0681 189.376 42.3881 188.816C42.7081 188.24 43.1481 187.792 43.7081 187.472C44.2681 187.136 44.8841 186.968 45.5561 186.968C46.2601 186.968 46.8921 187.136 47.4521 187.472C48.0121 187.792 48.4441 188.232 48.7481 188.792C49.0681 189.352 49.2281 189.984 49.2281 190.688C49.2281 191.376 49.0681 192 48.7481 192.56C48.4441 193.12 48.0121 193.56 47.4521 193.88C46.8921 194.2 46.2601 194.36 45.5561 194.36C44.8841 194.36 44.2681 194.2 43.7081 193.88C43.1481 193.56 42.7081 193.12 42.3881 192.56C42.0681 192 41.9081 191.376 41.9081 190.688Z" fill="#212121"/>
<path id="140&#194;&#176;" d="M4.08444 286.352L4.10844 284.408L8.52444 282.008H9.91644V299.264H7.99644V284.288L4.08444 286.352ZM13.4773 295.112V293.864L21.9973 282.008H23.5093V293.528H25.9813V295.112H23.5093V299.264H21.6373V295.112H13.4773ZM15.6613 293.528H21.6373V285.344L15.6613 293.528ZM39.5928 287.84C39.6248 288.384 39.6408 289.32 39.6408 290.648C39.6408 291.976 39.6248 292.928 39.5928 293.504C39.4808 295.376 38.9448 296.848 37.9848 297.92C37.0248 298.976 35.6648 299.504 33.9048 299.504C32.1448 299.504 30.7768 298.968 29.8008 297.896C28.8408 296.808 28.3128 295.312 28.2168 293.408C28.1848 292.912 28.1688 292.008 28.1688 290.696C28.1688 289.384 28.1848 288.432 28.2168 287.84C28.2968 285.952 28.8248 284.464 29.8008 283.376C30.7768 282.288 32.1448 281.744 33.9048 281.744C35.6648 281.744 37.0328 282.288 38.0088 283.376C38.9848 284.448 39.5128 285.936 39.5928 287.84ZM37.6248 293.336C37.6568 292.728 37.6728 291.824 37.6728 290.624C37.6728 289.408 37.6568 288.504 37.6248 287.912C37.5608 286.392 37.2168 285.256 36.5928 284.504C35.9688 283.736 35.0728 283.352 33.9048 283.352C32.7368 283.352 31.8408 283.736 31.2168 284.504C30.5928 285.256 30.2488 286.392 30.1848 287.912C30.1528 288.584 30.1368 289.52 30.1368 290.72C30.1368 291.904 30.1528 292.776 30.1848 293.336C30.2488 294.856 30.5928 296 31.2168 296.768C31.8408 297.52 32.7368 297.896 33.9048 297.896C35.0728 297.896 35.9688 297.52 36.5928 296.768C37.2168 296.016 37.5608 294.872 37.6248 293.336ZM43.4201 283.688C43.4201 284.36 43.6121 284.912 43.9961 285.344C44.3961 285.776 44.9161 285.992 45.5561 285.992C46.1961 285.992 46.7161 285.776 47.1161 285.344C47.5321 284.912 47.7401 284.36 47.7401 283.688C47.7401 282.984 47.5321 282.416 47.1161 281.984C46.7161 281.552 46.1961 281.336 45.5561 281.336C44.9161 281.336 44.3961 281.552 43.9961 281.984C43.6121 282.416 43.4201 282.984 43.4201 283.688ZM41.9081 283.688C41.9081 283 42.0681 282.376 42.3881 281.816C42.7081 281.24 43.1481 280.792 43.7081 280.472C44.2681 280.136 44.8841 279.968 45.5561 279.968C46.2601 279.968 46.8921 280.136 47.4521 280.472C48.0121 280.792 48.4441 281.232 48.7481 281.792C49.0681 282.352 49.2281 282.984 49.2281 283.688C49.2281 284.376 49.0681 285 48.7481 285.56C48.4441 286.12 48.0121 286.56 47.4521 286.88C46.8921 287.2 46.2601 287.36 45.5561 287.36C44.8841 287.36 44.2681 287.2 43.7081 286.88C43.1481 286.56 42.7081 286.12 42.3881 285.56C42.0681 285 41.9081 284.376 41.9081 283.688Z" fill="#212121"/>
<path id="104&#194;&#176;" d="M4.08444 379.352L4.10844 377.408L8.52444 375.008H9.91644V392.264H7.99644V377.288L4.08444 379.352ZM25.7413 380.84C25.7733 381.384 25.7893 382.32 25.7893 383.648C25.7893 384.976 25.7733 385.928 25.7413 386.504C25.6293 388.376 25.0933 389.848 24.1333 390.92C23.1733 391.976 21.8133 392.504 20.0533 392.504C18.2933 392.504 16.9253 391.968 15.9492 390.896C14.9893 389.808 14.4613 388.312 14.3652 386.408C14.3333 385.912 14.3173 385.008 14.3173 383.696C14.3173 382.384 14.3333 381.432 14.3652 380.84C14.4453 378.952 14.9733 377.464 15.9492 376.376C16.9253 375.288 18.2933 374.744 20.0533 374.744C21.8133 374.744 23.1813 375.288 24.1573 376.376C25.1333 377.448 25.6613 378.936 25.7413 380.84ZM23.7733 386.336C23.8053 385.728 23.8213 384.824 23.8213 383.624C23.8213 382.408 23.8053 381.504 23.7733 380.912C23.7093 379.392 23.3653 378.256 22.7413 377.504C22.1173 376.736 21.2213 376.352 20.0533 376.352C18.8853 376.352 17.9893 376.736 17.3653 377.504C16.7413 378.256 16.3973 379.392 16.3333 380.912C16.3013 381.584 16.2853 382.52 16.2853 383.72C16.2853 384.904 16.3013 385.776 16.3333 386.336C16.3973 387.856 16.7413 389 17.3653 389.768C17.9893 390.52 18.8853 390.896 20.0533 390.896C21.2213 390.896 22.1173 390.52 22.7413 389.768C23.3653 389.016 23.7093 387.872 23.7733 386.336ZM28.0085 388.112V386.864L36.5285 375.008H38.0405V386.528H40.5125V388.112H38.0405V392.264H36.1685V388.112H28.0085ZM30.1925 386.528H36.1685V378.344L30.1925 386.528ZM43.4201 376.688C43.4201 377.36 43.6121 377.912 43.9961 378.344C44.3961 378.776 44.9161 378.992 45.5561 378.992C46.1961 378.992 46.7161 378.776 47.1161 378.344C47.5321 377.912 47.7401 377.36 47.7401 376.688C47.7401 375.984 47.5321 375.416 47.1161 374.984C46.7161 374.552 46.1961 374.336 45.5561 374.336C44.9161 374.336 44.3961 374.552 43.9961 374.984C43.6121 375.416 43.4201 375.984 43.4201 376.688ZM41.9081 376.688C41.9081 376 42.0681 375.376 42.3881 374.816C42.7081 374.24 43.1481 373.792 43.7081 373.472C44.2681 373.136 44.8841 372.968 45.5561 372.968C46.2601 372.968 46.8921 373.136 47.4521 373.472C48.0121 373.792 48.4441 374.232 48.7481 374.792C49.0681 375.352 49.2281 375.984 49.2281 376.688C49.2281 377.376 49.0681 378 48.7481 378.56C48.4441 379.12 48.0121 379.56 47.4521 379.88C46.8921 380.2 46.2601 380.36 45.5561 380.36C44.8841 380.36 44.2681 380.2 43.7081 379.88C43.1481 379.56 42.7081 379.12 42.3881 378.56C42.0681 378 41.9081 377.376 41.9081 376.688Z" fill="#212121"/>
<path id="68&#194;&#176;" d="M14.3105 479.672C14.3105 478.68 14.4865 477.728 14.8385 476.816C15.1905 475.904 15.7665 474.896 16.5665 473.792L20.7905 468.008H23.0705L17.8865 474.776C17.5985 475.144 17.3505 475.504 17.1425 475.856C16.9345 476.192 16.7185 476.624 16.4945 477.152L16.2545 476.432C16.7665 475.808 17.3745 475.328 18.0785 474.992C18.7985 474.656 19.6065 474.488 20.5025 474.488C21.5585 474.488 22.4945 474.712 23.3105 475.16C24.1425 475.592 24.7905 476.224 25.2545 477.056C25.7185 477.872 25.9505 478.848 25.9505 479.984C25.9505 481.12 25.7025 482.104 25.2065 482.936C24.7105 483.768 24.0225 484.408 23.1425 484.856C22.2785 485.288 21.2785 485.504 20.1425 485.504C18.9905 485.504 17.9745 485.28 17.0945 484.832C16.2145 484.368 15.5265 483.696 15.0305 482.816C14.5505 481.936 14.3105 480.888 14.3105 479.672ZM16.3265 479.984C16.3265 480.8 16.4865 481.504 16.8065 482.096C17.1425 482.672 17.5905 483.112 18.1505 483.416C18.7265 483.704 19.3905 483.848 20.1425 483.848C21.2785 483.848 22.1985 483.512 22.9025 482.84C23.6225 482.152 23.9825 481.2 23.9825 479.984C23.9825 478.768 23.6305 477.824 22.9265 477.152C22.2225 476.464 21.2945 476.12 20.1425 476.12C19.3905 476.12 18.7265 476.272 18.1505 476.576C17.5745 476.88 17.1265 477.328 16.8065 477.92C16.4865 478.496 16.3265 479.184 16.3265 479.984ZM27.9958 480.392C27.9958 479.368 28.2838 478.464 28.8598 477.68C29.4358 476.88 30.2278 476.28 31.2358 475.88C30.4678 475.512 29.8598 475.008 29.4118 474.368C28.9798 473.728 28.7638 473.008 28.7638 472.208C28.7638 471.376 28.9878 470.624 29.4358 469.952C29.8998 469.264 30.5318 468.728 31.3318 468.344C32.1478 467.944 33.0518 467.744 34.0438 467.744C35.0358 467.744 35.9238 467.944 36.7078 468.344C37.5078 468.728 38.1238 469.264 38.5558 469.952C39.0038 470.624 39.2278 471.376 39.2278 472.208C39.2278 473.008 39.0118 473.728 38.5798 474.368C38.1638 475.008 37.5798 475.512 36.8278 475.88C37.8198 476.28 38.5958 476.88 39.1558 477.68C39.7318 478.464 40.0198 479.368 40.0198 480.392C40.0198 481.368 39.7638 482.248 39.2518 483.032C38.7398 483.8 38.0278 484.408 37.1158 484.856C36.2198 485.288 35.1958 485.504 34.0438 485.504C32.8758 485.504 31.8278 485.288 30.8998 484.856C29.9878 484.408 29.2758 483.8 28.7638 483.032C28.2518 482.248 27.9958 481.368 27.9958 480.392ZM29.9878 480.32C29.9878 481.056 30.1558 481.696 30.4918 482.24C30.8278 482.768 31.2998 483.176 31.9078 483.464C32.5318 483.752 33.2438 483.896 34.0438 483.896C34.8278 483.896 35.5238 483.752 36.1318 483.464C36.7398 483.176 37.2118 482.768 37.5478 482.24C37.8998 481.696 38.0758 481.056 38.0758 480.32C38.0758 479.232 37.7078 478.36 36.9718 477.704C36.2358 477.048 35.2598 476.72 34.0438 476.72C32.8118 476.72 31.8278 477.048 31.0918 477.704C30.3558 478.36 29.9878 479.232 29.9878 480.32ZM30.7558 472.256C30.7558 473.12 31.0518 473.824 31.6438 474.368C32.2518 474.896 33.0518 475.16 34.0438 475.16C34.6838 475.16 35.2518 475.04 35.7478 474.8C36.2438 474.544 36.6278 474.2 36.8998 473.768C37.1718 473.32 37.3078 472.816 37.3078 472.256C37.3078 471.68 37.1718 471.176 36.8998 470.744C36.6278 470.296 36.2438 469.952 35.7478 469.712C35.2518 469.456 34.6838 469.328 34.0438 469.328C33.3878 469.328 32.8118 469.456 32.3158 469.712C31.8198 469.952 31.4358 470.296 31.1638 470.744C30.8918 471.176 30.7558 471.68 30.7558 472.256ZM43.4201 469.688C43.4201 470.36 43.6121 470.912 43.9961 471.344C44.3961 471.776 44.9161 471.992 45.5561 471.992C46.1961 471.992 46.7161 471.776 47.1161 471.344C47.5321 470.912 47.7401 470.36 47.7401 469.688C47.7401 468.984 47.5321 468.416 47.1161 467.984C46.7161 467.552 46.1961 467.336 45.5561 467.336C44.9161 467.336 44.3961 467.552 43.9961 467.984C43.6121 468.416 43.4201 468.984 43.4201 469.688ZM41.9081 469.688C41.9081 469 42.0681 468.376 42.3881 467.816C42.7081 467.24 43.1481 466.792 43.7081 466.472C44.2681 466.136 44.8841 465.968 45.5561 465.968C46.2601 465.968 46.8921 466.136 47.4521 466.472C48.0121 466.792 48.4441 467.232 48.7481 467.792C49.0681 468.352 49.2281 468.984 49.2281 469.688C49.2281 470.376 49.0681 471 48.7481 471.56C48.4441 472.12 48.0121 472.56 47.4521 472.88C46.8921 473.2 46.2601 473.36 45.5561 473.36C44.8841 473.36 44.2681 473.2 43.7081 472.88C43.1481 472.56 42.7081 472.12 42.3881 471.56C42.0681 471 41.9081 470.376 41.9081 469.688Z" fill="#212121"/>
<path id="32&#194;&#176;" d="M18.0217 569.408C18.4697 568.864 19.0137 568.432 19.6537 568.112C20.2937 567.792 21.0537 567.632 21.9337 567.632C22.9577 567.632 23.8777 567.856 24.6937 568.304C25.5097 568.736 26.1497 569.352 26.6137 570.152C27.0777 570.952 27.3097 571.872 27.3097 572.912C27.3097 573.984 27.0537 574.944 26.5417 575.792C26.0457 576.64 25.3497 577.304 24.4537 577.784C23.5577 578.264 22.5417 578.504 21.4057 578.504C20.0777 578.504 18.9257 578.208 17.9497 577.616C16.9897 577.024 16.3257 576.184 15.9577 575.096L17.4457 574.376C17.8137 575.192 18.3257 575.816 18.9817 576.248C19.6537 576.68 20.4617 576.896 21.4057 576.896C22.2057 576.896 22.8937 576.736 23.4697 576.416C24.0617 576.08 24.5097 575.616 24.8137 575.024C25.1337 574.432 25.2937 573.744 25.2937 572.96C25.2937 571.792 24.9497 570.872 24.2617 570.2C23.5737 569.512 22.6217 569.168 21.4057 569.168C20.7817 569.168 20.2457 569.264 19.7977 569.456C19.3657 569.632 18.9497 569.912 18.5497 570.296L17.5657 569.144L23.8777 562.592H16.9177V561.008H26.3737V562.256L19.3417 569.48L18.0217 569.408ZM29.2781 578.264V576.968L35.7821 570.104C36.5981 569.24 37.1741 568.472 37.5101 567.8C37.8621 567.112 38.0381 566.408 38.0381 565.688C38.0381 564.664 37.7581 563.856 37.1981 563.264C36.6541 562.656 35.8701 562.352 34.8461 562.352C33.8541 562.352 33.0461 562.624 32.4221 563.168C31.7981 563.712 31.2941 564.496 30.9101 565.52L29.3021 564.896C29.6861 563.584 30.3741 562.568 31.3661 561.848C32.3741 561.112 33.5581 560.744 34.9181 560.744C35.9581 560.744 36.8621 560.96 37.6301 561.392C38.4141 561.808 39.0141 562.392 39.4301 563.144C39.8461 563.88 40.0541 564.712 40.0541 565.64C40.0541 566.584 39.8141 567.488 39.3341 568.352C38.8701 569.216 38.0861 570.224 36.9821 571.376L31.6061 577.016L31.2701 576.704H40.1021V578.264H29.2781ZM43.4201 562.688C43.4201 563.36 43.6121 563.912 43.9961 564.344C44.3961 564.776 44.9161 564.992 45.5561 564.992C46.1961 564.992 46.7161 564.776 47.1161 564.344C47.5321 563.912 47.7401 563.36 47.7401 562.688C47.7401 561.984 47.5321 561.416 47.1161 560.984C46.7161 560.552 46.1961 560.336 45.5561 560.336C44.9161 560.336 44.3961 560.552 43.9961 560.984C43.6121 561.416 43.4201 561.984 43.4201 562.688ZM41.9081 562.688C41.9081 562 42.0681 561.376 42.3881 560.816C42.7081 560.24 43.1481 559.792 43.7081 559.472C44.2681 559.136 44.8841 558.968 45.5561 558.968C46.2601 558.968 46.8921 559.136 47.4521 559.472C48.0121 559.792 48.4441 560.232 48.7481 560.792C49.0681 561.352 49.2281 561.984 49.2281 562.688C49.2281 563.376 49.0681 564 48.7481 564.56C48.4441 565.12 48.0121 565.56 47.4521 565.88C46.8921 566.2 46.2601 566.36 45.5561 566.36C44.8841 566.36 44.2681 566.2 43.7081 565.88C43.1481 565.56 42.7081 565.12 42.3881 564.56C42.0681 564 41.9081 563.376 41.9081 562.688Z" fill="#212121"/>
</g>
<path id="1h" d="M244.147 591.352L244.171 589.408L248.587 587.008H249.979V604.264H248.059V589.288L244.147 591.352ZM254.308 604.24V586.264H256.18V593.536C256.66 592.832 257.268 592.296 258.004 591.928C258.74 591.56 259.604 591.376 260.596 591.376C262.068 591.376 263.22 591.792 264.052 592.624C264.9 593.44 265.324 594.624 265.324 596.176V604.24H263.452V596.44C263.452 595.24 263.18 594.368 262.636 593.824C262.092 593.264 261.316 592.984 260.308 592.984C259.46 592.984 258.724 593.168 258.1 593.536C257.476 593.888 256.996 594.392 256.66 595.048C256.34 595.688 256.18 596.44 256.18 597.304V604.24H254.308Z" fill="#212121"/>
<path id="30m" d="M139.205 595.408C139.653 594.864 140.197 594.432 140.837 594.112C141.477 593.792 142.237 593.632 143.117 593.632C144.141 593.632 145.061 593.856 145.877 594.304C146.693 594.736 147.333 595.352 147.797 596.152C148.261 596.952 148.493 597.872 148.493 598.912C148.493 599.984 148.237 600.944 147.725 601.792C147.229 602.64 146.533 603.304 145.637 603.784C144.741 604.264 143.725 604.504 142.589 604.504C141.261 604.504 140.109 604.208 139.133 603.616C138.173 603.024 137.509 602.184 137.141 601.096L138.629 600.376C138.997 601.192 139.509 601.816 140.165 602.248C140.837 602.68 141.645 602.896 142.589 602.896C143.389 602.896 144.077 602.736 144.653 602.416C145.245 602.08 145.693 601.616 145.997 601.024C146.317 600.432 146.477 599.744 146.477 598.96C146.477 597.792 146.133 596.872 145.445 596.2C144.757 595.512 143.805 595.168 142.589 595.168C141.965 595.168 141.429 595.264 140.981 595.456C140.549 595.632 140.133 595.912 139.733 596.296L138.749 595.144L145.061 588.592H138.101V587.008H147.557V588.256L140.525 595.48L139.205 595.408ZM162.558 592.84C162.59 593.384 162.606 594.32 162.606 595.648C162.606 596.976 162.59 597.928 162.558 598.504C162.446 600.376 161.91 601.848 160.95 602.92C159.99 603.976 158.63 604.504 156.87 604.504C155.11 604.504 153.742 603.968 152.766 602.896C151.806 601.808 151.278 600.312 151.182 598.408C151.15 597.912 151.134 597.008 151.134 595.696C151.134 594.384 151.15 593.432 151.182 592.84C151.262 590.952 151.79 589.464 152.766 588.376C153.742 587.288 155.11 586.744 156.87 586.744C158.63 586.744 159.998 587.288 160.974 588.376C161.95 589.448 162.478 590.936 162.558 592.84ZM160.59 598.336C160.622 597.728 160.638 596.824 160.638 595.624C160.638 594.408 160.622 593.504 160.59 592.912C160.526 591.392 160.182 590.256 159.558 589.504C158.934 588.736 158.038 588.352 156.87 588.352C155.702 588.352 154.806 588.736 154.182 589.504C153.558 590.256 153.214 591.392 153.15 592.912C153.118 593.584 153.102 594.52 153.102 595.72C153.102 596.904 153.118 597.776 153.15 598.336C153.214 599.856 153.558 601 154.182 601.768C154.806 602.52 155.702 602.896 156.87 602.896C158.038 602.896 158.934 602.52 159.558 601.768C160.182 601.016 160.526 599.872 160.59 598.336ZM167.225 591.616C167.273 591.952 167.313 592.616 167.345 593.608C167.761 592.888 168.313 592.336 169.001 591.952C169.705 591.568 170.537 591.376 171.497 591.376C172.457 591.376 173.265 591.576 173.921 591.976C174.577 592.376 175.057 592.968 175.361 593.752C175.793 592.984 176.369 592.4 177.089 592C177.809 591.584 178.665 591.376 179.657 591.376C181.017 591.376 182.065 591.768 182.801 592.552C183.553 593.32 183.929 594.456 183.929 595.96V604.24H182.033V596.224C182.033 595.072 181.793 594.24 181.313 593.728C180.833 593.216 180.161 592.96 179.297 592.96C178.577 592.96 177.945 593.128 177.401 593.464C176.873 593.784 176.457 594.24 176.153 594.832C175.865 595.408 175.721 596.088 175.721 596.872V604.24H173.825V596.224C173.825 595.072 173.585 594.24 173.105 593.728C172.625 593.216 171.953 592.96 171.089 592.96C170.369 592.96 169.737 593.128 169.193 593.464C168.665 593.784 168.249 594.24 167.945 594.832C167.657 595.408 167.513 596.088 167.513 596.872V604.24H165.689V594.592C165.689 593.44 165.657 592.448 165.593 591.616H167.225Z" fill="#212121"/>
<path id="1h30m" d="M313.76 591.352L313.784 589.408L318.2 587.008H319.592V604.264H317.672V589.288L313.76 591.352ZM323.921 604.24V586.264H325.793V593.536C326.273 592.832 326.881 592.296 327.617 591.928C328.353 591.56 329.217 591.376 330.209 591.376C331.681 591.376 332.833 591.792 333.665 592.624C334.513 593.44 334.937 594.624 334.937 596.176V604.24H333.065V596.44C333.065 595.24 332.793 594.368 332.249 593.824C331.705 593.264 330.929 592.984 329.921 592.984C329.073 592.984 328.337 593.168 327.713 593.536C327.089 593.888 326.609 594.392 326.273 595.048C325.953 595.688 325.793 596.44 325.793 597.304V604.24H323.921ZM338.994 595.408C339.442 594.864 339.986 594.432 340.626 594.112C341.266 593.792 342.026 593.632 342.906 593.632C343.93 593.632 344.85 593.856 345.666 594.304C346.482 594.736 347.122 595.352 347.586 596.152C348.05 596.952 348.282 597.872 348.282 598.912C348.282 599.984 348.026 600.944 347.514 601.792C347.018 602.64 346.322 603.304 345.426 603.784C344.53 604.264 343.514 604.504 342.378 604.504C341.05 604.504 339.898 604.208 338.922 603.616C337.962 603.024 337.298 602.184 336.93 601.096L338.418 600.376C338.786 601.192 339.298 601.816 339.954 602.248C340.626 602.68 341.434 602.896 342.378 602.896C343.178 602.896 343.866 602.736 344.442 602.416C345.034 602.08 345.482 601.616 345.786 601.024C346.106 600.432 346.266 599.744 346.266 598.96C346.266 597.792 345.922 596.872 345.234 596.2C344.546 595.512 343.594 595.168 342.378 595.168C341.754 595.168 341.218 595.264 340.77 595.456C340.338 595.632 339.922 595.912 339.522 596.296L338.538 595.144L344.85 588.592H337.89V587.008H347.346V588.256L340.314 595.48L338.994 595.408ZM362.347 592.84C362.379 593.384 362.395 594.32 362.395 595.648C362.395 596.976 362.379 597.928 362.347 598.504C362.235 600.376 361.699 601.848 360.739 602.92C359.779 603.976 358.419 604.504 356.659 604.504C354.899 604.504 353.531 603.968 352.555 602.896C351.595 601.808 351.067 600.312 350.971 598.408C350.939 597.912 350.923 597.008 350.923 595.696C350.923 594.384 350.939 593.432 350.971 592.84C351.051 590.952 351.579 589.464 352.555 588.376C353.531 587.288 354.899 586.744 356.659 586.744C358.419 586.744 359.787 587.288 360.763 588.376C361.739 589.448 362.267 590.936 362.347 592.84ZM360.379 598.336C360.411 597.728 360.427 596.824 360.427 595.624C360.427 594.408 360.411 593.504 360.379 592.912C360.315 591.392 359.971 590.256 359.347 589.504C358.723 588.736 357.827 588.352 356.659 588.352C355.491 588.352 354.595 588.736 353.971 589.504C353.347 590.256 353.003 591.392 352.939 592.912C352.907 593.584 352.891 594.52 352.891 595.72C352.891 596.904 352.907 597.776 352.939 598.336C353.003 599.856 353.347 601 353.971 601.768C354.595 602.52 355.491 602.896 356.659 602.896C357.827 602.896 358.723 602.52 359.347 601.768C359.971 601.016 360.315 599.872 360.379 598.336ZM367.014 591.616C367.062 591.952 367.102 592.616 367.134 593.608C367.55 592.888 368.102 592.336 368.79 591.952C369.494 591.568 370.326 591.376 371.286 591.376C372.246 591.376 373.054 591.576 373.71 591.976C374.366 592.376 374.846 592.968 375.15 593.752C375.582 592.984 376.158 592.4 376.878 592C377.598 591.584 378.454 591.376 379.446 591.376C380.806 591.376 381.854 591.768 382.59 592.552C383.342 593.32 383.718 594.456 383.718 595.96V604.24H381.822V596.224C381.822 595.072 381.582 594.24 381.102 593.728C380.622 593.216 379.95 592.96 379.086 592.96C378.366 592.96 377.734 593.128 377.19 593.464C376.662 593.784 376.246 594.24 375.942 594.832C375.654 595.408 375.51 596.088 375.51 596.872V604.24H373.614V596.224C373.614 595.072 373.374 594.24 372.894 593.728C372.414 593.216 371.742 592.96 370.878 592.96C370.158 592.96 369.526 593.128 368.982 593.464C368.454 593.784 368.038 594.24 367.734 594.832C367.446 595.408 367.302 596.088 367.302 596.872V604.24H365.478V594.592C365.478 593.44 365.446 592.448 365.382 591.616H367.014Z" fill="#212121"/>
<path id="2h30h" d="M409.786 604.264V602.968L416.29 596.104C417.106 595.24 417.682 594.472 418.018 593.8C418.37 593.112 418.546 592.408 418.546 591.688C418.546 590.664 418.266 589.856 417.706 589.264C417.162 588.656 416.378 588.352 415.354 588.352C414.362 588.352 413.554 588.624 412.93 589.168C412.306 589.712 411.802 590.496 411.418 591.52L409.81 590.896C410.194 589.584 410.882 588.568 411.874 587.848C412.882 587.112 414.066 586.744 415.426 586.744C416.466 586.744 417.37 586.96 418.138 587.392C418.922 587.808 419.522 588.392 419.938 589.144C420.354 589.88 420.562 590.712 420.562 591.64C420.562 592.584 420.322 593.488 419.842 594.352C419.378 595.216 418.594 596.224 417.49 597.376L412.114 603.016L411.778 602.704H420.61V604.264H409.786ZM423.136 604.24V586.264H425.008V593.536C425.488 592.832 426.096 592.296 426.832 591.928C427.568 591.56 428.432 591.376 429.424 591.376C430.896 591.376 432.048 591.792 432.88 592.624C433.728 593.44 434.152 594.624 434.152 596.176V604.24H432.28V596.44C432.28 595.24 432.008 594.368 431.464 593.824C430.92 593.264 430.144 592.984 429.136 592.984C428.288 592.984 427.552 593.168 426.928 593.536C426.304 593.888 425.824 594.392 425.488 595.048C425.168 595.688 425.008 596.44 425.008 597.304V604.24H423.136ZM438.209 595.408C438.657 594.864 439.201 594.432 439.841 594.112C440.481 593.792 441.241 593.632 442.121 593.632C443.145 593.632 444.065 593.856 444.881 594.304C445.697 594.736 446.337 595.352 446.801 596.152C447.265 596.952 447.497 597.872 447.497 598.912C447.497 599.984 447.241 600.944 446.729 601.792C446.233 602.64 445.537 603.304 444.641 603.784C443.745 604.264 442.729 604.504 441.593 604.504C440.265 604.504 439.113 604.208 438.137 603.616C437.177 603.024 436.513 602.184 436.145 601.096L437.633 600.376C438.001 601.192 438.513 601.816 439.169 602.248C439.841 602.68 440.649 602.896 441.593 602.896C442.393 602.896 443.081 602.736 443.657 602.416C444.249 602.08 444.697 601.616 445.001 601.024C445.321 600.432 445.481 599.744 445.481 598.96C445.481 597.792 445.137 596.872 444.449 596.2C443.761 595.512 442.809 595.168 441.593 595.168C440.969 595.168 440.433 595.264 439.985 595.456C439.553 595.632 439.137 595.912 438.737 596.296L437.753 595.144L444.065 588.592H437.105V587.008H446.561V588.256L439.529 595.48L438.209 595.408ZM461.562 592.84C461.594 593.384 461.61 594.32 461.61 595.648C461.61 596.976 461.594 597.928 461.562 598.504C461.45 600.376 460.914 601.848 459.954 602.92C458.994 603.976 457.634 604.504 455.874 604.504C454.114 604.504 452.746 603.968 451.77 602.896C450.81 601.808 450.282 600.312 450.186 598.408C450.154 597.912 450.138 597.008 450.138 595.696C450.138 594.384 450.154 593.432 450.186 592.84C450.266 590.952 450.794 589.464 451.77 588.376C452.746 587.288 454.114 586.744 455.874 586.744C457.634 586.744 459.002 587.288 459.978 588.376C460.954 589.448 461.482 590.936 461.562 592.84ZM459.594 598.336C459.626 597.728 459.642 596.824 459.642 595.624C459.642 594.408 459.626 593.504 459.594 592.912C459.53 591.392 459.186 590.256 458.562 589.504C457.938 588.736 457.042 588.352 455.874 588.352C454.706 588.352 453.81 588.736 453.186 589.504C452.562 590.256 452.218 591.392 452.154 592.912C452.122 593.584 452.106 594.52 452.106 595.72C452.106 596.904 452.122 597.776 452.154 598.336C452.218 599.856 452.562 601 453.186 601.768C453.81 602.52 454.706 602.896 455.874 602.896C457.042 602.896 457.938 602.52 458.562 601.768C459.186 601.016 459.53 599.872 459.594 598.336ZM464.597 604.24V586.264H466.469V593.536C466.949 592.832 467.557 592.296 468.293 591.928C469.029 591.56 469.893 591.376 470.885 591.376C472.357 591.376 473.509 591.792 474.341 592.624C475.189 593.44 475.613 594.624 475.613 596.176V604.24H473.741V596.44C473.741 595.24 473.469 594.368 472.925 593.824C472.381 593.264 471.605 592.984 470.597 592.984C469.749 592.984 469.013 593.168 468.389 593.536C467.765 593.888 467.285 594.392 466.949 595.048C466.629 595.688 466.469 596.44 466.469 597.304V604.24H464.597Z" fill="#212121"/>
<path id="3h30m" d="M501.74 595.408C502.188 594.864 502.732 594.432 503.372 594.112C504.012 593.792 504.772 593.632 505.652 593.632C506.676 593.632 507.596 593.856 508.412 594.304C509.228 594.736 509.868 595.352 510.332 596.152C510.796 596.952 511.028 597.872 511.028 598.912C511.028 599.984 510.772 600.944 510.26 601.792C509.764 602.64 509.068 603.304 508.172 603.784C507.276 604.264 506.26 604.504 505.124 604.504C503.796 604.504 502.644 604.208 501.668 603.616C500.708 603.024 500.044 602.184 499.676 601.096L501.164 600.376C501.532 601.192 502.044 601.816 502.7 602.248C503.372 602.68 504.18 602.896 505.124 602.896C505.924 602.896 506.612 602.736 507.188 602.416C507.78 602.08 508.228 601.616 508.532 601.024C508.852 600.432 509.012 599.744 509.012 598.96C509.012 597.792 508.668 596.872 507.98 596.2C507.292 595.512 506.34 595.168 505.124 595.168C504.5 595.168 503.964 595.264 503.516 595.456C503.084 595.632 502.668 595.912 502.268 596.296L501.284 595.144L507.596 588.592H500.636V587.008H510.092V588.256L503.06 595.48L501.74 595.408ZM513.597 604.24V586.264H515.469V593.536C515.949 592.832 516.557 592.296 517.293 591.928C518.029 591.56 518.893 591.376 519.885 591.376C521.357 591.376 522.509 591.792 523.341 592.624C524.189 593.44 524.613 594.624 524.613 596.176V604.24H522.741V596.44C522.741 595.24 522.469 594.368 521.925 593.824C521.381 593.264 520.605 592.984 519.597 592.984C518.749 592.984 518.013 593.168 517.389 593.536C516.765 593.888 516.285 594.392 515.949 595.048C515.629 595.688 515.469 596.44 515.469 597.304V604.24H513.597ZM528.67 595.408C529.118 594.864 529.662 594.432 530.302 594.112C530.942 593.792 531.702 593.632 532.582 593.632C533.606 593.632 534.526 593.856 535.342 594.304C536.158 594.736 536.798 595.352 537.262 596.152C537.726 596.952 537.958 597.872 537.958 598.912C537.958 599.984 537.702 600.944 537.19 601.792C536.694 602.64 535.998 603.304 535.102 603.784C534.206 604.264 533.19 604.504 532.054 604.504C530.726 604.504 529.574 604.208 528.598 603.616C527.638 603.024 526.974 602.184 526.606 601.096L528.094 600.376C528.462 601.192 528.974 601.816 529.63 602.248C530.302 602.68 531.11 602.896 532.054 602.896C532.854 602.896 533.542 602.736 534.118 602.416C534.71 602.08 535.158 601.616 535.462 601.024C535.782 600.432 535.942 599.744 535.942 598.96C535.942 597.792 535.598 596.872 534.91 596.2C534.222 595.512 533.27 595.168 532.054 595.168C531.43 595.168 530.894 595.264 530.446 595.456C530.014 595.632 529.598 595.912 529.198 596.296L528.214 595.144L534.526 588.592H527.566V587.008H537.022V588.256L529.99 595.48L528.67 595.408ZM552.023 592.84C552.055 593.384 552.071 594.32 552.071 595.648C552.071 596.976 552.055 597.928 552.023 598.504C551.911 600.376 551.375 601.848 550.415 602.92C549.455 603.976 548.095 604.504 546.335 604.504C544.575 604.504 543.207 603.968 542.23 602.896C541.271 601.808 540.743 600.312 540.646 598.408C540.615 597.912 540.599 597.008 540.599 595.696C540.599 594.384 540.615 593.432 540.646 592.84C540.727 590.952 541.255 589.464 542.23 588.376C543.207 587.288 544.575 586.744 546.335 586.744C548.095 586.744 549.463 587.288 550.439 588.376C551.415 589.448 551.943 590.936 552.023 592.84ZM550.055 598.336C550.087 597.728 550.103 596.824 550.103 595.624C550.103 594.408 550.087 593.504 550.055 592.912C549.991 591.392 549.647 590.256 549.023 589.504C548.399 588.736 547.503 588.352 546.335 588.352C545.167 588.352 544.271 588.736 543.647 589.504C543.023 590.256 542.679 591.392 542.615 592.912C542.583 593.584 542.567 594.52 542.567 595.72C542.567 596.904 542.583 597.776 542.615 598.336C542.679 599.856 543.023 601 543.647 601.768C544.271 602.52 545.167 602.896 546.335 602.896C547.503 602.896 548.399 602.52 549.023 601.768C549.647 601.016 549.991 599.872 550.055 598.336ZM556.69 591.616C556.738 591.952 556.778 592.616 556.81 593.608C557.226 592.888 557.778 592.336 558.466 591.952C559.17 591.568 560.002 591.376 560.962 591.376C561.922 591.376 562.73 591.576 563.386 591.976C564.042 592.376 564.522 592.968 564.826 593.752C565.258 592.984 565.834 592.4 566.554 592C567.274 591.584 568.13 591.376 569.122 591.376C570.482 591.376 571.53 591.768 572.266 592.552C573.018 593.32 573.394 594.456 573.394 595.96V604.24H571.498V596.224C571.498 595.072 571.258 594.24 570.778 593.728C570.298 593.216 569.626 592.96 568.762 592.96C568.042 592.96 567.41 593.128 566.866 593.464C566.338 593.784 565.922 594.24 565.618 594.832C565.33 595.408 565.186 596.088 565.186 596.872V604.24H563.29V596.224C563.29 595.072 563.05 594.24 562.57 593.728C562.09 593.216 561.418 592.96 560.554 592.96C559.834 592.96 559.202 593.128 558.658 593.464C558.13 593.784 557.714 594.24 557.41 594.832C557.122 595.408 556.978 596.088 556.978 596.872V604.24H555.154V594.592C555.154 593.44 555.122 592.448 555.058 591.616H556.69Z" fill="#212121"/>
<path id="4h30m" d="M592.411 600.112V598.864L600.931 587.008H602.443V598.528H604.915V600.112H602.443V604.264H600.571V600.112H592.411ZM594.595 598.528H600.571V590.344L594.595 598.528ZM607.03 604.24V586.264H608.902V593.536C609.382 592.832 609.99 592.296 610.726 591.928C611.462 591.56 612.326 591.376 613.318 591.376C614.79 591.376 615.942 591.792 616.774 592.624C617.622 593.44 618.046 594.624 618.046 596.176V604.24H616.174V596.44C616.174 595.24 615.902 594.368 615.358 593.824C614.814 593.264 614.038 592.984 613.03 592.984C612.182 592.984 611.446 593.168 610.822 593.536C610.198 593.888 609.718 594.392 609.382 595.048C609.062 595.688 608.902 596.44 608.902 597.304V604.24H607.03ZM622.104 595.408C622.552 594.864 623.096 594.432 623.736 594.112C624.376 593.792 625.136 593.632 626.016 593.632C627.04 593.632 627.96 593.856 628.776 594.304C629.592 594.736 630.232 595.352 630.696 596.152C631.16 596.952 631.392 597.872 631.392 598.912C631.392 599.984 631.136 600.944 630.624 601.792C630.128 602.64 629.432 603.304 628.536 603.784C627.64 604.264 626.624 604.504 625.488 604.504C624.16 604.504 623.008 604.208 622.032 603.616C621.072 603.024 620.408 602.184 620.04 601.096L621.528 600.376C621.896 601.192 622.408 601.816 623.064 602.248C623.736 602.68 624.544 602.896 625.488 602.896C626.288 602.896 626.976 602.736 627.552 602.416C628.144 602.08 628.592 601.616 628.896 601.024C629.216 600.432 629.376 599.744 629.376 598.96C629.376 597.792 629.032 596.872 628.344 596.2C627.656 595.512 626.704 595.168 625.488 595.168C624.864 595.168 624.328 595.264 623.88 595.456C623.448 595.632 623.032 595.912 622.632 596.296L621.648 595.144L627.96 588.592H621V587.008H630.456V588.256L623.424 595.48L622.104 595.408ZM645.456 592.84C645.488 593.384 645.504 594.32 645.504 595.648C645.504 596.976 645.488 597.928 645.456 598.504C645.344 600.376 644.808 601.848 643.848 602.92C642.888 603.976 641.528 604.504 639.768 604.504C638.008 604.504 636.64 603.968 635.664 602.896C634.704 601.808 634.176 600.312 634.08 598.408C634.048 597.912 634.032 597.008 634.032 595.696C634.032 594.384 634.048 593.432 634.08 592.84C634.16 590.952 634.688 589.464 635.664 588.376C636.64 587.288 638.008 586.744 639.768 586.744C641.528 586.744 642.896 587.288 643.872 588.376C644.848 589.448 645.376 590.936 645.456 592.84ZM643.488 598.336C643.52 597.728 643.536 596.824 643.536 595.624C643.536 594.408 643.52 593.504 643.488 592.912C643.424 591.392 643.08 590.256 642.456 589.504C641.832 588.736 640.936 588.352 639.768 588.352C638.6 588.352 637.704 588.736 637.08 589.504C636.456 590.256 636.112 591.392 636.048 592.912C636.016 593.584 636 594.52 636 595.72C636 596.904 636.016 597.776 636.048 598.336C636.112 599.856 636.456 601 637.08 601.768C637.704 602.52 638.6 602.896 639.768 602.896C640.936 602.896 641.832 602.52 642.456 601.768C643.08 601.016 643.424 599.872 643.488 598.336ZM650.123 591.616C650.171 591.952 650.211 592.616 650.243 593.608C650.659 592.888 651.211 592.336 651.899 591.952C652.603 591.568 653.435 591.376 654.395 591.376C655.355 591.376 656.163 591.576 656.819 591.976C657.475 592.376 657.955 592.968 658.259 593.752C658.691 592.984 659.267 592.4 659.987 592C660.707 591.584 661.563 591.376 662.555 591.376C663.915 591.376 664.963 591.768 665.699 592.552C666.451 593.32 666.827 594.456 666.827 595.96V604.24H664.931V596.224C664.931 595.072 664.691 594.24 664.211 593.728C663.731 593.216 663.059 592.96 662.195 592.96C661.475 592.96 660.843 593.128 660.299 593.464C659.771 593.784 659.355 594.24 659.051 594.832C658.763 595.408 658.619 596.088 658.619 596.872V604.24H656.723V596.224C656.723 595.072 656.483 594.24 656.003 593.728C655.523 593.216 654.851 592.96 653.987 592.96C653.267 592.96 652.635 593.128 652.091 593.464C651.563 593.784 651.147 594.24 650.843 594.832C650.555 595.408 650.411 596.088 650.411 596.872V604.24H648.587V594.592C648.587 593.44 648.555 592.448 648.491 591.616H650.123Z" fill="#212121"/>
<path id="Vector 529" d="M67 298H629" stroke="#DD55FC" stroke-width="4" stroke-linecap="square"/>
<path id="Vector 528" d="M74.3648 297.12L64.4741 291.794C63.8079 291.435 63 291.918 63 292.674V303.326C63 304.082 63.8079 304.565 64.4741 304.206L74.3648 298.88C75.066 298.503 75.066 297.497 74.3648 297.12Z" fill="#DD55FC"/>
<path id="Vector 588" d="M67 568V329.905C67 329.905 78.082 328.264 84.7987 331.409C99.787 338.428 112.895 359.486 139.131 359.486C155.057 359.486 163.703 356.207 175.666 346.45C185.502 338.428 194.869 327.398 206.579 319.877C215.203 314.339 233.277 280.269 247.329 276.258C272.621 269.038 299.957 295.015 307.75 300.324C318.055 307.344 331.17 308.848 342.411 313.36C352.421 317.378 367.786 346.89 390.186 358.484C415.152 371.405 441.709 374.527 460.444 369.513C483.864 363.246 539.133 328.401 551.311 328.401C563.17 328.401 582.693 343 597.213 355.5C608.817 365.49 623.599 370.015 630 370.517V568H67Z" fill="url(#paint0_linear_0_1)" fill-opacity="0.1"/>
<path id="Shape" d="M67.9321 368.828C90.9156 364.666 109.815 339.287 137.239 335.021C151.855 332.747 163.565 337.172 176.629 344.048C189.693 350.924 187.136 353.893 216.518 359.194C240.765 363.569 247.107 378.628 270.866 380.44C294.626 382.252 305.615 325.547 330.699 330.281C355.784 335.014 360.796 322.776 384.376 345.97C407.956 369.164 429.741 350.656 459.341 345.922C488.941 341.189 534.243 355.874 548.291 353.98C562.338 352.087 574.986 387.886 587.027 393.093C599.067 398.3 602.482 379.385 628.068 379.385" stroke="#9BA6FA" stroke-width="5" stroke-linecap="round" stroke-linejoin="round"/>
<path id="Shape_2" d="M67.9321 329C101.766 329 96.9549 355.144 136.572 359.716C176.189 364.289 187.221 332.283 205.275 323.138C223.328 313.993 231.352 272.322 261.441 275.136C291.529 277.95 306.574 306.143 331.648 309.66C356.722 313.177 361.737 336.503 385.306 353.737C408.876 370.971 430.44 373.082 460.027 369.565C489.614 366.047 536.171 330.487 550.212 329.08C564.254 327.673 576.791 344.631 588.826 348.499C600.862 352.368 602.493 369.565 628.068 369.565" stroke="#FF0F3C" stroke-width="5" stroke-linecap="round" stroke-linejoin="round"/>
</g>
</g>
<defs>
<linearGradient id="paint0_linear_0_1" x1="348.5" y1="275" x2="348.5" y2="568" gradientUnits="userSpaceOnUse">
<stop stop-color="#FF0F3C"/>
<stop offset="1" stop-color="#FF0F3C" stop-opacity="0"/>
</linearGradient>
</defs>
</svg>
