<svg preserveAspectRatio="none" width="100%" height="100%" overflow="visible" style="display: block;" viewBox="0 0 80 80" fill="none" xmlns="http://www.w3.org/2000/svg">
<g id="ic_dish" clip-path="url(#clip0_0_808)">
<path id="Vector 454" d="M37 20V17C37 15.3431 38.3431 14 40 14C41.6569 14 43 15.3431 43 17V20" stroke="var(--stroke-0, #999999)" stroke-width="2.5" stroke-linecap="square" stroke-linejoin="round"/>
<path id="Vector 485" d="M9 52L15.802 61.3527C16.5547 62.3877 17.7572 63 19.0369 63H60.9631C62.2428 63 63.4453 62.3877 64.198 61.3527L71 52" stroke="var(--stroke-0, #999999)" stroke-width="2.5" stroke-linecap="round"/>
<g id="Ellipse 2013">
<mask id="path-3-inside-1_0_808" fill="white">
<path d="M73 53C73 48.5351 72.1464 44.1138 70.488 39.9888C68.8296 35.8637 66.3989 32.1156 63.3345 28.9584C60.2702 25.8012 56.6323 23.2968 52.6286 21.5881C48.6248 19.8794 44.3336 19 40 19C35.6664 19 31.3752 19.8794 27.3714 21.5881C23.3677 23.2968 19.7298 25.8012 16.6655 28.9584C13.6011 32.1156 11.1704 35.8637 9.51197 39.9888C7.85357 44.1138 7 48.5351 7 53L40 53H73Z"/>
</mask>
<path d="M73 53C73 48.5351 72.1464 44.1138 70.488 39.9888C68.8296 35.8637 66.3989 32.1156 63.3345 28.9584C60.2702 25.8012 56.6323 23.2968 52.6286 21.5881C48.6248 19.8794 44.3336 19 40 19C35.6664 19 31.3752 19.8794 27.3714 21.5881C23.3677 23.2968 19.7298 25.8012 16.6655 28.9584C13.6011 32.1156 11.1704 35.8637 9.51197 39.9888C7.85357 44.1138 7 48.5351 7 53L40 53H73Z" stroke="var(--stroke-0, #999999)" stroke-width="5" mask="url(#path-3-inside-1_0_808)"/>
</g>
<path id="Rectangle 5201" d="M4 51.75C4 51.0596 4.55964 50.5 5.25 50.5H74.75C75.4404 50.5 76 51.0596 76 51.75C76 52.4404 75.4404 53 74.75 53H5.25C4.55964 53 4 52.4404 4 51.75Z" fill="var(--fill-0, #999999)"/>
</g>
<defs>
<clipPath id="clip0_0_808">
<rect width="80" height="80" fill="white"/>
</clipPath>
</defs>
</svg>
