<svg width="80" height="80" viewBox="0 0 80 80" fill="none" xmlns="http://www.w3.org/2000/svg">
<path d="M52.3359 11.9191C54.2803 11.0139 56.6889 10.6829 59.4805 11.8459L59.7939 11.9826C62.9824 13.4215 64.6053 15.8922 65.416 17.9865C65.8324 19.0623 66.0397 20.0482 66.1436 20.7668C66.1957 21.1272 66.2218 21.4241 66.2354 21.6359C66.2422 21.7419 66.2462 21.8274 66.248 21.8889C66.249 21.9194 66.2497 21.9444 66.25 21.9631V21.9992C66.2483 21.9998 66.2027 22.0002 65 22.0002H66.25V22.3527C68.2615 22.2491 70.2901 22.3826 72.2451 22.7736C72.8293 22.8904 73.2498 23.4045 73.25 24.0002C73.2499 27.6935 72.4304 34.0735 68.7266 38.8537C71.2524 39.3641 73.1563 41.7237 72.4707 44.5187C71.4828 48.5455 69.2563 54.7233 64.3057 59.9074C59.3195 65.1286 51.655 69.2502 40 69.2502C28.345 69.2502 20.6805 65.1286 15.6943 59.9074C10.7437 54.7233 8.51723 48.5455 7.5293 44.5187C6.84378 41.724 8.74712 39.3645 11.2725 38.8537C7.56897 34.0736 6.75005 27.6934 6.75 24.0002C6.75019 23.4045 7.17073 22.8904 7.75488 22.7736C9.70987 22.3826 11.7385 22.2491 13.75 22.3527V22.0002H15C13.7973 22.0002 13.7517 21.9998 13.75 21.9992V21.9631C13.7503 21.9444 13.751 21.9194 13.752 21.8889C13.7538 21.8274 13.7578 21.7419 13.7646 21.6359C13.7782 21.4241 13.8043 21.1272 13.8564 20.7668C13.9603 20.0482 14.1676 19.0623 14.584 17.9865C15.3947 15.8922 17.0176 13.4215 20.2061 11.9826L20.5195 11.8459C23.3111 10.6829 25.7197 11.0139 27.6641 11.9191C29.2349 12.6506 30.484 13.7503 31.3848 14.6242C34.1161 14.0479 36.2709 14.5897 37.9014 15.7238C38.7761 16.3323 39.4634 17.0857 40 17.8596C40.5366 17.0857 41.2239 16.3323 42.0986 15.7238C43.7291 14.5896 45.8839 14.0479 48.6152 14.6242C49.516 13.7503 50.7651 12.6506 52.3359 11.9191ZM12.2959 41.2502C10.6573 41.2502 9.62686 42.5764 9.95703 43.923C10.8881 47.7179 12.9659 53.4309 17.502 58.1808C22.0026 62.8937 29.0075 66.7502 40 66.7502C50.9925 66.7502 57.9974 62.8937 62.498 58.1808C67.0341 53.4309 69.1119 47.7179 70.043 43.923C70.3731 42.5764 69.3427 41.2502 67.7041 41.2502H12.2959ZM26.4678 30.1428C22.811 26.2167 15.8113 24.0847 9.27637 25.049C9.44494 28.9972 10.5936 34.826 14.3838 38.6164C14.4258 38.6585 14.4632 38.704 14.498 38.7502H21.833C21.8375 38.713 21.8418 38.6755 21.8467 38.6379L17.1143 33.882C16.6274 33.3926 16.6298 32.6013 17.1191 32.1144C17.6086 31.6279 18.3999 31.6291 18.8867 32.1183L22.5234 35.7746C22.8141 34.9229 23.1925 34.058 23.6729 33.2414C24.3599 32.0734 25.2812 30.9661 26.4678 30.1428ZM40.0068 22.2502C36.9283 22.2502 35.0429 23.5445 33.8887 25.1154C32.6916 26.7447 32.25 28.7251 32.25 30.0002C32.25 30.6905 31.6904 31.2502 31 31.2502C28.5838 31.2502 26.9346 32.6264 25.8271 34.509C25.0065 35.9041 24.5459 37.4904 24.3555 38.7502H38.75V32.0002C38.75 31.3099 39.3097 30.7502 40 30.7502C40.6903 30.7502 41.25 31.3099 41.25 32.0002V38.7502H55.6641C55.3821 36.662 54.4178 34.9026 53.209 33.6008C51.7223 31.9998 50.0305 31.2502 49 31.2502C48.3096 31.2502 47.75 30.6905 47.75 30.0002C47.75 28.7234 47.3108 26.7431 46.1172 25.1144C44.9666 23.5445 43.0852 22.2502 40.0068 22.2502ZM70.7236 25.049C64.0606 24.0658 56.9116 26.299 53.3184 30.3732C53.9261 30.8118 54.5084 31.326 55.041 31.8996C56.024 32.9582 56.884 34.2691 57.4668 35.7844L61.1143 32.1183C61.6012 31.6293 62.3925 31.6277 62.8818 32.1144C63.3709 32.6013 63.3732 33.3927 62.8867 33.882L58.1689 38.6223C58.1739 38.6648 58.18 38.7074 58.1846 38.7502H65.502C65.5368 38.704 65.5742 38.6585 65.6162 38.6164C69.4064 34.826 70.5551 28.9972 70.7236 25.049ZM58.5195 14.1545C56.4465 13.2907 54.7714 13.5428 53.3906 14.1857C51.9504 14.8564 50.8048 15.963 49.8838 16.884C49.5666 17.2011 49.1037 17.3243 48.6709 17.2062C46.2432 16.5442 44.6315 17.0078 43.5264 17.7766C42.7375 18.3254 42.1384 19.0811 41.6924 19.8625C44.6878 20.2761 46.7774 21.7853 48.1338 23.6359C48.3449 23.9239 48.5364 24.22 48.7119 24.5197L52.1162 21.1164L52.2109 21.0305C52.7019 20.63 53.4261 20.6588 53.8838 21.1164C54.3414 21.574 54.3702 22.2983 53.9697 22.7892L53.8838 22.884L49.8838 26.884C49.8497 26.918 49.8132 26.9484 49.7764 26.9777C49.9761 27.6433 50.1067 28.2906 50.1787 28.8879C50.475 28.9542 50.7746 29.0444 51.0752 29.1555C53.9014 25.667 58.6438 23.3755 63.75 22.6066V22.0002C63.7499 21.9941 63.7495 21.9814 63.749 21.9641C63.748 21.9291 63.7461 21.8722 63.7412 21.7961C63.7314 21.6428 63.7106 21.412 63.6689 21.1242C63.5853 20.546 63.4175 19.7504 63.084 18.8889C62.4623 17.2828 61.2825 15.4803 58.9922 14.3674L58.5195 14.1545ZM26.6094 14.1857C25.2286 13.5428 23.5535 13.2907 21.4805 14.1545L21.0078 14.3674C18.7175 15.4803 17.5377 17.2829 16.916 18.8889C16.5825 19.7504 16.4147 20.546 16.3311 21.1242C16.2894 21.412 16.2686 21.6428 16.2588 21.7961C16.2539 21.8722 16.252 21.9291 16.251 21.9641C16.2504 21.9814 16.2501 21.9941 16.25 22.0002V22.6066C21.2971 23.3666 25.9881 25.6146 28.8252 29.0353C29.1464 28.9473 29.4807 28.8783 29.8281 28.8303C29.9017 28.2496 30.0298 27.623 30.2236 26.9797C30.1865 26.9502 30.1506 26.9183 30.1162 26.884L26.1162 22.884L26.0303 22.7892C25.6298 22.2983 25.6586 21.574 26.1162 21.1164C26.5739 20.6588 27.2981 20.63 27.7891 21.0305L27.8838 21.1164L31.291 24.5236C31.4678 24.2222 31.6612 23.9246 31.874 23.6349C33.2311 21.7881 35.3185 20.2809 38.3066 19.8644C37.8606 19.0827 37.2629 18.3256 36.4736 17.7766C35.3685 17.0078 33.7568 16.5442 31.3291 17.2062C30.8963 17.3243 30.4334 17.2011 30.1162 16.884C29.1952 15.963 28.0496 14.8564 26.6094 14.1857Z" fill="#999999"/>
</svg>

