<svg preserveAspectRatio="none" width="100%" height="100%" overflow="visible" style="display: block;" viewBox="0 0 80 80" fill="none" xmlns="http://www.w3.org/2000/svg">
<g id="Icon" clip-path="url(#clip0_0_421)">
<circle id="Ellipse 396" cx="40" cy="40" r="40" fill="var(--fill-0, #F7F7F7)"/>
<g id="ic_timer">
<path id="Union" d="M40 24C49.9411 24 58 32.0589 58 42C58 51.9411 49.9411 60 40 60C30.0589 60 22 51.9411 22 42C22 32.0589 30.0589 24 40 24ZM40 26.5C31.4396 26.5 24.5 33.4396 24.5 42C24.5 50.5604 31.4396 57.5 40 57.5C48.5604 57.5 55.5 50.5604 55.5 42C55.5 33.4396 48.5604 26.5 40 26.5ZM45.1162 35.1162C45.6044 34.6281 46.3956 34.6281 46.8838 35.1162C47.3719 35.6044 47.3719 36.3956 46.8838 36.8838L40.8838 42.8838C40.3956 43.3719 39.6044 43.3719 39.1162 42.8838C38.6281 42.3956 38.6281 41.6044 39.1162 41.1162L45.1162 35.1162ZM44 18.75C44.6904 18.75 45.25 19.3096 45.25 20C45.25 20.6904 44.6904 21.25 44 21.25H36C35.3096 21.25 34.75 20.6904 34.75 20C34.75 19.3096 35.3096 18.75 36 18.75H44Z" fill="var(--fill-0, #212121)"/>
</g>
</g>
<defs>
<clipPath id="clip0_0_421">
<rect width="80" height="80" fill="white"/>
</clipPath>
</defs>
</svg>
