<svg width="393" height="48" viewBox="0 0 393 48" fill="none" xmlns="http://www.w3.org/2000/svg">
<rect width="393" height="48" fill="#F5F5F5"/>
<g id="Frame">
<rect width="393" height="852" transform="translate(0 -59)" fill="white"/>
<g id="Navigation Bar">
<path id="Title" d="M82.4639 17.896H92.5279V19.953H88.6519V30H86.3399V19.953H82.4639V17.896ZM96.9889 23.438L97.7029 21.228H99.9469L96.5639 30.714C95.8669 32.669 94.9149 33.349 92.7899 33.349C92.3819 33.349 92.1269 33.332 91.8549 33.298V31.615H92.6709C93.7249 31.615 94.1159 30.935 94.1159 30.204C94.1159 29.677 93.9119 29.014 93.7079 28.436L91.1579 21.228H93.4699L94.1839 23.421C94.6599 24.951 95.1359 26.6 95.5779 28.317C96.0369 26.583 96.5129 24.985 96.9889 23.438ZM105.635 21.024C108.049 21.024 109.562 22.826 109.562 25.614C109.562 28.402 108.049 30.204 105.635 30.204C104.411 30.204 103.51 29.711 102.915 28.861V33.332H100.773V21.228H102.83V22.486C103.425 21.568 104.36 21.024 105.635 21.024ZM105.125 28.436C106.519 28.436 107.386 27.399 107.386 25.546C107.386 23.693 106.519 22.792 105.125 22.792C103.731 22.792 102.864 23.761 102.864 25.614C102.864 27.467 103.731 28.436 105.125 28.436ZM115.711 21.024C117.547 21.024 118.788 22.095 118.788 24.186V30H116.646V24.543C116.646 23.421 116.085 22.877 114.997 22.877C114.062 22.877 113.042 23.523 113.042 25.087V30H110.9V17.896H113.042V22.401C113.62 21.602 114.521 21.024 115.711 21.024ZM126.009 26.141V21.228H128.151V30H126.077V28.725C125.499 29.575 124.581 30.204 123.323 30.204C121.504 30.204 120.263 29.133 120.263 27.042V21.228H122.405V26.685C122.405 27.807 122.949 28.351 124.054 28.351C124.989 28.351 126.009 27.705 126.009 26.141ZM134.584 21.092C134.771 21.092 134.924 21.092 135.111 21.126V23.098H134.567C132.986 23.098 132.034 23.88 132.034 25.546V30H129.892V21.228H131.966V22.792C132.391 21.806 133.224 21.092 134.584 21.092ZM148.705 17.896V19.953H142.449V22.809H148.144V24.781H142.449V30H140.154V17.896H148.705ZM157.27 30H155.128C154.992 29.762 154.924 29.354 154.89 28.929C154.312 29.745 153.36 30.204 152.068 30.204C150.198 30.204 148.906 29.269 148.906 27.569C148.906 26.107 149.79 25.07 152.272 24.832L153.598 24.713C154.414 24.611 154.839 24.356 154.839 23.71C154.839 23.03 154.482 22.622 153.241 22.622C152.017 22.622 151.507 22.945 151.422 24.016H149.314C149.433 22.163 150.521 21.024 153.258 21.024C155.876 21.024 156.913 22.078 156.913 23.659V28.334C156.913 28.963 157.032 29.66 157.27 30ZM152.578 28.674C153.717 28.674 154.839 28.062 154.839 26.532V25.733C154.618 25.937 154.295 26.039 153.836 26.09L152.68 26.226C151.49 26.362 151.099 26.787 151.099 27.484C151.099 28.215 151.592 28.674 152.578 28.674ZM162.064 30.238C159.565 30.238 158.188 29.337 158.052 27.212H160.143C160.262 28.317 160.823 28.708 162.098 28.708C163.339 28.708 163.832 28.317 163.832 27.654C163.832 27.025 163.441 26.719 162.115 26.498L161.112 26.328C159.225 26.005 158.239 25.172 158.239 23.676C158.239 22.027 159.531 21.024 161.877 21.024C164.58 21.024 165.685 22.197 165.753 23.999H163.73C163.679 22.877 162.982 22.554 161.877 22.554C160.84 22.554 160.347 22.945 160.347 23.574C160.347 24.22 160.857 24.475 161.809 24.645L162.914 24.815C165.022 25.189 165.957 25.971 165.957 27.484C165.957 29.252 164.512 30.238 162.064 30.238ZM171.536 21.228V22.894H169.802V27.586C169.802 28.164 170.091 28.351 170.805 28.351H171.536V30C171.162 30.034 170.754 30.051 170.414 30.051C168.561 30.051 167.677 29.439 167.677 27.824V22.894H166.317V21.228H167.677V18.678H169.802V21.228H171.536ZM184.585 21.058V17.896H186.795V30H184.245L180.879 24.611C180.114 23.404 179.332 22.146 178.72 20.973C178.788 23.115 178.788 25.053 178.788 26.838V30H176.578V17.896H179.128L182.511 23.285C183.191 24.39 184.041 25.784 184.653 26.923C184.602 24.781 184.585 22.843 184.585 21.058ZM194.291 26.141V21.228H196.433V30H194.359V28.725C193.781 29.575 192.863 30.204 191.605 30.204C189.786 30.204 188.545 29.133 188.545 27.042V21.228H190.687V26.685C190.687 27.807 191.231 28.351 192.336 28.351C193.271 28.351 194.291 27.705 194.291 26.141ZM204.498 22.435V21.228H206.572V29.711C206.572 32.023 205.093 33.536 202.237 33.536C199.704 33.536 198.344 32.295 198.208 30.476H200.316C200.418 31.411 201.098 31.887 202.271 31.887C203.682 31.887 204.43 31.139 204.43 29.762V28.657C203.852 29.473 202.968 29.966 201.744 29.966C199.364 29.966 197.783 28.164 197.783 25.495C197.783 22.809 199.33 21.024 201.727 21.024C203.002 21.024 203.92 21.551 204.498 22.435ZM202.22 28.198C203.614 28.198 204.481 27.229 204.481 25.495C204.481 23.744 203.614 22.792 202.22 22.792C200.843 22.792 199.976 23.812 199.976 25.512C199.976 27.212 200.843 28.198 202.22 28.198ZM214.625 22.435V21.228H216.699V29.711C216.699 32.023 215.22 33.536 212.364 33.536C209.831 33.536 208.471 32.295 208.335 30.476H210.443C210.545 31.411 211.225 31.887 212.398 31.887C213.809 31.887 214.557 31.139 214.557 29.762V28.657C213.979 29.473 213.095 29.966 211.871 29.966C209.491 29.966 207.91 28.164 207.91 25.495C207.91 22.809 209.457 21.024 211.854 21.024C213.129 21.024 214.047 21.551 214.625 22.435ZM212.347 28.198C213.741 28.198 214.608 27.229 214.608 25.495C214.608 23.744 213.741 22.792 212.347 22.792C210.97 22.792 210.103 23.812 210.103 25.512C210.103 27.212 210.97 28.198 212.347 28.198ZM222.406 30.204C219.822 30.204 218.037 28.419 218.037 25.614C218.037 22.86 219.771 21.024 222.372 21.024C225.058 21.024 226.707 22.979 226.707 25.767V26.277H220.145C220.315 27.824 221.182 28.538 222.423 28.538C223.443 28.538 224.106 28.062 224.412 27.28H226.486C226.027 29.048 224.514 30.204 222.406 30.204ZM220.162 24.781H224.565C224.395 23.54 223.63 22.69 222.355 22.69C221.216 22.69 220.366 23.353 220.162 24.781ZM232.215 21.228V22.894H230.481V27.586C230.481 28.164 230.77 28.351 231.484 28.351H232.215V30C231.841 30.034 231.433 30.051 231.093 30.051C229.24 30.051 228.356 29.439 228.356 27.824V22.894H226.996V21.228H228.356V18.678H230.481V21.228H232.215ZM239.552 30H237.257V17.896H239.552V30ZM245.332 30.204C242.731 30.204 240.997 28.419 240.997 25.614C240.997 22.809 242.714 21.024 245.332 21.024C247.627 21.024 249.157 22.333 249.412 24.39H247.27C247.066 23.302 246.284 22.809 245.332 22.809C244.057 22.809 243.19 23.693 243.19 25.614C243.19 27.535 244.091 28.419 245.332 28.419C246.301 28.419 247.134 27.892 247.304 26.736H249.446C249.208 28.878 247.576 30.204 245.332 30.204ZM254.63 30.204C252.046 30.204 250.261 28.419 250.261 25.614C250.261 22.86 251.995 21.024 254.596 21.024C257.282 21.024 258.931 22.979 258.931 25.767V26.277H252.369C252.539 27.824 253.406 28.538 254.647 28.538C255.667 28.538 256.33 28.062 256.636 27.28H258.71C258.251 29.048 256.738 30.204 254.63 30.204ZM252.386 24.781H256.789C256.619 23.54 255.854 22.69 254.579 22.69C253.44 22.69 252.59 23.353 252.386 24.781ZM271.633 23.659L273.656 17.896H276.988V30H274.795V26.311C274.795 24.475 274.812 22.503 274.863 20.31C274.591 21.228 274.319 22.044 273.945 23.098L271.497 30H269.61L267.145 23.098C266.788 22.061 266.516 21.245 266.244 20.344C266.295 22.52 266.312 24.492 266.312 26.311V30H264.102V17.896H267.434L269.525 23.778C269.882 24.866 270.256 26.056 270.562 27.059C270.868 26.005 271.259 24.747 271.633 23.659ZM286.63 30H284.488C284.352 29.762 284.284 29.354 284.25 28.929C283.672 29.745 282.72 30.204 281.428 30.204C279.558 30.204 278.266 29.269 278.266 27.569C278.266 26.107 279.15 25.07 281.632 24.832L282.958 24.713C283.774 24.611 284.199 24.356 284.199 23.71C284.199 23.03 283.842 22.622 282.601 22.622C281.377 22.622 280.867 22.945 280.782 24.016H278.674C278.793 22.163 279.881 21.024 282.618 21.024C285.236 21.024 286.273 22.078 286.273 23.659V28.334C286.273 28.963 286.392 29.66 286.63 30ZM281.938 28.674C283.077 28.674 284.199 28.062 284.199 26.532V25.733C283.978 25.937 283.655 26.039 283.196 26.09L282.04 26.226C280.85 26.362 280.459 26.787 280.459 27.484C280.459 28.215 280.952 28.674 281.938 28.674ZM296.288 30H293.84L291.29 25.92L289.964 27.246V30H287.856V17.896H289.964V24.866L293.534 21.228H296.084L292.769 24.543L296.288 30ZM300.516 30.204C297.932 30.204 296.147 28.419 296.147 25.614C296.147 22.86 297.881 21.024 300.482 21.024C303.168 21.024 304.817 22.979 304.817 25.767V26.277H298.255C298.425 27.824 299.292 28.538 300.533 28.538C301.553 28.538 302.216 28.062 302.522 27.28H304.596C304.137 29.048 302.624 30.204 300.516 30.204ZM298.272 24.781H302.675C302.505 23.54 301.74 22.69 300.465 22.69C299.326 22.69 298.476 23.353 298.272 24.781ZM310.892 21.092C311.079 21.092 311.232 21.092 311.419 21.126V23.098H310.875C309.294 23.098 308.342 23.88 308.342 25.546V30H306.2V21.228H308.274V22.792C308.699 21.806 309.532 21.092 310.892 21.092Z" fill="black"/>
<g id="Frame 16">
<g id="Settings &#232;&#174;&#190;&#231;&#189;&#174;">
<path id="Union" fill-rule="evenodd" clip-rule="evenodd" d="M366.238 13C366.941 13 367.597 13.3342 367.986 13.8906L369.149 15.5518L370.966 15.6631C371.667 15.7061 372.298 16.0801 372.65 16.6592L373.626 18.2695C373.977 18.8485 374.001 19.556 373.69 20.1553L372.778 21.9102L373.782 23.8447C374.093 24.444 374.07 25.1515 373.719 25.7305L372.742 27.3408C372.391 27.9199 371.759 28.2939 371.059 28.3369L369.145 28.4541L367.986 30.1094L367.91 30.2109C367.515 30.7062 366.897 31 366.238 31H364.286C363.628 30.9999 363.011 30.7061 362.615 30.2109L362.539 30.1094L361.352 28.4131L358.942 28.2646C358.284 28.2243 357.688 27.8936 357.326 27.375L357.258 27.2695L356.281 25.6592C355.952 25.1161 355.911 24.4596 356.163 23.8857L356.218 23.7725L357.185 21.9102L356.311 20.2275C355.999 19.6281 356.023 18.9199 356.374 18.3408L357.351 16.7305C357.68 16.1878 358.256 15.8257 358.903 15.7471L359.034 15.7354L361.348 15.5928L362.539 13.8906C362.929 13.3343 363.584 13.0001 364.286 13H366.238ZM364.286 14.5996C364.085 14.5997 363.928 14.6969 363.85 14.8086L362.658 16.5107C362.379 16.91 361.932 17.1596 361.445 17.1895L359.132 17.332C358.932 17.3444 358.786 17.4493 358.719 17.5605L357.742 19.1709C357.68 19.274 357.678 19.3881 357.731 19.4902L358.605 21.1729C358.845 21.6349 358.844 22.1853 358.605 22.6475L357.638 24.5098C357.585 24.6119 357.587 24.7259 357.65 24.8291L358.626 26.4395C358.694 26.5508 358.839 26.6557 359.039 26.668L361.449 26.8164L361.63 26.8379C362.045 26.9112 362.418 27.1458 362.662 27.4951L363.85 29.1914C363.928 29.3031 364.085 29.4003 364.286 29.4004H366.238C366.44 29.4004 366.597 29.3032 366.675 29.1914L367.834 27.5371L367.946 27.3945C368.226 27.0786 368.621 26.8836 369.047 26.8574L370.961 26.7402C371.161 26.728 371.307 26.6229 371.374 26.5117L372.351 24.9014C372.413 24.7982 372.415 24.6842 372.362 24.582L371.359 22.6475C371.119 22.1853 371.119 21.635 371.359 21.1729L372.27 19.418C372.323 19.3158 372.32 19.2018 372.258 19.0986L371.281 17.4883C371.214 17.3771 371.068 17.2721 370.868 17.2598L369.051 17.1484C368.564 17.1185 368.118 16.8682 367.838 16.4688L366.675 14.8086C366.597 14.6968 366.44 14.5996 366.238 14.5996H364.286ZM365 19C366.657 19 368 20.3431 368 22C368 23.6569 366.657 25 365 25C363.343 25 362 23.6569 362 22C362 20.3431 363.343 19 365 19ZM365 20.5996C364.227 20.5996 363.6 21.2268 363.6 22C363.6 22.7732 364.227 23.4004 365 23.4004C365.773 23.4004 366.401 22.7732 366.401 22C366.401 21.2268 365.773 20.5996 365 20.5996Z" fill="black"/>
</g>
</g>
<g id="Back &#232;&#191;&#148;&#229;&#155;&#158;">
<path id="Vector" d="M31.0625 17.875L24.9375 24L31.0625 30.125" stroke="black" stroke-width="1.6" stroke-linecap="round" stroke-linejoin="round"/>
</g>
</g>
</g>
</svg>
