<svg preserveAspectRatio="none" width="100%" height="100%" overflow="visible" style="display: block;" viewBox="0 0 133.32 22.0765" fill="none" xmlns="http://www.w3.org/2000/svg">
<g id="Right Side">
<g id="Battery">
<path id="Rectangle" opacity="0.35" d="M89.9971 1.00784H123.331C125.724 1.00802 127.664 2.94788 127.664 5.34085V16.7432C127.664 19.1363 125.724 21.076 123.331 21.0762H89.9971C87.604 21.076 85.6641 19.1363 85.6641 16.7432V5.34085C85.6642 2.94788 87.6041 1.00802 89.9971 1.00784Z" stroke="var(--stroke-0, white)" stroke-width="2"/>
<path id="Combined Shape" opacity="0.4" d="M130.664 7.14847V14.9374C132.274 14.2777 133.32 12.7431 133.32 11.0429C133.32 9.34274 132.274 7.80815 130.664 7.14847" fill="var(--fill-0, white)"/>
<path id="Rectangle_2" d="M88.6641 6.56904C88.6641 5.09628 89.858 3.90238 91.3307 3.90238H121.997C123.47 3.90238 124.664 5.09628 124.664 6.56904V15.5154C124.664 16.9882 123.47 18.1821 121.997 18.1821H91.3307C89.858 18.1821 88.6641 16.9882 88.6641 15.5154V6.56904Z" fill="var(--fill-0, white)"/>
</g>
<path id="Wifi" d="M54.9102 16.3565C57.4612 14.2558 61.1979 14.2558 63.749 16.3565C63.8774 16.4695 63.9525 16.6294 63.9561 16.7979C63.9596 16.9663 63.8911 17.1291 63.7676 17.2471L59.7725 21.1719C59.6555 21.287 59.4963 21.3515 59.3301 21.3516C59.1636 21.3516 59.0038 21.2871 58.8867 21.1719L54.8906 17.2471C54.7672 17.129 54.6995 16.9663 54.7031 16.7979C54.7068 16.6294 54.7817 16.4694 54.9102 16.3565ZM49.5791 11.1241C55.0755 6.14621 63.5876 6.14626 69.084 11.1241C69.2081 11.2408 69.2795 11.4014 69.2812 11.5694C69.2829 11.7371 69.2151 11.8985 69.0938 12.0176L66.7842 14.2901C66.5462 14.5219 66.1611 14.5266 65.917 14.3008C64.1121 12.7096 61.764 11.828 59.3291 11.8282C56.8959 11.8292 54.5497 12.7106 52.7461 14.3008C52.5021 14.5264 52.1179 14.5216 51.8799 14.2901L49.5703 12.0176C49.4487 11.8987 49.3812 11.7372 49.3828 11.5694C49.3844 11.4014 49.4551 11.2408 49.5791 11.1241ZM44.2471 5.89945C52.6773 -1.96649 65.977 -1.96647 74.4072 5.89945C74.5293 6.01631 74.5986 6.17616 74.5996 6.34281C74.6005 6.5093 74.5326 6.669 74.4121 6.78714L72.1006 9.0596C71.8624 9.2925 71.4762 9.2948 71.2344 9.06546C68.0225 6.09248 63.7598 4.43485 59.3281 4.4346C54.896 4.43459 50.6332 6.0924 47.4209 9.06546C47.1792 9.29531 46.7918 9.29298 46.5537 9.0596L44.2412 6.78714C44.1208 6.66883 44.0536 6.5084 44.0547 6.34183C44.0559 6.17536 44.1251 6.01612 44.2471 5.89945Z" fill="var(--fill-0, white)"/>
<path id="Mobile Signal" d="M32 0.652484C33.1046 0.652504 34 1.52433 34 2.59975V19.4757C34 20.5511 33.1046 21.423 32 21.423H30C28.8954 21.423 28 20.5512 28 19.4757V2.59975C28 1.52432 28.8954 0.652484 30 0.652484H32ZM4 13.633C5.10457 13.633 6 14.5048 6 15.5802V19.4747C5.99989 20.5501 5.1045 21.422 4 21.422H2C0.895499 21.422 0.000111887 20.5501 0 19.4747V15.5802C0 14.5048 0.89543 13.633 2 13.633H4ZM13.3281 9.73842C14.4327 9.73842 15.3281 10.6103 15.3281 11.6857V19.4747C15.328 20.5501 14.4326 21.422 13.3281 21.422H11.3281C10.2236 21.422 9.32827 20.5501 9.32812 19.4747V11.6857C9.32812 10.6103 10.2236 9.73842 11.3281 9.73842H13.3281ZM22.6719 5.19545C23.7764 5.19545 24.6719 6.06729 24.6719 7.14272V19.4747C24.6719 20.5502 23.7764 21.422 22.6719 21.422H20.6719C19.5673 21.422 18.6719 20.5502 18.6719 19.4747V7.14272C18.6719 6.06729 19.5673 5.19545 20.6719 5.19545H22.6719Z" fill="var(--fill-0, white)"/>
</g>
</svg>
