<svg width="672" height="479" viewBox="0 0 672 479" fill="none" xmlns="http://www.w3.org/2000/svg">
<g id="Professional">
<g id="Chart">
<path id="Union" opacity="0.5" d="M67.9863 366.5H66V365.5H67.9863V366.5ZM75.9297 366.5H71.958V365.5H75.9297V366.5ZM83.873 366.5H79.9014V365.5H83.873V366.5ZM91.8174 366.5H87.8447V365.5H91.8174V366.5ZM99.7607 366.5H95.7891V365.5H99.7607V366.5ZM107.704 366.5H103.732V365.5H107.704V366.5ZM115.647 366.5H111.676V365.5H115.647V366.5ZM123.592 366.5H119.62V365.5H123.592V366.5ZM131.535 366.5H127.563V365.5H131.535V366.5ZM139.479 366.5H135.507V365.5H139.479V366.5ZM147.423 366.5H143.451V365.5H147.423V366.5ZM155.366 366.5H151.395V365.5H155.366V366.5ZM163.31 366.5H159.338V365.5H163.31V366.5ZM171.254 366.5H167.281V365.5H171.254V366.5ZM179.197 366.5H175.226V365.5H179.197V366.5ZM187.141 366.5H183.169V365.5H187.141V366.5ZM195.085 366.5H191.112V365.5H195.085V366.5ZM203.028 366.5H199.057V365.5H203.028V366.5ZM210.972 366.5H207V365.5H210.972V366.5ZM218.915 366.5H214.943V365.5H218.915V366.5ZM226.859 366.5H222.888V365.5H226.859V366.5ZM234.803 366.5H230.831V365.5H234.803V366.5ZM242.746 366.5H238.774V365.5H242.746V366.5ZM250.69 366.5H246.719V365.5H250.69V366.5ZM258.634 366.5H254.662V365.5H258.634V366.5ZM266.577 366.5H262.605V365.5H266.577V366.5ZM274.521 366.5H270.55V365.5H274.521V366.5ZM282.465 366.5H278.493V365.5H282.465V366.5ZM290.408 366.5H286.437V365.5H290.408V366.5ZM298.353 366.5H294.38V365.5H298.353V366.5ZM306.296 366.5H302.324V365.5H306.296V366.5ZM314.239 366.5H310.268V365.5H314.239V366.5ZM322.184 366.5H318.211V365.5H322.184V366.5ZM330.127 366.5H326.155V365.5H330.127V366.5ZM338.07 366.5H334.099V365.5H338.07V366.5ZM346.015 366.5H342.042V365.5H346.015V366.5ZM353.958 366.5H349.986V365.5H353.958V366.5ZM361.901 366.5H357.93V365.5H361.901V366.5ZM369.845 366.5H365.873V365.5H369.845V366.5ZM377.789 366.5H373.817V365.5H377.789V366.5ZM385.732 366.5H381.761V365.5H385.732V366.5ZM393.676 366.5H389.704V365.5H393.676V366.5ZM401.62 366.5H397.648V365.5H401.62V366.5ZM409.563 366.5H405.592V365.5H409.563V366.5ZM417.507 366.5H413.535V365.5H417.507V366.5ZM425.451 366.5H421.479V365.5H425.451V366.5ZM433.395 366.5H429.423V365.5H433.395V366.5ZM441.338 366.5H437.366V365.5H441.338V366.5ZM449.282 366.5H445.31V365.5H449.282V366.5ZM457.226 366.5H453.254V365.5H457.226V366.5ZM465.169 366.5H461.197V365.5H465.169V366.5ZM473.113 366.5H469.141V365.5H473.113V366.5ZM481.057 366.5H477.085V365.5H481.057V366.5ZM489 366.5H485.028V365.5H489V366.5ZM496.943 366.5H492.972V365.5H496.943V366.5ZM504.888 366.5H500.916V365.5H504.888V366.5ZM512.831 366.5H508.859V365.5H512.831V366.5ZM520.774 366.5H516.803V365.5H520.774V366.5ZM528.719 366.5H524.747V365.5H528.719V366.5ZM536.662 366.5H532.69V365.5H536.662V366.5ZM544.605 366.5H540.634V365.5H544.605V366.5ZM552.55 366.5H548.577V365.5H552.55V366.5ZM560.493 366.5H556.521V365.5H560.493V366.5ZM568.437 366.5H564.465V365.5H568.437V366.5ZM576.381 366.5H572.408V365.5H576.381V366.5ZM584.324 366.5H580.353V365.5H584.324V366.5ZM592.268 366.5H588.296V365.5H592.268V366.5ZM600.211 366.5H596.239V365.5H600.211V366.5ZM608.155 366.5H604.183V365.5H608.155V366.5ZM616.099 366.5H612.127V365.5H616.099V366.5ZM624.042 366.5H620.07V365.5H624.042V366.5ZM630 366.5H628.014V365.5H630V366.5ZM67.9863 294.5H66V293.5H67.9863V294.5ZM75.9297 294.5H71.958V293.5H75.9297V294.5ZM83.873 294.5H79.9014V293.5H83.873V294.5ZM91.8174 294.5H87.8447V293.5H91.8174V294.5ZM99.7607 294.5H95.7891V293.5H99.7607V294.5ZM107.704 294.5H103.732V293.5H107.704V294.5ZM115.647 294.5H111.676V293.5H115.647V294.5ZM123.592 294.5H119.62V293.5H123.592V294.5ZM131.535 294.5H127.563V293.5H131.535V294.5ZM139.479 294.5H135.507V293.5H139.479V294.5ZM147.423 294.5H143.451V293.5H147.423V294.5ZM155.366 294.5H151.395V293.5H155.366V294.5ZM163.31 294.5H159.338V293.5H163.31V294.5ZM171.254 294.5H167.281V293.5H171.254V294.5ZM179.197 294.5H175.226V293.5H179.197V294.5ZM187.141 294.5H183.169V293.5H187.141V294.5ZM195.085 294.5H191.112V293.5H195.085V294.5ZM203.028 294.5H199.057V293.5H203.028V294.5ZM210.972 294.5H207V293.5H210.972V294.5ZM218.915 294.5H214.943V293.5H218.915V294.5ZM226.859 294.5H222.888V293.5H226.859V294.5ZM234.803 294.5H230.831V293.5H234.803V294.5ZM242.746 294.5H238.774V293.5H242.746V294.5ZM250.69 294.5H246.719V293.5H250.69V294.5ZM258.634 294.5H254.662V293.5H258.634V294.5ZM266.577 294.5H262.605V293.5H266.577V294.5ZM274.521 294.5H270.55V293.5H274.521V294.5ZM282.465 294.5H278.493V293.5H282.465V294.5ZM290.408 294.5H286.437V293.5H290.408V294.5ZM298.353 294.5H294.38V293.5H298.353V294.5ZM306.296 294.5H302.324V293.5H306.296V294.5ZM314.239 294.5H310.268V293.5H314.239V294.5ZM322.184 294.5H318.211V293.5H322.184V294.5ZM330.127 294.5H326.155V293.5H330.127V294.5ZM338.07 294.5H334.099V293.5H338.07V294.5ZM346.015 294.5H342.042V293.5H346.015V294.5ZM353.958 294.5H349.986V293.5H353.958V294.5ZM361.901 294.5H357.93V293.5H361.901V294.5ZM369.845 294.5H365.873V293.5H369.845V294.5ZM377.789 294.5H373.817V293.5H377.789V294.5ZM385.732 294.5H381.761V293.5H385.732V294.5ZM393.676 294.5H389.704V293.5H393.676V294.5ZM401.62 294.5H397.648V293.5H401.62V294.5ZM409.563 294.5H405.592V293.5H409.563V294.5ZM417.507 294.5H413.535V293.5H417.507V294.5ZM425.451 294.5H421.479V293.5H425.451V294.5ZM433.395 294.5H429.423V293.5H433.395V294.5ZM441.338 294.5H437.366V293.5H441.338V294.5ZM449.282 294.5H445.31V293.5H449.282V294.5ZM457.226 294.5H453.254V293.5H457.226V294.5ZM465.169 294.5H461.197V293.5H465.169V294.5ZM473.113 294.5H469.141V293.5H473.113V294.5ZM481.057 294.5H477.085V293.5H481.057V294.5ZM489 294.5H485.028V293.5H489V294.5ZM496.943 294.5H492.972V293.5H496.943V294.5ZM504.888 294.5H500.916V293.5H504.888V294.5ZM512.831 294.5H508.859V293.5H512.831V294.5ZM520.774 294.5H516.803V293.5H520.774V294.5ZM528.719 294.5H524.747V293.5H528.719V294.5ZM536.662 294.5H532.69V293.5H536.662V294.5ZM544.605 294.5H540.634V293.5H544.605V294.5ZM552.55 294.5H548.577V293.5H552.55V294.5ZM560.493 294.5H556.521V293.5H560.493V294.5ZM568.437 294.5H564.465V293.5H568.437V294.5ZM576.381 294.5H572.408V293.5H576.381V294.5ZM584.324 294.5H580.353V293.5H584.324V294.5ZM592.268 294.5H588.296V293.5H592.268V294.5ZM600.211 294.5H596.239V293.5H600.211V294.5ZM608.155 294.5H604.183V293.5H608.155V294.5ZM616.099 294.5H612.127V293.5H616.099V294.5ZM624.042 294.5H620.07V293.5H624.042V294.5ZM630 294.5H628.014V293.5H630V294.5ZM67.9863 222.5H66V221.5H67.9863V222.5ZM75.9297 222.5H71.958V221.5H75.9297V222.5ZM83.873 222.5H79.9014V221.5H83.873V222.5ZM91.8174 222.5H87.8447V221.5H91.8174V222.5ZM99.7607 222.5H95.7891V221.5H99.7607V222.5ZM107.704 222.5H103.732V221.5H107.704V222.5ZM115.647 222.5H111.676V221.5H115.647V222.5ZM123.592 222.5H119.62V221.5H123.592V222.5ZM131.535 222.5H127.563V221.5H131.535V222.5ZM139.479 222.5H135.507V221.5H139.479V222.5ZM147.423 222.5H143.451V221.5H147.423V222.5ZM155.366 222.5H151.395V221.5H155.366V222.5ZM163.31 222.5H159.338V221.5H163.31V222.5ZM171.254 222.5H167.281V221.5H171.254V222.5ZM179.197 222.5H175.226V221.5H179.197V222.5ZM187.141 222.5H183.169V221.5H187.141V222.5ZM195.085 222.5H191.112V221.5H195.085V222.5ZM203.028 222.5H199.057V221.5H203.028V222.5ZM210.972 222.5H207V221.5H210.972V222.5ZM218.915 222.5H214.943V221.5H218.915V222.5ZM226.859 222.5H222.888V221.5H226.859V222.5ZM234.803 222.5H230.831V221.5H234.803V222.5ZM242.746 222.5H238.774V221.5H242.746V222.5ZM250.69 222.5H246.719V221.5H250.69V222.5ZM258.634 222.5H254.662V221.5H258.634V222.5ZM266.577 222.5H262.605V221.5H266.577V222.5ZM274.521 222.5H270.55V221.5H274.521V222.5ZM282.465 222.5H278.493V221.5H282.465V222.5ZM290.408 222.5H286.437V221.5H290.408V222.5ZM298.353 222.5H294.38V221.5H298.353V222.5ZM306.296 222.5H302.324V221.5H306.296V222.5ZM314.239 222.5H310.268V221.5H314.239V222.5ZM322.184 222.5H318.211V221.5H322.184V222.5ZM330.127 222.5H326.155V221.5H330.127V222.5ZM338.07 222.5H334.099V221.5H338.07V222.5ZM346.015 222.5H342.042V221.5H346.015V222.5ZM353.958 222.5H349.986V221.5H353.958V222.5ZM361.901 222.5H357.93V221.5H361.901V222.5ZM369.845 222.5H365.873V221.5H369.845V222.5ZM377.789 222.5H373.817V221.5H377.789V222.5ZM385.732 222.5H381.761V221.5H385.732V222.5ZM393.676 222.5H389.704V221.5H393.676V222.5ZM401.62 222.5H397.648V221.5H401.62V222.5ZM409.563 222.5H405.592V221.5H409.563V222.5ZM417.507 222.5H413.535V221.5H417.507V222.5ZM425.451 222.5H421.479V221.5H425.451V222.5ZM433.395 222.5H429.423V221.5H433.395V222.5ZM441.338 222.5H437.366V221.5H441.338V222.5ZM449.282 222.5H445.31V221.5H449.282V222.5ZM457.226 222.5H453.254V221.5H457.226V222.5ZM465.169 222.5H461.197V221.5H465.169V222.5ZM473.113 222.5H469.141V221.5H473.113V222.5ZM481.057 222.5H477.085V221.5H481.057V222.5ZM489 222.5H485.028V221.5H489V222.5ZM496.943 222.5H492.972V221.5H496.943V222.5ZM504.888 222.5H500.916V221.5H504.888V222.5ZM512.831 222.5H508.859V221.5H512.831V222.5ZM520.774 222.5H516.803V221.5H520.774V222.5ZM528.719 222.5H524.747V221.5H528.719V222.5ZM536.662 222.5H532.69V221.5H536.662V222.5ZM544.605 222.5H540.634V221.5H544.605V222.5ZM552.55 222.5H548.577V221.5H552.55V222.5ZM560.493 222.5H556.521V221.5H560.493V222.5ZM568.437 222.5H564.465V221.5H568.437V222.5ZM576.381 222.5H572.408V221.5H576.381V222.5ZM584.324 222.5H580.353V221.5H584.324V222.5ZM592.268 222.5H588.296V221.5H592.268V222.5ZM600.211 222.5H596.239V221.5H600.211V222.5ZM608.155 222.5H604.183V221.5H608.155V222.5ZM616.099 222.5H612.127V221.5H616.099V222.5ZM624.042 222.5H620.07V221.5H624.042V222.5ZM630 222.5H628.014V221.5H630V222.5ZM67.9863 150.5H66V149.5H67.9863V150.5ZM75.9297 150.5H71.958V149.5H75.9297V150.5ZM83.873 150.5H79.9014V149.5H83.873V150.5ZM91.8174 150.5H87.8447V149.5H91.8174V150.5ZM99.7607 150.5H95.7891V149.5H99.7607V150.5ZM107.704 150.5H103.732V149.5H107.704V150.5ZM115.647 150.5H111.676V149.5H115.647V150.5ZM123.592 150.5H119.62V149.5H123.592V150.5ZM131.535 150.5H127.563V149.5H131.535V150.5ZM139.479 150.5H135.507V149.5H139.479V150.5ZM147.423 150.5H143.451V149.5H147.423V150.5ZM155.366 150.5H151.395V149.5H155.366V150.5ZM163.31 150.5H159.338V149.5H163.31V150.5ZM171.254 150.5H167.281V149.5H171.254V150.5ZM179.197 150.5H175.226V149.5H179.197V150.5ZM187.141 150.5H183.169V149.5H187.141V150.5ZM195.085 150.5H191.112V149.5H195.085V150.5ZM203.028 150.5H199.057V149.5H203.028V150.5ZM210.972 150.5H207V149.5H210.972V150.5ZM218.915 150.5H214.943V149.5H218.915V150.5ZM226.859 150.5H222.888V149.5H226.859V150.5ZM234.803 150.5H230.831V149.5H234.803V150.5ZM242.746 150.5H238.774V149.5H242.746V150.5ZM250.69 150.5H246.719V149.5H250.69V150.5ZM258.634 150.5H254.662V149.5H258.634V150.5ZM266.577 150.5H262.605V149.5H266.577V150.5ZM274.521 150.5H270.55V149.5H274.521V150.5ZM282.465 150.5H278.493V149.5H282.465V150.5ZM290.408 150.5H286.437V149.5H290.408V150.5ZM298.353 150.5H294.38V149.5H298.353V150.5ZM306.296 150.5H302.324V149.5H306.296V150.5ZM314.239 150.5H310.268V149.5H314.239V150.5ZM322.184 150.5H318.211V149.5H322.184V150.5ZM330.127 150.5H326.155V149.5H330.127V150.5ZM338.07 150.5H334.099V149.5H338.07V150.5ZM346.015 150.5H342.042V149.5H346.015V150.5ZM353.958 150.5H349.986V149.5H353.958V150.5ZM361.901 150.5H357.93V149.5H361.901V150.5ZM369.845 150.5H365.873V149.5H369.845V150.5ZM377.789 150.5H373.817V149.5H377.789V150.5ZM385.732 150.5H381.761V149.5H385.732V150.5ZM393.676 150.5H389.704V149.5H393.676V150.5ZM401.62 150.5H397.648V149.5H401.62V150.5ZM409.563 150.5H405.592V149.5H409.563V150.5ZM417.507 150.5H413.535V149.5H417.507V150.5ZM425.451 150.5H421.479V149.5H425.451V150.5ZM433.395 150.5H429.423V149.5H433.395V150.5ZM441.338 150.5H437.366V149.5H441.338V150.5ZM449.282 150.5H445.31V149.5H449.282V150.5ZM457.226 150.5H453.254V149.5H457.226V150.5ZM465.169 150.5H461.197V149.5H465.169V150.5ZM473.113 150.5H469.141V149.5H473.113V150.5ZM481.057 150.5H477.085V149.5H481.057V150.5ZM489 150.5H485.028V149.5H489V150.5ZM496.943 150.5H492.972V149.5H496.943V150.5ZM504.888 150.5H500.916V149.5H504.888V150.5ZM512.831 150.5H508.859V149.5H512.831V150.5ZM520.774 150.5H516.803V149.5H520.774V150.5ZM528.719 150.5H524.747V149.5H528.719V150.5ZM536.662 150.5H532.69V149.5H536.662V150.5ZM544.605 150.5H540.634V149.5H544.605V150.5ZM552.55 150.5H548.577V149.5H552.55V150.5ZM560.493 150.5H556.521V149.5H560.493V150.5ZM568.437 150.5H564.465V149.5H568.437V150.5ZM576.381 150.5H572.408V149.5H576.381V150.5ZM584.324 150.5H580.353V149.5H584.324V150.5ZM592.268 150.5H588.296V149.5H592.268V150.5ZM600.211 150.5H596.239V149.5H600.211V150.5ZM608.155 150.5H604.183V149.5H608.155V150.5ZM616.099 150.5H612.127V149.5H616.099V150.5ZM624.042 150.5H620.07V149.5H624.042V150.5ZM630 150.5H628.014V149.5H630V150.5ZM67.9863 78.5H66V77.5H67.9863V78.5ZM75.9297 78.5H71.958V77.5H75.9297V78.5ZM83.873 78.5H79.9014V77.5H83.873V78.5ZM91.8174 78.5H87.8447V77.5H91.8174V78.5ZM99.7607 78.5H95.7891V77.5H99.7607V78.5ZM107.704 78.5H103.732V77.5H107.704V78.5ZM115.647 78.5H111.676V77.5H115.647V78.5ZM123.592 78.5H119.62V77.5H123.592V78.5ZM131.535 78.5H127.563V77.5H131.535V78.5ZM139.479 78.5H135.507V77.5H139.479V78.5ZM147.423 78.5H143.451V77.5H147.423V78.5ZM155.366 78.5H151.395V77.5H155.366V78.5ZM163.31 78.5H159.338V77.5H163.31V78.5ZM171.254 78.5H167.281V77.5H171.254V78.5ZM179.197 78.5H175.226V77.5H179.197V78.5ZM187.141 78.5H183.169V77.5H187.141V78.5ZM195.085 78.5H191.112V77.5H195.085V78.5ZM203.028 78.5H199.057V77.5H203.028V78.5ZM210.972 78.5H207V77.5H210.972V78.5ZM218.915 78.5H214.943V77.5H218.915V78.5ZM226.859 78.5H222.888V77.5H226.859V78.5ZM234.803 78.5H230.831V77.5H234.803V78.5ZM242.746 78.5H238.774V77.5H242.746V78.5ZM250.69 78.5H246.719V77.5H250.69V78.5ZM258.634 78.5H254.662V77.5H258.634V78.5ZM266.577 78.5H262.605V77.5H266.577V78.5ZM274.521 78.5H270.55V77.5H274.521V78.5ZM282.465 78.5H278.493V77.5H282.465V78.5ZM290.408 78.5H286.437V77.5H290.408V78.5ZM298.353 78.5H294.38V77.5H298.353V78.5ZM306.296 78.5H302.324V77.5H306.296V78.5ZM314.239 78.5H310.268V77.5H314.239V78.5ZM322.184 78.5H318.211V77.5H322.184V78.5ZM330.127 78.5H326.155V77.5H330.127V78.5ZM338.07 78.5H334.099V77.5H338.07V78.5ZM346.015 78.5H342.042V77.5H346.015V78.5ZM353.958 78.5H349.986V77.5H353.958V78.5ZM361.901 78.5H357.93V77.5H361.901V78.5ZM369.845 78.5H365.873V77.5H369.845V78.5ZM377.789 78.5H373.817V77.5H377.789V78.5ZM385.732 78.5H381.761V77.5H385.732V78.5ZM393.676 78.5H389.704V77.5H393.676V78.5ZM401.62 78.5H397.648V77.5H401.62V78.5ZM409.563 78.5H405.592V77.5H409.563V78.5ZM417.507 78.5H413.535V77.5H417.507V78.5ZM425.451 78.5H421.479V77.5H425.451V78.5ZM433.395 78.5H429.423V77.5H433.395V78.5ZM441.338 78.5H437.366V77.5H441.338V78.5ZM449.282 78.5H445.31V77.5H449.282V78.5ZM457.226 78.5H453.254V77.5H457.226V78.5ZM465.169 78.5H461.197V77.5H465.169V78.5ZM473.113 78.5H469.141V77.5H473.113V78.5ZM481.057 78.5H477.085V77.5H481.057V78.5ZM489 78.5H485.028V77.5H489V78.5ZM496.943 78.5H492.972V77.5H496.943V78.5ZM504.888 78.5H500.916V77.5H504.888V78.5ZM512.831 78.5H508.859V77.5H512.831V78.5ZM520.774 78.5H516.803V77.5H520.774V78.5ZM528.719 78.5H524.747V77.5H528.719V78.5ZM536.662 78.5H532.69V77.5H536.662V78.5ZM544.605 78.5H540.634V77.5H544.605V78.5ZM552.55 78.5H548.577V77.5H552.55V78.5ZM560.493 78.5H556.521V77.5H560.493V78.5ZM568.437 78.5H564.465V77.5H568.437V78.5ZM576.381 78.5H572.408V77.5H576.381V78.5ZM584.324 78.5H580.353V77.5H584.324V78.5ZM592.268 78.5H588.296V77.5H592.268V78.5ZM600.211 78.5H596.239V77.5H600.211V78.5ZM608.155 78.5H604.183V77.5H608.155V78.5ZM616.099 78.5H612.127V77.5H616.099V78.5ZM624.042 78.5H620.07V77.5H624.042V78.5ZM630 78.5H628.014V77.5H630V78.5ZM67.9863 6.5H66V5.5H67.9863V6.5ZM75.9297 6.5H71.958V5.5H75.9297V6.5ZM83.873 6.5H79.9014V5.5H83.873V6.5ZM91.8174 6.5H87.8447V5.5H91.8174V6.5ZM99.7607 6.5H95.7891V5.5H99.7607V6.5ZM107.704 6.5H103.732V5.5H107.704V6.5ZM115.647 6.5H111.676V5.5H115.647V6.5ZM123.592 6.5H119.62V5.5H123.592V6.5ZM131.535 6.5H127.563V5.5H131.535V6.5ZM139.479 6.5H135.507V5.5H139.479V6.5ZM147.423 6.5H143.451V5.5H147.423V6.5ZM155.366 6.5H151.395V5.5H155.366V6.5ZM163.31 6.5H159.338V5.5H163.31V6.5ZM171.254 6.5H167.281V5.5H171.254V6.5ZM179.197 6.5H175.226V5.5H179.197V6.5ZM187.141 6.5H183.169V5.5H187.141V6.5ZM195.085 6.5H191.112V5.5H195.085V6.5ZM203.028 6.5H199.057V5.5H203.028V6.5ZM210.972 6.5H207V5.5H210.972V6.5ZM218.915 6.5H214.943V5.5H218.915V6.5ZM226.859 6.5H222.888V5.5H226.859V6.5ZM234.803 6.5H230.831V5.5H234.803V6.5ZM242.746 6.5H238.774V5.5H242.746V6.5ZM250.69 6.5H246.719V5.5H250.69V6.5ZM258.634 6.5H254.662V5.5H258.634V6.5ZM266.577 6.5H262.605V5.5H266.577V6.5ZM274.521 6.5H270.55V5.5H274.521V6.5ZM282.465 6.5H278.493V5.5H282.465V6.5ZM290.408 6.5H286.437V5.5H290.408V6.5ZM298.353 6.5H294.38V5.5H298.353V6.5ZM306.296 6.5H302.324V5.5H306.296V6.5ZM314.239 6.5H310.268V5.5H314.239V6.5ZM322.184 6.5H318.211V5.5H322.184V6.5ZM330.127 6.5H326.155V5.5H330.127V6.5ZM338.07 6.5H334.099V5.5H338.07V6.5ZM346.015 6.5H342.042V5.5H346.015V6.5ZM353.958 6.5H349.986V5.5H353.958V6.5ZM361.901 6.5H357.93V5.5H361.901V6.5ZM369.845 6.5H365.873V5.5H369.845V6.5ZM377.789 6.5H373.817V5.5H377.789V6.5ZM385.732 6.5H381.761V5.5H385.732V6.5ZM393.676 6.5H389.704V5.5H393.676V6.5ZM401.62 6.5H397.648V5.5H401.62V6.5ZM409.563 6.5H405.592V5.5H409.563V6.5ZM417.507 6.5H413.535V5.5H417.507V6.5ZM425.451 6.5H421.479V5.5H425.451V6.5ZM433.395 6.5H429.423V5.5H433.395V6.5ZM441.338 6.5H437.366V5.5H441.338V6.5ZM449.282 6.5H445.31V5.5H449.282V6.5ZM457.226 6.5H453.254V5.5H457.226V6.5ZM465.169 6.5H461.197V5.5H465.169V6.5ZM473.113 6.5H469.141V5.5H473.113V6.5ZM481.057 6.5H477.085V5.5H481.057V6.5ZM489 6.5H485.028V5.5H489V6.5ZM496.943 6.5H492.972V5.5H496.943V6.5ZM504.888 6.5H500.916V5.5H504.888V6.5ZM512.831 6.5H508.859V5.5H512.831V6.5ZM520.774 6.5H516.803V5.5H520.774V6.5ZM528.719 6.5H524.747V5.5H528.719V6.5ZM536.662 6.5H532.69V5.5H536.662V6.5ZM544.605 6.5H540.634V5.5H544.605V6.5ZM552.55 6.5H548.577V5.5H552.55V6.5ZM560.493 6.5H556.521V5.5H560.493V6.5ZM568.437 6.5H564.465V5.5H568.437V6.5ZM576.381 6.5H572.408V5.5H576.381V6.5ZM584.324 6.5H580.353V5.5H584.324V6.5ZM592.268 6.5H588.296V5.5H592.268V6.5ZM600.211 6.5H596.239V5.5H600.211V6.5ZM608.155 6.5H604.183V5.5H608.155V6.5ZM616.099 6.5H612.127V5.5H616.099V6.5ZM624.042 6.5H620.07V5.5H624.042V6.5ZM630 6.5H628.014V5.5H630V6.5Z" fill="#707073"/>
<path id="Vector 522" d="M161 6L161 438" stroke="#46464A" stroke-dasharray="4 4"/>
<rect id="Rectangle 5235" x="66" width="0.974194" height="438" fill="#D9D9D9"/>
<path id="Vector 529" d="M255 6L255 438" stroke="#46464A" stroke-dasharray="4 4"/>
<path id="Vector 530" d="M349 6L349 438" stroke="#46464A" stroke-dasharray="4 4"/>
<path id="Vector 531" d="M443 6L443 438" stroke="#46464A" stroke-dasharray="4 4"/>
<path id="Vector 532" d="M537 6L537 438" stroke="#46464A" stroke-dasharray="4 4"/>
<path id="Vector 533" d="M630 6L630 438" stroke="#46464A" stroke-dasharray="4 4"/>
<path id="Union_2" d="M642 439H66V0H66.9746V438H642V439Z" fill="#707073"/>
<path id="30m" d="M138.205 466.408C138.653 465.864 139.197 465.432 139.837 465.112C140.477 464.792 141.237 464.632 142.117 464.632C143.141 464.632 144.061 464.856 144.877 465.304C145.693 465.736 146.333 466.352 146.797 467.152C147.261 467.952 147.493 468.872 147.493 469.912C147.493 470.984 147.237 471.944 146.725 472.792C146.229 473.64 145.533 474.304 144.637 474.784C143.741 475.264 142.725 475.504 141.589 475.504C140.261 475.504 139.109 475.208 138.133 474.616C137.173 474.024 136.509 473.184 136.141 472.096L137.629 471.376C137.997 472.192 138.509 472.816 139.165 473.248C139.837 473.68 140.645 473.896 141.589 473.896C142.389 473.896 143.077 473.736 143.653 473.416C144.245 473.08 144.693 472.616 144.997 472.024C145.317 471.432 145.477 470.744 145.477 469.96C145.477 468.792 145.133 467.872 144.445 467.2C143.757 466.512 142.805 466.168 141.589 466.168C140.965 466.168 140.429 466.264 139.981 466.456C139.549 466.632 139.133 466.912 138.733 467.296L137.749 466.144L144.061 459.592H137.101V458.008H146.557V459.256L139.525 466.48L138.205 466.408ZM161.558 463.84C161.59 464.384 161.606 465.32 161.606 466.648C161.606 467.976 161.59 468.928 161.558 469.504C161.446 471.376 160.91 472.848 159.95 473.92C158.99 474.976 157.63 475.504 155.87 475.504C154.11 475.504 152.742 474.968 151.766 473.896C150.806 472.808 150.278 471.312 150.182 469.408C150.15 468.912 150.134 468.008 150.134 466.696C150.134 465.384 150.15 464.432 150.182 463.84C150.262 461.952 150.79 460.464 151.766 459.376C152.742 458.288 154.11 457.744 155.87 457.744C157.63 457.744 158.998 458.288 159.974 459.376C160.95 460.448 161.478 461.936 161.558 463.84ZM159.59 469.336C159.622 468.728 159.638 467.824 159.638 466.624C159.638 465.408 159.622 464.504 159.59 463.912C159.526 462.392 159.182 461.256 158.558 460.504C157.934 459.736 157.038 459.352 155.87 459.352C154.702 459.352 153.806 459.736 153.182 460.504C152.558 461.256 152.214 462.392 152.15 463.912C152.118 464.584 152.102 465.52 152.102 466.72C152.102 467.904 152.118 468.776 152.15 469.336C152.214 470.856 152.558 472 153.182 472.768C153.806 473.52 154.702 473.896 155.87 473.896C157.038 473.896 157.934 473.52 158.558 472.768C159.182 472.016 159.526 470.872 159.59 469.336ZM166.225 462.616C166.273 462.952 166.313 463.616 166.345 464.608C166.761 463.888 167.313 463.336 168.001 462.952C168.705 462.568 169.537 462.376 170.497 462.376C171.457 462.376 172.265 462.576 172.921 462.976C173.577 463.376 174.057 463.968 174.361 464.752C174.793 463.984 175.369 463.4 176.089 463C176.809 462.584 177.665 462.376 178.657 462.376C180.017 462.376 181.065 462.768 181.801 463.552C182.553 464.32 182.929 465.456 182.929 466.96V475.24H181.033V467.224C181.033 466.072 180.793 465.24 180.313 464.728C179.833 464.216 179.161 463.96 178.297 463.96C177.577 463.96 176.945 464.128 176.401 464.464C175.873 464.784 175.457 465.24 175.153 465.832C174.865 466.408 174.721 467.088 174.721 467.872V475.24H172.825V467.224C172.825 466.072 172.585 465.24 172.105 464.728C171.625 464.216 170.953 463.96 170.089 463.96C169.369 463.96 168.737 464.128 168.193 464.464C167.665 464.784 167.249 465.24 166.945 465.832C166.657 466.408 166.513 467.088 166.513 467.872V475.24H164.689V465.592C164.689 464.44 164.657 463.448 164.593 462.616H166.225Z" fill="#707073"/>
<path id="1h" d="M243.147 462.352L243.171 460.408L247.587 458.008H248.979V475.264H247.059V460.288L243.147 462.352ZM253.308 475.24V457.264H255.18V464.536C255.66 463.832 256.268 463.296 257.004 462.928C257.74 462.56 258.604 462.376 259.596 462.376C261.068 462.376 262.22 462.792 263.052 463.624C263.9 464.44 264.324 465.624 264.324 467.176V475.24H262.452V467.44C262.452 466.24 262.18 465.368 261.636 464.824C261.092 464.264 260.316 463.984 259.308 463.984C258.46 463.984 257.724 464.168 257.1 464.536C256.476 464.888 255.996 465.392 255.66 466.048C255.34 466.688 255.18 467.44 255.18 468.304V475.24H253.308Z" fill="#707073"/>
<path id="1h30m" d="M312.76 462.352L312.784 460.408L317.2 458.008H318.592V475.264H316.672V460.288L312.76 462.352ZM322.921 475.24V457.264H324.793V464.536C325.273 463.832 325.881 463.296 326.617 462.928C327.353 462.56 328.217 462.376 329.209 462.376C330.681 462.376 331.833 462.792 332.665 463.624C333.513 464.44 333.937 465.624 333.937 467.176V475.24H332.065V467.44C332.065 466.24 331.793 465.368 331.249 464.824C330.705 464.264 329.929 463.984 328.921 463.984C328.073 463.984 327.337 464.168 326.713 464.536C326.089 464.888 325.609 465.392 325.273 466.048C324.953 466.688 324.793 467.44 324.793 468.304V475.24H322.921ZM337.994 466.408C338.442 465.864 338.986 465.432 339.626 465.112C340.266 464.792 341.026 464.632 341.906 464.632C342.93 464.632 343.85 464.856 344.666 465.304C345.482 465.736 346.122 466.352 346.586 467.152C347.05 467.952 347.282 468.872 347.282 469.912C347.282 470.984 347.026 471.944 346.514 472.792C346.018 473.64 345.322 474.304 344.426 474.784C343.53 475.264 342.514 475.504 341.378 475.504C340.05 475.504 338.898 475.208 337.922 474.616C336.962 474.024 336.298 473.184 335.93 472.096L337.418 471.376C337.786 472.192 338.298 472.816 338.954 473.248C339.626 473.68 340.434 473.896 341.378 473.896C342.178 473.896 342.866 473.736 343.442 473.416C344.034 473.08 344.482 472.616 344.786 472.024C345.106 471.432 345.266 470.744 345.266 469.96C345.266 468.792 344.922 467.872 344.234 467.2C343.546 466.512 342.594 466.168 341.378 466.168C340.754 466.168 340.218 466.264 339.77 466.456C339.338 466.632 338.922 466.912 338.522 467.296L337.538 466.144L343.85 459.592H336.89V458.008H346.346V459.256L339.314 466.48L337.994 466.408ZM361.347 463.84C361.379 464.384 361.395 465.32 361.395 466.648C361.395 467.976 361.379 468.928 361.347 469.504C361.235 471.376 360.699 472.848 359.739 473.92C358.779 474.976 357.419 475.504 355.659 475.504C353.899 475.504 352.531 474.968 351.555 473.896C350.595 472.808 350.067 471.312 349.971 469.408C349.939 468.912 349.923 468.008 349.923 466.696C349.923 465.384 349.939 464.432 349.971 463.84C350.051 461.952 350.579 460.464 351.555 459.376C352.531 458.288 353.899 457.744 355.659 457.744C357.419 457.744 358.787 458.288 359.763 459.376C360.739 460.448 361.267 461.936 361.347 463.84ZM359.379 469.336C359.411 468.728 359.427 467.824 359.427 466.624C359.427 465.408 359.411 464.504 359.379 463.912C359.315 462.392 358.971 461.256 358.347 460.504C357.723 459.736 356.827 459.352 355.659 459.352C354.491 459.352 353.595 459.736 352.971 460.504C352.347 461.256 352.003 462.392 351.939 463.912C351.907 464.584 351.891 465.52 351.891 466.72C351.891 467.904 351.907 468.776 351.939 469.336C352.003 470.856 352.347 472 352.971 472.768C353.595 473.52 354.491 473.896 355.659 473.896C356.827 473.896 357.723 473.52 358.347 472.768C358.971 472.016 359.315 470.872 359.379 469.336ZM366.014 462.616C366.062 462.952 366.102 463.616 366.134 464.608C366.55 463.888 367.102 463.336 367.79 462.952C368.494 462.568 369.326 462.376 370.286 462.376C371.246 462.376 372.054 462.576 372.71 462.976C373.366 463.376 373.846 463.968 374.15 464.752C374.582 463.984 375.158 463.4 375.878 463C376.598 462.584 377.454 462.376 378.446 462.376C379.806 462.376 380.854 462.768 381.59 463.552C382.342 464.32 382.718 465.456 382.718 466.96V475.24H380.822V467.224C380.822 466.072 380.582 465.24 380.102 464.728C379.622 464.216 378.95 463.96 378.086 463.96C377.366 463.96 376.734 464.128 376.19 464.464C375.662 464.784 375.246 465.24 374.942 465.832C374.654 466.408 374.51 467.088 374.51 467.872V475.24H372.614V467.224C372.614 466.072 372.374 465.24 371.894 464.728C371.414 464.216 370.742 463.96 369.878 463.96C369.158 463.96 368.526 464.128 367.982 464.464C367.454 464.784 367.038 465.24 366.734 465.832C366.446 466.408 366.302 467.088 366.302 467.872V475.24H364.478V465.592C364.478 464.44 364.446 463.448 364.382 462.616H366.014Z" fill="#707073"/>
<path id="2h30h" d="M408.786 475.264V473.968L415.29 467.104C416.106 466.24 416.682 465.472 417.018 464.8C417.37 464.112 417.546 463.408 417.546 462.688C417.546 461.664 417.266 460.856 416.706 460.264C416.162 459.656 415.378 459.352 414.354 459.352C413.362 459.352 412.554 459.624 411.93 460.168C411.306 460.712 410.802 461.496 410.418 462.52L408.81 461.896C409.194 460.584 409.882 459.568 410.874 458.848C411.882 458.112 413.066 457.744 414.426 457.744C415.466 457.744 416.37 457.96 417.138 458.392C417.922 458.808 418.522 459.392 418.938 460.144C419.354 460.88 419.562 461.712 419.562 462.64C419.562 463.584 419.322 464.488 418.842 465.352C418.378 466.216 417.594 467.224 416.49 468.376L411.114 474.016L410.778 473.704H419.61V475.264H408.786ZM422.136 475.24V457.264H424.008V464.536C424.488 463.832 425.096 463.296 425.832 462.928C426.568 462.56 427.432 462.376 428.424 462.376C429.896 462.376 431.048 462.792 431.88 463.624C432.728 464.44 433.152 465.624 433.152 467.176V475.24H431.28V467.44C431.28 466.24 431.008 465.368 430.464 464.824C429.92 464.264 429.144 463.984 428.136 463.984C427.288 463.984 426.552 464.168 425.928 464.536C425.304 464.888 424.824 465.392 424.488 466.048C424.168 466.688 424.008 467.44 424.008 468.304V475.24H422.136ZM437.209 466.408C437.657 465.864 438.201 465.432 438.841 465.112C439.481 464.792 440.241 464.632 441.121 464.632C442.145 464.632 443.065 464.856 443.881 465.304C444.697 465.736 445.337 466.352 445.801 467.152C446.265 467.952 446.497 468.872 446.497 469.912C446.497 470.984 446.241 471.944 445.729 472.792C445.233 473.64 444.537 474.304 443.641 474.784C442.745 475.264 441.729 475.504 440.593 475.504C439.265 475.504 438.113 475.208 437.137 474.616C436.177 474.024 435.513 473.184 435.145 472.096L436.633 471.376C437.001 472.192 437.513 472.816 438.169 473.248C438.841 473.68 439.649 473.896 440.593 473.896C441.393 473.896 442.081 473.736 442.657 473.416C443.249 473.08 443.697 472.616 444.001 472.024C444.321 471.432 444.481 470.744 444.481 469.96C444.481 468.792 444.137 467.872 443.449 467.2C442.761 466.512 441.809 466.168 440.593 466.168C439.969 466.168 439.433 466.264 438.985 466.456C438.553 466.632 438.137 466.912 437.737 467.296L436.753 466.144L443.065 459.592H436.105V458.008H445.561V459.256L438.529 466.48L437.209 466.408ZM460.562 463.84C460.594 464.384 460.61 465.32 460.61 466.648C460.61 467.976 460.594 468.928 460.562 469.504C460.45 471.376 459.914 472.848 458.954 473.92C457.994 474.976 456.634 475.504 454.874 475.504C453.114 475.504 451.746 474.968 450.77 473.896C449.81 472.808 449.282 471.312 449.186 469.408C449.154 468.912 449.138 468.008 449.138 466.696C449.138 465.384 449.154 464.432 449.186 463.84C449.266 461.952 449.794 460.464 450.77 459.376C451.746 458.288 453.114 457.744 454.874 457.744C456.634 457.744 458.002 458.288 458.978 459.376C459.954 460.448 460.482 461.936 460.562 463.84ZM458.594 469.336C458.626 468.728 458.642 467.824 458.642 466.624C458.642 465.408 458.626 464.504 458.594 463.912C458.53 462.392 458.186 461.256 457.562 460.504C456.938 459.736 456.042 459.352 454.874 459.352C453.706 459.352 452.81 459.736 452.186 460.504C451.562 461.256 451.218 462.392 451.154 463.912C451.122 464.584 451.106 465.52 451.106 466.72C451.106 467.904 451.122 468.776 451.154 469.336C451.218 470.856 451.562 472 452.186 472.768C452.81 473.52 453.706 473.896 454.874 473.896C456.042 473.896 456.938 473.52 457.562 472.768C458.186 472.016 458.53 470.872 458.594 469.336ZM463.597 475.24V457.264H465.469V464.536C465.949 463.832 466.557 463.296 467.293 462.928C468.029 462.56 468.893 462.376 469.885 462.376C471.357 462.376 472.509 462.792 473.341 463.624C474.189 464.44 474.613 465.624 474.613 467.176V475.24H472.741V467.44C472.741 466.24 472.469 465.368 471.925 464.824C471.381 464.264 470.605 463.984 469.597 463.984C468.749 463.984 468.013 464.168 467.389 464.536C466.765 464.888 466.285 465.392 465.949 466.048C465.629 466.688 465.469 467.44 465.469 468.304V475.24H463.597Z" fill="#707073"/>
<path id="3h30m" d="M500.74 466.408C501.188 465.864 501.732 465.432 502.372 465.112C503.012 464.792 503.772 464.632 504.652 464.632C505.676 464.632 506.596 464.856 507.412 465.304C508.228 465.736 508.868 466.352 509.332 467.152C509.796 467.952 510.028 468.872 510.028 469.912C510.028 470.984 509.772 471.944 509.26 472.792C508.764 473.64 508.068 474.304 507.172 474.784C506.276 475.264 505.26 475.504 504.124 475.504C502.796 475.504 501.644 475.208 500.668 474.616C499.708 474.024 499.044 473.184 498.676 472.096L500.164 471.376C500.532 472.192 501.044 472.816 501.7 473.248C502.372 473.68 503.18 473.896 504.124 473.896C504.924 473.896 505.612 473.736 506.188 473.416C506.78 473.08 507.228 472.616 507.532 472.024C507.852 471.432 508.012 470.744 508.012 469.96C508.012 468.792 507.668 467.872 506.98 467.2C506.292 466.512 505.34 466.168 504.124 466.168C503.5 466.168 502.964 466.264 502.516 466.456C502.084 466.632 501.668 466.912 501.268 467.296L500.284 466.144L506.596 459.592H499.636V458.008H509.092V459.256L502.06 466.48L500.74 466.408ZM512.597 475.24V457.264H514.469V464.536C514.949 463.832 515.557 463.296 516.293 462.928C517.029 462.56 517.893 462.376 518.885 462.376C520.357 462.376 521.509 462.792 522.341 463.624C523.189 464.44 523.613 465.624 523.613 467.176V475.24H521.741V467.44C521.741 466.24 521.469 465.368 520.925 464.824C520.381 464.264 519.605 463.984 518.597 463.984C517.749 463.984 517.013 464.168 516.389 464.536C515.765 464.888 515.285 465.392 514.949 466.048C514.629 466.688 514.469 467.44 514.469 468.304V475.24H512.597ZM527.67 466.408C528.118 465.864 528.662 465.432 529.302 465.112C529.942 464.792 530.702 464.632 531.582 464.632C532.606 464.632 533.526 464.856 534.342 465.304C535.158 465.736 535.798 466.352 536.262 467.152C536.726 467.952 536.958 468.872 536.958 469.912C536.958 470.984 536.702 471.944 536.19 472.792C535.694 473.64 534.998 474.304 534.102 474.784C533.206 475.264 532.19 475.504 531.054 475.504C529.726 475.504 528.574 475.208 527.598 474.616C526.638 474.024 525.974 473.184 525.606 472.096L527.094 471.376C527.462 472.192 527.974 472.816 528.63 473.248C529.302 473.68 530.11 473.896 531.054 473.896C531.854 473.896 532.542 473.736 533.118 473.416C533.71 473.08 534.158 472.616 534.462 472.024C534.782 471.432 534.942 470.744 534.942 469.96C534.942 468.792 534.598 467.872 533.91 467.2C533.222 466.512 532.27 466.168 531.054 466.168C530.43 466.168 529.894 466.264 529.446 466.456C529.014 466.632 528.598 466.912 528.198 467.296L527.214 466.144L533.526 459.592H526.566V458.008H536.022V459.256L528.99 466.48L527.67 466.408ZM551.023 463.84C551.055 464.384 551.071 465.32 551.071 466.648C551.071 467.976 551.055 468.928 551.023 469.504C550.911 471.376 550.375 472.848 549.415 473.92C548.455 474.976 547.095 475.504 545.335 475.504C543.575 475.504 542.207 474.968 541.23 473.896C540.271 472.808 539.743 471.312 539.646 469.408C539.615 468.912 539.599 468.008 539.599 466.696C539.599 465.384 539.615 464.432 539.646 463.84C539.727 461.952 540.255 460.464 541.23 459.376C542.207 458.288 543.575 457.744 545.335 457.744C547.095 457.744 548.463 458.288 549.439 459.376C550.415 460.448 550.943 461.936 551.023 463.84ZM549.055 469.336C549.087 468.728 549.103 467.824 549.103 466.624C549.103 465.408 549.087 464.504 549.055 463.912C548.991 462.392 548.647 461.256 548.023 460.504C547.399 459.736 546.503 459.352 545.335 459.352C544.167 459.352 543.271 459.736 542.647 460.504C542.023 461.256 541.679 462.392 541.615 463.912C541.583 464.584 541.567 465.52 541.567 466.72C541.567 467.904 541.583 468.776 541.615 469.336C541.679 470.856 542.023 472 542.647 472.768C543.271 473.52 544.167 473.896 545.335 473.896C546.503 473.896 547.399 473.52 548.023 472.768C548.647 472.016 548.991 470.872 549.055 469.336ZM555.69 462.616C555.738 462.952 555.778 463.616 555.81 464.608C556.226 463.888 556.778 463.336 557.466 462.952C558.17 462.568 559.002 462.376 559.962 462.376C560.922 462.376 561.73 462.576 562.386 462.976C563.042 463.376 563.522 463.968 563.826 464.752C564.258 463.984 564.834 463.4 565.554 463C566.274 462.584 567.13 462.376 568.122 462.376C569.482 462.376 570.53 462.768 571.266 463.552C572.018 464.32 572.394 465.456 572.394 466.96V475.24H570.498V467.224C570.498 466.072 570.258 465.24 569.778 464.728C569.298 464.216 568.626 463.96 567.762 463.96C567.042 463.96 566.41 464.128 565.866 464.464C565.338 464.784 564.922 465.24 564.618 465.832C564.33 466.408 564.186 467.088 564.186 467.872V475.24H562.29V467.224C562.29 466.072 562.05 465.24 561.57 464.728C561.09 464.216 560.418 463.96 559.554 463.96C558.834 463.96 558.202 464.128 557.658 464.464C557.13 464.784 556.714 465.24 556.41 465.832C556.122 466.408 555.978 467.088 555.978 467.872V475.24H554.154V465.592C554.154 464.44 554.122 463.448 554.058 462.616H555.69Z" fill="#707073"/>
<path id="4h30m" d="M592.411 471.112V469.864L600.931 458.008H602.443V469.528H604.915V471.112H602.443V475.264H600.571V471.112H592.411ZM594.595 469.528H600.571V461.344L594.595 469.528ZM607.03 475.24V457.264H608.902V464.536C609.382 463.832 609.99 463.296 610.726 462.928C611.462 462.56 612.326 462.376 613.318 462.376C614.79 462.376 615.942 462.792 616.774 463.624C617.622 464.44 618.046 465.624 618.046 467.176V475.24H616.174V467.44C616.174 466.24 615.902 465.368 615.358 464.824C614.814 464.264 614.038 463.984 613.03 463.984C612.182 463.984 611.446 464.168 610.822 464.536C610.198 464.888 609.718 465.392 609.382 466.048C609.062 466.688 608.902 467.44 608.902 468.304V475.24H607.03ZM622.104 466.408C622.552 465.864 623.096 465.432 623.736 465.112C624.376 464.792 625.136 464.632 626.016 464.632C627.04 464.632 627.96 464.856 628.776 465.304C629.592 465.736 630.232 466.352 630.696 467.152C631.16 467.952 631.392 468.872 631.392 469.912C631.392 470.984 631.136 471.944 630.624 472.792C630.128 473.64 629.432 474.304 628.536 474.784C627.64 475.264 626.624 475.504 625.488 475.504C624.16 475.504 623.008 475.208 622.032 474.616C621.072 474.024 620.408 473.184 620.04 472.096L621.528 471.376C621.896 472.192 622.408 472.816 623.064 473.248C623.736 473.68 624.544 473.896 625.488 473.896C626.288 473.896 626.976 473.736 627.552 473.416C628.144 473.08 628.592 472.616 628.896 472.024C629.216 471.432 629.376 470.744 629.376 469.96C629.376 468.792 629.032 467.872 628.344 467.2C627.656 466.512 626.704 466.168 625.488 466.168C624.864 466.168 624.328 466.264 623.88 466.456C623.448 466.632 623.032 466.912 622.632 467.296L621.648 466.144L627.96 459.592H621V458.008H630.456V459.256L623.424 466.48L622.104 466.408ZM645.456 463.84C645.488 464.384 645.504 465.32 645.504 466.648C645.504 467.976 645.488 468.928 645.456 469.504C645.344 471.376 644.808 472.848 643.848 473.92C642.888 474.976 641.528 475.504 639.768 475.504C638.008 475.504 636.64 474.968 635.664 473.896C634.704 472.808 634.176 471.312 634.08 469.408C634.048 468.912 634.032 468.008 634.032 466.696C634.032 465.384 634.048 464.432 634.08 463.84C634.16 461.952 634.688 460.464 635.664 459.376C636.64 458.288 638.008 457.744 639.768 457.744C641.528 457.744 642.896 458.288 643.872 459.376C644.848 460.448 645.376 461.936 645.456 463.84ZM643.488 469.336C643.52 468.728 643.536 467.824 643.536 466.624C643.536 465.408 643.52 464.504 643.488 463.912C643.424 462.392 643.08 461.256 642.456 460.504C641.832 459.736 640.936 459.352 639.768 459.352C638.6 459.352 637.704 459.736 637.08 460.504C636.456 461.256 636.112 462.392 636.048 463.912C636.016 464.584 636 465.52 636 466.72C636 467.904 636.016 468.776 636.048 469.336C636.112 470.856 636.456 472 637.08 472.768C637.704 473.52 638.6 473.896 639.768 473.896C640.936 473.896 641.832 473.52 642.456 472.768C643.08 472.016 643.424 470.872 643.488 469.336ZM650.123 462.616C650.171 462.952 650.211 463.616 650.243 464.608C650.659 463.888 651.211 463.336 651.899 462.952C652.603 462.568 653.435 462.376 654.395 462.376C655.355 462.376 656.163 462.576 656.819 462.976C657.475 463.376 657.955 463.968 658.259 464.752C658.691 463.984 659.267 463.4 659.987 463C660.707 462.584 661.563 462.376 662.555 462.376C663.915 462.376 664.963 462.768 665.699 463.552C666.451 464.32 666.827 465.456 666.827 466.96V475.24H664.931V467.224C664.931 466.072 664.691 465.24 664.211 464.728C663.731 464.216 663.059 463.96 662.195 463.96C661.475 463.96 660.843 464.128 660.299 464.464C659.771 464.784 659.355 465.24 659.051 465.832C658.763 466.408 658.619 467.088 658.619 467.872V475.24H656.723V467.224C656.723 466.072 656.483 465.24 656.003 464.728C655.523 464.216 654.851 463.96 653.987 463.96C653.267 463.96 652.635 464.128 652.091 464.464C651.563 464.784 651.147 465.24 650.843 465.832C650.555 466.408 650.411 467.088 650.411 467.872V475.24H648.587V465.592C648.587 464.44 648.555 463.448 648.491 462.616H650.123Z" fill="#707073"/>
<g id="Temp">
<path id="248&#194;&#176;" d="M1.10619 20.264V18.968L7.61019 12.104C8.42619 11.24 9.00219 10.472 9.33819 9.8C9.69019 9.112 9.86619 8.408 9.86619 7.688C9.86619 6.664 9.58619 5.856 9.02619 5.264C8.48219 4.656 7.69819 4.352 6.67419 4.352C5.68219 4.352 4.87419 4.624 4.25019 5.168C3.62619 5.712 3.12219 6.496 2.73819 7.52L1.13019 6.896C1.51419 5.584 2.20219 4.568 3.19419 3.848C4.20219 3.112 5.38619 2.744 6.74619 2.744C7.78619 2.744 8.69019 2.96 9.45819 3.392C10.2422 3.808 10.8422 4.392 11.2582 5.144C11.6742 5.88 11.8822 6.712 11.8822 7.64C11.8822 8.584 11.6422 9.488 11.1622 10.352C10.6982 11.216 9.91419 12.224 8.81019 13.376L3.43419 19.016L3.09819 18.704H11.9302V20.264H1.10619ZM13.6882 16.112V14.864L22.2082 3.008H23.7202V14.528H26.1922V16.112H23.7202V20.264H21.8482V16.112H13.6882ZM15.8722 14.528H21.8482V6.344L15.8722 14.528ZM27.9958 15.392C27.9958 14.368 28.2838 13.464 28.8598 12.68C29.4358 11.88 30.2278 11.28 31.2358 10.88C30.4678 10.512 29.8598 10.008 29.4118 9.368C28.9798 8.728 28.7638 8.008 28.7638 7.208C28.7638 6.376 28.9878 5.624 29.4358 4.952C29.8998 4.264 30.5318 3.728 31.3318 3.344C32.1478 2.944 33.0518 2.744 34.0438 2.744C35.0358 2.744 35.9238 2.944 36.7078 3.344C37.5078 3.728 38.1238 4.264 38.5558 4.952C39.0038 5.624 39.2278 6.376 39.2278 7.208C39.2278 8.008 39.0118 8.728 38.5798 9.368C38.1638 10.008 37.5798 10.512 36.8278 10.88C37.8198 11.28 38.5958 11.88 39.1558 12.68C39.7318 13.464 40.0198 14.368 40.0198 15.392C40.0198 16.368 39.7638 17.248 39.2518 18.032C38.7398 18.8 38.0278 19.408 37.1158 19.856C36.2198 20.288 35.1958 20.504 34.0438 20.504C32.8758 20.504 31.8278 20.288 30.8998 19.856C29.9878 19.408 29.2758 18.8 28.7638 18.032C28.2518 17.248 27.9958 16.368 27.9958 15.392ZM29.9878 15.32C29.9878 16.056 30.1558 16.696 30.4918 17.24C30.8278 17.768 31.2998 18.176 31.9078 18.464C32.5318 18.752 33.2438 18.896 34.0438 18.896C34.8278 18.896 35.5238 18.752 36.1318 18.464C36.7398 18.176 37.2118 17.768 37.5478 17.24C37.8998 16.696 38.0758 16.056 38.0758 15.32C38.0758 14.232 37.7078 13.36 36.9718 12.704C36.2358 12.048 35.2598 11.72 34.0438 11.72C32.8118 11.72 31.8278 12.048 31.0918 12.704C30.3558 13.36 29.9878 14.232 29.9878 15.32ZM30.7558 7.256C30.7558 8.12 31.0518 8.824 31.6438 9.368C32.2518 9.896 33.0518 10.16 34.0438 10.16C34.6838 10.16 35.2518 10.04 35.7478 9.8C36.2438 9.544 36.6278 9.2 36.8998 8.768C37.1718 8.32 37.3078 7.816 37.3078 7.256C37.3078 6.68 37.1718 6.176 36.8998 5.744C36.6278 5.296 36.2438 4.952 35.7478 4.712C35.2518 4.456 34.6838 4.328 34.0438 4.328C33.3878 4.328 32.8118 4.456 32.3158 4.712C31.8198 4.952 31.4358 5.296 31.1638 5.744C30.8918 6.176 30.7558 6.68 30.7558 7.256ZM43.4201 4.688C43.4201 5.36 43.6121 5.912 43.9961 6.344C44.3961 6.776 44.9161 6.992 45.5561 6.992C46.1961 6.992 46.7161 6.776 47.1161 6.344C47.5321 5.912 47.7401 5.36 47.7401 4.688C47.7401 3.984 47.5321 3.416 47.1161 2.984C46.7161 2.552 46.1961 2.336 45.5561 2.336C44.9161 2.336 44.3961 2.552 43.9961 2.984C43.6121 3.416 43.4201 3.984 43.4201 4.688ZM41.9081 4.688C41.9081 4 42.0681 3.376 42.3881 2.816C42.7081 2.24 43.1481 1.792 43.7081 1.472C44.2681 1.136 44.8841 0.967999 45.5561 0.967999C46.2601 0.967999 46.8921 1.136 47.4521 1.472C48.0121 1.792 48.4441 2.232 48.7481 2.792C49.0681 3.352 49.2281 3.984 49.2281 4.688C49.2281 5.376 49.0681 6 48.7481 6.56C48.4441 7.12 48.0121 7.56 47.4521 7.88C46.8921 8.2 46.2601 8.36 45.5561 8.36C44.8841 8.36 44.2681 8.2 43.7081 7.88C43.1481 7.56 42.7081 7.12 42.3881 6.56C42.0681 6 41.9081 5.376 41.9081 4.688Z" fill="#707073"/>
<path id="212&#194;&#176;" d="M6.89525 90.264V88.968L13.3993 82.104C14.2153 81.24 14.7913 80.472 15.1273 79.8C15.4793 79.112 15.6553 78.408 15.6553 77.688C15.6553 76.664 15.3753 75.856 14.8153 75.264C14.2713 74.656 13.4873 74.352 12.4633 74.352C11.4713 74.352 10.6633 74.624 10.0393 75.168C9.41525 75.712 8.91125 76.496 8.52725 77.52L6.91925 76.896C7.30325 75.584 7.99125 74.568 8.98325 73.848C9.99125 73.112 11.1753 72.744 12.5353 72.744C13.5753 72.744 14.4793 72.96 15.2473 73.392C16.0313 73.808 16.6313 74.392 17.0473 75.144C17.4633 75.88 17.6713 76.712 17.6713 77.64C17.6713 78.584 17.4313 79.488 16.9513 80.352C16.4873 81.216 15.7033 82.224 14.5993 83.376L9.22325 89.016L8.88725 88.704H17.7193V90.264H6.89525ZM19.7173 77.352L19.7413 75.408L24.1573 73.008H25.5493V90.264H23.6293V75.288L19.7173 77.352ZM29.2781 90.264V88.968L35.7821 82.104C36.5981 81.24 37.1741 80.472 37.5101 79.8C37.8621 79.112 38.0381 78.408 38.0381 77.688C38.0381 76.664 37.7581 75.856 37.1981 75.264C36.6541 74.656 35.8701 74.352 34.8461 74.352C33.8541 74.352 33.0461 74.624 32.4221 75.168C31.7981 75.712 31.2941 76.496 30.9101 77.52L29.3021 76.896C29.6861 75.584 30.3741 74.568 31.3661 73.848C32.3741 73.112 33.5581 72.744 34.9181 72.744C35.9581 72.744 36.8621 72.96 37.6301 73.392C38.4141 73.808 39.0141 74.392 39.4301 75.144C39.8461 75.88 40.0541 76.712 40.0541 77.64C40.0541 78.584 39.8141 79.488 39.3341 80.352C38.8701 81.216 38.0861 82.224 36.9821 83.376L31.6061 89.016L31.2701 88.704H40.1021V90.264H29.2781ZM43.4201 74.688C43.4201 75.36 43.6121 75.912 43.9961 76.344C44.3961 76.776 44.9161 76.992 45.5561 76.992C46.1961 76.992 46.7161 76.776 47.1161 76.344C47.5321 75.912 47.7401 75.36 47.7401 74.688C47.7401 73.984 47.5321 73.416 47.1161 72.984C46.7161 72.552 46.1961 72.336 45.5561 72.336C44.9161 72.336 44.3961 72.552 43.9961 72.984C43.6121 73.416 43.4201 73.984 43.4201 74.688ZM41.9081 74.688C41.9081 74 42.0681 73.376 42.3881 72.816C42.7081 72.24 43.1481 71.792 43.7081 71.472C44.2681 71.136 44.8841 70.968 45.5561 70.968C46.2601 70.968 46.8921 71.136 47.4521 71.472C48.0121 71.792 48.4441 72.232 48.7481 72.792C49.0681 73.352 49.2281 73.984 49.2281 74.688C49.2281 75.376 49.0681 76 48.7481 76.56C48.4441 77.12 48.0121 77.56 47.4521 77.88C46.8921 78.2 46.2601 78.36 45.5561 78.36C44.8841 78.36 44.2681 78.2 43.7081 77.88C43.1481 77.56 42.7081 77.12 42.3881 76.56C42.0681 76 41.9081 75.376 41.9081 74.688Z" fill="#707073"/>
<path id="176&#194;&#176;" d="M7.48288 147.352L7.50688 145.408L11.9229 143.008H13.3149V160.264H11.3949V145.288L7.48288 147.352ZM26.4847 144.592H16.9567V142.984H28.1647V144.184L20.7967 160.24H18.7327L26.4367 143.872L26.4847 144.592ZM28.6308 154.672C28.6308 153.68 28.8068 152.728 29.1588 151.816C29.5108 150.904 30.0868 149.896 30.8868 148.792L35.1108 143.008H37.3908L32.2068 149.776C31.9188 150.144 31.6708 150.504 31.4628 150.856C31.2548 151.192 31.0388 151.624 30.8148 152.152L30.5748 151.432C31.0868 150.808 31.6948 150.328 32.3988 149.992C33.1188 149.656 33.9268 149.488 34.8228 149.488C35.8788 149.488 36.8148 149.712 37.6308 150.16C38.4628 150.592 39.1108 151.224 39.5748 152.056C40.0388 152.872 40.2708 153.848 40.2708 154.984C40.2708 156.12 40.0228 157.104 39.5268 157.936C39.0308 158.768 38.3428 159.408 37.4628 159.856C36.5988 160.288 35.5988 160.504 34.4628 160.504C33.3108 160.504 32.2948 160.28 31.4148 159.832C30.5348 159.368 29.8468 158.696 29.3508 157.816C28.8708 156.936 28.6308 155.888 28.6308 154.672ZM30.6468 154.984C30.6468 155.8 30.8068 156.504 31.1268 157.096C31.4628 157.672 31.9108 158.112 32.4708 158.416C33.0468 158.704 33.7108 158.848 34.4628 158.848C35.5988 158.848 36.5188 158.512 37.2228 157.84C37.9428 157.152 38.3028 156.2 38.3028 154.984C38.3028 153.768 37.9508 152.824 37.2468 152.152C36.5428 151.464 35.6148 151.12 34.4628 151.12C33.7108 151.12 33.0468 151.272 32.4708 151.576C31.8948 151.88 31.4468 152.328 31.1268 152.92C30.8068 153.496 30.6468 154.184 30.6468 154.984ZM43.4201 144.688C43.4201 145.36 43.6121 145.912 43.9961 146.344C44.3961 146.776 44.9161 146.992 45.5561 146.992C46.1961 146.992 46.7161 146.776 47.1161 146.344C47.5321 145.912 47.7401 145.36 47.7401 144.688C47.7401 143.984 47.5321 143.416 47.1161 142.984C46.7161 142.552 46.1961 142.336 45.5561 142.336C44.9161 142.336 44.3961 142.552 43.9961 142.984C43.6121 143.416 43.4201 143.984 43.4201 144.688ZM41.9081 144.688C41.9081 144 42.0681 143.376 42.3881 142.816C42.7081 142.24 43.1481 141.792 43.7081 141.472C44.2681 141.136 44.8841 140.968 45.5561 140.968C46.2601 140.968 46.8921 141.136 47.4521 141.472C48.0121 141.792 48.4441 142.232 48.7481 142.792C49.0681 143.352 49.2281 143.984 49.2281 144.688C49.2281 145.376 49.0681 146 48.7481 146.56C48.4441 147.12 48.0121 147.56 47.4521 147.88C46.8921 148.2 46.2601 148.36 45.5561 148.36C44.8841 148.36 44.2681 148.2 43.7081 147.88C43.1481 147.56 42.7081 147.12 42.3881 146.56C42.0681 146 41.9081 145.376 41.9081 144.688Z" fill="#707073"/>
<path id="140&#194;&#176;" d="M4.08444 217.352L4.10844 215.408L8.52444 213.008H9.91644V230.264H7.99644V215.288L4.08444 217.352ZM13.4773 226.112V224.864L21.9973 213.008H23.5093V224.528H25.9813V226.112H23.5093V230.264H21.6373V226.112H13.4773ZM15.6613 224.528H21.6373V216.344L15.6613 224.528ZM39.5928 218.84C39.6248 219.384 39.6408 220.32 39.6408 221.648C39.6408 222.976 39.6248 223.928 39.5928 224.504C39.4808 226.376 38.9448 227.848 37.9848 228.92C37.0248 229.976 35.6648 230.504 33.9048 230.504C32.1448 230.504 30.7768 229.968 29.8008 228.896C28.8408 227.808 28.3128 226.312 28.2168 224.408C28.1848 223.912 28.1688 223.008 28.1688 221.696C28.1688 220.384 28.1848 219.432 28.2168 218.84C28.2968 216.952 28.8248 215.464 29.8008 214.376C30.7768 213.288 32.1448 212.744 33.9048 212.744C35.6648 212.744 37.0328 213.288 38.0088 214.376C38.9848 215.448 39.5128 216.936 39.5928 218.84ZM37.6248 224.336C37.6568 223.728 37.6728 222.824 37.6728 221.624C37.6728 220.408 37.6568 219.504 37.6248 218.912C37.5608 217.392 37.2168 216.256 36.5928 215.504C35.9688 214.736 35.0728 214.352 33.9048 214.352C32.7368 214.352 31.8408 214.736 31.2168 215.504C30.5928 216.256 30.2488 217.392 30.1848 218.912C30.1528 219.584 30.1368 220.52 30.1368 221.72C30.1368 222.904 30.1528 223.776 30.1848 224.336C30.2488 225.856 30.5928 227 31.2168 227.768C31.8408 228.52 32.7368 228.896 33.9048 228.896C35.0728 228.896 35.9688 228.52 36.5928 227.768C37.2168 227.016 37.5608 225.872 37.6248 224.336ZM43.4201 214.688C43.4201 215.36 43.6121 215.912 43.9961 216.344C44.3961 216.776 44.9161 216.992 45.5561 216.992C46.1961 216.992 46.7161 216.776 47.1161 216.344C47.5321 215.912 47.7401 215.36 47.7401 214.688C47.7401 213.984 47.5321 213.416 47.1161 212.984C46.7161 212.552 46.1961 212.336 45.5561 212.336C44.9161 212.336 44.3961 212.552 43.9961 212.984C43.6121 213.416 43.4201 213.984 43.4201 214.688ZM41.9081 214.688C41.9081 214 42.0681 213.376 42.3881 212.816C42.7081 212.24 43.1481 211.792 43.7081 211.472C44.2681 211.136 44.8841 210.968 45.5561 210.968C46.2601 210.968 46.8921 211.136 47.4521 211.472C48.0121 211.792 48.4441 212.232 48.7481 212.792C49.0681 213.352 49.2281 213.984 49.2281 214.688C49.2281 215.376 49.0681 216 48.7481 216.56C48.4441 217.12 48.0121 217.56 47.4521 217.88C46.8921 218.2 46.2601 218.36 45.5561 218.36C44.8841 218.36 44.2681 218.2 43.7081 217.88C43.1481 217.56 42.7081 217.12 42.3881 216.56C42.0681 216 41.9081 215.376 41.9081 214.688Z" fill="#707073"/>
<path id="104&#194;&#176;" d="M4.08444 287.352L4.10844 285.408L8.52444 283.008H9.91644V300.264H7.99644V285.288L4.08444 287.352ZM25.7413 288.84C25.7733 289.384 25.7893 290.32 25.7893 291.648C25.7893 292.976 25.7733 293.928 25.7413 294.504C25.6293 296.376 25.0933 297.848 24.1333 298.92C23.1733 299.976 21.8133 300.504 20.0533 300.504C18.2933 300.504 16.9253 299.968 15.9492 298.896C14.9893 297.808 14.4613 296.312 14.3652 294.408C14.3333 293.912 14.3173 293.008 14.3173 291.696C14.3173 290.384 14.3333 289.432 14.3652 288.84C14.4453 286.952 14.9733 285.464 15.9492 284.376C16.9253 283.288 18.2933 282.744 20.0533 282.744C21.8133 282.744 23.1813 283.288 24.1573 284.376C25.1333 285.448 25.6613 286.936 25.7413 288.84ZM23.7733 294.336C23.8053 293.728 23.8213 292.824 23.8213 291.624C23.8213 290.408 23.8053 289.504 23.7733 288.912C23.7093 287.392 23.3653 286.256 22.7413 285.504C22.1173 284.736 21.2213 284.352 20.0533 284.352C18.8853 284.352 17.9893 284.736 17.3653 285.504C16.7413 286.256 16.3973 287.392 16.3333 288.912C16.3013 289.584 16.2853 290.52 16.2853 291.72C16.2853 292.904 16.3013 293.776 16.3333 294.336C16.3973 295.856 16.7413 297 17.3653 297.768C17.9893 298.52 18.8853 298.896 20.0533 298.896C21.2213 298.896 22.1173 298.52 22.7413 297.768C23.3653 297.016 23.7093 295.872 23.7733 294.336ZM28.0085 296.112V294.864L36.5285 283.008H38.0405V294.528H40.5125V296.112H38.0405V300.264H36.1685V296.112H28.0085ZM30.1925 294.528H36.1685V286.344L30.1925 294.528ZM43.4201 284.688C43.4201 285.36 43.6121 285.912 43.9961 286.344C44.3961 286.776 44.9161 286.992 45.5561 286.992C46.1961 286.992 46.7161 286.776 47.1161 286.344C47.5321 285.912 47.7401 285.36 47.7401 284.688C47.7401 283.984 47.5321 283.416 47.1161 282.984C46.7161 282.552 46.1961 282.336 45.5561 282.336C44.9161 282.336 44.3961 282.552 43.9961 282.984C43.6121 283.416 43.4201 283.984 43.4201 284.688ZM41.9081 284.688C41.9081 284 42.0681 283.376 42.3881 282.816C42.7081 282.24 43.1481 281.792 43.7081 281.472C44.2681 281.136 44.8841 280.968 45.5561 280.968C46.2601 280.968 46.8921 281.136 47.4521 281.472C48.0121 281.792 48.4441 282.232 48.7481 282.792C49.0681 283.352 49.2281 283.984 49.2281 284.688C49.2281 285.376 49.0681 286 48.7481 286.56C48.4441 287.12 48.0121 287.56 47.4521 287.88C46.8921 288.2 46.2601 288.36 45.5561 288.36C44.8841 288.36 44.2681 288.2 43.7081 287.88C43.1481 287.56 42.7081 287.12 42.3881 286.56C42.0681 286 41.9081 285.376 41.9081 284.688Z" fill="#707073"/>
<path id="68&#194;&#176;" d="M14.3105 364.672C14.3105 363.68 14.4865 362.728 14.8385 361.816C15.1905 360.904 15.7665 359.896 16.5665 358.792L20.7905 353.008H23.0705L17.8865 359.776C17.5985 360.144 17.3505 360.504 17.1425 360.856C16.9345 361.192 16.7185 361.624 16.4945 362.152L16.2545 361.432C16.7665 360.808 17.3745 360.328 18.0785 359.992C18.7985 359.656 19.6065 359.488 20.5025 359.488C21.5585 359.488 22.4945 359.712 23.3105 360.16C24.1425 360.592 24.7905 361.224 25.2545 362.056C25.7185 362.872 25.9505 363.848 25.9505 364.984C25.9505 366.12 25.7025 367.104 25.2065 367.936C24.7105 368.768 24.0225 369.408 23.1425 369.856C22.2785 370.288 21.2785 370.504 20.1425 370.504C18.9905 370.504 17.9745 370.28 17.0945 369.832C16.2145 369.368 15.5265 368.696 15.0305 367.816C14.5505 366.936 14.3105 365.888 14.3105 364.672ZM16.3265 364.984C16.3265 365.8 16.4865 366.504 16.8065 367.096C17.1425 367.672 17.5905 368.112 18.1505 368.416C18.7265 368.704 19.3905 368.848 20.1425 368.848C21.2785 368.848 22.1985 368.512 22.9025 367.84C23.6225 367.152 23.9825 366.2 23.9825 364.984C23.9825 363.768 23.6305 362.824 22.9265 362.152C22.2225 361.464 21.2945 361.12 20.1425 361.12C19.3905 361.12 18.7265 361.272 18.1505 361.576C17.5745 361.88 17.1265 362.328 16.8065 362.92C16.4865 363.496 16.3265 364.184 16.3265 364.984ZM27.9958 365.392C27.9958 364.368 28.2838 363.464 28.8598 362.68C29.4358 361.88 30.2278 361.28 31.2358 360.88C30.4678 360.512 29.8598 360.008 29.4118 359.368C28.9798 358.728 28.7638 358.008 28.7638 357.208C28.7638 356.376 28.9878 355.624 29.4358 354.952C29.8998 354.264 30.5318 353.728 31.3318 353.344C32.1478 352.944 33.0518 352.744 34.0438 352.744C35.0358 352.744 35.9238 352.944 36.7078 353.344C37.5078 353.728 38.1238 354.264 38.5558 354.952C39.0038 355.624 39.2278 356.376 39.2278 357.208C39.2278 358.008 39.0118 358.728 38.5798 359.368C38.1638 360.008 37.5798 360.512 36.8278 360.88C37.8198 361.28 38.5958 361.88 39.1558 362.68C39.7318 363.464 40.0198 364.368 40.0198 365.392C40.0198 366.368 39.7638 367.248 39.2518 368.032C38.7398 368.8 38.0278 369.408 37.1158 369.856C36.2198 370.288 35.1958 370.504 34.0438 370.504C32.8758 370.504 31.8278 370.288 30.8998 369.856C29.9878 369.408 29.2758 368.8 28.7638 368.032C28.2518 367.248 27.9958 366.368 27.9958 365.392ZM29.9878 365.32C29.9878 366.056 30.1558 366.696 30.4918 367.24C30.8278 367.768 31.2998 368.176 31.9078 368.464C32.5318 368.752 33.2438 368.896 34.0438 368.896C34.8278 368.896 35.5238 368.752 36.1318 368.464C36.7398 368.176 37.2118 367.768 37.5478 367.24C37.8998 366.696 38.0758 366.056 38.0758 365.32C38.0758 364.232 37.7078 363.36 36.9718 362.704C36.2358 362.048 35.2598 361.72 34.0438 361.72C32.8118 361.72 31.8278 362.048 31.0918 362.704C30.3558 363.36 29.9878 364.232 29.9878 365.32ZM30.7558 357.256C30.7558 358.12 31.0518 358.824 31.6438 359.368C32.2518 359.896 33.0518 360.16 34.0438 360.16C34.6838 360.16 35.2518 360.04 35.7478 359.8C36.2438 359.544 36.6278 359.2 36.8998 358.768C37.1718 358.32 37.3078 357.816 37.3078 357.256C37.3078 356.68 37.1718 356.176 36.8998 355.744C36.6278 355.296 36.2438 354.952 35.7478 354.712C35.2518 354.456 34.6838 354.328 34.0438 354.328C33.3878 354.328 32.8118 354.456 32.3158 354.712C31.8198 354.952 31.4358 355.296 31.1638 355.744C30.8918 356.176 30.7558 356.68 30.7558 357.256ZM43.4201 354.688C43.4201 355.36 43.6121 355.912 43.9961 356.344C44.3961 356.776 44.9161 356.992 45.5561 356.992C46.1961 356.992 46.7161 356.776 47.1161 356.344C47.5321 355.912 47.7401 355.36 47.7401 354.688C47.7401 353.984 47.5321 353.416 47.1161 352.984C46.7161 352.552 46.1961 352.336 45.5561 352.336C44.9161 352.336 44.3961 352.552 43.9961 352.984C43.6121 353.416 43.4201 353.984 43.4201 354.688ZM41.9081 354.688C41.9081 354 42.0681 353.376 42.3881 352.816C42.7081 352.24 43.1481 351.792 43.7081 351.472C44.2681 351.136 44.8841 350.968 45.5561 350.968C46.2601 350.968 46.8921 351.136 47.4521 351.472C48.0121 351.792 48.4441 352.232 48.7481 352.792C49.0681 353.352 49.2281 353.984 49.2281 354.688C49.2281 355.376 49.0681 356 48.7481 356.56C48.4441 357.12 48.0121 357.56 47.4521 357.88C46.8921 358.2 46.2601 358.36 45.5561 358.36C44.8841 358.36 44.2681 358.2 43.7081 357.88C43.1481 357.56 42.7081 357.12 42.3881 356.56C42.0681 356 41.9081 355.376 41.9081 354.688Z" fill="#707073"/>
<path id="32&#194;&#176;" d="M18.0217 431.408C18.4697 430.864 19.0137 430.432 19.6537 430.112C20.2937 429.792 21.0537 429.632 21.9337 429.632C22.9577 429.632 23.8777 429.856 24.6937 430.304C25.5097 430.736 26.1497 431.352 26.6137 432.152C27.0777 432.952 27.3097 433.872 27.3097 434.912C27.3097 435.984 27.0537 436.944 26.5417 437.792C26.0457 438.64 25.3497 439.304 24.4537 439.784C23.5577 440.264 22.5417 440.504 21.4057 440.504C20.0777 440.504 18.9257 440.208 17.9497 439.616C16.9897 439.024 16.3257 438.184 15.9577 437.096L17.4457 436.376C17.8137 437.192 18.3257 437.816 18.9817 438.248C19.6537 438.68 20.4617 438.896 21.4057 438.896C22.2057 438.896 22.8937 438.736 23.4697 438.416C24.0617 438.08 24.5097 437.616 24.8137 437.024C25.1337 436.432 25.2937 435.744 25.2937 434.96C25.2937 433.792 24.9497 432.872 24.2617 432.2C23.5737 431.512 22.6217 431.168 21.4057 431.168C20.7817 431.168 20.2457 431.264 19.7977 431.456C19.3657 431.632 18.9497 431.912 18.5497 432.296L17.5657 431.144L23.8777 424.592H16.9177V423.008H26.3737V424.256L19.3417 431.48L18.0217 431.408ZM29.2781 440.264V438.968L35.7821 432.104C36.5981 431.24 37.1741 430.472 37.5101 429.8C37.8621 429.112 38.0381 428.408 38.0381 427.688C38.0381 426.664 37.7581 425.856 37.1981 425.264C36.6541 424.656 35.8701 424.352 34.8461 424.352C33.8541 424.352 33.0461 424.624 32.4221 425.168C31.7981 425.712 31.2941 426.496 30.9101 427.52L29.3021 426.896C29.6861 425.584 30.3741 424.568 31.3661 423.848C32.3741 423.112 33.5581 422.744 34.9181 422.744C35.9581 422.744 36.8621 422.96 37.6301 423.392C38.4141 423.808 39.0141 424.392 39.4301 425.144C39.8461 425.88 40.0541 426.712 40.0541 427.64C40.0541 428.584 39.8141 429.488 39.3341 430.352C38.8701 431.216 38.0861 432.224 36.9821 433.376L31.6061 439.016L31.2701 438.704H40.1021V440.264H29.2781ZM43.4201 424.688C43.4201 425.36 43.6121 425.912 43.9961 426.344C44.3961 426.776 44.9161 426.992 45.5561 426.992C46.1961 426.992 46.7161 426.776 47.1161 426.344C47.5321 425.912 47.7401 425.36 47.7401 424.688C47.7401 423.984 47.5321 423.416 47.1161 422.984C46.7161 422.552 46.1961 422.336 45.5561 422.336C44.9161 422.336 44.3961 422.552 43.9961 422.984C43.6121 423.416 43.4201 423.984 43.4201 424.688ZM41.9081 424.688C41.9081 424 42.0681 423.376 42.3881 422.816C42.7081 422.24 43.1481 421.792 43.7081 421.472C44.2681 421.136 44.8841 420.968 45.5561 420.968C46.2601 420.968 46.8921 421.136 47.4521 421.472C48.0121 421.792 48.4441 422.232 48.7481 422.792C49.0681 423.352 49.2281 423.984 49.2281 424.688C49.2281 425.376 49.0681 426 48.7481 426.56C48.4441 427.12 48.0121 427.56 47.4521 427.88C46.8921 428.2 46.2601 428.36 45.5561 428.36C44.8841 428.36 44.2681 428.2 43.7081 427.88C43.1481 427.56 42.7081 427.12 42.3881 426.56C42.0681 426 41.9081 425.376 41.9081 424.688Z" fill="#707073"/>
</g>
<path id="5" d="M68 313C134.04 313 169.05 267 235.089 267C301.129 267 325.236 267 393.984 239C506.894 193.013 532.846 159 628 159" stroke="#55BEF2" stroke-width="3" stroke-linecap="square"/>
<path id="4" d="M66 313C66 313 118.22 312.823 151.192 307.5C193.691 300.639 216.906 276.62 257.53 276.62C298.154 276.62 367.134 314.5 435.926 302C504.717 289.5 630 226 630 226" stroke="#C0F255" stroke-width="3"/>
<path id="3" d="M66 372.205C99.2569 372.205 124.313 378.214 179.893 357.184C235.473 336.155 237.751 308.616 380.346 288.087C522.94 267.558 574.42 226 630 226" stroke="#F29F3D" stroke-width="3"/>
<path id="2" d="M68 349C134.029 349 142.464 307.078 208.493 307.078C274.522 307.078 311.367 291.484 357.059 272.768C428.072 243.679 505.914 293.832 627 185" stroke="#6161F2" stroke-width="3" stroke-linecap="square"/>
<path id="1" d="M66 357C88.7787 357 140.665 353.015 172.686 347.773C424.536 306.544 515.651 153.176 630 159.171" stroke="#00C853" stroke-width="3"/>
<path id="A" d="M68 95.5368C90.3089 95.5368 108.579 66.217 135.149 61.9831C149.311 59.7264 160.656 64.1185 173.313 70.9429C185.971 77.7674 183.493 80.7143 211.96 85.9754C235.452 90.3171 241.597 105.263 264.617 107.062C287.637 108.86 298.284 52.5807 322.587 57.2787C346.891 61.9767 351.747 49.8302 374.593 72.8504C397.439 95.8706 418.892 71.3293 447.224 72.8032C486.862 74.8651 503.252 105.633 533.756 112.084C564.26 118.536 603.21 106.625 628 106.625" stroke="#8A97FA" stroke-width="3" stroke-linecap="square" stroke-linejoin="round"/>
<path id="T" d="M68 184H628" stroke="#DC57FA" stroke-width="3" stroke-linecap="square"/>
<path id="Vector 528" d="M71.3648 183.12L61.4741 177.794C60.8079 177.435 60 177.918 60 178.674V189.326C60 190.082 60.8079 190.565 61.4741 190.206L71.3648 184.88C72.066 184.503 72.066 183.497 71.3648 183.12Z" fill="#DC57FA"/>
</g>
</g>
</svg>
