<svg preserveAspectRatio="none" width="100%" height="100%" overflow="visible" style="display: block;" viewBox="0 0 72 72" fill="none" xmlns="http://www.w3.org/2000/svg">
<g id="Alerts">
<circle id="Ellipse 444" cx="36" cy="36" r="35.5" stroke="var(--stroke-0, #46464A)"/>
<g id="ic_add_alert">
<path id="Union" d="M36 15.75C36.6904 15.75 37.25 16.3096 37.25 17V19.0615C38.2001 19.1522 39.1207 19.3429 40 19.627V22.29C38.767 21.7816 37.4165 21.5 36 21.5C30.201 21.5 25.5 26.201 25.5 32V39.0352L21.5 43.0352V44.5H50.5V43.0352L46.5 39.0352V35H49V38L52.5605 41.5605C52.8418 41.8418 52.9999 42.2234 53 42.6211V45.5C53 46.3284 52.3284 47 51.5 47H42.25V48C42.25 51.4518 39.4518 54.25 36 54.25C32.5482 54.25 29.75 51.4518 29.75 48V47H20.5C19.6716 47 19 46.3284 19 45.5V42.6211C19.0001 42.2234 19.1582 41.8418 19.4395 41.5605L23 38V32C23 25.242 28.1567 19.6886 34.75 19.0596V17C34.75 16.3096 35.3096 15.75 36 15.75ZM32.25 48C32.25 50.0711 33.9289 51.75 36 51.75C38.0711 51.75 39.75 50.0711 39.75 48V47H32.25V48ZM48 19.75C48.6904 19.75 49.25 20.3096 49.25 21V24.75H53C53.6904 24.75 54.25 25.3096 54.25 26C54.25 26.6904 53.6904 27.25 53 27.25H49.25V31C49.25 31.6904 48.6904 32.25 48 32.25C47.3096 32.25 46.75 31.6904 46.75 31V27.25H43C42.3096 27.25 41.75 26.6904 41.75 26C41.75 25.3096 42.3096 24.75 43 24.75H46.75V21C46.75 20.3096 47.3096 19.75 48 19.75Z" fill="var(--fill-0, white)"/>
</g>
</g>
</svg>
