<svg width="80" height="80" viewBox="0 0 80 80" fill="none" xmlns="http://www.w3.org/2000/svg">
<path d="M40 10C45.1937 10 49.727 12.8281 52.1436 17.0283C52.4267 17.0099 52.7122 17 53 17C60.1797 17 66 22.8203 66 30C66 30.1707 65.9958 30.3406 65.9893 30.5098C69.4902 31.7424 72 35.0775 72 39C72 43.6217 68.516 47.4267 64.0312 47.9385L59.4453 63.9922C58.556 67.1043 55.7113 69.2498 52.4746 69.25H27.5254C24.2887 69.2498 21.444 67.1043 20.5547 63.9922L15.9678 47.9385C11.4835 47.4263 8 43.6214 8 39C8 35.0778 10.5093 31.7426 14.0098 30.5098C14.0032 30.3407 14 30.1707 14 30C14 22.8203 19.8203 17 27 17C27.2874 17 27.5727 17.0099 27.8555 17.0283C30.272 12.8278 34.8061 10 40 10ZM22.959 63.3047C23.5416 65.3437 25.4048 66.7498 27.5254 66.75H29.4346L25.1729 48H18.5859L22.959 63.3047ZM31.998 66.75H38.75V48H27.7363L31.998 66.75ZM41.25 66.75H47.957L51.3662 48H41.25V66.75ZM50.4971 66.75H52.4746C54.5952 66.7498 56.4584 65.3437 57.041 63.3047L61.4141 48H53.9062L50.4971 66.75ZM40 12.5C35.7364 12.5 32.0111 14.8188 30.0225 18.2754L29.2461 19.624L27.6934 19.5234C27.4608 19.5083 27.2298 19.5 27 19.5C21.201 19.5 16.5 24.201 16.5 30C16.5 30.1389 16.5026 30.2766 16.5078 30.4131L16.5791 32.2559L14.8398 32.8682C12.3082 33.76 10.5 36.1719 10.5 39C10.5 42.5899 13.4101 45.5 17 45.5H63C66.5899 45.5 69.5 42.5899 69.5 39C69.5 36.1717 67.6915 33.7598 65.1592 32.8682L63.4199 32.2559L63.4912 30.4131C63.4969 30.2664 63.5 30.13 63.5 30C63.5 24.201 58.799 19.5 53 19.5C52.7696 19.5 52.5381 19.5083 52.3057 19.5234L50.7529 19.624L49.9766 18.2754C47.9878 14.8187 44.2631 12.5 40 12.5ZM33.8818 32.4414C34.1712 31.8626 34.8491 31.6066 35.4414 31.8311L35.5586 31.8818L39.5586 33.8818L39.6709 33.9453C40.2055 34.2845 40.4072 34.98 40.1182 35.5586C39.8288 36.1374 39.1509 36.3934 38.5586 36.1689L38.4414 36.1182L34.4414 34.1182L34.3291 34.0547C33.7945 33.7155 33.5928 33.02 33.8818 32.4414ZM27.3066 26.96C27.8811 26.577 28.6571 26.7322 29.04 27.3066C29.423 27.8811 29.2678 28.6571 28.6934 29.04L25.6934 31.04C25.1189 31.423 24.3429 31.2678 23.96 30.6934C23.577 30.1189 23.7322 29.3429 24.3066 28.96L27.3066 26.96ZM41 21.75C41.6904 21.75 42.25 22.3096 42.25 23C42.25 23.6904 41.6904 24.25 41 24.25H37C36.3096 24.25 35.75 23.6904 35.75 23C35.75 22.3096 36.3096 21.75 37 21.75H41Z" fill="#999999"/>
</svg>

