<svg width="20" height="20" viewBox="0 0 20 20" fill="none" xmlns="http://www.w3.org/2000/svg">
<g id="Frame&#226;&#157;&#164;&#239;&#184;&#143;">
<g id="Frame">
<g id="Calories icon">
<path id="Vector" d="M7.6999 1.66797L8.30362 1.93519C9.51106 2.47953 10.481 3.10304 11.1936 3.77604C11.8171 4.36987 12.2624 5.03297 12.5 5.73566C12.8662 6.79465 12.7573 7.81405 12.589 8.6553C13.5194 8.19014 13.7371 6.73527 13.7371 6.73527C13.7371 6.73527 17.6959 8.94232 16.4588 13.6434C15.7165 16.4542 13.0839 18.107 11.7478 18.107C11.9754 15.5931 9.09538 15.415 9.0459 12.0797C8.12547 12.9308 6.03719 16.4344 7.41288 18.3346C1.97939 16.6521 2.93941 9.82315 4.79016 7.40827C4.9782 8.3188 5.60172 8.82355 5.60172 8.82355C5.93822 8.47715 6.55184 7.78436 7.08628 6.91342C8.11557 5.23091 8.39269 3.67707 7.90774 2.30138L7.6999 1.66797Z" fill="#FF5E00"/>
</g>
</g>
</g>
</svg>
