<svg preserveAspectRatio="none" width="100%" height="100%" overflow="visible" style="display: block;" viewBox="0 0 108 40.8919" fill="none" xmlns="http://www.w3.org/2000/svg">
<g id="Time">
<g id="9:41">
<path d="M32.6406 32.5137C38.0166 32.5137 41.21 28.3096 41.21 21.1904C41.21 18.5098 40.6973 16.2539 39.7158 14.5107C38.2949 11.8008 35.8486 10.3359 32.7578 10.3359C28.1582 10.3359 24.9062 13.4268 24.9062 17.7627C24.9062 21.835 27.8359 24.7939 31.8643 24.7939C34.3398 24.7939 36.3467 23.6367 37.3428 21.6299H37.3867C37.3867 21.6299 37.4453 21.6299 37.46 21.6299C37.4893 21.6299 37.5918 21.6299 37.5918 21.6299C37.5918 26.4639 35.7607 29.3496 32.6699 29.3496C30.8535 29.3496 29.4473 28.3535 28.9639 26.7568H25.1992C25.8291 30.2285 28.7734 32.5137 32.6406 32.5137ZM32.7725 21.791C30.3408 21.791 28.6123 20.0625 28.6123 17.6455C28.6123 15.2871 30.4287 13.4854 32.7871 13.4854C35.1455 13.4854 36.9619 15.3164 36.9619 17.7041C36.9619 20.0625 35.1895 21.791 32.7725 21.791Z" fill="var(--fill-0, white)"/>
<path d="M47.3922 32.3086C48.7838 32.3086 49.7359 31.3125 49.7359 29.9941C49.7359 28.6611 48.7838 27.6797 47.3922 27.6797C46.0152 27.6797 45.0484 28.6611 45.0484 29.9941C45.0484 31.3125 46.0152 32.3086 47.3922 32.3086ZM47.3922 21.3223C48.7838 21.3223 49.7359 20.3408 49.7359 19.0225C49.7359 17.6895 48.7838 16.708 47.3922 16.708C46.0152 16.708 45.0484 17.6895 45.0484 19.0225C45.0484 20.3408 46.0152 21.3223 47.3922 21.3223Z" fill="var(--fill-0, white)"/>
<path d="M63.4475 32.001H67.0656V28.0605H69.9221V24.8672H67.0656V10.8633H61.7336C57.9982 16.4883 55.0246 21.1904 53.1203 24.6914V28.0605H63.4475V32.001ZM56.6213 24.7354C59.0822 20.3994 61.2795 16.9277 63.301 13.9395H63.5061V24.9551H56.6213V24.7354Z" fill="var(--fill-0, white)"/>
<path d="M77.9793 32.001H81.7586V10.8633H77.9939L72.4715 14.7305V18.3633L77.7303 14.6719H77.9793V32.001Z" fill="var(--fill-0, white)"/>
</g>
</g>
</svg>
