<svg preserveAspectRatio="none" width="100%" height="100%" overflow="visible" style="display: block;" viewBox="0 0 80 80" fill="none" xmlns="http://www.w3.org/2000/svg">
<g id="Icon" clip-path="url(#clip0_0_468)">
<circle id="Ellipse 396" cx="40" cy="40" r="40" fill="var(--fill-0, #F7F7F7)"/>
<g id="ic_recipe">
<path id="Vector" d="M27.5401 49V42.1318C26.627 41.9236 25.7613 41.5152 24.9945 40.931C24.2278 40.3468 23.5757 39.5987 23.077 38.7313C22.5784 37.8639 22.2435 36.8949 22.0921 35.882C21.9408 34.8691 21.9762 33.833 22.1962 32.8355C22.4778 31.5573 23.0563 30.3815 23.8751 29.4235C24.6939 28.4656 25.7247 27.7583 26.8666 27.3711C28.0085 26.9838 29.2223 26.9299 30.3888 27.2146C31.5553 27.4993 32.6346 28.1129 33.5209 28.9951C34.0046 27.5312 34.8858 26.2666 36.0449 25.373C37.2041 24.4793 38.5849 24 40 24C41.4151 24 42.7959 24.4793 43.9551 25.373C45.1142 26.2666 45.9954 27.5312 46.4791 28.9951C47.3654 28.1129 48.4447 27.4993 49.6112 27.2146C50.7777 26.9299 51.9915 26.9838 53.1334 27.3711C54.2753 27.7583 55.3061 28.4656 56.1249 29.4235C56.9437 30.3815 57.5222 31.5573 57.8038 32.8355C58.0238 33.833 58.0592 34.8691 57.9079 35.882C57.7565 36.8949 57.4216 37.8639 56.923 38.7313C56.4243 39.5987 55.7722 40.3468 55.0055 40.931C54.2387 41.5152 53.373 41.9236 52.4599 42.1318V49M27.5401 49V52.952C27.5401 53.7604 27.8318 54.5357 28.3511 55.1073C28.8703 55.6789 29.5746 56 30.309 56H49.691C50.4254 56 51.1296 55.6789 51.6489 55.1073C52.1682 54.5357 52.4599 53.7604 52.4599 52.952V49M27.5401 49H52.4599" stroke="var(--stroke-0, #212121)" stroke-width="2.5" stroke-linecap="round" stroke-linejoin="round"/>
</g>
</g>
<defs>
<clipPath id="clip0_0_468">
<rect width="80" height="80" fill="white"/>
</clipPath>
</defs>
</svg>
