<svg width="80" height="80" viewBox="0 0 80 80" fill="none" xmlns="http://www.w3.org/2000/svg">
<path d="M65.3227 43.7121C60.5162 48.5186 53.8721 50.3663 47.6519 49.2571L41.2369 54.5051C39.1422 56.219 36.2906 56.4575 33.9911 55.2875L29.3576 59.921C30.9652 62.3476 30.6999 65.6495 28.5621 67.7875C26.1214 70.2282 22.1641 70.2281 19.7233 67.7875L12.6522 60.7165C10.2115 58.2757 10.2115 54.3184 12.6522 51.8776C14.7903 49.7398 18.0922 49.4744 20.5188 51.0822L25.2662 46.3347C24.3281 44.1163 24.6356 41.4812 26.2454 39.5136L31.4941 33.0993C30.3846 26.8789 32.2317 20.2345 37.0384 15.4278C44.8489 7.61732 57.5122 7.61733 65.3227 15.4278C73.1332 23.2383 73.1332 35.9016 65.3227 43.7121ZM63.5549 41.9443C70.3891 35.1101 70.3891 24.0298 63.5549 17.1956C56.7208 10.3614 45.6404 10.3614 38.8062 17.1956C34.6022 21.3996 32.9831 27.2096 33.9552 32.6601L34.1568 33.7926L33.429 34.682L28.1803 41.0963L28.0574 41.2538C26.8727 42.8501 26.9837 45.0674 28.3211 46.5377L28.4586 46.6821L34.0685 52.292C35.5347 53.7582 37.8473 53.9173 39.4967 52.6932L39.6542 52.5703L46.0692 47.3222L46.9586 46.5944L48.0911 46.796C53.5412 47.7678 59.351 46.1483 63.5549 41.9443ZM46.8785 24.4434C46.0649 25.2568 44.7463 25.2569 43.9327 24.4434C43.1192 23.6299 43.1194 22.3112 43.9327 21.4976C44.7463 20.684 46.0656 20.6834 46.8792 21.4969C47.6928 22.3105 47.6921 23.6298 46.8785 24.4434ZM26.7944 66.0198C28.2585 64.5554 28.2585 62.1809 26.7944 60.7165L27.6782 59.8326L26.7944 58.9487L31.992 53.7511L26.6887 48.4478L21.4911 53.6454L20.6072 52.7615L19.7233 53.6454C18.2589 52.181 15.8845 52.1812 14.42 53.6454C12.9555 55.1099 12.9555 57.4843 14.42 58.9487L21.4911 66.0198C22.9555 67.484 25.33 67.4841 26.7944 66.0198ZM53.9503 22.0866C53.1367 22.9002 51.8174 22.8995 51.0038 22.0859C50.1904 21.2723 50.1903 19.9536 51.0038 19.1401C51.8173 18.3266 53.136 18.3268 53.9496 19.1401C54.7632 19.9537 54.7639 21.273 53.9503 22.0866ZM52.7716 30.3364C51.958 31.1498 50.6386 31.1493 49.8251 30.3357C49.0118 29.5222 49.0118 28.2035 49.8251 27.3899C50.6386 26.5764 51.958 26.5759 52.7716 27.3892C53.5852 28.2028 53.5852 29.5228 52.7716 30.3364Z" fill="#999999"/>
</svg>

