<svg width="24" height="24" viewBox="0 0 24 24" fill="none" xmlns="http://www.w3.org/2000/svg">
<rect width="24" height="24" fill="#F5F5F5"/>
<g id="Frame">
<rect width="393" height="852" transform="translate(-32 -351)" fill="white"/>
<g id="Container">
<g id="Cleaning Icon">
<path id="Union" d="M19.7139 18.3994C20.4097 18.3994 21.0244 18.7281 21.5459 19.2148C21.8686 19.5163 21.8861 20.0218 21.585 20.3447C21.2835 20.6677 20.7771 20.6852 20.4541 20.3838C20.1186 20.0707 19.8751 19.999 19.7139 19.999C19.5526 19.9992 19.3098 20.071 18.9746 20.3838C18.4531 20.8705 17.8384 21.1992 17.1426 21.1992C16.4469 21.1991 15.8329 20.8704 15.3115 20.3838C14.9759 20.0706 14.7326 19.999 14.5713 19.999C14.4101 19.9991 14.1673 20.071 13.832 20.3838C13.3105 20.8705 12.6958 21.1992 12 21.1992C11.3042 21.1992 10.6895 20.8705 10.168 20.3838C9.83264 20.0709 9.58994 19.9991 9.42871 19.999C9.26742 19.999 9.02407 20.0706 8.68848 20.3838C8.16706 20.8704 7.55314 21.1991 6.85742 21.1992C6.1616 21.1992 5.54687 20.8705 5.02539 20.3838C4.69017 20.071 4.44739 19.9991 4.28613 19.999C4.12486 19.999 3.88142 20.0707 3.5459 20.3838C3.2229 20.6852 2.7165 20.6677 2.41504 20.3447C2.11393 20.0218 2.13147 19.5163 2.4541 19.2148C2.97558 18.7281 3.59031 18.3994 4.28613 18.3994C4.98179 18.3995 5.5958 18.7282 6.11719 19.2148C6.45269 19.5279 6.69616 19.5996 6.85742 19.5996C7.01865 19.5995 7.26146 19.5276 7.59668 19.2148C8.11816 18.7281 8.73289 18.3994 9.42871 18.3994C10.1245 18.3995 10.7383 18.7282 11.2598 19.2148C11.5954 19.528 11.8387 19.5996 12 19.5996C12.1613 19.5996 12.4046 19.5281 12.7402 19.2148C13.2617 18.7282 13.8755 18.3995 14.5713 18.3994C15.2671 18.3994 15.8818 18.7281 16.4033 19.2148C16.7385 19.5276 16.9813 19.5995 17.1426 19.5996C17.3038 19.5996 17.5473 19.5279 17.8828 19.2148C18.4042 18.7282 19.0182 18.3996 19.7139 18.3994ZM19.7139 15.3994C20.4097 15.3994 21.0244 15.7281 21.5459 16.2148C21.8686 16.5163 21.8861 17.0218 21.585 17.3447C21.2835 17.6677 20.7771 17.6853 20.4541 17.3838C20.1186 17.0707 19.8751 16.999 19.7139 16.999C19.5526 16.9992 19.3098 17.071 18.9746 17.3838C18.4531 17.8705 17.8384 18.1992 17.1426 18.1992C16.4469 18.1991 15.8329 17.8704 15.3115 17.3838C14.9759 17.0706 14.7326 16.999 14.5713 16.999C14.4101 16.9991 14.1673 17.0709 13.832 17.3838C13.3105 17.8705 12.6958 18.1992 12 18.1992C11.3042 18.1992 10.6895 17.8705 10.168 17.3838C9.83265 17.071 9.58994 16.9991 9.42871 16.999C9.26742 16.999 9.02408 17.0706 8.68848 17.3838C8.16705 17.8705 7.55315 18.1991 6.85742 18.1992C6.16159 18.1992 5.54688 17.8705 5.02539 17.3838C4.69019 17.071 4.44738 16.9991 4.28613 16.999C4.12486 16.999 3.88143 17.0707 3.5459 17.3838C3.2229 17.6853 2.71651 17.6677 2.41504 17.3447C2.11394 17.0218 2.13145 16.5162 2.4541 16.2148C2.97559 15.7281 3.59031 15.3994 4.28613 15.3994C4.98178 15.3995 5.59581 15.7282 6.11719 16.2148C6.45271 16.5279 6.69616 16.5996 6.85742 16.5996C7.01865 16.5995 7.26144 16.5276 7.59668 16.2148C8.11817 15.7281 8.73288 15.3994 9.42871 15.3994C10.1245 15.3995 10.7383 15.7282 11.2598 16.2148C11.5954 16.5281 11.8387 16.5996 12 16.5996C12.1613 16.5996 12.4046 16.5281 12.7402 16.2148C13.2617 15.7282 13.8755 15.3995 14.5713 15.3994C15.2671 15.3994 15.8818 15.7281 16.4033 16.2148C16.7385 16.5276 16.9813 16.5995 17.1426 16.5996C17.3038 16.5996 17.5473 16.528 17.8828 16.2148C18.4042 15.7282 19.0182 15.3996 19.7139 15.3994ZM10.5762 3.28809C11.1069 2.50281 12.2639 2.503 12.7949 3.28809L15.5576 7.375C15.5664 7.38779 15.5744 7.40118 15.583 7.41406L15.6445 7.50391H15.6416C16.1031 8.22965 16.3711 9.09089 16.3711 10.0146C16.3709 12.6023 14.2733 14.7002 11.6855 14.7002C9.0979 14.7001 7.00018 12.6023 7 10.0146C7.00003 9.09075 7.26882 8.22972 7.73047 7.50391H7.72852L7.75781 7.45996C7.78754 7.41434 7.81738 7.36872 7.84863 7.32422L10.5762 3.28809ZM9.40137 8.37402L9.39258 8.3877L9.38281 8.40137C9.37281 8.41561 9.35919 8.43573 9.32812 8.4834L9.31152 8.50977C9.06895 8.89121 8.91633 9.33253 8.88184 9.80859L8.87402 10.0146C8.8742 11.5673 10.1331 12.8261 11.6855 12.8262C13.1411 12.8262 14.3385 11.7196 14.4824 10.3018L14.4971 10.0146C14.497 9.45852 14.3361 8.94463 14.0596 8.50977L14.0361 8.47266L14.0303 8.46484L14.0244 8.45605C14.0141 8.44057 14.0056 8.42662 14 8.41797C13.9973 8.41379 13.9948 8.40977 13.9932 8.40723L13.9922 8.40625L11.6855 4.99316L9.40137 8.37402Z" fill="black"/>
</g>
</g>
</g>
</svg>
