<svg preserveAspectRatio="none" width="100%" height="100%" overflow="visible" style="display: block;" viewBox="0 0 635 56" fill="none" xmlns="http://www.w3.org/2000/svg">
<g id="Group 239">
<path id="Vector 688" d="M622.614 0.750031H631.138C632.856 0.750031 634.25 2.14359 634.25 3.86234V52.1377C634.25 53.8565 632.856 55.25 631.138 55.25H622.614C622.022 55.25 621.443 55.0807 620.943 54.7627L616.971 52.2344C613.131 49.7901 608.674 48.4912 604.123 48.4912H485.561C481.667 48.4912 477.783 48.094 473.97 47.3047L457.604 43.916C453.69 43.106 449.704 42.6983 445.708 42.6983H43.4268C34.3694 42.6982 23.6018 40.3088 15.0957 37.1924C10.8434 35.6345 7.19062 33.9074 4.61621 32.2295C3.32741 31.3895 2.33695 30.5795 1.67676 29.8311C1.00513 29.0697 0.750001 28.4573 0.75 28C0.75 27.5427 1.00513 26.9304 1.67676 26.169C2.33695 25.4206 3.32741 24.6105 4.61621 23.7705C7.19062 22.0927 10.8434 20.3656 15.0957 18.8076C23.6018 15.6912 34.3694 13.3018 43.4268 13.3018H445.708C449.704 13.3018 453.69 12.894 457.604 12.084L473.97 8.69534C477.783 7.90605 481.667 7.50882 485.561 7.50882H604.123C608.674 7.50882 613.131 6.21001 616.971 3.76566L620.943 1.23734C621.443 0.919384 622.022 0.750065 622.614 0.750031Z" stroke="var(--stroke-0, #212121)" stroke-width="1.5"/>
<path id="Vector 689" d="M622.614 0.75H631.138C632.857 0.750016 634.25 2.14357 634.25 3.8623V52.1377C634.25 53.8564 632.857 55.25 631.138 55.25H622.614C622.022 55.25 621.442 55.0807 620.943 54.7627L616.971 52.2344C613.132 49.79 608.675 48.4912 604.123 48.4912H485.561C481.667 48.4912 477.783 48.094 473.97 47.3047L457.603 43.916C453.69 43.1061 449.704 42.6982 445.708 42.6982H440.811V13.3018H445.708C449.704 13.3018 453.69 12.8939 457.603 12.084L473.97 8.69531C477.783 7.90603 481.667 7.50879 485.561 7.50879H604.123C608.675 7.50878 613.132 6.21003 616.971 3.76562L620.943 1.2373C621.442 0.91931 622.022 0.75 622.614 0.75Z" stroke="var(--stroke-0, #212121)" stroke-width="1.5"/>
<rect id="Rectangle 5265" x="542" y="7.00003" width="2" height="42" fill="var(--fill-0, #212121)"/>
<rect id="Rectangle 5266" x="568" y="7.00003" width="2" height="42" fill="var(--fill-0, #212121)"/>
</g>
</svg>
