<svg preserveAspectRatio="none" width="100%" height="100%" overflow="visible" style="display: block;" viewBox="0 0 38 20" fill="none" xmlns="http://www.w3.org/2000/svg">
<g id="Battery">
<g id="Union">
<mask id="path-1-inside-1_0_102" fill="white">
<path d="M31 0C33.2091 0 35 1.79086 35 4V5H36C37.1046 5 38 5.89543 38 7V13C38 14.1046 37.1046 15 36 15H35V16C35 18.2091 33.2091 20 31 20H4C1.79086 20 3.22133e-08 18.2091 0 16V4C0 1.79086 1.79086 1.20798e-08 4 0H31Z"/>
</mask>
<path d="M35 4H37H35ZM35 5H33V7H35V5ZM38 13H40V13H38ZM35 15V13H33V15H35ZM31 20V22V20ZM0 16H-2H0ZM4 0V-2V0ZM31 0V2C32.1046 2 33 2.89543 33 4H35H37C37 0.686292 34.3137 -2 31 -2V0ZM35 4H33V5H35H37V4H35ZM35 5V7H36V5V3H35V5ZM36 5V7H38H40C40 4.79086 38.2091 3 36 3V5ZM38 7H36V13H38H40V7H38ZM38 13H36V13V15V17C38.2091 17 40 15.2091 40 13H38ZM36 15V13H35V15V17H36V15ZM35 15H33V16H35H37V15H35ZM35 16H33C33 17.1046 32.1046 18 31 18V20V22C34.3137 22 37 19.3137 37 16H35ZM31 20V18H4V20V22H31V20ZM4 20V18C2.89543 18 2 17.1046 2 16H0H-2C-2 19.3137 0.686292 22 4 22V20ZM0 16H2V4H0H-2V16H0ZM0 4H2C2 2.89543 2.89543 2 4 2V0V-2C0.686292 -2 -2 0.686292 -2 4H0ZM4 0V2H31V0V-2H4V0Z" fill="var(--stroke-0, #212121)" mask="url(#path-1-inside-1_0_102)"/>
</g>
<rect id="Rectangle 5061" x="5" y="5" width="4" height="10" rx="1" fill="var(--fill-0, #212121)"/>
<rect id="Rectangle 5062" x="12" y="5" width="4" height="10" rx="1" fill="var(--fill-0, #212121)"/>
</g>
</svg>
