<svg width="16" height="16" viewBox="0 0 16 16" fill="none" xmlns="http://www.w3.org/2000/svg">
<g id="Frame&#226;&#157;&#164;&#239;&#184;&#143;">
<g id="Frame">
<g id="Frame_2">
<g id="Fats icon">
<path id="Union" d="M10.3904 12.6543C10.4068 12.6684 10.7236 12.5814 10.9626 12.4971C11.5905 12.2791 12.1716 11.9115 12.6589 11.4219C13.3104 10.7727 13.7209 10.0081 13.9177 9.08008C13.9762 8.80864 13.9808 8.74025 13.9832 8.22266C13.9832 7.6088 13.9661 7.48428 13.8279 7.02734C13.6825 6.55404 13.3617 5.98658 13.0291 5.62109C12.9457 5.53051 12.2291 4.73492 11.4333 3.85254C10.6368 2.96936 9.93611 2.20789 9.87476 2.1582C9.69197 2.01291 9.3968 1.95919 9.18823 2.03418C8.98684 2.10678 8.96722 2.12555 7.64819 3.56641L7.45679 3.7793L8.89038 5.36621C9.68013 6.23798 10.388 7.02775 10.4607 7.11914C10.7396 7.46597 11.0136 8.00047 11.1472 8.4668C11.351 9.16511 11.3775 10.0041 11.2205 10.7539C11.0986 11.3233 10.8354 11.9585 10.5261 12.4248C10.4466 12.5464 10.3858 12.6471 10.3904 12.6543ZM4.86694 13.7627C5.8137 14.0791 6.82644 14.0791 7.77319 13.7627C9.49541 13.1885 10.5802 11.6816 10.6365 9.78125C10.6458 9.43442 10.6412 9.32653 10.6013 9.08984C10.4959 8.48056 10.2243 7.88274 9.84937 7.4375C9.47669 6.99452 6.59154 3.83124 6.52124 3.78906C6.41581 3.72351 6.23586 3.71688 6.12573 3.77539C6.05075 3.81757 2.99448 7.13924 2.74097 7.45605C2.516 7.7396 2.28939 8.15962 2.17456 8.49707C2.02927 8.93061 1.98726 9.2612 2.00366 9.78613C2.06233 11.6842 3.14692 13.1909 4.86694 13.7627ZM6.98804 13.0293C6.71393 13.0902 6.01335 13.0898 5.71558 13.0312C5.05487 12.8977 4.48049 12.5912 3.9978 12.1133C3.41663 11.5345 3.1021 10.8593 3.0271 10.0273C2.96149 9.301 3.17731 8.5747 3.62476 8.01465C3.82864 7.75921 6.11832 5.26504 6.17456 5.23926C6.24958 5.20418 6.39258 5.20668 6.46753 5.24414C6.54486 5.28398 8.97302 7.96741 9.11597 8.16895C9.69702 9.00084 9.78834 10.0275 9.3689 11.0117C8.9307 12.0474 8.04244 12.7996 6.98804 13.0293ZM5.10132 12.1055C5.83951 12.4734 6.80063 12.4734 7.53882 12.1055C7.7798 11.9861 7.96257 11.8576 8.16382 11.6611C8.60908 11.2299 8.86441 10.6669 8.93237 9.97559C8.98155 9.4578 8.82732 8.9003 8.52515 8.50195C8.44325 8.39431 6.34023 6.06152 6.32007 6.05469C6.31538 6.05469 5.82761 6.5827 5.23706 7.22949C4.64659 7.8762 4.12826 8.45275 4.08374 8.51367C3.95967 8.68242 3.808 9.02637 3.75171 9.25586C3.71187 9.41521 3.69956 9.53518 3.7019 9.75781C3.70426 10.7889 4.23198 11.6719 5.10132 12.1055ZM5.18335 9.91504C4.98182 10.0532 4.69117 9.88197 4.69116 9.62891C4.69116 9.36878 5.00095 9.20256 5.20483 9.35254C5.31001 9.43212 5.35425 9.51422 5.35425 9.62891C5.35424 9.75076 5.30521 9.83302 5.18335 9.91504ZM6.3269 11.0938C6.18395 11.3069 5.90227 11.3024 5.76636 11.0869C5.70074 10.9815 5.715 10.7885 5.79468 10.7041C5.90242 10.5871 6.03874 10.5519 6.17456 10.6104C6.30111 10.6643 6.36206 10.7494 6.37378 10.8877C6.38077 10.9905 6.37372 11.0259 6.3269 11.0938Z" fill="black"/>
</g>
</g>
</g>
</g>
</svg>
