<svg preserveAspectRatio="none" width="100%" height="100%" overflow="visible" style="display: block;" viewBox="0 0 60 60" fill="none" xmlns="http://www.w3.org/2000/svg">
<g id="Btn_icon">
<circle id="Ellipse 211" cx="30" cy="30" r="30" fill="var(--fill-0, white)"/>
<g id="ic_like">
<path id="Vector" d="M16.5328 22.3394C16.8846 21.4866 17.4003 20.7116 18.0503 20.0589C18.7003 19.4061 19.472 18.8884 20.3212 18.5351C21.1705 18.1818 22.0808 18 23 18C23.9193 18 24.8295 18.1818 25.6788 18.5351C26.5281 18.8884 27.2998 19.4061 27.9498 20.0589L30 22.1177L32.0502 20.0589C33.363 18.7406 35.1435 18 37 18C38.8565 18 40.637 18.7406 41.9497 20.0589C43.2625 21.3772 44 23.1651 44 25.0295C44 26.8938 43.2625 28.6818 41.9497 30L31.4172 40.5769C30.6355 41.3619 29.3646 41.3619 28.5828 40.5769L18.0503 30C17.4003 29.3473 16.8846 28.5724 16.5328 27.7195C16.1811 26.8667 16 25.9526 16 25.0295C16 24.1063 16.1811 23.1923 16.5328 22.3394Z" fill="var(--fill-0, #DB4F4F)"/>
</g>
</g>
</svg>
