<svg preserveAspectRatio="none" width="100%" height="100%" overflow="visible" style="display: block;" viewBox="0 0 62.5 62.5" fill="none" xmlns="http://www.w3.org/2000/svg">
<g id="ic_steak">
<path id="Vector 499" d="M39.7619 7.8125C53.895 7.8125 58.5705 14.1684 57.7148 19.7299C56.37 28.4693 48.1104 25.4984 43.5815 33.2362C38.2338 42.3729 39.7619 54.6875 23.3369 54.6875C9.58571 54.6875 2.32815 42.7701 7.29385 28.4693C11.5197 16.299 23.3369 7.8125 39.7619 7.8125Z" stroke="var(--stroke-0, #212121)" stroke-width="1.95312"/>
<circle id="Ellipse 352" cx="5.20833" cy="5.20833" r="4.23177" transform="matrix(-1 0 0 1 52.0833 13.0208)" stroke="var(--stroke-0, #212121)" stroke-width="1.95312"/>
<path id="Vector 500" d="M37.7604 15.625C29.9479 15.625 18.2292 20.8333 15.1042 31.7708C11.1607 45.5729 22.7865 48.1771 28.6458 46.875" stroke="var(--stroke-0, #212121)" stroke-width="1.95312" stroke-linecap="round"/>
<path id="Vector 502" d="M24.7396 19.5312V35.1563" stroke="var(--stroke-0, #212121)" stroke-width="1.95312" stroke-linecap="round"/>
<path id="Vector 503" d="M32.5521 16.9271V28.6458" stroke="var(--stroke-0, #212121)" stroke-width="1.95312" stroke-linecap="round"/>
</g>
</svg>
