<svg preserveAspectRatio="none" width="100%" height="100%" overflow="visible" style="display: block;" viewBox="0 0 478.964 478.858" fill="none" xmlns="http://www.w3.org/2000/svg">
<path id="Ellipse 217" d="M254.198 471.459C254.49 475.89 258.32 479.259 262.739 478.82C305.915 474.522 347.174 458.591 382.084 432.656C419.149 405.122 447.484 367.48 463.692 324.245C479.9 281.01 483.292 234.018 473.461 188.904C463.631 143.789 440.996 102.468 408.27 69.8959C375.544 37.3236 334.117 14.8828 288.957 5.26473C243.797 -4.35333 196.821 -0.740314 153.663 15.6705C110.505 32.0813 72.9966 60.5932 45.6366 97.7868C19.8666 132.819 4.12995 174.152 0.0350766 217.348C-0.383983 221.769 3.00338 225.583 7.43548 225.854V225.854C11.8676 226.125 15.6651 222.749 16.0947 218.33C19.9942 178.222 34.6527 139.855 58.5895 107.315C84.1164 72.6134 119.111 46.0118 159.378 30.7006C199.645 15.3893 243.473 12.0183 285.607 20.992C327.742 29.9656 366.393 50.9029 396.926 81.2929C427.46 111.683 448.578 150.235 457.75 192.327C466.922 234.419 463.757 278.263 448.635 318.601C433.513 358.939 407.077 394.059 372.495 419.748C340.068 443.838 301.77 458.677 261.682 462.765C257.264 463.215 253.906 467.028 254.198 471.459V471.459Z" fill="var(--fill-0, #F0F0F0)"/>
</svg>
