<svg width="16" height="16" viewBox="0 0 16 16" fill="none" xmlns="http://www.w3.org/2000/svg">
<g id="Frame&#226;&#157;&#164;&#239;&#184;&#143;">
<g id="Frame">
<g id="Frame_2">
<g id="Protein icon">
<path id="Union" d="M12.7807 8.7066C11.8742 9.61306 10.6213 9.961 9.44819 9.75206L8.237 10.7423C7.92232 10.9998 7.51701 11.0813 7.14595 10.9923L6.32629 11.8119C6.57095 12.3456 6.47486 12.9972 6.03557 13.4368C5.47085 14.0015 4.555 14.0014 3.99021 13.4368L2.65679 12.1033C2.09202 11.5386 2.09202 10.6227 2.65679 10.058C3.09617 9.61889 3.74669 9.52304 4.28024 9.76726L5.14064 8.90685C5.08678 8.56376 5.17454 8.20143 5.40926 7.91455L6.40018 6.70405C6.1911 5.53084 6.53909 4.27808 7.44564 3.37153C8.91898 1.89836 11.3074 1.89826 12.7807 3.37153C14.2538 4.84481 14.2538 7.23331 12.7807 8.7066ZM5.32432 12.7255C5.4958 12.5536 5.49525 12.2751 5.32363 12.1033C5.1274 11.907 5.12746 11.5885 5.32363 11.3921L6.30419 10.4115L5.68202 9.78935L4.70146 10.7699C4.50515 10.966 4.18662 10.9658 3.99021 10.7699C3.81844 10.5981 3.53996 10.5977 3.36804 10.7692C3.19615 10.9411 3.19615 11.2202 3.36804 11.3921L4.70146 12.7255C4.87336 12.8972 5.15249 12.8973 5.32432 12.7255Z" fill="black"/>
</g>
</g>
</g>
</g>
</svg>
