<svg width="80" height="80" viewBox="0 0 80 80" fill="none" xmlns="http://www.w3.org/2000/svg">
<path d="M50.8953 10C68.9858 10 74.9705 18.1356 73.8751 25.2542C72.1537 36.4407 61.5815 32.6379 55.7844 42.5424C48.9394 54.2373 50.8953 70 29.8714 70C12.2699 70 2.98019 54.7458 9.33628 36.4407C14.7454 20.8627 29.8714 10 50.8953 10Z" stroke="#212121" stroke-width="2.5"/>
<circle cx="6.66667" cy="6.66667" r="5.41667" transform="matrix(-1 0 0 1 66.666 16.6666)" stroke="#212121" stroke-width="2.5"/>
<path d="M48.334 20C38.334 20 23.334 26.6667 19.334 40.6666C14.2864 58.3333 29.1673 61.6667 36.6673 60" stroke="#212121" stroke-width="2.5" stroke-linecap="round"/>
<path d="M31.666 25V45" stroke="#212121" stroke-width="2.5" stroke-linecap="round"/>
<path d="M41.666 21.6666V36.6666" stroke="#212121" stroke-width="2.5" stroke-linecap="round"/>
</svg>

