<svg width="80" height="80" viewBox="0 0 80 80" fill="none" xmlns="http://www.w3.org/2000/svg">
<circle cx="39.9993" cy="40" r="12.0833" stroke="#999999" stroke-width="2.5"/>
<path d="M40.001 9.58337C56.7803 9.58355 70.4169 23.4145 70.417 40.5189C70.417 46.8557 68.5451 52.7429 65.335 57.6449C63.5151 60.4238 60.2795 62.0192 57.0166 61.6732C52.7943 61.2253 47.1285 60.5627 42.6846 65.0795C42.2915 65.479 41.7783 66.0425 41.373 66.4935C41.1683 66.7214 40.9865 66.9247 40.8564 67.0717C40.7914 67.1452 40.7393 67.2053 40.7031 67.2465C40.6852 67.2669 40.6707 67.2824 40.6611 67.2933C40.6565 67.2987 40.6529 67.3032 40.6504 67.306C40.6491 67.3075 40.6481 67.3092 40.6475 67.3099L40.6465 67.3109C39.6882 68.4049 39.205 69.0681 38.3535 69.5717C37.5508 70.0463 36.3116 70.4163 33.8721 70.4164C28.2311 70.4164 22.1659 66.9855 17.4609 61.4164C12.7749 55.8695 9.58398 48.3615 9.58398 40.5189C9.58412 23.4144 23.2215 9.58337 40.001 9.58337Z" stroke="#999999" stroke-width="2.5"/>
</svg>

