<svg width="660" height="196" viewBox="0 0 660 196" fill="none" xmlns="http://www.w3.org/2000/svg">
<g id="Professional">
<g id="Sensors">
<path id="Vector 688" d="M647.165 69.75H656C657.795 69.75 659.25 71.2051 659.25 73V123C659.25 124.795 657.795 126.25 656 126.25H647.165C646.624 126.25 646.093 126.115 645.619 125.859L645.42 125.742L641.299 123.119C637.328 120.592 632.718 119.25 628.011 119.25H505.142C501.109 119.25 497.087 118.839 493.138 118.021L476.166 114.51C472.117 113.672 467.993 113.25 463.858 113.25H47C37.6104 113.25 26.4492 110.774 17.6328 107.546C13.2254 105.932 9.43854 104.142 6.76855 102.402C5.432 101.532 4.40309 100.692 3.7168 99.9141C3.01902 99.1234 2.75 98.4831 2.75 98C2.75 97.5169 3.01902 96.8766 3.7168 96.0859C4.40309 95.3083 5.432 94.4684 6.76855 93.5977C9.43854 91.8583 13.2254 90.0681 17.6328 88.4541C26.4492 85.2256 37.6104 82.75 47 82.75H463.858C467.993 82.75 472.117 82.3279 476.166 81.4902L493.138 77.9785C497.087 77.1615 501.109 76.75 505.142 76.75H628.011C632.718 76.75 637.328 75.4079 641.299 72.8809L645.42 70.2578C645.941 69.926 646.547 69.75 647.165 69.75Z" stroke="#3D3D40" stroke-width="1.5"/>
<path id="Vector 689" d="M647.165 69.75H656C657.795 69.75 659.25 71.2051 659.25 73V123C659.25 124.795 657.795 126.25 656 126.25H647.165C646.547 126.25 645.941 126.074 645.42 125.742L641.299 123.119C637.328 120.592 632.718 119.25 628.011 119.25H505.142C501.109 119.25 497.087 118.839 493.138 118.021L476.166 114.51C472.117 113.672 467.993 113.25 463.858 113.25H458.75V82.75H463.858C467.993 82.75 472.117 82.3279 476.166 81.4902L493.138 77.9785C497.087 77.1615 501.109 76.75 505.142 76.75H628.011C632.718 76.75 637.328 75.4079 641.299 72.8809L645.42 70.2578C645.941 69.926 646.547 69.75 647.165 69.75Z" fill="#141414" stroke="#3D3D40" stroke-width="1.5"/>
<rect id="Rectangle 5264" x="569.75" y="76.75" width="16.5" height="42.5" stroke="#3D3D40" stroke-width="1.5"/>
<g id="Frame 1">
<path id="T1" d="M35.498 4.84V6.24H31.318V19.2H29.638V6.24H25.458V4.84H35.498ZM36.7546 8.46L36.7746 6.84L40.4546 4.84H41.6146V19.22H40.0146V6.74L36.7546 8.46Z" fill="#707073"/>
<path id="132.91&#194;&#176;" d="M0.996547 35.352L1.02055 33.408L5.43655 31.008H6.82855V48.264H4.90855V33.288L0.996547 35.352ZM12.2854 39.408C12.7334 38.864 13.2774 38.432 13.9174 38.112C14.5574 37.792 15.3174 37.632 16.1974 37.632C17.2214 37.632 18.1414 37.856 18.9574 38.304C19.7734 38.736 20.4134 39.352 20.8774 40.152C21.3414 40.952 21.5734 41.872 21.5734 42.912C21.5734 43.984 21.3174 44.944 20.8054 45.792C20.3094 46.64 19.6134 47.304 18.7174 47.784C17.8214 48.264 16.8054 48.504 15.6694 48.504C14.3414 48.504 13.1894 48.208 12.2134 47.616C11.2534 47.024 10.5894 46.184 10.2214 45.096L11.7094 44.376C12.0774 45.192 12.5894 45.816 13.2454 46.248C13.9174 46.68 14.7254 46.896 15.6694 46.896C16.4694 46.896 17.1574 46.736 17.7334 46.416C18.3254 46.08 18.7734 45.616 19.0774 45.024C19.3974 44.432 19.5574 43.744 19.5574 42.96C19.5574 41.792 19.2134 40.872 18.5254 40.2C17.8374 39.512 16.8854 39.168 15.6694 39.168C15.0454 39.168 14.5094 39.264 14.0614 39.456C13.6294 39.632 13.2134 39.912 12.8134 40.296L11.8294 39.144L18.1414 32.592H11.1814V31.008H20.6374V32.256L13.6054 39.48L12.2854 39.408ZM23.5417 48.264V46.968L30.0457 40.104C30.8617 39.24 31.4377 38.472 31.7737 37.8C32.1257 37.112 32.3017 36.408 32.3017 35.688C32.3017 34.664 32.0217 33.856 31.4617 33.264C30.9177 32.656 30.1337 32.352 29.1097 32.352C28.1177 32.352 27.3097 32.624 26.6857 33.168C26.0617 33.712 25.5577 34.496 25.1737 35.52L23.5657 34.896C23.9497 33.584 24.6377 32.568 25.6297 31.848C26.6377 31.112 27.8217 30.744 29.1817 30.744C30.2217 30.744 31.1257 30.96 31.8937 31.392C32.6777 31.808 33.2777 32.392 33.6937 33.144C34.1097 33.88 34.3177 34.712 34.3177 35.64C34.3177 36.584 34.0777 37.488 33.5977 38.352C33.1337 39.216 32.3497 40.224 31.2457 41.376L25.8697 47.016L25.5337 46.704H34.3657V48.264H23.5417ZM36.8197 47.208C36.8197 46.84 36.9317 46.544 37.1557 46.32C37.3957 46.08 37.7077 45.96 38.0917 45.96C38.4917 45.96 38.8037 46.08 39.0277 46.32C39.2677 46.544 39.3877 46.84 39.3877 47.208C39.3877 47.592 39.2677 47.904 39.0277 48.144C38.8037 48.384 38.4917 48.504 38.0917 48.504C37.7077 48.504 37.3957 48.384 37.1557 48.144C36.9317 47.904 36.8197 47.592 36.8197 47.208ZM51.108 38.48C51.108 39.3067 50.9614 40.1 50.668 40.86C50.3747 41.62 49.8947 42.46 49.228 43.38L45.708 48.2H43.808L48.128 42.56C48.368 42.2533 48.5747 41.96 48.748 41.68C48.9214 41.3867 49.1014 41.02 49.288 40.58L49.488 41.18C49.0614 41.7 48.548 42.1 47.948 42.38C47.3614 42.66 46.6947 42.8 45.948 42.8C45.068 42.8 44.2814 42.62 43.588 42.26C42.908 41.8867 42.3747 41.36 41.988 40.68C41.6014 39.9867 41.408 39.1667 41.408 38.22C41.408 37.2733 41.6147 36.4533 42.028 35.76C42.4414 35.0667 43.008 34.54 43.728 34.18C44.4614 33.8067 45.3014 33.62 46.248 33.62C47.208 33.62 48.0547 33.8133 48.788 34.2C49.5214 34.5733 50.088 35.1267 50.488 35.86C50.9014 36.5933 51.108 37.4667 51.108 38.48ZM49.408 38.22C49.408 37.54 49.2747 36.96 49.008 36.48C48.7414 35.9867 48.368 35.62 47.888 35.38C47.408 35.1267 46.8614 35 46.248 35C45.3014 35 44.5347 35.2867 43.948 35.86C43.3614 36.42 43.068 37.2067 43.068 38.22C43.068 39.2333 43.3547 40.0267 43.928 40.6C44.5147 41.16 45.288 41.44 46.248 41.44C46.8747 41.44 47.4214 41.3133 47.888 41.06C48.368 40.8067 48.7414 40.44 49.008 39.96C49.2747 39.4667 49.408 38.8867 49.408 38.22ZM52.8562 37.46L52.8762 35.84L56.5562 33.84H57.7162V48.22H56.1162V35.74L52.8562 37.46ZM62.3595 32.688C62.3595 33.36 62.5515 33.912 62.9355 34.344C63.3355 34.776 63.8555 34.992 64.4955 34.992C65.1355 34.992 65.6555 34.776 66.0555 34.344C66.4715 33.912 66.6795 33.36 66.6795 32.688C66.6795 31.984 66.4715 31.416 66.0555 30.984C65.6555 30.552 65.1355 30.336 64.4955 30.336C63.8555 30.336 63.3355 30.552 62.9355 30.984C62.5515 31.416 62.3595 31.984 62.3595 32.688ZM60.8475 32.688C60.8475 32 61.0075 31.376 61.3275 30.816C61.6475 30.24 62.0875 29.792 62.6475 29.472C63.2075 29.136 63.8235 28.968 64.4955 28.968C65.1995 28.968 65.8315 29.136 66.3915 29.472C66.9515 29.792 67.3835 30.232 67.6875 30.792C68.0075 31.352 68.1675 31.984 68.1675 32.688C68.1675 33.376 68.0075 34 67.6875 34.56C67.3835 35.12 66.9515 35.56 66.3915 35.88C65.8315 36.2 65.1995 36.36 64.4955 36.36C63.8235 36.36 63.2075 36.2 62.6475 35.88C62.0875 35.56 61.6475 35.12 61.3275 34.56C61.0075 34 60.8475 33.376 60.8475 32.688Z" fill="white"/>
</g>
<g id="Frame 2">
<path id="T3" d="M177.102 4.84V6.24H172.922V19.2H171.242V6.24H167.062V4.84H177.102ZM179.738 11.84C180.111 11.3867 180.565 11.0267 181.098 10.76C181.631 10.4933 182.265 10.36 182.998 10.36C183.851 10.36 184.618 10.5467 185.298 10.92C185.978 11.28 186.511 11.7933 186.898 12.46C187.285 13.1267 187.478 13.8933 187.478 14.76C187.478 15.6533 187.265 16.4533 186.838 17.16C186.425 17.8667 185.845 18.42 185.098 18.82C184.351 19.22 183.505 19.42 182.558 19.42C181.451 19.42 180.491 19.1733 179.678 18.68C178.878 18.1867 178.325 17.4867 178.018 16.58L179.258 15.98C179.565 16.66 179.991 17.18 180.538 17.54C181.098 17.9 181.771 18.08 182.558 18.08C183.225 18.08 183.798 17.9467 184.278 17.68C184.771 17.4 185.145 17.0133 185.398 16.52C185.665 16.0267 185.798 15.4533 185.798 14.8C185.798 13.8267 185.511 13.06 184.938 12.5C184.365 11.9267 183.571 11.64 182.558 11.64C182.038 11.64 181.591 11.72 181.218 11.88C180.858 12.0267 180.511 12.26 180.178 12.58L179.358 11.62L184.618 6.16H178.818V4.84H186.698V5.88L180.838 11.9L179.738 11.84Z" fill="#707073"/>
<path id="132.91&#194;&#176;_2" d="M143.997 35.352L144.021 33.408L148.437 31.008H149.829V48.264H147.909V33.288L143.997 35.352ZM155.285 39.408C155.733 38.864 156.277 38.432 156.917 38.112C157.557 37.792 158.317 37.632 159.197 37.632C160.221 37.632 161.141 37.856 161.957 38.304C162.773 38.736 163.413 39.352 163.877 40.152C164.341 40.952 164.573 41.872 164.573 42.912C164.573 43.984 164.317 44.944 163.805 45.792C163.309 46.64 162.613 47.304 161.717 47.784C160.821 48.264 159.805 48.504 158.669 48.504C157.341 48.504 156.189 48.208 155.213 47.616C154.253 47.024 153.589 46.184 153.221 45.096L154.709 44.376C155.077 45.192 155.589 45.816 156.245 46.248C156.917 46.68 157.725 46.896 158.669 46.896C159.469 46.896 160.157 46.736 160.733 46.416C161.325 46.08 161.773 45.616 162.077 45.024C162.397 44.432 162.557 43.744 162.557 42.96C162.557 41.792 162.213 40.872 161.525 40.2C160.837 39.512 159.885 39.168 158.669 39.168C158.045 39.168 157.509 39.264 157.061 39.456C156.629 39.632 156.213 39.912 155.813 40.296L154.829 39.144L161.141 32.592H154.181V31.008H163.637V32.256L156.605 39.48L155.285 39.408ZM166.542 48.264V46.968L173.046 40.104C173.862 39.24 174.438 38.472 174.774 37.8C175.126 37.112 175.302 36.408 175.302 35.688C175.302 34.664 175.022 33.856 174.462 33.264C173.918 32.656 173.134 32.352 172.11 32.352C171.118 32.352 170.31 32.624 169.686 33.168C169.062 33.712 168.558 34.496 168.174 35.52L166.566 34.896C166.95 33.584 167.638 32.568 168.63 31.848C169.638 31.112 170.822 30.744 172.182 30.744C173.222 30.744 174.126 30.96 174.894 31.392C175.678 31.808 176.278 32.392 176.694 33.144C177.11 33.88 177.318 34.712 177.318 35.64C177.318 36.584 177.078 37.488 176.598 38.352C176.134 39.216 175.35 40.224 174.246 41.376L168.87 47.016L168.534 46.704H177.366V48.264H166.542ZM179.82 47.208C179.82 46.84 179.932 46.544 180.156 46.32C180.396 46.08 180.708 45.96 181.092 45.96C181.492 45.96 181.804 46.08 182.028 46.32C182.268 46.544 182.388 46.84 182.388 47.208C182.388 47.592 182.268 47.904 182.028 48.144C181.804 48.384 181.492 48.504 181.092 48.504C180.708 48.504 180.396 48.384 180.156 48.144C179.932 47.904 179.82 47.592 179.82 47.208ZM194.108 38.48C194.108 39.3067 193.961 40.1 193.668 40.86C193.375 41.62 192.895 42.46 192.228 43.38L188.708 48.2H186.808L191.128 42.56C191.368 42.2533 191.575 41.96 191.748 41.68C191.921 41.3867 192.101 41.02 192.288 40.58L192.488 41.18C192.061 41.7 191.548 42.1 190.948 42.38C190.361 42.66 189.695 42.8 188.948 42.8C188.068 42.8 187.281 42.62 186.588 42.26C185.908 41.8867 185.375 41.36 184.988 40.68C184.601 39.9867 184.408 39.1667 184.408 38.22C184.408 37.2733 184.615 36.4533 185.028 35.76C185.441 35.0667 186.008 34.54 186.728 34.18C187.461 33.8067 188.301 33.62 189.248 33.62C190.208 33.62 191.055 33.8133 191.788 34.2C192.521 34.5733 193.088 35.1267 193.488 35.86C193.901 36.5933 194.108 37.4667 194.108 38.48ZM192.408 38.22C192.408 37.54 192.275 36.96 192.008 36.48C191.741 35.9867 191.368 35.62 190.888 35.38C190.408 35.1267 189.861 35 189.248 35C188.301 35 187.535 35.2867 186.948 35.86C186.361 36.42 186.068 37.2067 186.068 38.22C186.068 39.2333 186.355 40.0267 186.928 40.6C187.515 41.16 188.288 41.44 189.248 41.44C189.875 41.44 190.421 41.3133 190.888 41.06C191.368 40.8067 191.741 40.44 192.008 39.96C192.275 39.4667 192.408 38.8867 192.408 38.22ZM195.856 37.46L195.876 35.84L199.556 33.84H200.716V48.22H199.116V35.74L195.856 37.46ZM205.36 32.688C205.36 33.36 205.552 33.912 205.936 34.344C206.336 34.776 206.856 34.992 207.496 34.992C208.136 34.992 208.656 34.776 209.056 34.344C209.472 33.912 209.68 33.36 209.68 32.688C209.68 31.984 209.472 31.416 209.056 30.984C208.656 30.552 208.136 30.336 207.496 30.336C206.856 30.336 206.336 30.552 205.936 30.984C205.552 31.416 205.36 31.984 205.36 32.688ZM203.848 32.688C203.848 32 204.008 31.376 204.328 30.816C204.648 30.24 205.088 29.792 205.648 29.472C206.208 29.136 206.824 28.968 207.496 28.968C208.2 28.968 208.832 29.136 209.392 29.472C209.952 29.792 210.384 30.232 210.688 30.792C211.008 31.352 211.168 31.984 211.168 32.688C211.168 33.376 211.008 34 210.688 34.56C210.384 35.12 209.952 35.56 209.392 35.88C208.832 36.2 208.2 36.36 207.496 36.36C206.824 36.36 206.208 36.2 205.648 35.88C205.088 35.56 204.648 35.12 204.328 34.56C204.008 34 203.848 33.376 203.848 32.688Z" fill="white"/>
</g>
<g id="Frame 3">
<path id="T5" d="M289.131 4.84V6.24H284.951V19.2H283.271V6.24H279.091V4.84H289.131ZM291.345 15.98C291.612 16.6467 292.025 17.1667 292.585 17.54C293.159 17.9 293.832 18.08 294.605 18.08C295.592 18.08 296.352 17.78 296.885 17.18C297.432 16.58 297.705 15.7667 297.705 14.74C297.705 13.6733 297.425 12.84 296.865 12.24C296.305 11.6267 295.552 11.32 294.605 11.32C293.979 11.32 293.419 11.4533 292.925 11.72C292.445 11.9733 292.072 12.3067 291.805 12.72L290.505 12.42L291.445 4.84H298.645V6.16H292.805L292.065 11.64L291.765 11.24C292.139 10.8533 292.592 10.5467 293.125 10.32C293.659 10.0933 294.245 9.98 294.885 9.98C295.739 9.98 296.505 10.1733 297.185 10.56C297.879 10.9467 298.419 11.5 298.805 12.22C299.192 12.9267 299.385 13.7467 299.385 14.68C299.385 15.6267 299.185 16.46 298.785 17.18C298.399 17.8867 297.839 18.44 297.105 18.84C296.385 19.2267 295.545 19.42 294.585 19.42C293.465 19.42 292.499 19.1667 291.685 18.66C290.872 18.1533 290.339 17.4667 290.085 16.6L291.345 15.98Z" fill="#707073"/>
<path id="132.91&#194;&#176;_3" d="M255.997 35.352L256.021 33.408L260.437 31.008H261.829V48.264H259.909V33.288L255.997 35.352ZM267.285 39.408C267.733 38.864 268.277 38.432 268.917 38.112C269.557 37.792 270.317 37.632 271.197 37.632C272.221 37.632 273.141 37.856 273.957 38.304C274.773 38.736 275.413 39.352 275.877 40.152C276.341 40.952 276.573 41.872 276.573 42.912C276.573 43.984 276.317 44.944 275.805 45.792C275.309 46.64 274.613 47.304 273.717 47.784C272.821 48.264 271.805 48.504 270.669 48.504C269.341 48.504 268.189 48.208 267.213 47.616C266.253 47.024 265.589 46.184 265.221 45.096L266.709 44.376C267.077 45.192 267.589 45.816 268.245 46.248C268.917 46.68 269.725 46.896 270.669 46.896C271.469 46.896 272.157 46.736 272.733 46.416C273.325 46.08 273.773 45.616 274.077 45.024C274.397 44.432 274.557 43.744 274.557 42.96C274.557 41.792 274.213 40.872 273.525 40.2C272.837 39.512 271.885 39.168 270.669 39.168C270.045 39.168 269.509 39.264 269.061 39.456C268.629 39.632 268.213 39.912 267.813 40.296L266.829 39.144L273.141 32.592H266.181V31.008H275.637V32.256L268.605 39.48L267.285 39.408ZM278.542 48.264V46.968L285.046 40.104C285.862 39.24 286.438 38.472 286.774 37.8C287.126 37.112 287.302 36.408 287.302 35.688C287.302 34.664 287.022 33.856 286.462 33.264C285.918 32.656 285.134 32.352 284.11 32.352C283.118 32.352 282.31 32.624 281.686 33.168C281.062 33.712 280.558 34.496 280.174 35.52L278.566 34.896C278.95 33.584 279.638 32.568 280.63 31.848C281.638 31.112 282.822 30.744 284.182 30.744C285.222 30.744 286.126 30.96 286.894 31.392C287.678 31.808 288.278 32.392 288.694 33.144C289.11 33.88 289.318 34.712 289.318 35.64C289.318 36.584 289.078 37.488 288.598 38.352C288.134 39.216 287.35 40.224 286.246 41.376L280.87 47.016L280.534 46.704H289.366V48.264H278.542ZM291.82 47.208C291.82 46.84 291.932 46.544 292.156 46.32C292.396 46.08 292.708 45.96 293.092 45.96C293.492 45.96 293.804 46.08 294.028 46.32C294.268 46.544 294.388 46.84 294.388 47.208C294.388 47.592 294.268 47.904 294.028 48.144C293.804 48.384 293.492 48.504 293.092 48.504C292.708 48.504 292.396 48.384 292.156 48.144C291.932 47.904 291.82 47.592 291.82 47.208ZM306.108 38.48C306.108 39.3067 305.961 40.1 305.668 40.86C305.375 41.62 304.895 42.46 304.228 43.38L300.708 48.2H298.808L303.128 42.56C303.368 42.2533 303.575 41.96 303.748 41.68C303.921 41.3867 304.101 41.02 304.288 40.58L304.488 41.18C304.061 41.7 303.548 42.1 302.948 42.38C302.361 42.66 301.695 42.8 300.948 42.8C300.068 42.8 299.281 42.62 298.588 42.26C297.908 41.8867 297.375 41.36 296.988 40.68C296.601 39.9867 296.408 39.1667 296.408 38.22C296.408 37.2733 296.615 36.4533 297.028 35.76C297.441 35.0667 298.008 34.54 298.728 34.18C299.461 33.8067 300.301 33.62 301.248 33.62C302.208 33.62 303.055 33.8133 303.788 34.2C304.521 34.5733 305.088 35.1267 305.488 35.86C305.901 36.5933 306.108 37.4667 306.108 38.48ZM304.408 38.22C304.408 37.54 304.275 36.96 304.008 36.48C303.741 35.9867 303.368 35.62 302.888 35.38C302.408 35.1267 301.861 35 301.248 35C300.301 35 299.535 35.2867 298.948 35.86C298.361 36.42 298.068 37.2067 298.068 38.22C298.068 39.2333 298.355 40.0267 298.928 40.6C299.515 41.16 300.288 41.44 301.248 41.44C301.875 41.44 302.421 41.3133 302.888 41.06C303.368 40.8067 303.741 40.44 304.008 39.96C304.275 39.4667 304.408 38.8867 304.408 38.22ZM307.856 37.46L307.876 35.84L311.556 33.84H312.716V48.22H311.116V35.74L307.856 37.46ZM317.36 32.688C317.36 33.36 317.552 33.912 317.936 34.344C318.336 34.776 318.856 34.992 319.496 34.992C320.136 34.992 320.656 34.776 321.056 34.344C321.472 33.912 321.68 33.36 321.68 32.688C321.68 31.984 321.472 31.416 321.056 30.984C320.656 30.552 320.136 30.336 319.496 30.336C318.856 30.336 318.336 30.552 317.936 30.984C317.552 31.416 317.36 31.984 317.36 32.688ZM315.848 32.688C315.848 32 316.008 31.376 316.328 30.816C316.648 30.24 317.088 29.792 317.648 29.472C318.208 29.136 318.824 28.968 319.496 28.968C320.2 28.968 320.832 29.136 321.392 29.472C321.952 29.792 322.384 30.232 322.688 30.792C323.008 31.352 323.168 31.984 323.168 32.688C323.168 33.376 323.008 34 322.688 34.56C322.384 35.12 321.952 35.56 321.392 35.88C320.832 36.2 320.2 36.36 319.496 36.36C318.824 36.36 318.208 36.2 317.648 35.88C317.088 35.56 316.648 35.12 316.328 34.56C316.008 34 315.848 33.376 315.848 32.688Z" fill="white"/>
</g>
<g id="Frame 6">
<path id="Ambient" d="M553.716 20H551.936L550.276 15.86H543.796L542.156 20H540.396L546.076 5.76H547.956L553.716 20ZM544.456 14.18L544.396 14.34H549.676L549.596 14.16C548.976 12.62 547.856 9.78 546.996 7.58C546.176 9.78 545.076 12.62 544.456 14.18ZM565.886 9.44C568.286 9.44 569.426 11 569.426 13V20H567.826V13.16C567.826 11.56 567.026 10.88 565.666 10.88C564.366 10.88 563.026 11.88 563.026 14.36V20H561.426V13.16C561.426 11.56 560.606 10.88 559.266 10.88C558.006 10.88 556.626 11.88 556.626 14.36V20H555.026V9.68H556.546V11.2C557.166 10.14 558.146 9.44 559.526 9.44C561.166 9.44 562.206 10.24 562.706 11.38C563.346 10.24 564.426 9.44 565.886 9.44ZM576.883 9.44C579.783 9.44 581.683 11.54 581.683 14.84C581.683 18.14 579.783 20.24 576.883 20.24C575.343 20.24 574.123 19.58 573.343 18.4V20H571.823V5.76H573.423V11.16C574.203 10.06 575.383 9.44 576.883 9.44ZM576.683 18.8C578.683 18.8 580.003 17.26 580.003 14.76C580.003 12.26 578.683 10.88 576.683 10.88C574.683 10.88 573.363 12.34 573.363 14.84C573.363 17.34 574.683 18.8 576.683 18.8ZM585.221 8.28H583.501V6.32H585.221V8.28ZM585.181 20H583.581V9.68H585.181V20ZM591.885 20.24C589.065 20.24 587.085 18.18 587.085 14.84C587.085 11.6 588.985 9.44 591.845 9.44C594.925 9.44 596.585 11.88 596.585 14.84V15.4H588.745C588.905 17.72 590.125 18.78 591.925 18.78C593.385 18.78 594.305 18.02 594.665 16.86H596.325C595.825 18.8 594.345 20.24 591.885 20.24ZM588.785 13.96H594.865C594.705 12.26 593.685 10.9 591.845 10.9C590.225 10.9 589.045 11.92 588.785 13.96ZM603.243 9.44C605.543 9.44 606.883 10.74 606.883 13.02V20H605.283V13.18C605.283 11.58 604.403 10.88 602.923 10.88C601.583 10.88 600.083 11.88 600.083 14.16V20H598.483V9.68H600.003V11.22C600.683 10.18 601.803 9.44 603.243 9.44ZM613.413 9.68V11.08H611.293V17.76C611.293 18.3 611.553 18.64 612.473 18.64H613.413V20C613.013 20.02 612.593 20.04 612.273 20.04C610.673 20.04 609.693 19.48 609.693 17.9V11.08H607.993V9.68H609.693V6.76H611.293V9.68H613.413Z" fill="#707073"/>
<path id="105.3&#194;&#176;" d="M546.463 35.352L546.487 33.408L550.903 31.008H552.295V48.264H550.375V33.288L546.463 35.352ZM568.12 36.84C568.152 37.384 568.168 38.32 568.168 39.648C568.168 40.976 568.152 41.928 568.12 42.504C568.008 44.376 567.472 45.848 566.512 46.92C565.552 47.976 564.192 48.504 562.432 48.504C560.672 48.504 559.304 47.968 558.328 46.896C557.368 45.808 556.84 44.312 556.744 42.408C556.712 41.912 556.696 41.008 556.696 39.696C556.696 38.384 556.712 37.432 556.744 36.84C556.824 34.952 557.352 33.464 558.328 32.376C559.304 31.288 560.672 30.744 562.432 30.744C564.192 30.744 565.56 31.288 566.536 32.376C567.512 33.448 568.04 34.936 568.12 36.84ZM566.152 42.336C566.184 41.728 566.2 40.824 566.2 39.624C566.2 38.408 566.184 37.504 566.152 36.912C566.088 35.392 565.744 34.256 565.12 33.504C564.496 32.736 563.6 32.352 562.432 32.352C561.264 32.352 560.368 32.736 559.744 33.504C559.12 34.256 558.776 35.392 558.712 36.912C558.68 37.584 558.664 38.52 558.664 39.72C558.664 40.904 558.68 41.776 558.712 42.336C558.776 43.856 559.12 45 559.744 45.768C560.368 46.52 561.264 46.896 562.432 46.896C563.6 46.896 564.496 46.52 565.12 45.768C565.744 45.016 566.088 43.872 566.152 42.336ZM572.667 44.376C572.987 45.176 573.483 45.8 574.155 46.248C574.843 46.68 575.651 46.896 576.579 46.896C577.763 46.896 578.675 46.536 579.315 45.816C579.971 45.096 580.299 44.12 580.299 42.888C580.299 41.608 579.963 40.608 579.291 39.888C578.619 39.152 577.715 38.784 576.579 38.784C575.827 38.784 575.155 38.944 574.563 39.264C573.987 39.568 573.539 39.968 573.219 40.464L571.659 40.104L572.787 31.008H581.427V32.592H574.419L573.531 39.168L573.171 38.688C573.619 38.224 574.163 37.856 574.803 37.584C575.443 37.312 576.147 37.176 576.915 37.176C577.939 37.176 578.859 37.408 579.675 37.872C580.507 38.336 581.155 39 581.619 39.864C582.083 40.712 582.315 41.696 582.315 42.816C582.315 43.952 582.075 44.952 581.595 45.816C581.131 46.664 580.459 47.328 579.579 47.808C578.715 48.272 577.707 48.504 576.555 48.504C575.211 48.504 574.051 48.2 573.075 47.592C572.099 46.984 571.459 46.16 571.155 45.12L572.667 44.376ZM584.888 47.208C584.888 46.84 585 46.544 585.224 46.32C585.464 46.08 585.776 45.96 586.16 45.96C586.56 45.96 586.872 46.08 587.096 46.32C587.336 46.544 587.456 46.84 587.456 47.208C587.456 47.592 587.336 47.904 587.096 48.144C586.872 48.384 586.56 48.504 586.16 48.504C585.776 48.504 585.464 48.384 585.224 48.144C585 47.904 584.888 47.592 584.888 47.208ZM590.976 40.84C591.35 40.3867 591.803 40.0267 592.336 39.76C592.87 39.4933 593.503 39.36 594.236 39.36C595.09 39.36 595.856 39.5467 596.536 39.92C597.216 40.28 597.75 40.7933 598.136 41.46C598.523 42.1267 598.716 42.8933 598.716 43.76C598.716 44.6533 598.503 45.4533 598.076 46.16C597.663 46.8667 597.083 47.42 596.336 47.82C595.59 48.22 594.743 48.42 593.796 48.42C592.69 48.42 591.73 48.1733 590.916 47.68C590.116 47.1867 589.563 46.4867 589.256 45.58L590.496 44.98C590.803 45.66 591.23 46.18 591.776 46.54C592.336 46.9 593.01 47.08 593.796 47.08C594.463 47.08 595.036 46.9467 595.516 46.68C596.01 46.4 596.383 46.0133 596.636 45.52C596.903 45.0267 597.036 44.4533 597.036 43.8C597.036 42.8267 596.75 42.06 596.176 41.5C595.603 40.9267 594.81 40.64 593.796 40.64C593.276 40.64 592.83 40.72 592.456 40.88C592.096 41.0267 591.75 41.26 591.416 41.58L590.596 40.62L595.856 35.16H590.056V33.84H597.936V34.88L592.076 40.9L590.976 40.84ZM601.893 32.688C601.893 33.36 602.085 33.912 602.469 34.344C602.869 34.776 603.389 34.992 604.029 34.992C604.669 34.992 605.189 34.776 605.589 34.344C606.005 33.912 606.213 33.36 606.213 32.688C606.213 31.984 606.005 31.416 605.589 30.984C605.189 30.552 604.669 30.336 604.029 30.336C603.389 30.336 602.869 30.552 602.469 30.984C602.085 31.416 601.893 31.984 601.893 32.688ZM600.381 32.688C600.381 32 600.541 31.376 600.861 30.816C601.181 30.24 601.621 29.792 602.181 29.472C602.741 29.136 603.357 28.968 604.029 28.968C604.733 28.968 605.365 29.136 605.925 29.472C606.485 29.792 606.917 30.232 607.221 30.792C607.541 31.352 607.701 31.984 607.701 32.688C607.701 33.376 607.541 34 607.221 34.56C606.917 35.12 606.485 35.56 605.925 35.88C605.365 36.2 604.733 36.36 604.029 36.36C603.357 36.36 602.741 36.2 602.181 35.88C601.621 35.56 601.181 35.12 600.861 34.56C600.541 34 600.381 33.376 600.381 32.688Z" fill="white"/>
</g>
<g id="Frame 4">
<path id="T2" d="M85.1992 144.84V146.24H81.0192V159.2H79.3392V146.24H75.1592V144.84H85.1992ZM86.3958 159.22V158.14L91.8158 152.42C92.4958 151.7 92.9758 151.06 93.2558 150.5C93.5491 149.927 93.6958 149.34 93.6958 148.74C93.6958 147.887 93.4624 147.213 92.9958 146.72C92.5424 146.213 91.8891 145.96 91.0358 145.96C90.2091 145.96 89.5358 146.187 89.0158 146.64C88.4958 147.093 88.0758 147.747 87.7558 148.6L86.4158 148.08C86.7358 146.987 87.3091 146.14 88.1358 145.54C88.9758 144.927 89.9624 144.62 91.0958 144.62C91.9624 144.62 92.7158 144.8 93.3558 145.16C94.0091 145.507 94.5091 145.993 94.8558 146.62C95.2024 147.233 95.3758 147.927 95.3758 148.7C95.3758 149.487 95.1758 150.24 94.7758 150.96C94.3891 151.68 93.7358 152.52 92.8158 153.48L88.3358 158.18L88.0558 157.92H95.4158V159.22H86.3958Z" fill="#707073"/>
<path id="132.91&#194;&#176;_4" d="M51.9965 175.352L52.0205 173.408L56.4365 171.008H57.8285V188.264H55.9085V173.288L51.9965 175.352ZM63.2854 179.408C63.7334 178.864 64.2774 178.432 64.9174 178.112C65.5574 177.792 66.3174 177.632 67.1974 177.632C68.2214 177.632 69.1414 177.856 69.9574 178.304C70.7734 178.736 71.4134 179.352 71.8774 180.152C72.3414 180.952 72.5734 181.872 72.5734 182.912C72.5734 183.984 72.3174 184.944 71.8054 185.792C71.3094 186.64 70.6134 187.304 69.7174 187.784C68.8214 188.264 67.8054 188.504 66.6694 188.504C65.3414 188.504 64.1894 188.208 63.2134 187.616C62.2534 187.024 61.5894 186.184 61.2214 185.096L62.7094 184.376C63.0774 185.192 63.5894 185.816 64.2454 186.248C64.9174 186.68 65.7254 186.896 66.6694 186.896C67.4694 186.896 68.1574 186.736 68.7334 186.416C69.3254 186.08 69.7734 185.616 70.0774 185.024C70.3974 184.432 70.5574 183.744 70.5574 182.96C70.5574 181.792 70.2134 180.872 69.5254 180.2C68.8374 179.512 67.8854 179.168 66.6694 179.168C66.0454 179.168 65.5094 179.264 65.0614 179.456C64.6294 179.632 64.2134 179.912 63.8134 180.296L62.8294 179.144L69.1414 172.592H62.1814V171.008H71.6374V172.256L64.6054 179.48L63.2854 179.408ZM74.5417 188.264V186.968L81.0457 180.104C81.8617 179.24 82.4377 178.472 82.7737 177.8C83.1257 177.112 83.3017 176.408 83.3017 175.688C83.3017 174.664 83.0217 173.856 82.4617 173.264C81.9177 172.656 81.1337 172.352 80.1097 172.352C79.1177 172.352 78.3097 172.624 77.6857 173.168C77.0617 173.712 76.5577 174.496 76.1737 175.52L74.5657 174.896C74.9497 173.584 75.6377 172.568 76.6297 171.848C77.6377 171.112 78.8217 170.744 80.1817 170.744C81.2217 170.744 82.1257 170.96 82.8937 171.392C83.6777 171.808 84.2777 172.392 84.6937 173.144C85.1097 173.88 85.3177 174.712 85.3177 175.64C85.3177 176.584 85.0777 177.488 84.5977 178.352C84.1337 179.216 83.3497 180.224 82.2457 181.376L76.8697 187.016L76.5337 186.704H85.3657V188.264H74.5417ZM87.8197 187.208C87.8197 186.84 87.9317 186.544 88.1557 186.32C88.3957 186.08 88.7077 185.96 89.0917 185.96C89.4917 185.96 89.8037 186.08 90.0277 186.32C90.2677 186.544 90.3877 186.84 90.3877 187.208C90.3877 187.592 90.2677 187.904 90.0277 188.144C89.8037 188.384 89.4917 188.504 89.0917 188.504C88.7077 188.504 88.3957 188.384 88.1557 188.144C87.9317 187.904 87.8197 187.592 87.8197 187.208ZM102.108 178.48C102.108 179.307 101.961 180.1 101.668 180.86C101.375 181.62 100.895 182.46 100.228 183.38L96.708 188.2H94.808L99.128 182.56C99.368 182.253 99.5747 181.96 99.748 181.68C99.9214 181.387 100.101 181.02 100.288 180.58L100.488 181.18C100.061 181.7 99.548 182.1 98.948 182.38C98.3614 182.66 97.6947 182.8 96.948 182.8C96.068 182.8 95.2814 182.62 94.588 182.26C93.908 181.887 93.3747 181.36 92.988 180.68C92.6014 179.987 92.408 179.167 92.408 178.22C92.408 177.273 92.6147 176.453 93.028 175.76C93.4414 175.067 94.008 174.54 94.728 174.18C95.4614 173.807 96.3014 173.62 97.248 173.62C98.208 173.62 99.0547 173.813 99.788 174.2C100.521 174.573 101.088 175.127 101.488 175.86C101.901 176.593 102.108 177.467 102.108 178.48ZM100.408 178.22C100.408 177.54 100.275 176.96 100.008 176.48C99.7414 175.987 99.368 175.62 98.888 175.38C98.408 175.127 97.8614 175 97.248 175C96.3014 175 95.5347 175.287 94.948 175.86C94.3614 176.42 94.068 177.207 94.068 178.22C94.068 179.233 94.3547 180.027 94.928 180.6C95.5147 181.16 96.288 181.44 97.248 181.44C97.8747 181.44 98.4214 181.313 98.888 181.06C99.368 180.807 99.7414 180.44 100.008 179.96C100.275 179.467 100.408 178.887 100.408 178.22ZM103.856 177.46L103.876 175.84L107.556 173.84H108.716V188.22H107.116V175.74L103.856 177.46ZM113.36 172.688C113.36 173.36 113.552 173.912 113.936 174.344C114.336 174.776 114.856 174.992 115.496 174.992C116.136 174.992 116.656 174.776 117.056 174.344C117.472 173.912 117.68 173.36 117.68 172.688C117.68 171.984 117.472 171.416 117.056 170.984C116.656 170.552 116.136 170.336 115.496 170.336C114.856 170.336 114.336 170.552 113.936 170.984C113.552 171.416 113.36 171.984 113.36 172.688ZM111.848 172.688C111.848 172 112.008 171.376 112.328 170.816C112.648 170.24 113.088 169.792 113.648 169.472C114.208 169.136 114.824 168.968 115.496 168.968C116.2 168.968 116.832 169.136 117.392 169.472C117.952 169.792 118.384 170.232 118.688 170.792C119.008 171.352 119.168 171.984 119.168 172.688C119.168 173.376 119.008 174 118.688 174.56C118.384 175.12 117.952 175.56 117.392 175.88C116.832 176.2 116.2 176.36 115.496 176.36C114.824 176.36 114.208 176.2 113.648 175.88C113.088 175.56 112.648 175.12 112.328 174.56C112.008 174 111.848 173.376 111.848 172.688Z" fill="white"/>
</g>
<g id="Frame 5">
<path id="T4" d="M234.824 144.84V146.24H230.644V159.2H228.964V146.24H224.784V144.84H234.824ZM233.713 155.76V154.72L240.813 144.84H242.073V154.44H244.133V155.76H242.073V159.22H240.513V155.76H233.713ZM235.533 154.44H240.513V147.62L235.533 154.44Z" fill="#707073"/>
<path id="132.91&#194;&#176;_5" d="M200.997 175.352L201.021 173.408L205.437 171.008H206.829V188.264H204.909V173.288L200.997 175.352ZM212.285 179.408C212.733 178.864 213.277 178.432 213.917 178.112C214.557 177.792 215.317 177.632 216.197 177.632C217.221 177.632 218.141 177.856 218.957 178.304C219.773 178.736 220.413 179.352 220.877 180.152C221.341 180.952 221.573 181.872 221.573 182.912C221.573 183.984 221.317 184.944 220.805 185.792C220.309 186.64 219.613 187.304 218.717 187.784C217.821 188.264 216.805 188.504 215.669 188.504C214.341 188.504 213.189 188.208 212.213 187.616C211.253 187.024 210.589 186.184 210.221 185.096L211.709 184.376C212.077 185.192 212.589 185.816 213.245 186.248C213.917 186.68 214.725 186.896 215.669 186.896C216.469 186.896 217.157 186.736 217.733 186.416C218.325 186.08 218.773 185.616 219.077 185.024C219.397 184.432 219.557 183.744 219.557 182.96C219.557 181.792 219.213 180.872 218.525 180.2C217.837 179.512 216.885 179.168 215.669 179.168C215.045 179.168 214.509 179.264 214.061 179.456C213.629 179.632 213.213 179.912 212.813 180.296L211.829 179.144L218.141 172.592H211.181V171.008H220.637V172.256L213.605 179.48L212.285 179.408ZM223.542 188.264V186.968L230.046 180.104C230.862 179.24 231.438 178.472 231.774 177.8C232.126 177.112 232.302 176.408 232.302 175.688C232.302 174.664 232.022 173.856 231.462 173.264C230.918 172.656 230.134 172.352 229.11 172.352C228.118 172.352 227.31 172.624 226.686 173.168C226.062 173.712 225.558 174.496 225.174 175.52L223.566 174.896C223.95 173.584 224.638 172.568 225.63 171.848C226.638 171.112 227.822 170.744 229.182 170.744C230.222 170.744 231.126 170.96 231.894 171.392C232.678 171.808 233.278 172.392 233.694 173.144C234.11 173.88 234.318 174.712 234.318 175.64C234.318 176.584 234.078 177.488 233.598 178.352C233.134 179.216 232.35 180.224 231.246 181.376L225.87 187.016L225.534 186.704H234.366V188.264H223.542ZM236.82 187.208C236.82 186.84 236.932 186.544 237.156 186.32C237.396 186.08 237.708 185.96 238.092 185.96C238.492 185.96 238.804 186.08 239.028 186.32C239.268 186.544 239.388 186.84 239.388 187.208C239.388 187.592 239.268 187.904 239.028 188.144C238.804 188.384 238.492 188.504 238.092 188.504C237.708 188.504 237.396 188.384 237.156 188.144C236.932 187.904 236.82 187.592 236.82 187.208ZM251.108 178.48C251.108 179.307 250.961 180.1 250.668 180.86C250.375 181.62 249.895 182.46 249.228 183.38L245.708 188.2H243.808L248.128 182.56C248.368 182.253 248.575 181.96 248.748 181.68C248.921 181.387 249.101 181.02 249.288 180.58L249.488 181.18C249.061 181.7 248.548 182.1 247.948 182.38C247.361 182.66 246.695 182.8 245.948 182.8C245.068 182.8 244.281 182.62 243.588 182.26C242.908 181.887 242.375 181.36 241.988 180.68C241.601 179.987 241.408 179.167 241.408 178.22C241.408 177.273 241.615 176.453 242.028 175.76C242.441 175.067 243.008 174.54 243.728 174.18C244.461 173.807 245.301 173.62 246.248 173.62C247.208 173.62 248.055 173.813 248.788 174.2C249.521 174.573 250.088 175.127 250.488 175.86C250.901 176.593 251.108 177.467 251.108 178.48ZM249.408 178.22C249.408 177.54 249.275 176.96 249.008 176.48C248.741 175.987 248.368 175.62 247.888 175.38C247.408 175.127 246.861 175 246.248 175C245.301 175 244.535 175.287 243.948 175.86C243.361 176.42 243.068 177.207 243.068 178.22C243.068 179.233 243.355 180.027 243.928 180.6C244.515 181.16 245.288 181.44 246.248 181.44C246.875 181.44 247.421 181.313 247.888 181.06C248.368 180.807 248.741 180.44 249.008 179.96C249.275 179.467 249.408 178.887 249.408 178.22ZM252.856 177.46L252.876 175.84L256.556 173.84H257.716V188.22H256.116V175.74L252.856 177.46ZM262.36 172.688C262.36 173.36 262.552 173.912 262.936 174.344C263.336 174.776 263.856 174.992 264.496 174.992C265.136 174.992 265.656 174.776 266.056 174.344C266.472 173.912 266.68 173.36 266.68 172.688C266.68 171.984 266.472 171.416 266.056 170.984C265.656 170.552 265.136 170.336 264.496 170.336C263.856 170.336 263.336 170.552 262.936 170.984C262.552 171.416 262.36 171.984 262.36 172.688ZM260.848 172.688C260.848 172 261.008 171.376 261.328 170.816C261.648 170.24 262.088 169.792 262.648 169.472C263.208 169.136 263.824 168.968 264.496 168.968C265.2 168.968 265.832 169.136 266.392 169.472C266.952 169.792 267.384 170.232 267.688 170.792C268.008 171.352 268.168 171.984 268.168 172.688C268.168 173.376 268.008 174 267.688 174.56C267.384 175.12 266.952 175.56 266.392 175.88C265.832 176.2 265.2 176.36 264.496 176.36C263.824 176.36 263.208 176.2 262.648 175.88C262.088 175.56 261.648 175.12 261.328 174.56C261.008 174 260.848 173.376 260.848 172.688Z" fill="white"/>
</g>
<rect id="Rectangle 1" x="34" y="58" width="1" height="32" fill="#3D3D40"/>
<rect id="Rectangle 2" x="85" y="106" width="1" height="32" fill="#3D3D40"/>
<rect id="Rectangle 3" x="234" y="106" width="1" height="32" fill="#3D3D40"/>
<rect id="Rectangle 4" x="177" y="58" width="1" height="32" fill="#3D3D40"/>
<rect id="Rectangle 5" x="289" y="58" width="1" height="32" fill="#3D3D40"/>
<rect id="Rectangle 6" x="577" y="58" width="1" height="32" fill="#3D3D40"/>
<circle id="Ellipse 499" cx="34" cy="98" r="8" fill="#F29F3D"/>
<circle id="Ellipse 500" cx="86" cy="98" r="8" fill="#C0F255"/>
<circle id="Ellipse 501" cx="178" cy="98" r="8" fill="#00C853"/>
<circle id="Ellipse 505" opacity="0.5" cx="178" cy="98" r="20" fill="#00C853"/>
<circle id="Ellipse 502" cx="234" cy="98" r="8" fill="#55BEF2"/>
<circle id="Ellipse 503" cx="290" cy="98" r="8" fill="#6161F2"/>
<circle id="Ellipse 504" cx="578" cy="98" r="8" fill="#96A3FF"/>
</g>
</g>
</svg>
