<svg width="80" height="80" viewBox="0 0 80 80" fill="none" xmlns="http://www.w3.org/2000/svg">
<g id="Cooking" clip-path="url(#clip0_0_1)">
<g id="Card" filter="url(#filter0_d_0_1)">
<g id="Alerts">
<circle id="Ellipse 444" cx="40" cy="40" r="39.5" stroke="#CCCCCC"/>
<g id="ic_alert">
<g id="Frame 17">
<path id="Vector 605" d="M52 42V36C52 29.3726 46.6274 24 40 24C33.3726 24 28 29.3726 28 36V42L24.5858 45.4142C24.2107 45.7893 24 46.298 24 46.8284V48C24 49.1046 24.8954 50 26 50H54C55.1046 50 56 49.1046 56 48V46.8284C56 46.298 55.7893 45.7893 55.4142 45.4142L52 42Z" fill="#DB4F4F"/>
<path id="Ellipse 426" d="M45 52C45 53.3261 44.4732 54.5979 43.5355 55.5355C42.5979 56.4732 41.3261 57 40 57C38.6739 57 37.4021 56.4732 36.4645 55.5355C35.5268 54.5979 35 53.3261 35 52L40 52H45Z" fill="#DB4F4F"/>
<circle id="Ellipse 427" cx="40" cy="24" r="2" fill="#DB4F4F"/>
</g>
</g>
<circle id="Ellipse 2078" cx="64" cy="16" r="15.5" fill="white" stroke="#CCCCCC"/>
<g id="add">
<path id="Vector 669" d="M64 8V24" stroke="#DB4F4F" stroke-width="2.5" stroke-linecap="round"/>
<path id="Vector 670" d="M56 16H72" stroke="#DB4F4F" stroke-width="2.5" stroke-linecap="round"/>
</g>
</g>
</g>
</g>
<defs>
<filter id="filter0_d_0_1" x="-614" y="-72" width="782" height="377" filterUnits="userSpaceOnUse" color-interpolation-filters="sRGB">
<feFlood flood-opacity="0" result="BackgroundImageFix"/>
<feColorMatrix in="SourceAlpha" type="matrix" values="0 0 0 0 0 0 0 0 0 0 0 0 0 0 0 0 0 0 127 0" result="hardAlpha"/>
<feOffset dy="12"/>
<feGaussianBlur stdDeviation="24"/>
<feColorMatrix type="matrix" values="0 0 0 0 0 0 0 0 0 0 0 0 0 0 0 0 0 0 0.06 0"/>
<feBlend mode="normal" in2="BackgroundImageFix" result="effect1_dropShadow_0_1"/>
<feBlend mode="normal" in="SourceGraphic" in2="effect1_dropShadow_0_1" result="shape"/>
</filter>
<clipPath id="clip0_0_1">
<rect width="750" height="1624" fill="white" transform="translate(-598 -1104)"/>
</clipPath>
</defs>
</svg>
