<svg width="393" height="59" viewBox="0 0 393 59" fill="none" xmlns="http://www.w3.org/2000/svg">
<rect width="393" height="59" fill="#F5F5F5"/>
<g id="Frame&#226;&#157;&#164;&#239;&#184;&#143;" clip-path="url(#clip0_0_1)">
<rect width="393" height="852" fill="#F2F2F7"/>
<g id="Group 54">
<g id="Status bar - iPhone">
<g id="Time">
<path id="Time_2" d="M59.2666 24.2231C59.9085 24.2231 60.5173 24.3421 61.0928 24.5801C61.6683 24.8125 62.1774 25.1777 62.6201 25.6758C63.0684 26.1683 63.4198 26.8019 63.6743 27.5767C63.9289 28.3459 64.0562 29.2728 64.0562 30.3574V30.374C64.0562 31.7188 63.8625 32.8698 63.4751 33.8271C63.0877 34.7845 62.5316 35.5205 61.8066 36.0352C61.0872 36.5443 60.2267 36.7988 59.2251 36.7988C58.4891 36.7988 57.825 36.666 57.2329 36.4004C56.6463 36.1292 56.1593 35.7585 55.772 35.2881C55.3901 34.8122 55.1328 34.2699 55 33.6611L54.9834 33.5698H57.0835L57.1167 33.6528C57.2218 33.9295 57.3713 34.173 57.5649 34.3833C57.7642 34.5936 58.0021 34.7568 58.2788 34.873C58.561 34.9837 58.8765 35.0391 59.2251 35.0391C59.856 35.0391 60.3706 34.8537 60.769 34.4829C61.173 34.1066 61.4746 33.6058 61.6738 32.9805C61.8786 32.3496 61.9948 31.6523 62.0225 30.8887C62.028 30.8057 62.0308 30.7254 62.0308 30.6479C62.0308 30.5649 62.0308 30.4847 62.0308 30.4072L61.6572 28.4067C61.6572 27.953 61.5521 27.5407 61.3418 27.1699C61.1315 26.7992 60.8465 26.5059 60.4868 26.29C60.1326 26.0742 59.7314 25.9663 59.2832 25.9663C58.8516 25.9663 58.4559 26.0715 58.0962 26.2817C57.7365 26.492 57.4487 26.7798 57.2329 27.145C57.0171 27.5047 56.9092 27.9087 56.9092 28.3569V28.3735C56.9092 28.8384 57.0116 29.2507 57.2163 29.6104C57.4211 29.9645 57.7005 30.244 58.0547 30.4487C58.4089 30.6535 58.8128 30.7559 59.2666 30.7559C59.7204 30.7559 60.1271 30.6562 60.4868 30.457C60.8465 30.2578 61.1315 29.9811 61.3418 29.627C61.5521 29.2728 61.6572 28.8716 61.6572 28.4233V28.4067H62.1553V30.6147H61.8647C61.7209 30.9302 61.5078 31.2235 61.2256 31.4946C60.9434 31.7658 60.5947 31.9844 60.1797 32.1504C59.7702 32.3164 59.2887 32.3994 58.7354 32.3994C57.9717 32.3994 57.2965 32.2279 56.71 31.8848C56.1234 31.5417 55.6613 31.0713 55.3237 30.4736C54.9917 29.876 54.8257 29.2008 54.8257 28.4482V28.4316C54.8257 27.6182 55.0138 26.896 55.3901 26.2651C55.772 25.6287 56.2977 25.1307 56.9673 24.771C57.6424 24.4058 58.4089 24.2231 59.2666 24.2231ZM67.8247 34.8896C67.4484 34.8896 67.133 34.7651 66.8784 34.5161C66.6294 34.2616 66.5049 33.9517 66.5049 33.5864C66.5049 33.2157 66.6294 32.9058 66.8784 32.6567C67.133 32.4022 67.4484 32.2749 67.8247 32.2749C68.2065 32.2749 68.522 32.4022 68.771 32.6567C69.02 32.9058 69.1445 33.2157 69.1445 33.5864C69.1445 33.9517 69.02 34.2616 68.771 34.5161C68.522 34.7651 68.2065 34.8896 67.8247 34.8896ZM67.8247 28.7305C67.4484 28.7305 67.133 28.606 66.8784 28.3569C66.6294 28.1024 66.5049 27.7925 66.5049 27.4272C66.5049 27.0565 66.6294 26.7466 66.8784 26.4976C67.133 26.243 67.4484 26.1157 67.8247 26.1157C68.2065 26.1157 68.522 26.243 68.771 26.4976C69.02 26.7466 69.1445 27.0565 69.1445 27.4272C69.1445 27.7925 69.02 28.1024 68.771 28.3569C68.522 28.606 68.2065 28.7305 67.8247 28.7305ZM77.4038 36.5V34.2007H71.5435V32.4492C71.8589 31.9124 72.1743 31.3729 72.4897 30.8306C72.8107 30.2882 73.1344 29.7487 73.4609 29.2119C73.793 28.6696 74.1222 28.1356 74.4487 27.6099C74.7808 27.0786 75.11 26.5557 75.4365 26.041C75.7686 25.5208 76.1006 25.0145 76.4326 24.522H79.4458V32.4326H81.0645V34.2007H79.4458V36.5H77.4038ZM73.5356 32.4824H77.437V26.2319H77.3125C77.069 26.6082 76.8172 26.9956 76.5571 27.394C76.3026 27.7925 76.0452 28.1992 75.7852 28.6143C75.5251 29.0293 75.2677 29.4471 75.0132 29.8677C74.7586 30.2827 74.5068 30.7005 74.2578 31.1211C74.0088 31.5361 73.7681 31.9484 73.5356 32.3579V32.4824ZM86.02 36.5V26.6304H85.8706L82.8906 28.7305V26.7217L86.02 24.522H88.1533V36.5H86.02Z" fill="black"/>
</g>
<g id="Levels">
<path id="Cellular Connection" fill-rule="evenodd" clip-rule="evenodd" d="M301.365 25.0329C301.365 24.3999 300.887 23.8867 300.298 23.8867H299.232C298.643 23.8867 298.165 24.3999 298.165 25.0329V34.9669C298.165 35.5999 298.643 36.1131 299.232 36.1131H300.298C300.887 36.1131 301.365 35.5999 301.365 34.9669V25.0329ZM293.931 26.332H294.998C295.587 26.332 296.064 26.8575 296.064 27.5057V34.9394C296.064 35.5876 295.587 36.1131 294.998 36.1131H293.931C293.342 36.1131 292.864 35.5876 292.864 34.9394V27.5057C292.864 26.8575 293.342 26.332 293.931 26.332ZM289.599 28.981H288.532C287.943 28.981 287.466 29.5132 287.466 30.1697V34.9244C287.466 35.5809 287.943 36.1131 288.532 36.1131H289.599C290.188 36.1131 290.666 35.5809 290.666 34.9244V30.1697C290.666 29.5132 290.188 28.981 289.599 28.981ZM284.298 31.4263H283.232C282.643 31.4263 282.165 31.9509 282.165 32.598V34.9414C282.165 35.5885 282.643 36.1131 283.232 36.1131H284.298C284.887 36.1131 285.365 35.5885 285.365 34.9414V32.598C285.365 31.9509 284.887 31.4263 284.298 31.4263Z" fill="black"/>
<path id="Wifi" fill-rule="evenodd" clip-rule="evenodd" d="M316.937 26.3022C319.424 26.3023 321.816 27.2244 323.618 28.8779C323.754 29.0055 323.971 29.0039 324.105 28.8743L325.402 27.6108C325.47 27.545 325.507 27.456 325.507 27.3633C325.506 27.2706 325.468 27.182 325.399 27.117C320.668 22.7423 313.204 22.7423 308.473 27.117C308.405 27.1819 308.366 27.2705 308.365 27.3632C308.365 27.4559 308.402 27.545 308.47 27.6108L309.768 28.8743C309.901 29.0041 310.119 29.0057 310.254 28.8779C312.057 27.2243 314.449 26.3022 316.937 26.3022ZM316.933 30.5225C318.291 30.5224 319.599 31.0342 320.606 31.9583C320.742 32.0894 320.956 32.0866 321.089 31.9519L322.376 30.6326C322.444 30.5634 322.481 30.4695 322.48 30.3719C322.479 30.2744 322.44 30.1813 322.371 30.1135C319.307 27.2227 314.562 27.2227 311.498 30.1135C311.429 30.1813 311.39 30.2744 311.389 30.372C311.388 30.4696 311.426 30.5635 311.493 30.6326L312.78 31.9519C312.913 32.0866 313.127 32.0894 313.263 31.9583C314.269 31.0348 315.577 30.5231 316.933 30.5225ZM319.458 33.316C319.46 33.4214 319.422 33.523 319.355 33.5968L317.179 36.0515C317.115 36.1236 317.028 36.1642 316.937 36.1642C316.846 36.1642 316.759 36.1236 316.695 36.0515L314.518 33.5968C314.451 33.5229 314.414 33.4213 314.416 33.316C314.418 33.2106 314.459 33.1108 314.529 33.0402C315.919 31.7263 317.955 31.7263 319.345 33.0402C319.415 33.1109 319.456 33.2107 319.458 33.316Z" fill="black"/>
<g id="Battery">
<rect id="Border" opacity="0.35" x="333.007" y="24" width="24" height="12" rx="3.8" stroke="black"/>
<path id="Cap" opacity="0.4" d="M358.507 28.2812V32.3567C359.312 32.0116 359.835 31.2086 359.835 30.319C359.835 29.4294 359.312 28.6264 358.507 28.2812Z" fill="black"/>
<rect id="Capacity" x="334.507" y="25.5" width="21" height="9" rx="2.5" fill="black"/>
</g>
</g>
</g>
</g>
</g>
<defs>
<clipPath id="clip0_0_1">
<rect width="393" height="852" fill="white"/>
</clipPath>
</defs>
</svg>
