<svg width="393" height="52" viewBox="0 0 393 52" fill="none" xmlns="http://www.w3.org/2000/svg">
<rect width="393" height="52" fill="#F5F5F5"/>
<g id="Frame&#226;&#157;&#164;&#239;&#184;&#143;">
<rect width="393" height="1102" transform="translate(0 -59)" fill="#F2F2F7"/>
<g id="Navigation Bar">
<path id="Title3" d="M35.908 37H31.904L30.336 32.604H21.6L20.06 37H16.168L23.756 17.064H28.18L35.908 37ZM23.504 27.228L22.748 29.384H29.188L28.404 27.228C27.704 25.408 26.752 22.748 25.94 20.396C25.128 22.748 24.176 25.408 23.504 27.228ZM41.1462 37H37.3662V17.064H41.1462V37ZM70.0358 25.1L72.1358 17.064H76.0558L70.5398 37H66.2838L64.1558 28.712C63.5958 26.416 63.0078 24.008 62.5318 21.656C62.0558 24.008 61.4958 26.416 60.9078 28.712L58.7798 37H54.5518L49.0078 17.064H52.9558L55.0278 25.1C55.6438 27.564 56.3158 30.168 56.8478 32.688C57.3798 30.168 57.9678 27.564 58.5558 25.072L60.5998 17.064H64.4918L66.5358 25.072C67.1518 27.564 67.7118 30.196 68.2158 32.716C68.7758 30.196 69.4198 27.564 70.0358 25.1ZM82.523 37.336C78.267 37.336 75.327 34.396 75.327 29.776C75.327 25.24 78.183 22.216 82.467 22.216C86.891 22.216 89.607 25.436 89.607 30.028V30.868H78.799C79.079 33.416 80.507 34.592 82.551 34.592C84.231 34.592 85.323 33.808 85.827 32.52H89.243C88.487 35.432 85.995 37.336 82.523 37.336ZM78.827 28.404H86.079C85.799 26.36 84.539 24.96 82.439 24.96C80.563 24.96 79.163 26.052 78.827 28.404ZM95.413 37H91.885V17.064H95.413V37ZM101.784 37H98.2561V17.064H101.784V37ZM112.551 22.216C115.575 22.216 117.619 23.98 117.619 27.424V37H114.091V28.012C114.091 26.164 113.167 25.268 111.375 25.268C109.835 25.268 108.155 26.332 108.155 28.908V37H104.627V22.552H108.043V24.624C108.967 23.252 110.507 22.216 112.551 22.216ZM127.039 37.336C122.783 37.336 119.843 34.396 119.843 29.776C119.843 25.24 122.699 22.216 126.983 22.216C131.407 22.216 134.123 25.436 134.123 30.028V30.868H123.315C123.595 33.416 125.023 34.592 127.067 34.592C128.747 34.592 129.839 33.808 130.343 32.52H133.759C133.003 35.432 130.511 37.336 127.039 37.336ZM123.343 28.404H130.595C130.315 26.36 129.055 24.96 126.955 24.96C125.079 24.96 123.679 26.052 123.343 28.404ZM142.057 37.392C137.941 37.392 135.673 35.908 135.449 32.408H138.893C139.089 34.228 140.013 34.872 142.113 34.872C144.157 34.872 144.969 34.228 144.969 33.136C144.969 32.1 144.325 31.596 142.141 31.232L140.489 30.952C137.381 30.42 135.757 29.048 135.757 26.584C135.757 23.868 137.885 22.216 141.749 22.216C146.201 22.216 148.021 24.148 148.133 27.116H144.801C144.717 25.268 143.569 24.736 141.749 24.736C140.041 24.736 139.229 25.38 139.229 26.416C139.229 27.48 140.069 27.9 141.637 28.18L143.457 28.46C146.929 29.076 148.469 30.364 148.469 32.856C148.469 35.768 146.089 37.392 142.057 37.392ZM156.413 37.392C152.297 37.392 150.029 35.908 149.805 32.408H153.249C153.445 34.228 154.369 34.872 156.469 34.872C158.513 34.872 159.325 34.228 159.325 33.136C159.325 32.1 158.681 31.596 156.497 31.232L154.845 30.952C151.737 30.42 150.113 29.048 150.113 26.584C150.113 23.868 152.241 22.216 156.105 22.216C160.557 22.216 162.377 24.148 162.489 27.116H159.157C159.073 25.268 157.925 24.736 156.105 24.736C154.397 24.736 153.585 25.38 153.585 26.416C153.585 27.48 154.425 27.9 155.993 28.18L157.813 28.46C161.285 29.076 162.825 30.364 162.825 32.856C162.825 35.768 160.445 37.392 156.413 37.392Z" fill="black"/>
<g id="Frame 14">
<g id="Calendar &#230;&#151;&#165;&#229;&#142;&#134;">
<rect id="Rectangle 5052" x="317.3" y="19.8" width="15.4" height="13.4" rx="1.2" stroke="black" stroke-width="1.6"/>
<path id="Vector 530" d="M322 17.75V19.5" stroke="black" stroke-width="1.6" stroke-linecap="round"/>
<path id="Vector 531" d="M328 17.75V19.5" stroke="black" stroke-width="1.6" stroke-linecap="round"/>
<path id="Vector 532" d="M317.5 24H332.5" stroke="black" stroke-width="1.6" stroke-linecap="round"/>
</g>
<g id="More &#230;&#155;&#180;&#229;&#164;&#154;">
<circle id="Ellipse 2068" cx="359" cy="26" r="1.5" fill="black"/>
<circle id="Ellipse 2069" cx="365" cy="26" r="1.5" fill="black"/>
<circle id="Ellipse 2070" cx="371" cy="26" r="1.5" fill="black"/>
</g>
</g>
</g>
</g>
</svg>
