<svg preserveAspectRatio="none" width="100%" height="100%" overflow="visible" style="display: block;" viewBox="0 0 239.87 239.87" fill="none" xmlns="http://www.w3.org/2000/svg">
<path id="Ellipse 218" d="M7.90977 -5.0198e-06C3.4694 -5.40799e-06 -0.14429 3.60081 0.00443199 8.03868C0.968747 36.8139 7.10397 65.2039 18.1387 91.844C30.1998 120.962 47.8781 147.42 70.1641 169.706C92.4502 191.992 118.908 209.67 148.026 221.731C174.666 232.766 203.056 238.901 231.831 239.865C236.269 240.014 239.87 236.4 239.87 231.96V231.96C239.87 227.52 236.269 223.935 231.831 223.776C205.168 222.818 178.868 217.102 154.179 206.875C127.012 195.622 102.327 179.128 81.5344 158.335C60.7415 137.542 44.2477 112.858 32.9947 85.6905C22.7681 61.0013 17.0518 34.7014 16.0941 8.03836C15.9347 3.60086 12.3501 -4.63161e-06 7.90977 -5.0198e-06V-5.0198e-06Z" fill="var(--fill-0, #F0F0F0)"/>
</svg>
