<svg width="80" height="80" viewBox="0 0 80 80" fill="none" xmlns="http://www.w3.org/2000/svg">
<path d="M63.36 16.2039C67.3725 20.2164 70.2381 24.7044 71.5912 28.7633C72.9177 32.743 72.8986 36.7171 70.4311 39.1848L57.4677 52.1482C50.4929 59.123 39.8761 60.235 31.7391 55.4856L28.2995 58.9251L29.1834 59.809C31.6238 62.2498 31.6239 66.2072 29.1834 68.6479C26.7427 71.0885 22.7853 71.0883 20.3446 68.6479L19.7134 68.0167C18.374 66.6773 17.6212 64.8604 17.6211 62.9661L17.6204 61.9421H16.5984C14.7041 61.9421 12.8867 61.1899 11.5472 59.8505L10.9167 59.22C8.47596 56.7792 8.476 52.8219 10.9167 50.3812C13.3574 47.9406 17.3134 47.9407 19.7542 50.3812L20.638 51.265L24.0783 47.8248C19.3289 39.688 20.4405 29.0717 27.4149 22.0969L40.379 9.13281C42.8468 6.66529 46.821 6.64621 50.8006 7.97271C54.8595 9.32573 59.3474 12.1913 63.36 16.2039ZM29.6198 54.0693C28.8528 53.4875 28.1148 52.8487 27.4149 52.1489C26.7152 51.4491 26.0763 50.711 25.4946 49.9441L22.1116 53.327C21.2981 54.1405 19.9794 54.1405 19.1658 53.327L17.9871 52.1482C16.5227 50.6841 14.1482 50.684 12.6838 52.1482C11.2194 53.6127 11.22 55.9878 12.6845 57.4522L13.3149 58.0827C14.1856 58.9533 15.3672 59.4423 16.5984 59.4423H17.8704C19.1129 59.4423 20.1207 60.4503 20.1208 61.6928V62.9661C20.1209 64.1973 20.6106 65.3784 21.4812 66.2489L22.1123 66.8801C23.5768 68.3443 25.9513 68.3444 27.4156 66.8801C28.8798 65.4157 28.8798 63.0412 27.4156 61.5768L26.2369 60.398C25.4236 59.5845 25.4235 58.2658 26.2369 57.4522L29.6198 54.0693ZM29.1834 23.864C21.8611 31.1863 21.8618 43.0588 29.1841 50.3812C36.5064 57.7027 48.3771 57.7029 55.6992 50.3812L64.8585 41.2219C63.3148 41.2143 61.6627 40.896 60.0095 40.3449C55.9505 38.9919 51.4627 36.1264 47.4501 32.1138C43.4376 28.1012 40.572 23.6133 39.2189 19.5543C38.6678 17.9009 38.3501 16.2485 38.3426 14.7047L29.1834 23.864ZM61.5922 17.9716C57.7946 14.174 53.6284 11.5509 50.0099 10.3447C46.3123 9.11218 43.5843 9.46332 42.1468 10.9006C40.7094 12.338 40.3585 15.066 41.5909 18.7637C42.7971 22.3822 45.4203 26.5483 49.2179 30.346C53.0156 34.1437 57.1817 36.7667 60.8002 37.973C64.4981 39.2056 67.2258 38.8545 68.6633 37.4171C70.1006 35.9795 70.4517 33.2517 69.2192 29.554C68.0129 25.9355 65.3898 21.7692 61.5922 17.9716ZM58.6457 20.9182C60.3566 22.629 61.671 24.4946 62.3877 26.1669C62.7446 26.9996 62.9796 27.8462 63.0016 28.6369C63.0237 29.4311 62.8284 30.2891 62.182 30.9357C61.5352 31.5824 60.6768 31.7782 59.8825 31.7561C59.0918 31.734 58.2457 31.4983 57.4131 31.1415C55.7408 30.4248 53.8745 29.111 52.1637 27.4002C50.453 25.6894 49.1397 23.8237 48.4231 22.1514C48.0662 21.3188 47.8306 20.4728 47.8085 19.6821C47.7863 18.8877 47.9821 18.0294 48.6288 17.3826C49.2755 16.7361 50.1334 16.5408 50.9276 16.563C51.7184 16.585 52.5649 16.82 53.3977 17.1768C55.0699 17.8935 56.935 19.2075 58.6457 20.9182ZM56.878 22.6859C55.3346 21.1426 53.7263 20.0379 52.413 19.4749C51.7528 19.192 51.2275 19.0723 50.8579 19.062C50.4974 19.052 50.4031 19.1438 50.3966 19.1504C50.3925 19.1545 50.2973 19.2464 50.3075 19.6124C50.3178 19.9819 50.4382 20.5066 50.7212 21.1667C51.284 22.4801 52.3881 24.089 53.9315 25.6324C55.475 27.1759 57.0844 28.2805 58.3978 28.8434C59.0579 29.1263 59.5827 29.2467 59.9522 29.257C60.3179 29.2672 60.4101 29.172 60.4142 29.168C60.4207 29.1614 60.5125 29.067 60.5026 28.7067C60.4923 28.3371 60.3726 27.8118 60.0896 27.1516C59.5267 25.8381 58.4215 24.2294 56.878 22.6859Z" fill="#999999"/>
</svg>

