<svg width="393" height="48" viewBox="0 0 393 48" fill="none" xmlns="http://www.w3.org/2000/svg">
<rect width="393" height="48" fill="#F5F5F5"/>
<g id="Frame&#226;&#157;&#164;&#239;&#184;&#143;">
<rect width="393" height="852" transform="translate(0 -67)" fill="#F2F2F7"/>
<g id="Header">
<path id="Title" d="M167.699 28.062H173.921V30H165.166V29.099C165.166 27.552 165.608 25.563 168.362 24.322L169.552 23.71C170.912 23.047 171.49 22.418 171.49 21.364C171.49 20.276 170.776 19.562 169.501 19.562C168.192 19.562 167.41 20.225 167.41 21.772H165.2C165.166 19.239 166.628 17.624 169.569 17.624C172.187 17.624 173.802 19.137 173.802 21.194C173.802 23.115 172.731 24.271 170.606 25.325L169.484 25.92C168.345 26.532 167.784 27.025 167.699 28.062ZM179.773 30.289C176.56 30.289 174.928 27.977 174.928 23.948C174.928 19.919 176.56 17.607 179.773 17.607C183.003 17.607 184.635 19.919 184.635 23.948C184.635 27.977 183.02 30.289 179.773 30.289ZM179.773 28.351C181.371 28.351 182.238 27.042 182.238 23.948C182.238 20.854 181.354 19.545 179.773 19.545C178.209 19.545 177.325 20.854 177.325 23.948C177.325 27.042 178.209 28.351 179.773 28.351ZM188.152 28.062H194.374V30H185.619V29.099C185.619 27.552 186.061 25.563 188.815 24.322L190.005 23.71C191.365 23.047 191.943 22.418 191.943 21.364C191.943 20.276 191.229 19.562 189.954 19.562C188.645 19.562 187.863 20.225 187.863 21.772H185.653C185.619 19.239 187.081 17.624 190.022 17.624C192.64 17.624 194.255 19.137 194.255 21.194C194.255 23.115 193.184 24.271 191.059 25.325L189.937 25.92C188.798 26.532 188.237 27.025 188.152 28.062ZM200.549 22.044C203.252 22.044 204.663 23.931 204.663 26.073C204.663 28.589 202.827 30.272 200.175 30.272C199.036 30.272 198.033 29.949 197.302 29.405C195.857 28.317 195.381 26.413 195.381 24.118C195.381 20.021 197.03 17.624 200.209 17.624C202.521 17.624 204.153 18.848 204.51 20.99H202.368C202.147 19.919 201.365 19.392 200.226 19.392C198.509 19.392 197.625 20.616 197.523 23.557C198.169 22.605 199.257 22.044 200.549 22.044ZM200.175 28.419C201.535 28.419 202.436 27.45 202.436 26.107C202.436 24.781 201.535 23.795 200.175 23.795C198.815 23.795 197.88 24.747 197.88 26.107C197.88 27.467 198.815 28.419 200.175 28.419ZM208.139 30H205.64V27.569H208.139V30ZM213.773 30.289C210.56 30.289 208.928 27.977 208.928 23.948C208.928 19.919 210.56 17.607 213.773 17.607C217.003 17.607 218.635 19.919 218.635 23.948C218.635 27.977 217.02 30.289 213.773 30.289ZM213.773 28.351C215.371 28.351 216.238 27.042 216.238 23.948C216.238 20.854 215.354 19.545 213.773 19.545C212.209 19.545 211.325 20.854 211.325 23.948C211.325 27.042 212.209 28.351 213.773 28.351ZM226.943 23.54C228.133 24.033 229 25.053 229 26.532C229 28.742 227.266 30.272 224.461 30.272C221.282 30.272 219.718 28.589 219.718 25.988H221.945C221.979 27.603 222.829 28.334 224.393 28.334C225.787 28.334 226.62 27.603 226.62 26.447C226.62 25.189 225.753 24.492 224.308 24.492H223.407V22.809H224.291C225.668 22.809 226.416 22.248 226.416 21.126C226.416 20.106 225.651 19.494 224.376 19.494C223.118 19.494 222.285 20.021 222.217 21.415H219.99C220.058 19.035 221.554 17.624 224.393 17.624C226.96 17.624 228.643 18.865 228.643 20.939C228.643 22.129 227.946 23.047 226.943 23.54Z" fill="black"/>
<g id="Frame 16">
<g id="Cancel &#233;&#128;&#128;&#229;&#135;&#186;">
<path id="Union" fill-rule="evenodd" clip-rule="evenodd" d="M370.559 15.3085C370.872 14.9961 371.378 14.9961 371.69 15.3085C372.003 15.6209 372.003 16.1269 371.69 16.4394L366.131 21.9989L371.69 27.5585C372.003 27.8709 372.003 28.3769 371.69 28.6894C371.378 29.0018 370.872 29.0018 370.559 28.6894L365 23.1298L359.44 28.6894C359.128 29.0018 358.622 29.0018 358.309 28.6894C357.997 28.3769 357.997 27.8709 358.309 27.5585L363.869 21.9989L358.309 16.4394C357.997 16.1269 357.997 15.6209 358.309 15.3085C358.622 14.9961 359.128 14.9961 359.44 15.3085L365 20.8681L370.559 15.3085Z" fill="black"/>
</g>
</g>
</g>
</g>
</svg>
