<svg preserveAspectRatio="none" width="100%" height="100%" overflow="visible" style="display: block;" viewBox="0 0 448.923 225.738" fill="none" xmlns="http://www.w3.org/2000/svg">
<path id="Ellipse 219" d="M444.633 132.76C448.57 130.707 450.11 125.843 447.926 121.977C423.518 78.7584 386.269 44.1069 341.25 22.8943C293.803 0.537752 240.339 -5.6603 189.036 5.24832C137.733 16.1569 91.4154 43.5716 57.1695 83.2985C24.676 120.993 4.74764 167.802 0.0354956 217.212C-0.38606 221.632 2.99909 225.45 7.43104 225.723V225.723C11.863 225.996 15.6624 222.622 16.0946 218.203C20.5836 172.301 39.15 128.83 69.3489 93.7975C101.3 56.7323 144.514 31.1544 192.38 20.9767C240.246 10.7989 290.128 16.5817 334.396 37.4404C376.236 57.155 410.883 89.3111 433.659 129.416C435.852 133.277 440.696 134.813 444.633 132.76V132.76Z" fill="var(--fill-0, #F25757)"/>
</svg>
