<svg width="16" height="16" viewBox="0 0 16 16" fill="none" xmlns="http://www.w3.org/2000/svg">
<g id="Frame&#226;&#157;&#164;&#239;&#184;&#143;">
<g id="Frame">
<g id="Frame_2">
<g id="Carbs icon" clip-path="url(#clip0_0_1)">
<path id="Union" d="M4.36357 11.6315C4.50384 11.7721 4.50388 11.9991 4.36357 12.1397L2.84647 13.6568C2.70586 13.7971 2.47885 13.7971 2.33823 13.6568C2.19764 13.5162 2.19715 13.2886 2.33754 13.1479L3.85465 11.6308C3.99536 11.4904 4.22297 11.4909 4.36357 11.6315ZM4.53758 7.114C4.58087 7.14709 5.55336 8.03312 5.55336 9.16834C5.55325 10.3035 4.57832 11.187 4.53758 11.2227C4.40268 11.3471 4.19363 11.3468 4.05628 11.2248L3.98309 11.1516C3.74638 10.9149 3.04657 10.133 3.04396 9.16834C3.04649 8.20875 3.74637 7.42184 3.98309 7.18513C4.02372 7.1445 4.05465 7.11909 4.05973 7.114C4.19711 6.9921 4.40024 6.99208 4.53758 7.114ZM8.88035 11.4568C9.00231 11.5941 9.00482 11.7998 8.88035 11.9346C8.84471 11.9754 7.96124 12.9504 6.82601 12.9504C5.86142 12.9478 5.0795 12.248 4.8428 12.0113L4.7696 11.9381C4.64743 11.8006 4.64763 11.591 4.77237 11.4561C4.81261 11.4103 5.69404 10.4411 6.82601 10.441C7.96124 10.441 8.84471 11.416 8.88035 11.4568ZM6.81358 4.838C6.85432 4.87364 7.82654 5.75993 7.8266 6.8951C7.82658 8.03034 6.8541 8.91126 6.81082 8.94944C6.67592 9.07408 6.46971 9.07089 6.33228 8.94875C6.32643 8.94309 6.29857 8.92054 6.25632 8.87832C6.01964 8.64163 5.31943 7.8601 5.31927 6.89303C5.3218 5.93385 6.01863 5.14966 6.25563 4.91258C6.29579 4.87242 6.32658 4.84702 6.33228 4.84146C6.46966 4.71933 6.67614 4.71603 6.81358 4.838ZM11.1564 9.18077C11.2783 9.31822 11.2776 9.52726 11.1529 9.66207C11.1131 9.70739 10.2337 10.6751 9.10132 10.6751C8.61803 10.675 8.18298 10.4995 7.83696 10.296C7.49079 10.0923 7.23566 9.85766 7.11604 9.73803C7.07293 9.6949 7.04998 9.66645 7.04491 9.66138C6.9231 9.52399 6.92047 9.31832 7.04491 9.18353C7.0831 9.14025 7.96401 8.16777 9.09925 8.16776C10.2344 8.16779 11.1207 9.14004 11.1564 9.18077ZM9.08613 2.56546C9.12687 2.60109 10.1019 3.48457 10.1019 4.61979C10.1018 5.75217 9.13196 6.63379 9.08682 6.67344C8.95193 6.79818 8.7425 6.79816 8.60759 6.67344C8.6018 6.66783 8.57393 6.64528 8.53163 6.60301C8.29493 6.36631 7.59515 5.58438 7.59251 4.61979C7.59504 3.6602 8.29492 2.8733 8.53163 2.63658C8.5723 2.59592 8.60319 2.57055 8.60828 2.56546C8.74566 2.44349 8.95129 2.44099 9.08613 2.56546ZM13.4289 6.90822C13.5534 7.04307 13.5534 7.25124 13.4289 7.38607C13.3933 7.42679 12.5098 8.40185 11.3746 8.40185C10.8911 8.4018 10.4558 8.22676 10.1123 8.02067C9.7661 7.81703 9.51097 7.58235 9.39135 7.46272C9.34911 7.42046 9.32656 7.39261 9.32091 7.38676C9.19619 7.25185 9.19618 7.04243 9.32091 6.90753C9.36054 6.86241 10.2422 5.89258 11.3746 5.89245C12.5098 5.89245 13.3933 6.86749 13.4289 6.90822ZM13.4165 2.23745C13.5996 2.2478 13.7474 2.39543 13.7576 2.57858C13.7603 2.63603 13.8192 3.94636 13.0187 4.74685C12.2173 5.5482 10.9049 5.48832 10.8504 5.48572C10.759 5.48064 10.6753 5.44168 10.6143 5.38076C10.5533 5.31979 10.5145 5.23602 10.5093 5.1446C10.5068 5.09113 10.4458 3.77744 11.2475 2.97563C12.0493 2.17384 13.363 2.2349 13.4165 2.23745Z" fill="black"/>
</g>
</g>
</g>
</g>
<defs>
<clipPath id="clip0_0_1">
<rect width="16" height="16" fill="white"/>
</clipPath>
</defs>
</svg>
