<svg width="80" height="80" viewBox="0 0 80 80" fill="none" xmlns="http://www.w3.org/2000/svg">
<path d="M64.6318 17.9166H36.667C22.6298 17.9166 11.25 29.2964 11.25 43.3336C11.2502 57.3707 22.6299 68.7496 36.667 68.7496H56.8574C57.7122 68.7496 58.4053 68.0566 58.4053 67.2018V66.0768C58.4053 58.1179 51.9531 51.6656 43.9941 51.6656H34.541C30.4223 51.6656 27.083 48.3264 27.083 44.2076C27.083 40.0889 30.4223 36.7497 34.541 36.7496H46.5625C52.4169 36.7496 57.8591 33.7337 60.9619 28.7692L66.0947 20.5563C66.8129 19.4071 65.9869 17.9167 64.6318 17.9166Z" stroke="#999999" stroke-width="2.5"/>
<path d="M36.666 11.6666L58.3327 11.6666C62.4748 11.6666 65.8327 15.0245 65.8327 19.1666" stroke="#999999" stroke-width="2.5" stroke-linecap="round"/>
<path d="M39.9996 53.3334C40.6663 56.1667 40.833 63.3334 36.6664 67.5" stroke="#999999" stroke-width="2.5" stroke-linecap="round" stroke-linejoin="round"/>
<path d="M25.834 46.6667C22.5007 48.3334 15.0007 47.5 12.5007 43.3334" stroke="#999999" stroke-width="2.5" stroke-linecap="round" stroke-linejoin="round"/>
<path d="M36.666 19.1666C34.166 22.5 32.4993 28.3333 36.666 35.8333" stroke="#999999" stroke-width="2.5" stroke-linecap="round" stroke-linejoin="round"/>
<path d="M46.666 36.6666C49.166 38.3333 51.666 41.6666 51.666 45" stroke="#999999" stroke-width="2.5" stroke-linecap="round" stroke-linejoin="round"/>
<path d="M55 35C57.5 36.6667 60 40 60 43.3333" stroke="#999999" stroke-width="2.5" stroke-linecap="round" stroke-linejoin="round"/>
</svg>

