<svg width="361" height="48" viewBox="0 0 361 48" fill="none" xmlns="http://www.w3.org/2000/svg">
<rect width="361" height="48" fill="#F5F5F5"/>
<g id="Frame&#226;&#157;&#164;&#239;&#184;&#143;">
<rect width="393" height="1102" transform="translate(-16 -755)" fill="#F2F2F7"/>
<g id="Group 61">
<rect id="Rectangle 141" width="361" height="48" rx="24" fill="white"/>
<g id="Frame">
<g id="Add 2">
<circle id="Ellipse" cx="145" cy="24" r="5.4675" stroke="black" stroke-width="1.065"/>
<path id="Union" d="M145.532 23.4668H147.666V24.5312H145.532V26.665H144.468V24.5312H142.333V23.4668H144.468V21.332H145.532V23.4668Z" fill="black"/>
</g>
<path id="Title" d="M167.428 30H165.883L164.758 26.865H160.228L159.073 30H157.588L161.728 19.32H163.303L167.428 30ZM162.163 21.6L160.678 25.65H164.323L162.868 21.6L162.523 20.49L162.163 21.6ZM174.091 23.19V19.32H175.471V30H174.271V28.77C173.806 29.58 172.906 30.165 171.781 30.165C169.681 30.165 168.406 28.41 168.406 26.01C168.406 23.67 169.786 22.095 171.751 22.095C172.756 22.095 173.596 22.515 174.091 23.19ZM171.916 28.98C173.206 28.98 174.166 27.87 174.166 26.04C174.166 24.21 173.236 23.28 171.946 23.28C170.611 23.28 169.786 24.24 169.786 26.01C169.786 27.81 170.581 28.98 171.916 28.98ZM183.1 23.19V19.32H184.48V30H183.28V28.77C182.815 29.58 181.915 30.165 180.79 30.165C178.69 30.165 177.415 28.41 177.415 26.01C177.415 23.67 178.795 22.095 180.76 22.095C181.765 22.095 182.605 22.515 183.1 23.19ZM180.925 28.98C182.215 28.98 183.175 27.87 183.175 26.04C183.175 24.21 182.245 23.28 180.955 23.28C179.62 23.28 178.795 24.24 178.795 26.01C178.795 27.81 179.59 28.98 180.925 28.98ZM196.706 27.48L199.631 19.32H201.566V30H200.291V22.92L200.321 21L199.556 22.905L197.006 30H195.686L192.926 22.665L192.221 20.985L192.266 22.92V30H190.991V19.32H192.956L195.986 27.48L196.346 28.545L196.706 27.48ZM210.776 25.95V26.46H204.971C205.016 28.2 205.916 29.055 207.311 29.055C208.391 29.055 209.051 28.545 209.411 27.645L210.671 27.795C210.176 29.31 208.916 30.18 207.266 30.18C204.956 30.18 203.591 28.485 203.591 26.1C203.591 23.73 204.926 22.08 207.236 22.08C209.411 22.08 210.776 23.535 210.776 25.95ZM207.251 23.205C206.021 23.205 205.121 23.955 204.986 25.47H209.486C209.306 24 208.511 23.205 207.251 23.205ZM219.553 28.98H219.778V30H219.043C218.218 30 217.768 29.625 217.708 28.86C217.213 29.61 216.223 30.195 214.903 30.195C213.328 30.195 212.308 29.37 212.308 27.945C212.308 26.67 213.073 25.77 214.948 25.53L216.928 25.275C217.303 25.23 217.483 25.05 217.483 24.69V24.39C217.483 23.58 216.943 23.19 215.743 23.19C214.633 23.19 214.078 23.535 213.988 24.57H212.623C212.758 22.86 213.853 22.05 215.848 22.05C217.768 22.05 218.878 22.83 218.878 24.525V28.305C218.878 28.815 219.043 28.98 219.553 28.98ZM215.158 29.13C216.403 29.13 217.483 28.275 217.483 27.285V26.205L215.173 26.55C214.093 26.715 213.673 27.195 213.673 27.885C213.673 28.68 214.258 29.13 215.158 29.13ZM222.663 30H221.283V19.32H222.663V30Z" fill="black"/>
</g>
</g>
</g>
</svg>
