<svg preserveAspectRatio="none" width="100%" height="100%" overflow="visible" style="display: block;" viewBox="0 0 36 36" fill="none" xmlns="http://www.w3.org/2000/svg">
<g id="ic_ingredient">
<path id="Vector 549" d="M23.9961 7.8999H28.9988C30.1034 7.8999 30.9988 8.79531 30.9988 9.89986L30.9989 14.9999C30.999 16.1045 30.1035 16.9999 28.9989 16.9999H26.999" stroke="var(--stroke-0, #212121)" stroke-width="1.8"/>
<path id="Vector 550" d="M9 17.5C10 17.3333 11.5 16.5 15 16.5C18.5 16.5 22.5 18 27 17.5" stroke="var(--stroke-0, #212121)" stroke-width="1.8"/>
<path id="Vector 551" d="M6.13477 7.90039H27.0996V25C27.0996 26.7121 25.7121 28.0996 24 28.0996H12C10.2879 28.0996 8.90039 26.7121 8.90039 25V12.1621C8.90039 11.7176 8.74451 11.2868 8.45996 10.9453L6.05859 8.06445C6.03837 8.04019 6.03427 8.0237 6.0332 8.01367C6.03171 7.99962 6.03476 7.97979 6.04492 7.95801C6.05516 7.93614 6.06927 7.92095 6.08105 7.91309C6.08948 7.90753 6.1039 7.90043 6.13477 7.90039Z" stroke="var(--stroke-0, #212121)" stroke-width="1.8"/>
</g>
</svg>
