<svg preserveAspectRatio="none" width="100%" height="100%" overflow="visible" style="display: block;" viewBox="0 0 48 48" fill="none" xmlns="http://www.w3.org/2000/svg">
<g id="Frame 23">
<path id="Vector 648" d="M26 6C26 7.16667 25.5 8.5 24 10C22.4639 11.5361 22 12.32 22 14" stroke="var(--stroke-0, #212121)" stroke-width="2.5" stroke-linecap="square"/>
<path id="Vector 658" d="M34 6C34 7.16667 33.5 8.5 32 10C30.4639 11.5361 30 12.32 30 14" stroke="var(--stroke-0, #212121)" stroke-width="2.5" stroke-linecap="square"/>
<path id="Vector 659" d="M18 6C18 7.16667 17.5 8.5 16 10C14.4639 11.5361 14 12.32 14 14" stroke="var(--stroke-0, #212121)" stroke-width="2.5" stroke-linecap="square"/>
<path id="Rectangle 5186" d="M37.75 20.25V33C37.75 36.7279 34.7279 39.75 31 39.75H17C13.2721 39.75 10.25 36.7279 10.25 33V20.25H37.75Z" stroke="var(--stroke-0, #212121)" stroke-width="2.5"/>
<path id="Vector 657" d="M7.75 20.25H10.25V26.917L6.57324 24.9561C5.75867 24.5215 5.25 23.6732 5.25 22.75C5.25 21.3693 6.36929 20.25 7.75 20.25Z" stroke="var(--stroke-0, #212121)" stroke-width="2.5"/>
<path id="Vector 660" d="M40.25 20.25H37.75V26.917L41.4268 24.9561C42.2413 24.5215 42.75 23.6732 42.75 22.75C42.75 21.3693 41.6307 20.25 40.25 20.25Z" stroke="var(--stroke-0, #212121)" stroke-width="2.5"/>
</g>
</svg>
