<svg preserveAspectRatio="none" width="100%" height="100%" overflow="visible" style="display: block;" viewBox="0 0 147 151" fill="none" xmlns="http://www.w3.org/2000/svg">
<g id="png_scan">
<path id="Union" d="M27 0.25H120C134.775 0.25 146.75 12.1484 146.75 26.8223V150.75H139.25V26.8223C139.25 16.2583 130.63 7.69727 120 7.69727H111C109.205 7.69727 107.75 9.15239 107.75 10.9473V11.9209C107.75 16.1705 104.282 19.6182 100 19.6182H48C43.7182 19.6182 40.25 16.1705 40.25 11.9209V10.9473C40.2499 9.15239 38.7949 7.69727 37 7.69727H28C16.8179 7.69727 7.7502 16.7029 7.75 27.8154V150.75H0.25V26.8223C0.250055 12.3776 11.8536 0.622576 26.3096 0.258789L27 0.25Z" fill="url(#paint0_linear_0_70)" fill-opacity="0.8" stroke="url(#paint1_linear_0_70)" stroke-width="0.5"/>
<g id="Group 816">
<path id="Vector" d="M76.1357 90.0921C76.1357 87.1454 76.1578 84.1987 76.1136 81.2299C76.1136 80.4766 76.3124 80.2107 77.1076 80.2107C80.2002 80.255 83.2928 80.255 86.3854 80.2107C87.2469 80.1886 87.4236 80.4987 87.4236 81.2963C87.3794 83.7335 87.4236 86.1706 87.4015 88.6077C87.3794 89.3388 87.6445 89.5826 88.3514 89.5382C89.6768 89.4939 91.0022 89.4718 92.3276 89.5382C93.1449 89.5826 93.41 89.3167 93.3879 88.4748C93.3437 86.082 93.4321 83.667 93.3437 81.2742C93.2995 80.2107 93.8076 80.1221 94.6028 80.1886C95.2876 80.2329 96.0608 79.9227 96.0387 81.2077C95.9724 84.5311 95.9945 87.8544 96.0387 91.1778C96.0387 91.9532 95.8178 92.1969 95.0446 92.1969C91.952 92.1526 88.8595 92.1526 85.7669 92.1969C84.9054 92.2191 84.7286 91.8867 84.7286 91.1113C84.7728 88.7185 84.7066 86.3257 84.7728 83.9107C84.7949 83.0688 84.5077 82.8251 83.6904 82.8694C82.4092 82.9359 81.1059 82.9359 79.8247 82.8694C79.0074 82.8251 78.7644 83.0909 78.7644 83.9329C78.8085 88.9179 78.7865 93.9029 78.7644 98.8658C78.7644 99.2867 79.0074 99.9071 78.5214 100.062C77.8366 100.284 77.0414 100.262 76.3566 100.062C76.0031 99.9514 76.1357 99.4861 76.1357 99.1538C76.1357 96.1406 76.1357 93.1275 76.1357 90.0921Z" fill="var(--fill-0, #F2F2F2)"/>
<path id="Vector_2" d="M35.0711 65.6172C60.0106 65.6172 84.9722 65.6172 109.912 65.6172C110.133 66.6585 109.912 75.9687 109.912 75.9687C85.7896 75.9244 59.1921 75.9244 35.07 75.9687C35.07 75.9687 34.8502 66.6363 35.0711 65.6172Z" fill="url(#paint2_linear_0_70)"/>
<path id="Vector_3" d="M109.828 75.7167C109.917 76.1845 109.871 76.4543 109.718 76.6142C109.636 76.6998 109.514 76.764 109.341 76.8065C109.167 76.8492 108.947 76.869 108.674 76.869C84.5522 76.8247 60.4082 76.8237 36.2864 76.8681C35.7457 76.8569 35.4268 76.773 35.262 76.5985C35.1111 76.4387 35.0652 76.1732 35.1536 75.7167H109.828Z" fill="var(--fill-0, #ED6319)" stroke="var(--stroke-0, white)" stroke-width="0.2"/>
<path id="Vector_4" d="M35.2988 48.1797L35.2979 48.168C35.1036 46.0902 35.5141 43.8169 37.2002 41.9326L37.2012 41.9336C38.6644 40.315 40.436 39.3767 42.6113 39.3125C43.3231 39.2905 44.0351 39.3021 44.7559 39.3076C45.4741 39.3132 46.1995 39.3134 46.9268 39.2686L46.9258 39.2676C47.1158 39.2576 47.2272 39.2795 47.291 39.3057C47.3459 39.3282 47.369 39.3551 47.3848 39.3877C47.4051 39.4298 47.4195 39.4952 47.4229 39.5996C47.4262 39.7049 47.419 39.8187 47.4131 39.96C47.4069 40.103 47.4209 40.2606 47.4268 40.375C47.4333 40.5034 47.4306 40.5918 47.4131 40.6562C47.3992 40.7072 47.3789 40.7344 47.3369 40.7568C47.2818 40.7863 47.1685 40.8175 46.9473 40.8076C46.0115 40.7573 45.064 40.757 44.1182 40.7695L43.1738 40.7852C41.3257 40.8195 39.7482 41.4839 38.624 42.6201C37.5 43.7562 36.8438 45.349 36.8096 47.2119C36.793 48.1581 36.7766 49.0962 36.7881 50.042L36.8096 50.9912V50.9951C36.8195 51.1952 36.7918 51.2985 36.7656 51.3486C36.7456 51.3869 36.7212 51.4053 36.6768 51.4189C36.6203 51.4362 36.54 51.4412 36.4229 51.4365C36.3246 51.4326 36.1676 51.4199 36.043 51.4199C35.9197 51.4199 35.7668 51.435 35.666 51.4404C35.5477 51.4468 35.4648 51.4427 35.4053 51.4258C35.3576 51.4122 35.3334 51.3936 35.3145 51.3574C35.2892 51.3091 35.2617 51.2066 35.2764 51.0029C35.3437 50.1919 35.2988 49.3472 35.2988 48.1914V48.1797Z" fill="var(--fill-0, #ED6319)" stroke="var(--stroke-0, white)" stroke-width="0.5"/>
<path id="Vector_5" d="M108.174 47.5293C108.162 45.4734 107.527 43.7934 106.353 42.624C105.178 41.4547 103.491 40.8229 101.431 40.8115H101.43C100.436 40.8115 99.4352 40.7781 98.4248 40.8145L97.9912 40.834C97.7944 40.8437 97.6936 40.8155 97.6445 40.7891C97.606 40.7682 97.5858 40.7415 97.5713 40.6934C97.5536 40.6343 97.5481 40.5525 97.5527 40.4365C97.5566 40.34 97.5703 40.1838 97.5703 40.0645C97.5703 39.9409 97.5552 39.7879 97.5498 39.6865C97.5435 39.5678 97.5465 39.4839 97.5635 39.4238C97.5772 39.3754 97.5969 39.3509 97.6328 39.332C97.6809 39.3069 97.7835 39.28 97.9873 39.2949H97.9922C98.8174 39.3396 99.6582 39.2959 100.811 39.2959H100.822L100.834 39.2939C102.776 39.1114 104.889 39.4621 106.693 40.9004L107.05 41.2031C108.663 42.6705 109.598 44.4477 109.662 46.6299V46.6309C109.684 47.3447 109.673 48.0585 109.667 48.7812C109.661 49.5015 109.661 50.2288 109.706 50.958C109.716 51.1736 109.687 51.2875 109.657 51.3457C109.634 51.392 109.605 51.4149 109.555 51.4307C109.492 51.4504 109.405 51.4558 109.278 51.4531C109.166 51.4507 109.006 51.4403 108.863 51.4463H108.862C108.724 51.4523 108.613 51.4615 108.505 51.46C108.398 51.4584 108.328 51.4463 108.28 51.4258C108.242 51.4093 108.214 51.3855 108.191 51.335C108.165 51.2755 108.142 51.168 108.151 50.9795C108.218 49.8401 108.174 48.6701 108.174 47.5312V47.5293Z" fill="var(--fill-0, #ED6319)" stroke="var(--stroke-0, white)" stroke-width="0.5"/>
<path id="Vector_6" d="M36.1328 101.729C36.4811 101.697 36.6234 101.744 36.6865 101.802C36.7451 101.855 36.8095 101.987 36.7881 102.353H36.7871V102.354C36.7203 103.583 36.7426 104.81 36.7646 106.027C36.8334 109.684 39.4377 112.296 43.085 112.365C44.3374 112.387 45.5893 112.432 46.8623 112.343L46.8613 112.342C47.232 112.322 47.3091 112.418 47.3359 112.467C47.3584 112.508 47.3763 112.571 47.3818 112.671C47.3873 112.77 47.3801 112.886 47.3691 113.023C47.356 113.168 47.3694 113.328 47.376 113.447C47.3834 113.581 47.383 113.676 47.3662 113.747C47.3526 113.805 47.3332 113.829 47.2988 113.848C47.2496 113.874 47.1391 113.903 46.9111 113.883L46.9043 113.882C46.5281 113.859 46.143 113.865 45.7607 113.876C45.3752 113.887 44.9958 113.903 44.6143 113.903H44.6045L44.5947 113.904C42.0924 114.101 39.7865 113.705 37.8906 111.975H37.8896C36.2987 110.53 35.3842 108.774 35.2988 106.633C35.277 105.92 35.2884 105.206 35.2939 104.484C35.2995 103.764 35.2996 103.037 35.2549 102.308L35.2539 102.306C35.2387 102.077 35.2667 101.952 35.2979 101.887C35.3232 101.834 35.3562 101.807 35.4102 101.788C35.477 101.764 35.5684 101.754 35.7021 101.75C35.821 101.746 35.9812 101.746 36.1318 101.729L36.1328 101.729Z" fill="var(--fill-0, #ED6319)" stroke="var(--stroke-0, white)" stroke-width="0.5"/>
<path id="Vector_7" d="M109.423 101.712C109.522 101.716 109.583 101.732 109.621 101.752C109.664 101.775 109.758 101.846 109.748 102.223C109.681 104.16 109.793 106.024 109.53 107.891H109.529V107.894C109.373 109.104 108.568 110.457 107.461 111.565C106.354 112.673 104.986 113.494 103.753 113.683L103.751 113.684C102.558 113.879 101.382 113.901 100.19 113.901C99.8919 113.901 99.6139 113.885 99.3027 113.879C99.0775 113.875 98.8473 113.877 98.6162 113.898L98.3896 113.926C97.9276 113.989 97.7601 113.899 97.6855 113.805C97.6414 113.749 97.6045 113.662 97.583 113.526C97.5615 113.39 97.5577 113.22 97.5684 113.012V113.008C97.5796 112.668 97.6223 112.536 97.6787 112.474C97.7255 112.422 97.8348 112.363 98.1797 112.363C98.5893 112.363 99.0002 112.375 99.4141 112.389C99.8268 112.402 100.244 112.417 100.66 112.421C101.493 112.429 102.336 112.397 103.178 112.226L103.18 112.225C106.118 111.603 108.056 109.336 108.193 106.319V106.316C108.238 104.963 108.26 103.581 108.193 102.197C108.183 101.975 108.216 101.864 108.245 101.812C108.267 101.772 108.295 101.751 108.351 101.737C108.42 101.72 108.512 101.718 108.645 101.724C108.764 101.729 108.922 101.739 109.069 101.727C109.209 101.715 109.324 101.708 109.423 101.712Z" fill="var(--fill-0, #ED6319)" stroke="var(--stroke-0, white)" stroke-width="0.5"/>
<path id="Vector_8" d="M90.4279 97.5136C91.8638 97.5136 93.2996 97.5801 94.7134 97.4914C95.8179 97.425 96.1713 97.8238 96.0167 98.8651C95.9725 99.0866 95.9946 99.3082 96.0167 99.5298C96.0388 99.995 95.8179 100.172 95.354 100.172C92.0405 100.172 88.7491 100.172 85.4356 100.172C84.9054 100.172 84.7287 99.9286 84.7508 99.419C84.7729 99.0423 84.7729 98.6878 84.7508 98.3112C84.7066 97.6687 84.9717 97.4693 85.5902 97.4914C87.2028 97.5357 88.8154 97.5136 90.4279 97.5136Z" fill="var(--fill-0, #F2F2F2)"/>
<g id="Group">
<path id="Vector_9" d="M48.9669 90.1588C48.9669 87.2121 48.989 84.2654 48.9448 81.2966C48.9227 80.4768 49.1436 80.2109 49.9831 80.2109C55.9473 80.2552 61.8895 80.2331 67.8538 80.2109C68.649 80.2109 68.8478 80.4768 68.8478 81.2301C68.8257 87.2121 68.8257 93.172 68.8478 99.154C68.8478 99.9073 68.649 100.173 67.8538 100.173C61.8895 100.151 55.9473 100.151 49.9831 100.173C49.1436 100.173 48.9227 99.9073 48.9448 99.0876C48.989 96.1409 48.9669 93.1499 48.9669 90.1588ZM51.6177 90.1588C51.6177 92.3079 51.6398 94.4349 51.5956 96.584C51.5735 97.293 51.7723 97.5588 52.5234 97.5588C56.7868 97.5367 61.0501 97.5367 65.3135 97.5588C65.9982 97.5588 66.1971 97.3151 66.1971 96.6505C66.175 92.3744 66.175 88.0984 66.1971 83.8223C66.1971 83.1798 66.0203 82.9139 65.3355 82.9139C61.0722 82.9361 56.8088 82.9361 52.5455 82.9139C51.8165 82.9139 51.5956 83.1576 51.6177 83.8666C51.6398 85.9493 51.6177 88.0541 51.6177 90.1588Z" fill="var(--fill-0, #F2F2F2)"/>
<path id="Vector_10" d="M60.8941 90.1948C60.8941 92.211 60.8941 92.211 58.8398 92.211C56.6087 92.1888 56.9401 92.5212 56.918 90.3056C56.8959 88.2451 56.918 88.2451 59.0165 88.2451C60.8941 88.2008 60.8941 88.2008 60.8941 90.1948Z" fill="var(--fill-0, #F2F2F2)"/>
</g>
<g id="Group_2">
<path id="Vector_11" d="M48.9669 62.4635C48.9669 59.5168 48.989 56.5701 48.9448 53.6013C48.9227 52.7815 49.1436 52.5156 49.9831 52.5156C55.9473 52.5599 61.8895 52.5378 67.8538 52.5156C68.649 52.5156 68.8478 52.7815 68.8478 53.5348C68.8257 59.5168 68.8257 65.4767 68.8478 71.4587C68.8478 72.212 68.649 72.4779 67.8538 72.4779C61.8895 72.4557 55.9473 72.4557 49.9831 72.4779C49.1436 72.4779 48.9227 72.212 48.9448 71.3923C48.989 68.4234 48.9669 65.4324 48.9669 62.4635ZM51.6177 62.4414C51.6177 64.5905 51.6398 66.7174 51.5956 68.8665C51.5735 69.5755 51.7723 69.8414 52.5234 69.8414C56.7868 69.8192 61.0501 69.8192 65.3135 69.8414C65.9982 69.8414 66.1971 69.5976 66.1971 68.933C66.175 64.6569 66.175 60.3809 66.1971 56.1048C66.1971 55.4623 66.0203 55.1965 65.3355 55.1965C61.0722 55.2186 56.8088 55.2186 52.5455 55.1965C51.8165 55.1965 51.5956 55.4402 51.6177 56.1492C51.6398 58.2539 51.6177 60.3587 51.6177 62.4414Z" fill="var(--fill-0, #F2F2F2)"/>
<path id="Vector_12" d="M60.8941 62.485C60.8941 64.5012 60.8941 64.5012 58.8398 64.5012C56.6087 64.479 56.9401 64.8113 56.918 62.5958C56.8959 60.5353 56.918 60.5353 59.0165 60.5353C60.8941 60.5131 60.8941 60.5131 60.8941 62.485Z" fill="var(--fill-0, #F2F2F2)"/>
</g>
<g id="Group_3">
<path id="Vector_13" d="M76.2032 62.4635C76.2032 59.5168 76.2253 56.5701 76.1812 53.6013C76.1591 52.7815 76.38 52.5156 77.2194 52.5156C83.1837 52.5599 89.1258 52.5378 95.0901 52.5156C95.8854 52.5156 96.0842 52.7815 96.0842 53.5348C96.0621 59.5168 96.0621 65.4767 96.0842 71.4587C96.0842 72.212 95.8854 72.4779 95.0901 72.4779C89.1258 72.4557 83.1837 72.4557 77.2194 72.4779C76.38 72.4779 76.1591 72.212 76.1812 71.3923C76.2253 68.4234 76.2032 65.4324 76.2032 62.4635ZM78.854 62.4414C78.854 64.5905 78.8761 66.7174 78.8319 68.8665C78.8099 69.5755 79.0087 69.8414 79.7597 69.8414C84.0231 69.8192 88.2864 69.8192 92.5498 69.8414C93.2346 69.8414 93.4334 69.5976 93.4334 68.933C93.4113 64.6569 93.4113 60.3809 93.4334 56.1048C93.4334 55.4623 93.2567 55.1965 92.5719 55.1965C88.3085 55.2186 84.0452 55.2186 79.7818 55.1965C79.0528 55.1965 78.8319 55.4402 78.854 56.1492C78.8761 58.2539 78.854 60.3587 78.854 62.4414Z" fill="var(--fill-0, #F2F2F2)"/>
<path id="Vector_14" d="M88.1305 62.485C88.1305 64.5012 88.1305 64.5012 86.0761 64.5012C83.845 64.479 84.1764 64.8113 84.1543 62.5958C84.1322 60.5353 84.1543 60.5353 86.2528 60.5353C88.1305 60.5131 88.1305 60.5131 88.1305 62.485Z" fill="var(--fill-0, #F2F2F2)"/>
</g>
</g>
</g>
<defs>
<linearGradient id="paint0_linear_0_70" x1="73" y1="111.76" x2="73.4934" y2="151" gradientUnits="userSpaceOnUse">
<stop stop-color="#F3F3F3"/>
<stop offset="1" stop-color="#F3F3F3" stop-opacity="0"/>
</linearGradient>
<linearGradient id="paint1_linear_0_70" x1="73.5" y1="29.3059" x2="73.5" y2="151" gradientUnits="userSpaceOnUse">
<stop stop-color="#EBEBEB" stop-opacity="0.69"/>
<stop offset="1" stop-color="#EBEBEB" stop-opacity="0"/>
</linearGradient>
<linearGradient id="paint2_linear_0_70" x1="72.4913" y1="65.6172" x2="72.4913" y2="75.9687" gradientUnits="userSpaceOnUse">
<stop stop-color="#ED6319" stop-opacity="0"/>
<stop offset="1" stop-color="#ED6319" stop-opacity="0.11"/>
</linearGradient>
</defs>
</svg>
