<svg preserveAspectRatio="none" width="100%" height="100%" overflow="visible" style="display: block;" viewBox="0 0 87 32" fill="none" xmlns="http://www.w3.org/2000/svg">
<g id="&#229;&#190;&#174;&#228;&#191;&#161;&#229;&#176;&#143;&#231;&#168;&#139;&#229;&#186;&#143;&#230;&#140;&#137;&#233;&#146;&#174;">
<rect id="Rectangle" width="87" height="32" rx="16" fill="var(--fill-0, white)" fill-opacity="0.5"/>
<path id="close" d="M65.5 7C70.4706 7 74.5 11.0294 74.5 16C74.5 20.9706 70.4706 25 65.5 25C60.5294 25 56.5 20.9706 56.5 16C56.5 11.0294 60.5294 7 65.5 7ZM65.5 9C61.634 9 58.5 12.134 58.5 16C58.5 19.866 61.634 23 65.5 23C69.366 23 72.5 19.866 72.5 16C72.5 12.134 69.366 9 65.5 9ZM65.5 12.5C67.433 12.5 69 14.067 69 16C69 17.933 67.433 19.5 65.5 19.5C63.567 19.5 62 17.933 62 16C62 14.067 63.567 12.5 65.5 12.5Z" fill="var(--fill-0, #333333)"/>
<rect id="Rectangle_2" x="43" y="6" width="0.5" height="20" fill="var(--fill-0, #AFAFAF)"/>
<path id="more" d="M23 12.5C24.933 12.5 26.5 14.067 26.5 16C26.5 17.933 24.933 19.5 23 19.5C21.067 19.5 19.5 17.933 19.5 16C19.5 14.067 21.067 12.5 23 12.5ZM15.5 14C16.6046 14 17.5 14.8954 17.5 16C17.5 17.1046 16.6046 18 15.5 18C14.3954 18 13.5 17.1046 13.5 16C13.5 14.8954 14.3954 14 15.5 14ZM30.5 14C31.6046 14 32.5 14.8954 32.5 16C32.5 17.1046 31.6046 18 30.5 18C29.3954 18 28.5 17.1046 28.5 16C28.5 14.8954 29.3954 14 30.5 14Z" fill="var(--fill-0, #333333)"/>
</g>
</svg>
