<svg preserveAspectRatio="none" width="100%" height="100%" overflow="visible" style="display: block;" viewBox="0 0 36 36" fill="none" xmlns="http://www.w3.org/2000/svg">
<g id="ic_timer">
<path id="Union" d="M18 6C25.4558 6 31.5 12.0442 31.5 19.5C31.5 26.9558 25.4558 33 18 33C10.5442 33 4.5 26.9558 4.5 19.5C4.5 12.0442 10.5442 6 18 6ZM18 8C11.6487 8 6.5 13.1487 6.5 19.5C6.5 25.8513 11.6487 31 18 31C24.3513 31 29.5 25.8513 29.5 19.5C29.5 13.1487 24.3513 8 18 8ZM21.793 14.293C22.1835 13.9024 22.8165 13.9024 23.207 14.293C23.5976 14.6835 23.5976 15.3165 23.207 15.707L18.707 20.207C18.3165 20.5976 17.6835 20.5976 17.293 20.207C16.9024 19.8165 16.9024 19.1835 17.293 18.793L21.793 14.293ZM21 2C21.5523 2 22 2.44772 22 3C22 3.55228 21.5523 4 21 4H15C14.4477 4 14 3.55228 14 3C14 2.44772 14.4477 2 15 2H21Z" fill="var(--fill-0, #999999)"/>
</g>
</svg>
