<svg width="88" height="88" viewBox="0 0 88 88" fill="none" xmlns="http://www.w3.org/2000/svg">
  <rect x="18" y="16" width="52" height="56" rx="8" fill="#F3F5F6" stroke="#CFD7DD" stroke-width="1.4"/>
  <path d="M44 14C50 14 55 19 55 25V63C55 69 50 74 44 74C38 74 33 69 33 63V25C33 19 38 14 44 14Z" fill="#EDF1F4" stroke="#C9D2D9" stroke-width="1.3"/>
  <rect x="36" y="30" width="16" height="28" rx="8" fill="#DDE4E9"/>
  <path d="M40 39H48M40 47H48" stroke="#9A9A9A" stroke-width="1.4" stroke-linecap="round"/>
  <path d="M39 17C41 16 47 16 49 17M39 71C41 72 47 72 49 71" stroke="#FFFFFF" stroke-width="1.8" stroke-linecap="round"/>
</svg>
