<svg width="26" height="26" viewBox="0 0 26 26" fill="none" xmlns="http://www.w3.org/2000/svg">
<rect width="26" height="26" fill="#F5F5F5"/>
<g id="&#228;&#184;&#128;&#231;&#186;&#167;&#233;&#161;&#181;&#233;&#157;&#162;">
<rect width="9006" height="4626" transform="translate(-2541 -535)" fill="#535353"/>
<g id="&#230;&#156;&#141;&#229;&#138;&#161;_20251023">
<rect width="375" height="1317" transform="translate(-210 -237)" fill="white"/>
<g id="Group 221">
<g id="icon_26*26_after service">
<g id="Group 222">
<path id="Vector" d="M10.9422 5.45092L8.72002 3.2287C8.31094 2.8196 7.64762 2.8196 7.23855 3.2287L4.27557 6.19167C3.86648 6.60074 3.86648 7.26406 4.27557 7.67313L6.49781 9.89539" stroke="black" stroke-width="0.966984" stroke-linecap="round" stroke-linejoin="round"/>
<path id="Vector_2" d="M15.5859 20.0304L17.8082 22.2526C18.2173 22.6617 18.8805 22.6617 19.2897 22.2526L22.2526 19.2897C22.6617 18.8805 22.6617 18.2173 22.2526 17.8082L20.0304 15.5859" stroke="black" stroke-width="0.966984" stroke-linecap="round" stroke-linejoin="round"/>
<path id="Vector_3" d="M22.2623 6.7037L19.2993 3.74074C18.8902 3.33164 18.227 3.33164 17.8179 3.74074L3.74378 17.8148C3.33468 18.2239 3.33468 18.8872 3.74378 19.2963L6.70674 22.2593C7.11584 22.6684 7.77912 22.6684 8.18822 22.2593L22.2623 8.18519C22.6714 7.77609 22.6714 7.1128 22.2623 6.7037Z" stroke="black" stroke-width="0.966984" stroke-linecap="round" stroke-linejoin="round"/>
<path id="Vector_4" d="M13.6432 13.4036C14.0437 13.4036 14.3684 13.0789 14.3684 12.6784C14.3684 12.2778 14.0437 11.9531 13.6432 11.9531C13.2427 11.9531 12.918 12.2778 12.918 12.6784C12.918 13.0789 13.2427 13.4036 13.6432 13.4036Z" fill="black"/>
<path id="Vector_5" d="M11.5495 15.4974C11.95 15.4974 12.2747 15.1727 12.2747 14.7721C12.2747 14.3716 11.95 14.0469 11.5495 14.0469C11.1489 14.0469 10.8242 14.3716 10.8242 14.7721C10.8242 15.1727 11.1489 15.4974 11.5495 15.4974Z" fill="black"/>
<path id="Vector_6" d="M15.7448 11.3099C16.1453 11.3099 16.47 10.9852 16.47 10.5846C16.47 10.1841 16.1453 9.85938 15.7448 9.85938C15.3442 9.85938 15.0195 10.1841 15.0195 10.5846C15.0195 10.9852 15.3442 11.3099 15.7448 11.3099Z" fill="black"/>
</g>
</g>
</g>
</g>
</g>
</svg>
