<svg xmlns="http://www.w3.org/2000/svg" width="1420" height="980" viewBox="0 0 1420 980">
  <defs>
    <style>
      .bg{fill:#e7ebf0}.shell{fill:#111;filter:url(#shadow)}.screen{fill:#f9f9f9}
      .white{fill:#fff}.pale{fill:#f9f9f9}.line{stroke:#f0f0f0;stroke-width:1}
      .ink{fill:#000;font-family:"Noto Sans SC","PingFang SC","Microsoft YaHei",Arial,sans-serif}
      .gray{fill:#666;font-family:"Noto Sans SC","PingFang SC","Microsoft YaHei",Arial,sans-serif}
      .muted{fill:#999;font-family:"Noto Sans SC","PingFang SC","Microsoft YaHei",Arial,sans-serif}
      .orange{fill:#ed6319}.whiteText{fill:#fff;font-family:"Noto Sans SC","PingFang SC","Microsoft YaHei",Arial,sans-serif}
      .h0{font-size:26px;font-weight:600}.h1{font-size:20px;font-weight:500}.h2{font-size:18px;font-weight:500}
      .h3{font-size:16px;font-weight:500}.body{font-size:14px;font-weight:400}.small{font-size:12px;font-weight:300}.mini{font-size:10px;font-weight:300}
      .stroke{stroke:#000;stroke-width:1.2;fill:none;stroke-linecap:round;stroke-linejoin:round}
      .strokeG{stroke:#999;stroke-width:1.1;fill:none;stroke-linecap:round;stroke-linejoin:round}
      .strokeO{stroke:#ed6319;stroke-width:1.2;fill:none;stroke-linecap:round;stroke-linejoin:round}
    </style>
    <filter id="shadow" x="-20%" y="-10%" width="140%" height="130%">
      <feDropShadow dx="0" dy="22" stdDeviation="24" flood-color="#1d2632" flood-opacity=".18"/>
    </filter>
    <linearGradient id="device" x1="0" y1="0" x2="1" y2="1">
      <stop offset="0" stop-color="#fff"/><stop offset=".55" stop-color="#edf1f4"/><stop offset="1" stop-color="#cfd7de"/>
    </linearGradient>
    <linearGradient id="serviceTopFade" x1="0" y1="0" x2="0" y2="1">
      <stop offset="0" stop-color="#e9eef4"/><stop offset="1" stop-color="#f9f9f9"/>
    </linearGradient>
  </defs>

  <rect class="bg" width="1420" height="980"/>
  <text class="ink h0" x="60" y="58">重新按母版做的首页方向</text>
  <text class="gray body" x="60" y="86">这版不再另起风格，每个方案都明确从今天还原的页面里借结构、图像或组件。</text>

  <!-- A: Service page transplant -->
  <g transform="translate(70 132)">
    <text class="ink h3" x="0" y="-30">A 服务页直系</text>
    <text class="gray small" x="0" y="-9">参考：服务页 1:2078 的顶部产品氛围 + 两张服务大卡 + Care+ 横卡 + 更多功能列表</text>
    <rect class="shell" x="-8" y="-8" width="391" height="828" rx="34"/>
    <rect class="screen" width="375" height="812" rx="28"/>
    <clipPath id="clipA"><rect width="375" height="812" rx="28"/></clipPath>
    <g clip-path="url(#clipA)">
      <rect class="screen" width="375" height="812"/>
      <image href="assets/service-banner-reference.png" x="0" y="0" width="375" height="200" preserveAspectRatio="xMidYMid slice"/>
      <text class="whiteText small" x="22" y="31" font-weight="600">9:41</text>
      <rect x="280" y="50" width="74" height="32" rx="16" fill="#fff" opacity=".25"/>
      <text class="whiteText h1" x="22" y="132">售后与支持</text>

      <g transform="translate(20 222)">
        <rect class="pale" width="160" height="168" rx="6"/>
        <image href="assets/service-icon-product.svg" x="20" y="20" width="26" height="26"/>
        <text class="ink h3" x="20" y="68">产品注册</text>
        <text class="muted small" x="20" y="94">注册产品，享产品延保服务</text>
        <line class="line" x1="20" y1="120" x2="144" y2="120"/>
        <text class="gray small" x="20" y="148">查看全部产品</text>
        <path d="M132 140l5 5-5 5" class="strokeG"/>
      </g>
      <g transform="translate(195 222)">
        <rect class="pale" width="160" height="168" rx="6"/>
        <image href="assets/service-icon-after.svg" x="20" y="20" width="26" height="26"/>
        <text class="ink h3" x="20" y="68">售后服务申请</text>
        <text class="muted small" x="20" y="94">产品售后保障，工程师检修</text>
        <line class="line" x1="20" y1="120" x2="144" y2="120"/>
        <text class="gray small" x="20" y="148">查看服务进度</text>
        <path d="M132 140l5 5-5 5" class="strokeG"/>
      </g>

      <g transform="translate(20 404)">
        <rect class="white" width="335" height="80" rx="6"/>
        <path d="M26 20v18c0 16 20 20 20 20s20-4 20-20V20l-20-8z" class="stroke"/>
        <path d="M39 37h14M46 30v14" class="stroke"/>
        <text class="ink body" x="70" y="35">Care+服务</text>
        <text class="muted small" x="70" y="58">为您带来，全方位保障</text>
        <rect x="238" y="22" width="76" height="36" rx="18" fill="#fff" stroke="#dbdbdb"/>
        <text class="gray small" x="254" y="45">购买记录</text>
      </g>

      <text class="ink h2" x="20" y="536">更多功能</text>
      <g transform="translate(20 562)">
        <text class="ink body" x="0" y="20">申请开票</text><path d="M318 10a10 10 0 1 1-1 0M315 7l4 4-4 4" class="stroke"/>
        <line class="line" x1="0" y1="42" x2="335" y2="42"/>
        <text class="ink body" x="0" y="74">产品知识</text><path d="M318 64a10 10 0 1 1-1 0M315 61l4 4-4 4" class="stroke"/>
        <line class="line" x1="0" y1="96" x2="335" y2="96"/>
        <text class="ink body" x="0" y="128">VIP专属客服</text><path d="M318 118a10 10 0 1 1-1 0M315 115l4 4-4 4" class="stroke"/>
      </g>
      <g transform="translate(0 724)">
        <rect class="white" width="375" height="88"/><line class="line" x1="0" y1="0" x2="375" y2="0"/>
        <text class="ink mini" x="63" y="66">首页</text><text class="muted mini" x="166" y="66">会员中心</text><text class="muted mini" x="302" y="66">我的</text>
        <path d="M61 36V25l12-9 12 9v11c0 2-1 3-3 3H64c-2 0-3-1-3-3z" class="stroke"/>
        <circle cx="188" cy="27" r="10" class="strokeG"/><circle cx="312" cy="24" r="5" class="strokeG"/><path d="M302 40c1-7 19-7 20 0" class="strokeG"/>
        <rect x="121" y="78" width="134" height="5" rx="3" fill="#000"/>
      </g>
    </g>
  </g>

  <!-- B: My V5 transplant -->
  <g transform="translate(522 132)">
    <text class="ink h3" x="0" y="-30">B 我的页直系</text>
    <text class="gray small" x="0" y="-9">参考：我的 V5 1:1847 的浅渐变顶部 + 深色会员卡 + 四入口横排</text>
    <rect class="shell" x="-8" y="-8" width="391" height="828" rx="34"/>
    <rect class="screen" width="375" height="812" rx="28"/>
    <clipPath id="clipB"><rect width="375" height="812" rx="28"/></clipPath>
    <g clip-path="url(#clipB)">
      <rect class="screen" width="375" height="812"/>
      <image href="assets/v5-top-bg-reference.png" x="0" y="0" width="375" height="300" preserveAspectRatio="xMidYMin slice"/>
      <text class="ink small" x="22" y="31" font-weight="600">9:41</text>
      <rect x="280" y="50" width="74" height="32" rx="16" fill="#fff" opacity=".55"/>
      <text class="ink h1" x="26" y="134">Hi，欢迎回来</text>
      <text class="gray body" x="26" y="164">一起照顾好你的产品</text>
      <g transform="translate(20 202)">
        <image href="assets/v5-member-card-reference.png" width="335" height="184" preserveAspectRatio="xMidYMid slice"/>
        <text class="whiteText h2" x="22" y="42">我的产品</text>
        <text class="whiteText small" x="22" y="72" opacity=".78">1 台产品可申请售后服务</text>
        <text class="whiteText" x="22" y="124" font-size="28" font-weight="500" font-family="Noto Sans SC, PingFang SC, Microsoft YaHei, Arial">净水器 X1</text>
        <text class="whiteText small" x="22" y="152" opacity=".7">质保至 2027-10-23</text>
        <rect x="246" y="20" width="72" height="30" rx="15" fill="#fff" opacity=".18" stroke="rgba(255,255,255,.5)"/>
        <text class="whiteText small" x="262" y="39">查看全部</text>
      </g>
      <text class="ink h2" x="20" y="436">我的服务</text>
      <g transform="translate(20 464)">
        <rect class="white" width="335" height="78" rx="6"/>
        <g transform="translate(27 18)"><path d="M4 0h18v22H4zM9 6h8M9 12h8" class="strokeO"/><text class="ink mini" x="-3" y="46">售后申请</text></g>
        <g transform="translate(110 18)"><path d="M2 4h22v18H2zM6 4l7 7 7-7" class="stroke"/><text class="ink mini" x="-3" y="46">服务进度</text></g>
        <g transform="translate(195 18)"><path d="M4 0h18v22H4zM8 6h10M8 12h8" class="stroke"/><text class="ink mini" x="-3" y="46">申请开票</text></g>
        <g transform="translate(280 18)"><path d="M5 2h16v20H5zM9 8h8M9 14h8" class="stroke"/><text class="ink mini" x="-3" y="46">产品知识</text></g>
      </g>
      <text class="ink h2" x="20" y="594">服务记录</text>
      <g transform="translate(20 620)">
        <rect class="white" width="335" height="78" rx="6"/>
        <text class="ink body" x="18" y="31">暂无进行中的售后单</text>
        <text class="muted small" x="18" y="56">有问题时可以从售后申请开始</text>
        <path d="M318 32a10 10 0 1 1-1 0M315 29l4 4-4 4" class="stroke"/>
      </g>
      <g transform="translate(0 724)">
        <rect class="white" width="375" height="88"/><line class="line" x1="0" y1="0" x2="375" y2="0"/>
        <text class="ink mini" x="63" y="66">首页</text><text class="muted mini" x="166" y="66">会员中心</text><text class="muted mini" x="302" y="66">我的</text>
        <path d="M61 36V25l12-9 12 9v11c0 2-1 3-3 3H64c-2 0-3-1-3-3z" class="stroke"/>
        <circle cx="188" cy="27" r="10" class="strokeG"/><circle cx="312" cy="24" r="5" class="strokeG"/><path d="M302 40c1-7 19-7 20 0" class="strokeG"/>
        <rect x="121" y="78" width="134" height="5" rx="3" fill="#000"/>
      </g>
    </g>
  </g>

  <!-- C: Order/service process transplant -->
  <g transform="translate(974 132)">
    <text class="ink h3" x="0" y="-30">C 订单页直系</text>
    <text class="gray small" x="0" y="-9">参考：订单详情/订单列表的状态卡、商品卡、黑色主按钮，偏业务办理</text>
    <rect class="shell" x="-8" y="-8" width="391" height="828" rx="34"/>
    <rect class="screen" width="375" height="812" rx="28"/>
    <clipPath id="clipC"><rect width="375" height="812" rx="28"/></clipPath>
    <g clip-path="url(#clipC)">
      <rect class="screen" width="375" height="812"/>
      <rect width="375" height="88" fill="#fff"/>
      <text class="ink small" x="50" y="31" font-weight="600">9:41</text>
      <text class="ink h2" x="164" y="72">首页</text>
      <rect x="0" y="88" width="375" height="1" fill="#f0f0f0"/>
      <g transform="translate(28 116)">
        <rect class="white" width="319" height="132" rx="6"/>
        <text class="ink h2" x="20" y="38">售后服务</text>
        <text class="gray small" x="20" y="64">遇到产品问题，可提交申请并跟进进度</text>
        <rect x="20" y="86" width="130" height="32" rx="16" fill="#000"/>
        <text class="whiteText small" x="50" y="107">立即申请</text>
        <rect x="165" y="86" width="130" height="32" rx="16" fill="#fff" stroke="#dbdbdb"/>
        <text class="ink small" x="197" y="107">服务进度</text>
      </g>
      <g transform="translate(28 280)">
        <rect class="white" width="319" height="178" rx="6"/>
        <text class="ink body" x="20" y="32">我的产品</text>
        <g transform="translate(20 58)">
          <rect class="pale" width="96" height="96" rx="6"/>
          <rect x="34" y="18" width="28" height="56" rx="12" fill="url(#device)" stroke="#cfd7dd"/>
        </g>
        <text class="ink body" x="134" y="83">净水器 X1</text>
        <text class="gray small" x="134" y="111">SN：A1B2C3D4</text>
        <text class="ink body" x="134" y="140">质保至 2027-10-23</text>
        <rect x="232" y="20" width="68" height="28" rx="14" fill="#fff" stroke="#dbdbdb"/>
        <text class="gray small" x="246" y="39">查看全部</text>
      </g>
      <g transform="translate(28 490)">
        <rect class="white" width="319" height="180" rx="6"/>
        <text class="ink body" x="20" y="32">自助服务</text>
        <line class="line" x1="20" y1="54" x2="299" y2="54"/>
        <text class="ink body" x="20" y="84">申请开票</text><path d="M286 74l5 5-5 5" class="strokeG"/>
        <line class="line" x1="20" y1="104" x2="299" y2="104"/>
        <text class="ink body" x="20" y="134">产品知识</text><path d="M286 124l5 5-5 5" class="strokeG"/>
        <line class="line" x1="20" y1="154" x2="299" y2="154"/>
      </g>
      <g transform="translate(0 724)">
        <rect class="white" width="375" height="88"/><line class="line" x1="0" y1="0" x2="375" y2="0"/>
        <text class="ink mini" x="63" y="66">首页</text><text class="muted mini" x="166" y="66">会员中心</text><text class="muted mini" x="302" y="66">我的</text>
        <path d="M61 36V25l12-9 12 9v11c0 2-1 3-3 3H64c-2 0-3-1-3-3z" class="stroke"/>
        <circle cx="188" cy="27" r="10" class="strokeG"/><circle cx="312" cy="24" r="5" class="strokeG"/><path d="M302 40c1-7 19-7 20 0" class="strokeG"/>
        <rect x="121" y="78" width="134" height="5" rx="3" fill="#000"/>
      </g>
    </g>
  </g>
</svg>
